<?xml version="1.0" encoding="utf-8" standalone="no"?>
<!DOCTYPE svg PUBLIC "-//W3C//DTD SVG 1.1//EN"
  "http://www.w3.org/Graphics/SVG/1.1/DTD/svg11.dtd">
<svg xmlns:xlink="http://www.w3.org/1999/xlink" width="720pt" height="720pt" viewBox="0 0 720 720" xmlns="http://www.w3.org/2000/svg" version="1.1">
 <metadata>
  <rdf:RDF xmlns:dc="http://purl.org/dc/elements/1.1/" xmlns:cc="http://creativecommons.org/ns#" xmlns:rdf="http://www.w3.org/1999/02/22-rdf-syntax-ns#">
   <cc:Work>
    <dc:type rdf:resource="http://purl.org/dc/dcmitype/StillImage"/>
    <dc:date>2024-11-11T21:54:34.484902</dc:date>
    <dc:format>image/svg+xml</dc:format>
    <dc:creator>
     <cc:Agent>
      <dc:title>Matplotlib v3.9.2, https://matplotlib.org/</dc:title>
     </cc:Agent>
    </dc:creator>
   </cc:Work>
  </rdf:RDF>
 </metadata>
 <defs>
  <style type="text/css">*{stroke-linejoin: round; stroke-linecap: butt}</style>
 </defs>
 <g id="figure_1">
  <g id="patch_1">
   <path d="M 0 720 
L 720 720 
L 720 0 
L 0 0 
L 0 720 
z
" style="fill: none"/>
  </g>
  <g id="axes_1">
   <g id="LineCollection_1">
    <path d="M 500.365447 262.549656 
L 496.690889 198.244892 
" clip-path="url(#p625c9c1f60)" style="fill: none; stroke: #008000"/>
    <path d="M 500.365447 262.549656 
L 485.667215 284.597004 
" clip-path="url(#p625c9c1f60)" style="fill: none; stroke: #008000"/>
    <path d="M 500.365447 262.549656 
L 562.832933 290.108841 
" clip-path="url(#p625c9c1f60)" style="fill: none; stroke: #008000"/>
    <path d="M 496.690889 198.244892 
L 470.968984 179.872102 
" clip-path="url(#p625c9c1f60)" style="fill: none; stroke: #0000ff; stroke-width: 2.25"/>
    <path d="M 496.690889 198.244892 
L 562.832933 290.108841 
" clip-path="url(#p625c9c1f60)" style="fill: none; stroke: #0000ff; stroke-width: 2.25"/>
    <path d="M 432.386125 225.804076 
L 470.968984 179.872102 
" clip-path="url(#p625c9c1f60)" style="fill: none; stroke: #008000"/>
    <path d="M 432.386125 225.804076 
L 414.013335 271.736051 
" clip-path="url(#p625c9c1f60)" style="fill: none; stroke: #008000"/>
    <path d="M 432.386125 225.804076 
L 366.244082 223.966797 
" clip-path="url(#p625c9c1f60)" style="fill: none; stroke: #008000"/>
    <path d="M 470.968984 179.872102 
L 366.244082 223.966797 
" clip-path="url(#p625c9c1f60)" style="fill: none; stroke: #0000ff; stroke-width: 2.25"/>
    <path d="M 414.013335 271.736051 
L 401.152382 290.108841 
" clip-path="url(#p625c9c1f60)" style="fill: none; stroke: #008000"/>
    <path d="M 414.013335 271.736051 
L 485.667215 284.597004 
" clip-path="url(#p625c9c1f60)" style="fill: none; stroke: #008000"/>
    <path d="M 366.244082 223.966797 
L 347.871292 279.085167 
" clip-path="url(#p625c9c1f60)" style="fill: none; stroke: #008000"/>
    <path d="M 366.244082 223.966797 
L 289.078364 227.641355 
" clip-path="url(#p625c9c1f60)" style="fill: none; stroke: #0000ff; stroke-width: 2.25"/>
    <path d="M 347.871292 279.085167 
L 289.078364 257.037819 
" clip-path="url(#p625c9c1f60)" style="fill: none; stroke: #008000"/>
    <path d="M 347.871292 279.085167 
L 323.986665 315.830746 
" clip-path="url(#p625c9c1f60)" style="fill: none; stroke: #008000"/>
    <path d="M 347.871292 279.085167 
L 401.152382 290.108841 
" clip-path="url(#p625c9c1f60)" style="fill: none; stroke: #008000"/>
    <path d="M 401.152382 290.108841 
L 406.664219 319.505304 
" clip-path="url(#p625c9c1f60)" style="fill: none; stroke: #008000"/>
    <path d="M 485.667215 284.597004 
L 474.643542 313.993467 
" clip-path="url(#p625c9c1f60)" style="fill: none; stroke: #008000"/>
    <path d="M 289.078364 257.037819 
L 289.078364 227.641355 
" clip-path="url(#p625c9c1f60)" style="fill: none; stroke: #008000"/>
    <path d="M 289.078364 257.037819 
L 298.264759 315.830746 
" clip-path="url(#p625c9c1f60)" style="fill: none; stroke: #008000"/>
    <path d="M 289.078364 257.037819 
L 237.634553 268.061493 
" clip-path="url(#p625c9c1f60)" style="fill: none; stroke: #008000"/>
    <path d="M 323.986665 315.830746 
L 298.264759 315.830746 
" clip-path="url(#p625c9c1f60)" style="fill: none; stroke: #0000ff; stroke-width: 2.25"/>
    <path d="M 323.986665 315.830746 
L 331.335781 347.064489 
" clip-path="url(#p625c9c1f60)" style="fill: none; stroke: #0000ff; stroke-width: 2.25"/>
    <path d="M 289.078364 227.641355 
L 213.749926 231.315913 
" clip-path="url(#p625c9c1f60)" style="fill: none; stroke: #0000ff; stroke-width: 2.25"/>
    <path d="M 298.264759 315.830746 
L 228.448158 328.691699 
" clip-path="url(#p625c9c1f60)" style="fill: none; stroke: #0000ff; stroke-width: 2.25"/>
    <path d="M 237.634553 268.061493 
L 213.749926 231.315913 
" clip-path="url(#p625c9c1f60)" style="fill: none; stroke: #008000"/>
    <path d="M 237.634553 268.061493 
L 228.448158 328.691699 
" clip-path="url(#p625c9c1f60)" style="fill: none; stroke: #008000"/>
    <path d="M 237.634553 268.061493 
L 138.421488 284.597004 
" clip-path="url(#p625c9c1f60)" style="fill: none; stroke: #008000"/>
    <path d="M 213.749926 231.315913 
L 138.421488 284.597004 
" clip-path="url(#p625c9c1f60)" style="fill: none; stroke: #0000ff; stroke-width: 2.25"/>
    <path d="M 228.448158 328.691699 
L 246.820948 407.694696 
" clip-path="url(#p625c9c1f60)" style="fill: none; stroke: #008000"/>
    <path d="M 228.448158 328.691699 
L 140.258767 328.691699 
" clip-path="url(#p625c9c1f60)" style="fill: none; stroke: #008000"/>
    <path d="M 138.421488 284.597004 
L 140.258767 328.691699 
" clip-path="url(#p625c9c1f60)" style="fill: none; stroke: #0000ff; stroke-width: 2.25"/>
    <path d="M 246.820948 407.694696 
L 300.102038 402.182859 
" clip-path="url(#p625c9c1f60)" style="fill: none; stroke: #ff0000; stroke-width: 2.25"/>
    <path d="M 246.820948 407.694696 
L 239.471832 446.277554 
" clip-path="url(#p625c9c1f60)" style="fill: none; stroke: #ff0000; stroke-width: 2.25"/>
    <path d="M 246.820948 407.694696 
L 158.631556 416.881091 
" clip-path="url(#p625c9c1f60)" style="fill: none; stroke: #008000"/>
    <path d="M 140.258767 328.691699 
L 158.631556 416.881091 
" clip-path="url(#p625c9c1f60)" style="fill: none; stroke: #0000ff; stroke-width: 2.25"/>
    <path d="M 562.832933 290.108841 
L 524.250074 367.274558 
" clip-path="url(#p625c9c1f60)" style="fill: none; stroke: #008000"/>
    <path d="M 562.832933 290.108841 
L 599.578512 374.623674 
" clip-path="url(#p625c9c1f60)" style="fill: none; stroke: #0000ff; stroke-width: 2.25"/>
    <path d="M 474.643542 313.993467 
L 430.548846 321.342583 
" clip-path="url(#p625c9c1f60)" style="fill: none; stroke: #008000"/>
    <path d="M 474.643542 313.993467 
L 481.992657 356.250884 
" clip-path="url(#p625c9c1f60)" style="fill: none; stroke: #008000"/>
    <path d="M 524.250074 367.274558 
L 481.992657 356.250884 
" clip-path="url(#p625c9c1f60)" style="fill: none; stroke: #008000"/>
    <path d="M 524.250074 367.274558 
L 515.063679 391.159185 
" clip-path="url(#p625c9c1f60)" style="fill: none; stroke: #008000"/>
    <path d="M 524.250074 367.274558 
L 599.578512 374.623674 
" clip-path="url(#p625c9c1f60)" style="fill: none; stroke: #008000"/>
    <path d="M 406.664219 319.505304 
L 430.548846 321.342583 
" clip-path="url(#p625c9c1f60)" style="fill: none; stroke: #0000ff; stroke-width: 2.25"/>
    <path d="M 406.664219 319.505304 
L 331.335781 347.064489 
" clip-path="url(#p625c9c1f60)" style="fill: none; stroke: #0000ff; stroke-width: 2.25"/>
    <path d="M 331.335781 347.064489 
L 338.684897 396.671022 
" clip-path="url(#p625c9c1f60)" style="fill: none; stroke: #008000"/>
    <path d="M 481.992657 356.250884 
L 456.270752 359.925442 
" clip-path="url(#p625c9c1f60)" style="fill: none; stroke: #008000"/>
    <path d="M 515.063679 391.159185 
L 544.460143 449.952112 
" clip-path="url(#p625c9c1f60)" style="fill: none; stroke: #008000"/>
    <path d="M 515.063679 391.159185 
L 461.782589 396.671022 
" clip-path="url(#p625c9c1f60)" style="fill: none; stroke: #008000"/>
    <path d="M 599.578512 374.623674 
L 588.554838 442.602996 
" clip-path="url(#p625c9c1f60)" style="fill: none; stroke: #0000ff; stroke-width: 2.25"/>
    <path d="M 430.548846 321.342583 
L 428.711567 370.949116 
" clip-path="url(#p625c9c1f60)" style="fill: none; stroke: #0000ff; stroke-width: 2.25"/>
    <path d="M 338.684897 396.671022 
L 408.501498 389.321906 
" clip-path="url(#p625c9c1f60)" style="fill: none; stroke: #ff0000; stroke-width: 2.25"/>
    <path d="M 338.684897 396.671022 
L 320.312107 415.043812 
" clip-path="url(#p625c9c1f60)" style="fill: none; stroke: #ff0000; stroke-width: 2.25"/>
    <path d="M 428.711567 370.949116 
L 456.270752 359.925442 
" clip-path="url(#p625c9c1f60)" style="fill: none; stroke: #0000ff; stroke-width: 2.25"/>
    <path d="M 428.711567 370.949116 
L 408.501498 389.321906 
" clip-path="url(#p625c9c1f60)" style="fill: none; stroke: #008000"/>
    <path d="M 456.270752 359.925442 
L 461.782589 396.671022 
" clip-path="url(#p625c9c1f60)" style="fill: none; stroke: #0000ff; stroke-width: 2.25"/>
    <path d="M 408.501498 389.321906 
L 432.386125 427.904764 
" clip-path="url(#p625c9c1f60)" style="fill: none; stroke: #ff0000; stroke-width: 2.25"/>
    <path d="M 300.102038 402.182859 
L 320.312107 415.043812 
" clip-path="url(#p625c9c1f60)" style="fill: none; stroke: #ff0000; stroke-width: 2.25"/>
    <path d="M 300.102038 402.182859 
L 281.729248 453.62667 
" clip-path="url(#p625c9c1f60)" style="fill: none; stroke: #ff0000; stroke-width: 2.25"/>
    <path d="M 239.471832 446.277554 
L 257.844622 459.138507 
" clip-path="url(#p625c9c1f60)" style="fill: none; stroke: #ff0000; stroke-width: 2.25"/>
    <path d="M 239.471832 446.277554 
L 184.353462 462.813065 
" clip-path="url(#p625c9c1f60)" style="fill: none; stroke: #ff0000; stroke-width: 2.25"/>
    <path d="M 158.631556 416.881091 
L 158.631556 466.487623 
" clip-path="url(#p625c9c1f60)" style="fill: none; stroke: #0000ff; stroke-width: 2.25"/>
    <path d="M 320.312107 415.043812 
L 340.522176 460.975786 
" clip-path="url(#p625c9c1f60)" style="fill: none; stroke: #ff0000; stroke-width: 2.25"/>
    <path d="M 544.460143 449.952112 
L 588.554838 442.602996 
" clip-path="url(#p625c9c1f60)" style="fill: none; stroke: #008000"/>
    <path d="M 544.460143 449.952112 
L 489.341773 488.534971 
" clip-path="url(#p625c9c1f60)" style="fill: none; stroke: #008000"/>
    <path d="M 461.782589 396.671022 
L 432.386125 427.904764 
" clip-path="url(#p625c9c1f60)" style="fill: none; stroke: #0000ff; stroke-width: 2.25"/>
    <path d="M 432.386125 427.904764 
L 432.386125 451.789391 
" clip-path="url(#p625c9c1f60)" style="fill: none; stroke: #ff0000; stroke-width: 2.25"/>
    <path d="M 588.554838 442.602996 
L 526.087353 539.978782 
" clip-path="url(#p625c9c1f60)" style="fill: none; stroke: #0000ff; stroke-width: 2.25"/>
    <path d="M 432.386125 451.789391 
L 340.522176 460.975786 
" clip-path="url(#p625c9c1f60)" style="fill: none; stroke: #ff0000; stroke-width: 2.25"/>
    <path d="M 432.386125 451.789391 
L 436.060683 494.046808 
" clip-path="url(#p625c9c1f60)" style="fill: none; stroke: #008000"/>
    <path d="M 340.522176 460.975786 
L 318.474828 471.99946 
" clip-path="url(#p625c9c1f60)" style="fill: none; stroke: #ff0000; stroke-width: 2.25"/>
    <path d="M 489.341773 488.534971 
L 526.087353 539.978782 
" clip-path="url(#p625c9c1f60)" style="fill: none; stroke: #008000"/>
    <path d="M 489.341773 488.534971 
L 436.060683 494.046808 
" clip-path="url(#p625c9c1f60)" style="fill: none; stroke: #008000"/>
    <path d="M 281.729248 453.62667 
L 257.844622 459.138507 
" clip-path="url(#p625c9c1f60)" style="fill: none; stroke: #ff0000; stroke-width: 2.25"/>
    <path d="M 281.729248 453.62667 
L 318.474828 471.99946 
" clip-path="url(#p625c9c1f60)" style="fill: none; stroke: #ff0000; stroke-width: 2.25"/>
    <path d="M 318.474828 471.99946 
L 309.288433 503.233203 
" clip-path="url(#p625c9c1f60)" style="fill: none; stroke: #ff0000; stroke-width: 2.25"/>
    <path d="M 257.844622 459.138507 
L 250.495506 492.209529 
" clip-path="url(#p625c9c1f60)" style="fill: none; stroke: #ff0000; stroke-width: 2.25"/>
    <path d="M 184.353462 462.813065 
L 158.631556 466.487623 
" clip-path="url(#p625c9c1f60)" style="fill: none; stroke: #008000"/>
    <path d="M 184.353462 462.813065 
L 200.888973 492.209529 
" clip-path="url(#p625c9c1f60)" style="fill: none; stroke: #ff0000; stroke-width: 2.25"/>
    <path d="M 158.631556 466.487623 
L 189.865299 514.256877 
" clip-path="url(#p625c9c1f60)" style="fill: none; stroke: #0000ff; stroke-width: 2.25"/>
    <path d="M 436.060683 494.046808 
L 425.037009 543.65334 
" clip-path="url(#p625c9c1f60)" style="fill: none; stroke: #008000"/>
    <path d="M 526.087353 539.978782 
L 425.037009 543.65334 
" clip-path="url(#p625c9c1f60)" style="fill: none; stroke: #0000ff; stroke-width: 2.25"/>
    <path d="M 250.495506 492.209529 
L 200.888973 492.209529 
" clip-path="url(#p625c9c1f60)" style="fill: none; stroke: #ff0000; stroke-width: 2.25"/>
    <path d="M 250.495506 492.209529 
L 272.542853 506.907761 
" clip-path="url(#p625c9c1f60)" style="fill: none; stroke: #ff0000; stroke-width: 2.25"/>
    <path d="M 309.288433 503.233203 
L 272.542853 506.907761 
" clip-path="url(#p625c9c1f60)" style="fill: none; stroke: #ff0000; stroke-width: 2.25"/>
    <path d="M 309.288433 503.233203 
L 327.661223 543.65334 
" clip-path="url(#p625c9c1f60)" style="fill: none; stroke: #008000"/>
    <path d="M 200.888973 492.209529 
L 189.865299 514.256877 
" clip-path="url(#p625c9c1f60)" style="fill: none; stroke: #008000"/>
    <path d="M 272.542853 506.907761 
L 274.380132 547.327898 
" clip-path="url(#p625c9c1f60)" style="fill: none; stroke: #008000"/>
    <path d="M 425.037009 543.65334 
L 327.661223 543.65334 
" clip-path="url(#p625c9c1f60)" style="fill: none; stroke: #0000ff; stroke-width: 2.25"/>
    <path d="M 189.865299 514.256877 
L 274.380132 547.327898 
" clip-path="url(#p625c9c1f60)" style="fill: none; stroke: #0000ff; stroke-width: 2.25"/>
    <path d="M 327.661223 543.65334 
L 274.380132 547.327898 
" clip-path="url(#p625c9c1f60)" style="fill: none; stroke: #0000ff; stroke-width: 2.25"/>
   </g>
   <g id="PathCollection_1">
    <path d="M 500.365447 263.141264 
C 500.522344 263.141264 500.672835 263.078928 500.783777 262.967986 
C 500.89472 262.857044 500.957055 262.706552 500.957055 262.549656 
C 500.957055 262.39276 500.89472 262.242268 500.783777 262.131326 
C 500.672835 262.020383 500.522344 261.958048 500.365447 261.958048 
C 500.208551 261.958048 500.05806 262.020383 499.947117 262.131326 
C 499.836175 262.242268 499.773839 262.39276 499.773839 262.549656 
C 499.773839 262.706552 499.836175 262.857044 499.947117 262.967986 
C 500.05806 263.078928 500.208551 263.141264 500.365447 263.141264 
z
" clip-path="url(#p625c9c1f60)" style="fill: #1f78b4; stroke: #1f78b4"/>
    <path d="M 496.690889 198.836499 
C 496.847786 198.836499 496.998277 198.774164 497.109219 198.663222 
C 497.220162 198.552279 497.282497 198.401788 497.282497 198.244892 
C 497.282497 198.087995 497.220162 197.937504 497.109219 197.826561 
C 496.998277 197.715619 496.847786 197.653284 496.690889 197.653284 
C 496.533993 197.653284 496.383502 197.715619 496.272559 197.826561 
C 496.161617 197.937504 496.099281 198.087995 496.099281 198.244892 
C 496.099281 198.401788 496.161617 198.552279 496.272559 198.663222 
C 496.383502 198.774164 496.533993 198.836499 496.690889 198.836499 
z
" clip-path="url(#p625c9c1f60)" style="fill: #1f78b4; stroke: #1f78b4"/>
    <path d="M 432.386125 226.395684 
C 432.543021 226.395684 432.693513 226.333349 432.804455 226.222406 
C 432.915397 226.111464 432.977733 225.960973 432.977733 225.804076 
C 432.977733 225.64718 432.915397 225.496689 432.804455 225.385746 
C 432.693513 225.274804 432.543021 225.212468 432.386125 225.212468 
C 432.229229 225.212468 432.078737 225.274804 431.967795 225.385746 
C 431.856852 225.496689 431.794517 225.64718 431.794517 225.804076 
C 431.794517 225.960973 431.856852 226.111464 431.967795 226.222406 
C 432.078737 226.333349 432.229229 226.395684 432.386125 226.395684 
z
" clip-path="url(#p625c9c1f60)" style="fill: #1f78b4; stroke: #1f78b4"/>
    <path d="M 470.968984 180.46371 
C 471.12588 180.46371 471.276371 180.401374 471.387314 180.290432 
C 471.498256 180.179489 471.560592 180.028998 471.560592 179.872102 
C 471.560592 179.715205 471.498256 179.564714 471.387314 179.453772 
C 471.276371 179.342829 471.12588 179.280494 470.968984 179.280494 
C 470.812087 179.280494 470.661596 179.342829 470.550654 179.453772 
C 470.439711 179.564714 470.377376 179.715205 470.377376 179.872102 
C 470.377376 180.028998 470.439711 180.179489 470.550654 180.290432 
C 470.661596 180.401374 470.812087 180.46371 470.968984 180.46371 
z
" clip-path="url(#p625c9c1f60)" style="fill: #1f78b4; stroke: #1f78b4"/>
    <path d="M 414.013335 272.327659 
C 414.170231 272.327659 414.320723 272.265323 414.431665 272.154381 
C 414.542608 272.043438 414.604943 271.892947 414.604943 271.736051 
C 414.604943 271.579155 414.542608 271.428663 414.431665 271.317721 
C 414.320723 271.206778 414.170231 271.144443 414.013335 271.144443 
C 413.856439 271.144443 413.705947 271.206778 413.595005 271.317721 
C 413.484063 271.428663 413.421727 271.579155 413.421727 271.736051 
C 413.421727 271.892947 413.484063 272.043438 413.595005 272.154381 
C 413.705947 272.265323 413.856439 272.327659 414.013335 272.327659 
z
" clip-path="url(#p625c9c1f60)" style="fill: #1f78b4; stroke: #1f78b4"/>
    <path d="M 366.244082 224.558405 
C 366.400978 224.558405 366.551469 224.49607 366.662412 224.385127 
C 366.773354 224.274185 366.83569 224.123694 366.83569 223.966797 
C 366.83569 223.809901 366.773354 223.65941 366.662412 223.548467 
C 366.551469 223.437525 366.400978 223.375189 366.244082 223.375189 
C 366.087185 223.375189 365.936694 223.437525 365.825752 223.548467 
C 365.714809 223.65941 365.652474 223.809901 365.652474 223.966797 
C 365.652474 224.123694 365.714809 224.274185 365.825752 224.385127 
C 365.936694 224.49607 366.087185 224.558405 366.244082 224.558405 
z
" clip-path="url(#p625c9c1f60)" style="fill: #1f78b4; stroke: #1f78b4"/>
    <path d="M 347.871292 279.676775 
C 348.028188 279.676775 348.178679 279.614439 348.289622 279.503497 
C 348.400564 279.392554 348.4629 279.242063 348.4629 279.085167 
C 348.4629 278.928271 348.400564 278.777779 348.289622 278.666837 
C 348.178679 278.555894 348.028188 278.493559 347.871292 278.493559 
C 347.714395 278.493559 347.563904 278.555894 347.452962 278.666837 
C 347.342019 278.777779 347.279684 278.928271 347.279684 279.085167 
C 347.279684 279.242063 347.342019 279.392554 347.452962 279.503497 
C 347.563904 279.614439 347.714395 279.676775 347.871292 279.676775 
z
" clip-path="url(#p625c9c1f60)" style="fill: #1f78b4; stroke: #1f78b4"/>
    <path d="M 401.152382 290.700449 
C 401.309278 290.700449 401.45977 290.638113 401.570712 290.527171 
C 401.681655 290.416228 401.74399 290.265737 401.74399 290.108841 
C 401.74399 289.951944 401.681655 289.801453 401.570712 289.690511 
C 401.45977 289.579568 401.309278 289.517233 401.152382 289.517233 
C 400.995486 289.517233 400.844995 289.579568 400.734052 289.690511 
C 400.62311 289.801453 400.560774 289.951944 400.560774 290.108841 
C 400.560774 290.265737 400.62311 290.416228 400.734052 290.527171 
C 400.844995 290.638113 400.995486 290.700449 401.152382 290.700449 
z
" clip-path="url(#p625c9c1f60)" style="fill: #1f78b4; stroke: #1f78b4"/>
    <path d="M 485.667215 285.188612 
C 485.824112 285.188612 485.974603 285.126276 486.085545 285.015334 
C 486.196488 284.904391 486.258823 284.7539 486.258823 284.597004 
C 486.258823 284.440107 486.196488 284.289616 486.085545 284.178674 
C 485.974603 284.067731 485.824112 284.005396 485.667215 284.005396 
C 485.510319 284.005396 485.359828 284.067731 485.248885 284.178674 
C 485.137943 284.289616 485.075607 284.440107 485.075607 284.597004 
C 485.075607 284.7539 485.137943 284.904391 485.248885 285.015334 
C 485.359828 285.126276 485.510319 285.188612 485.667215 285.188612 
z
" clip-path="url(#p625c9c1f60)" style="fill: #1f78b4; stroke: #1f78b4"/>
    <path d="M 289.078364 257.629427 
C 289.23526 257.629427 289.385752 257.567091 289.496694 257.456149 
C 289.607637 257.345207 289.669972 257.194715 289.669972 257.037819 
C 289.669972 256.880923 289.607637 256.730431 289.496694 256.619489 
C 289.385752 256.508547 289.23526 256.446211 289.078364 256.446211 
C 288.921468 256.446211 288.770977 256.508547 288.660034 256.619489 
C 288.549092 256.730431 288.486756 256.880923 288.486756 257.037819 
C 288.486756 257.194715 288.549092 257.345207 288.660034 257.456149 
C 288.770977 257.567091 288.921468 257.629427 289.078364 257.629427 
z
" clip-path="url(#p625c9c1f60)" style="fill: #1f78b4; stroke: #1f78b4"/>
    <path d="M 323.986665 316.422354 
C 324.143561 316.422354 324.294053 316.360019 324.404995 316.249076 
C 324.515937 316.138134 324.578273 315.987643 324.578273 315.830746 
C 324.578273 315.67385 324.515937 315.523359 324.404995 315.412416 
C 324.294053 315.301474 324.143561 315.239138 323.986665 315.239138 
C 323.829769 315.239138 323.679277 315.301474 323.568335 315.412416 
C 323.457392 315.523359 323.395057 315.67385 323.395057 315.830746 
C 323.395057 315.987643 323.457392 316.138134 323.568335 316.249076 
C 323.679277 316.360019 323.829769 316.422354 323.986665 316.422354 
z
" clip-path="url(#p625c9c1f60)" style="fill: #1f78b4; stroke: #1f78b4"/>
    <path d="M 289.078364 228.232963 
C 289.23526 228.232963 289.385752 228.170628 289.496694 228.059685 
C 289.607637 227.948743 289.669972 227.798252 289.669972 227.641355 
C 289.669972 227.484459 289.607637 227.333968 289.496694 227.223025 
C 289.385752 227.112083 289.23526 227.049747 289.078364 227.049747 
C 288.921468 227.049747 288.770977 227.112083 288.660034 227.223025 
C 288.549092 227.333968 288.486756 227.484459 288.486756 227.641355 
C 288.486756 227.798252 288.549092 227.948743 288.660034 228.059685 
C 288.770977 228.170628 288.921468 228.232963 289.078364 228.232963 
z
" clip-path="url(#p625c9c1f60)" style="fill: #1f78b4; stroke: #1f78b4"/>
    <path d="M 298.264759 316.422354 
C 298.421655 316.422354 298.572147 316.360019 298.683089 316.249076 
C 298.794032 316.138134 298.856367 315.987643 298.856367 315.830746 
C 298.856367 315.67385 298.794032 315.523359 298.683089 315.412416 
C 298.572147 315.301474 298.421655 315.239138 298.264759 315.239138 
C 298.107863 315.239138 297.957372 315.301474 297.846429 315.412416 
C 297.735487 315.523359 297.673151 315.67385 297.673151 315.830746 
C 297.673151 315.987643 297.735487 316.138134 297.846429 316.249076 
C 297.957372 316.360019 298.107863 316.422354 298.264759 316.422354 
z
" clip-path="url(#p625c9c1f60)" style="fill: #1f78b4; stroke: #1f78b4"/>
    <path d="M 237.634553 268.653101 
C 237.791449 268.653101 237.94194 268.590765 238.052883 268.479823 
C 238.163825 268.36888 238.226161 268.218389 238.226161 268.061493 
C 238.226161 267.904597 238.163825 267.754105 238.052883 267.643163 
C 237.94194 267.53222 237.791449 267.469885 237.634553 267.469885 
C 237.477656 267.469885 237.327165 267.53222 237.216223 267.643163 
C 237.10528 267.754105 237.042945 267.904597 237.042945 268.061493 
C 237.042945 268.218389 237.10528 268.36888 237.216223 268.479823 
C 237.327165 268.590765 237.477656 268.653101 237.634553 268.653101 
z
" clip-path="url(#p625c9c1f60)" style="fill: #1f78b4; stroke: #1f78b4"/>
    <path d="M 213.749926 231.907521 
C 213.906822 231.907521 214.057314 231.845186 214.168256 231.734243 
C 214.279198 231.623301 214.341534 231.472809 214.341534 231.315913 
C 214.341534 231.159017 214.279198 231.008526 214.168256 230.897583 
C 214.057314 230.786641 213.906822 230.724305 213.749926 230.724305 
C 213.59303 230.724305 213.442538 230.786641 213.331596 230.897583 
C 213.220653 231.008526 213.158318 231.159017 213.158318 231.315913 
C 213.158318 231.472809 213.220653 231.623301 213.331596 231.734243 
C 213.442538 231.845186 213.59303 231.907521 213.749926 231.907521 
z
" clip-path="url(#p625c9c1f60)" style="fill: #1f78b4; stroke: #1f78b4"/>
    <path d="M 228.448158 329.283307 
C 228.605054 329.283307 228.755545 329.220972 228.866488 329.110029 
C 228.97743 328.999087 229.039766 328.848596 229.039766 328.691699 
C 229.039766 328.534803 228.97743 328.384312 228.866488 328.273369 
C 228.755545 328.162427 228.605054 328.100091 228.448158 328.100091 
C 228.291262 328.100091 228.14077 328.162427 228.029828 328.273369 
C 227.918885 328.384312 227.85655 328.534803 227.85655 328.691699 
C 227.85655 328.848596 227.918885 328.999087 228.029828 329.110029 
C 228.14077 329.220972 228.291262 329.283307 228.448158 329.283307 
z
" clip-path="url(#p625c9c1f60)" style="fill: #1f78b4; stroke: #1f78b4"/>
    <path d="M 138.421488 285.188612 
C 138.578384 285.188612 138.728875 285.126276 138.839818 285.015334 
C 138.95076 284.904391 139.013096 284.7539 139.013096 284.597004 
C 139.013096 284.440107 138.95076 284.289616 138.839818 284.178674 
C 138.728875 284.067731 138.578384 284.005396 138.421488 284.005396 
C 138.264591 284.005396 138.1141 284.067731 138.003158 284.178674 
C 137.892215 284.289616 137.82988 284.440107 137.82988 284.597004 
C 137.82988 284.7539 137.892215 284.904391 138.003158 285.015334 
C 138.1141 285.126276 138.264591 285.188612 138.421488 285.188612 
z
" clip-path="url(#p625c9c1f60)" style="fill: #1f78b4; stroke: #1f78b4"/>
    <path d="M 246.820948 408.286304 
C 246.977844 408.286304 247.128335 408.223968 247.239278 408.113026 
C 247.35022 408.002083 247.412556 407.851592 247.412556 407.694696 
C 247.412556 407.537799 247.35022 407.387308 247.239278 407.276366 
C 247.128335 407.165423 246.977844 407.103088 246.820948 407.103088 
C 246.664051 407.103088 246.51356 407.165423 246.402618 407.276366 
C 246.291675 407.387308 246.22934 407.537799 246.22934 407.694696 
C 246.22934 407.851592 246.291675 408.002083 246.402618 408.113026 
C 246.51356 408.223968 246.664051 408.286304 246.820948 408.286304 
z
" clip-path="url(#p625c9c1f60)" style="fill: #1f78b4; stroke: #1f78b4"/>
    <path d="M 140.258767 329.283307 
C 140.415663 329.283307 140.566154 329.220972 140.677097 329.110029 
C 140.788039 328.999087 140.850375 328.848596 140.850375 328.691699 
C 140.850375 328.534803 140.788039 328.384312 140.677097 328.273369 
C 140.566154 328.162427 140.415663 328.100091 140.258767 328.100091 
C 140.10187 328.100091 139.951379 328.162427 139.840437 328.273369 
C 139.729494 328.384312 139.667159 328.534803 139.667159 328.691699 
C 139.667159 328.848596 139.729494 328.999087 139.840437 329.110029 
C 139.951379 329.220972 140.10187 329.283307 140.258767 329.283307 
z
" clip-path="url(#p625c9c1f60)" style="fill: #1f78b4; stroke: #1f78b4"/>
    <path d="M 562.832933 290.700449 
C 562.989829 290.700449 563.14032 290.638113 563.251263 290.527171 
C 563.362205 290.416228 563.424541 290.265737 563.424541 290.108841 
C 563.424541 289.951944 563.362205 289.801453 563.251263 289.690511 
C 563.14032 289.579568 562.989829 289.517233 562.832933 289.517233 
C 562.676036 289.517233 562.525545 289.579568 562.414603 289.690511 
C 562.30366 289.801453 562.241325 289.951944 562.241325 290.108841 
C 562.241325 290.265737 562.30366 290.416228 562.414603 290.527171 
C 562.525545 290.638113 562.676036 290.700449 562.832933 290.700449 
z
" clip-path="url(#p625c9c1f60)" style="fill: #1f78b4; stroke: #1f78b4"/>
    <path d="M 474.643542 314.585075 
C 474.800438 314.585075 474.950929 314.52274 475.061872 314.411797 
C 475.172814 314.300855 475.23515 314.150364 475.23515 313.993467 
C 475.23515 313.836571 475.172814 313.68608 475.061872 313.575137 
C 474.950929 313.464195 474.800438 313.401859 474.643542 313.401859 
C 474.486645 313.401859 474.336154 313.464195 474.225212 313.575137 
C 474.114269 313.68608 474.051934 313.836571 474.051934 313.993467 
C 474.051934 314.150364 474.114269 314.300855 474.225212 314.411797 
C 474.336154 314.52274 474.486645 314.585075 474.643542 314.585075 
z
" clip-path="url(#p625c9c1f60)" style="fill: #1f78b4; stroke: #1f78b4"/>
    <path d="M 524.250074 367.866166 
C 524.40697 367.866166 524.557462 367.80383 524.668404 367.692888 
C 524.779347 367.581946 524.841682 367.431454 524.841682 367.274558 
C 524.841682 367.117662 524.779347 366.96717 524.668404 366.856228 
C 524.557462 366.745286 524.40697 366.68295 524.250074 366.68295 
C 524.093178 366.68295 523.942686 366.745286 523.831744 366.856228 
C 523.720802 366.96717 523.658466 367.117662 523.658466 367.274558 
C 523.658466 367.431454 523.720802 367.581946 523.831744 367.692888 
C 523.942686 367.80383 524.093178 367.866166 524.250074 367.866166 
z
" clip-path="url(#p625c9c1f60)" style="fill: #1f78b4; stroke: #1f78b4"/>
    <path d="M 406.664219 320.096912 
C 406.821115 320.096912 406.971607 320.034577 407.082549 319.923634 
C 407.193492 319.812692 407.255827 319.662201 407.255827 319.505304 
C 407.255827 319.348408 407.193492 319.197917 407.082549 319.086974 
C 406.971607 318.976032 406.821115 318.913696 406.664219 318.913696 
C 406.507323 318.913696 406.356832 318.976032 406.245889 319.086974 
C 406.134947 319.197917 406.072611 319.348408 406.072611 319.505304 
C 406.072611 319.662201 406.134947 319.812692 406.245889 319.923634 
C 406.356832 320.034577 406.507323 320.096912 406.664219 320.096912 
z
" clip-path="url(#p625c9c1f60)" style="fill: #1f78b4; stroke: #1f78b4"/>
    <path d="M 331.335781 347.656097 
C 331.492677 347.656097 331.643168 347.593762 331.754111 347.482819 
C 331.865053 347.371877 331.927389 347.221385 331.927389 347.064489 
C 331.927389 346.907593 331.865053 346.757102 331.754111 346.646159 
C 331.643168 346.535217 331.492677 346.472881 331.335781 346.472881 
C 331.178885 346.472881 331.028393 346.535217 330.917451 346.646159 
C 330.806508 346.757102 330.744173 346.907593 330.744173 347.064489 
C 330.744173 347.221385 330.806508 347.371877 330.917451 347.482819 
C 331.028393 347.593762 331.178885 347.656097 331.335781 347.656097 
z
" clip-path="url(#p625c9c1f60)" style="fill: #1f78b4; stroke: #1f78b4"/>
    <path d="M 481.992657 356.842492 
C 482.149554 356.842492 482.300045 356.780156 482.410987 356.669214 
C 482.52193 356.558272 482.584265 356.40778 482.584265 356.250884 
C 482.584265 356.093988 482.52193 355.943496 482.410987 355.832554 
C 482.300045 355.721612 482.149554 355.659276 481.992657 355.659276 
C 481.835761 355.659276 481.68527 355.721612 481.574327 355.832554 
C 481.463385 355.943496 481.401049 356.093988 481.401049 356.250884 
C 481.401049 356.40778 481.463385 356.558272 481.574327 356.669214 
C 481.68527 356.780156 481.835761 356.842492 481.992657 356.842492 
z
" clip-path="url(#p625c9c1f60)" style="fill: #1f78b4; stroke: #1f78b4"/>
    <path d="M 515.063679 391.750793 
C 515.220575 391.750793 515.371067 391.688457 515.482009 391.577515 
C 515.592952 391.466572 515.655287 391.316081 515.655287 391.159185 
C 515.655287 391.002288 515.592952 390.851797 515.482009 390.740855 
C 515.371067 390.629912 515.220575 390.567577 515.063679 390.567577 
C 514.906783 390.567577 514.756292 390.629912 514.645349 390.740855 
C 514.534407 390.851797 514.472071 391.002288 514.472071 391.159185 
C 514.472071 391.316081 514.534407 391.466572 514.645349 391.577515 
C 514.756292 391.688457 514.906783 391.750793 515.063679 391.750793 
z
" clip-path="url(#p625c9c1f60)" style="fill: #1f78b4; stroke: #1f78b4"/>
    <path d="M 599.578512 375.215282 
C 599.735409 375.215282 599.8859 375.152946 599.996842 375.042004 
C 600.107785 374.931061 600.17012 374.78057 600.17012 374.623674 
C 600.17012 374.466778 600.107785 374.316286 599.996842 374.205344 
C 599.8859 374.094401 599.735409 374.032066 599.578512 374.032066 
C 599.421616 374.032066 599.271125 374.094401 599.160182 374.205344 
C 599.04924 374.316286 598.986904 374.466778 598.986904 374.623674 
C 598.986904 374.78057 599.04924 374.931061 599.160182 375.042004 
C 599.271125 375.152946 599.421616 375.215282 599.578512 375.215282 
z
" clip-path="url(#p625c9c1f60)" style="fill: #1f78b4; stroke: #1f78b4"/>
    <path d="M 430.548846 321.934191 
C 430.705742 321.934191 430.856234 321.871856 430.967176 321.760913 
C 431.078118 321.649971 431.140454 321.49948 431.140454 321.342583 
C 431.140454 321.185687 431.078118 321.035196 430.967176 320.924253 
C 430.856234 320.813311 430.705742 320.750975 430.548846 320.750975 
C 430.39195 320.750975 430.241458 320.813311 430.130516 320.924253 
C 430.019574 321.035196 429.957238 321.185687 429.957238 321.342583 
C 429.957238 321.49948 430.019574 321.649971 430.130516 321.760913 
C 430.241458 321.871856 430.39195 321.934191 430.548846 321.934191 
z
" clip-path="url(#p625c9c1f60)" style="fill: #1f78b4; stroke: #1f78b4"/>
    <path d="M 338.684897 397.26263 
C 338.841793 397.26263 338.992284 397.200294 339.103227 397.089352 
C 339.214169 396.978409 339.276505 396.827918 339.276505 396.671022 
C 339.276505 396.514125 339.214169 396.363634 339.103227 396.252692 
C 338.992284 396.141749 338.841793 396.079414 338.684897 396.079414 
C 338.528001 396.079414 338.377509 396.141749 338.266567 396.252692 
C 338.155624 396.363634 338.093289 396.514125 338.093289 396.671022 
C 338.093289 396.827918 338.155624 396.978409 338.266567 397.089352 
C 338.377509 397.200294 338.528001 397.26263 338.684897 397.26263 
z
" clip-path="url(#p625c9c1f60)" style="fill: #1f78b4; stroke: #1f78b4"/>
    <path d="M 428.711567 371.540724 
C 428.868463 371.540724 429.018955 371.478388 429.129897 371.367446 
C 429.240839 371.256504 429.303175 371.106012 429.303175 370.949116 
C 429.303175 370.79222 429.240839 370.641728 429.129897 370.530786 
C 429.018955 370.419844 428.868463 370.357508 428.711567 370.357508 
C 428.554671 370.357508 428.404179 370.419844 428.293237 370.530786 
C 428.182295 370.641728 428.119959 370.79222 428.119959 370.949116 
C 428.119959 371.106012 428.182295 371.256504 428.293237 371.367446 
C 428.404179 371.478388 428.554671 371.540724 428.711567 371.540724 
z
" clip-path="url(#p625c9c1f60)" style="fill: #1f78b4; stroke: #1f78b4"/>
    <path d="M 456.270752 360.51705 
C 456.427648 360.51705 456.578139 360.454714 456.689082 360.343772 
C 456.800024 360.23283 456.86236 360.082338 456.86236 359.925442 
C 456.86236 359.768546 456.800024 359.618054 456.689082 359.507112 
C 456.578139 359.39617 456.427648 359.333834 456.270752 359.333834 
C 456.113855 359.333834 455.963364 359.39617 455.852422 359.507112 
C 455.741479 359.618054 455.679144 359.768546 455.679144 359.925442 
C 455.679144 360.082338 455.741479 360.23283 455.852422 360.343772 
C 455.963364 360.454714 456.113855 360.51705 456.270752 360.51705 
z
" clip-path="url(#p625c9c1f60)" style="fill: #1f78b4; stroke: #1f78b4"/>
    <path d="M 408.501498 389.913514 
C 408.658394 389.913514 408.808886 389.851178 408.919828 389.740236 
C 409.030771 389.629293 409.093106 389.478802 409.093106 389.321906 
C 409.093106 389.165009 409.030771 389.014518 408.919828 388.903576 
C 408.808886 388.792633 408.658394 388.730298 408.501498 388.730298 
C 408.344602 388.730298 408.194111 388.792633 408.083168 388.903576 
C 407.972226 389.014518 407.90989 389.165009 407.90989 389.321906 
C 407.90989 389.478802 407.972226 389.629293 408.083168 389.740236 
C 408.194111 389.851178 408.344602 389.913514 408.501498 389.913514 
z
" clip-path="url(#p625c9c1f60)" style="fill: #1f78b4; stroke: #1f78b4"/>
    <path d="M 300.102038 402.774467 
C 300.258934 402.774467 300.409426 402.712131 300.520368 402.601189 
C 300.631311 402.490246 300.693646 402.339755 300.693646 402.182859 
C 300.693646 402.025962 300.631311 401.875471 300.520368 401.764529 
C 300.409426 401.653586 300.258934 401.591251 300.102038 401.591251 
C 299.945142 401.591251 299.794651 401.653586 299.683708 401.764529 
C 299.572766 401.875471 299.51043 402.025962 299.51043 402.182859 
C 299.51043 402.339755 299.572766 402.490246 299.683708 402.601189 
C 299.794651 402.712131 299.945142 402.774467 300.102038 402.774467 
z
" clip-path="url(#p625c9c1f60)" style="fill: #1f78b4; stroke: #1f78b4"/>
    <path d="M 239.471832 446.869162 
C 239.628728 446.869162 239.779219 446.806827 239.890162 446.695884 
C 240.001104 446.584942 240.06344 446.434451 240.06344 446.277554 
C 240.06344 446.120658 240.001104 445.970167 239.890162 445.859224 
C 239.779219 445.748282 239.628728 445.685946 239.471832 445.685946 
C 239.314935 445.685946 239.164444 445.748282 239.053502 445.859224 
C 238.942559 445.970167 238.880224 446.120658 238.880224 446.277554 
C 238.880224 446.434451 238.942559 446.584942 239.053502 446.695884 
C 239.164444 446.806827 239.314935 446.869162 239.471832 446.869162 
z
" clip-path="url(#p625c9c1f60)" style="fill: #1f78b4; stroke: #1f78b4"/>
    <path d="M 158.631556 417.472698 
C 158.788453 417.472698 158.938944 417.410363 159.049886 417.299421 
C 159.160829 417.188478 159.223164 417.037987 159.223164 416.881091 
C 159.223164 416.724194 159.160829 416.573703 159.049886 416.462761 
C 158.938944 416.351818 158.788453 416.289483 158.631556 416.289483 
C 158.47466 416.289483 158.324169 416.351818 158.213226 416.462761 
C 158.102284 416.573703 158.039948 416.724194 158.039948 416.881091 
C 158.039948 417.037987 158.102284 417.188478 158.213226 417.299421 
C 158.324169 417.410363 158.47466 417.472698 158.631556 417.472698 
z
" clip-path="url(#p625c9c1f60)" style="fill: #1f78b4; stroke: #1f78b4"/>
    <path d="M 320.312107 415.63542 
C 320.469003 415.63542 320.619495 415.573084 320.730437 415.462142 
C 320.841379 415.351199 320.903715 415.200708 320.903715 415.043812 
C 320.903715 414.886915 320.841379 414.736424 320.730437 414.625482 
C 320.619495 414.514539 320.469003 414.452204 320.312107 414.452204 
C 320.155211 414.452204 320.004719 414.514539 319.893777 414.625482 
C 319.782835 414.736424 319.720499 414.886915 319.720499 415.043812 
C 319.720499 415.200708 319.782835 415.351199 319.893777 415.462142 
C 320.004719 415.573084 320.155211 415.63542 320.312107 415.63542 
z
" clip-path="url(#p625c9c1f60)" style="fill: #1f78b4; stroke: #1f78b4"/>
    <path d="M 544.460143 450.54372 
C 544.617039 450.54372 544.76753 450.481385 544.878473 450.370442 
C 544.989415 450.2595 545.051751 450.109008 545.051751 449.952112 
C 545.051751 449.795216 544.989415 449.644725 544.878473 449.533782 
C 544.76753 449.42284 544.617039 449.360504 544.460143 449.360504 
C 544.303247 449.360504 544.152755 449.42284 544.041813 449.533782 
C 543.93087 449.644725 543.868535 449.795216 543.868535 449.952112 
C 543.868535 450.109008 543.93087 450.2595 544.041813 450.370442 
C 544.152755 450.481385 544.303247 450.54372 544.460143 450.54372 
z
" clip-path="url(#p625c9c1f60)" style="fill: #1f78b4; stroke: #1f78b4"/>
    <path d="M 461.782589 397.26263 
C 461.939485 397.26263 462.089976 397.200294 462.200919 397.089352 
C 462.311861 396.978409 462.374197 396.827918 462.374197 396.671022 
C 462.374197 396.514125 462.311861 396.363634 462.200919 396.252692 
C 462.089976 396.141749 461.939485 396.079414 461.782589 396.079414 
C 461.625692 396.079414 461.475201 396.141749 461.364259 396.252692 
C 461.253316 396.363634 461.190981 396.514125 461.190981 396.671022 
C 461.190981 396.827918 461.253316 396.978409 461.364259 397.089352 
C 461.475201 397.200294 461.625692 397.26263 461.782589 397.26263 
z
" clip-path="url(#p625c9c1f60)" style="fill: #1f78b4; stroke: #1f78b4"/>
    <path d="M 432.386125 428.496372 
C 432.543021 428.496372 432.693513 428.434037 432.804455 428.323094 
C 432.915397 428.212152 432.977733 428.061661 432.977733 427.904764 
C 432.977733 427.747868 432.915397 427.597377 432.804455 427.486434 
C 432.693513 427.375492 432.543021 427.313156 432.386125 427.313156 
C 432.229229 427.313156 432.078737 427.375492 431.967795 427.486434 
C 431.856852 427.597377 431.794517 427.747868 431.794517 427.904764 
C 431.794517 428.061661 431.856852 428.212152 431.967795 428.323094 
C 432.078737 428.434037 432.229229 428.496372 432.386125 428.496372 
z
" clip-path="url(#p625c9c1f60)" style="fill: #1f78b4; stroke: #1f78b4"/>
    <path d="M 588.554838 443.194604 
C 588.711735 443.194604 588.862226 443.132269 588.973169 443.021326 
C 589.084111 442.910384 589.146446 442.759893 589.146446 442.602996 
C 589.146446 442.4461 589.084111 442.295609 588.973169 442.184666 
C 588.862226 442.073724 588.711735 442.011388 588.554838 442.011388 
C 588.397942 442.011388 588.247451 442.073724 588.136508 442.184666 
C 588.025566 442.295609 587.963231 442.4461 587.963231 442.602996 
C 587.963231 442.759893 588.025566 442.910384 588.136508 443.021326 
C 588.247451 443.132269 588.397942 443.194604 588.554838 443.194604 
z
" clip-path="url(#p625c9c1f60)" style="fill: #1f78b4; stroke: #1f78b4"/>
    <path d="M 432.386125 452.380999 
C 432.543021 452.380999 432.693513 452.318664 432.804455 452.207721 
C 432.915397 452.096779 432.977733 451.946287 432.977733 451.789391 
C 432.977733 451.632495 432.915397 451.482004 432.804455 451.371061 
C 432.693513 451.260119 432.543021 451.197783 432.386125 451.197783 
C 432.229229 451.197783 432.078737 451.260119 431.967795 451.371061 
C 431.856852 451.482004 431.794517 451.632495 431.794517 451.789391 
C 431.794517 451.946287 431.856852 452.096779 431.967795 452.207721 
C 432.078737 452.318664 432.229229 452.380999 432.386125 452.380999 
z
" clip-path="url(#p625c9c1f60)" style="fill: #1f78b4; stroke: #1f78b4"/>
    <path d="M 340.522176 461.567394 
C 340.679072 461.567394 340.829563 461.505059 340.940506 461.394116 
C 341.051448 461.283174 341.113784 461.132682 341.113784 460.975786 
C 341.113784 460.81889 341.051448 460.668399 340.940506 460.557456 
C 340.829563 460.446514 340.679072 460.384178 340.522176 460.384178 
C 340.365279 460.384178 340.214788 460.446514 340.103846 460.557456 
C 339.992903 460.668399 339.930568 460.81889 339.930568 460.975786 
C 339.930568 461.132682 339.992903 461.283174 340.103846 461.394116 
C 340.214788 461.505059 340.365279 461.567394 340.522176 461.567394 
z
" clip-path="url(#p625c9c1f60)" style="fill: #1f78b4; stroke: #1f78b4"/>
    <path d="M 489.341773 489.126579 
C 489.49867 489.126579 489.649161 489.064243 489.760103 488.953301 
C 489.871046 488.842358 489.933381 488.691867 489.933381 488.534971 
C 489.933381 488.378075 489.871046 488.227583 489.760103 488.116641 
C 489.649161 488.005698 489.49867 487.943363 489.341773 487.943363 
C 489.184877 487.943363 489.034386 488.005698 488.923443 488.116641 
C 488.812501 488.227583 488.750165 488.378075 488.750165 488.534971 
C 488.750165 488.691867 488.812501 488.842358 488.923443 488.953301 
C 489.034386 489.064243 489.184877 489.126579 489.341773 489.126579 
z
" clip-path="url(#p625c9c1f60)" style="fill: #1f78b4; stroke: #1f78b4"/>
    <path d="M 281.729248 454.218278 
C 281.886145 454.218278 282.036636 454.155943 282.147578 454.045 
C 282.258521 453.934058 282.320856 453.783566 282.320856 453.62667 
C 282.320856 453.469774 282.258521 453.319283 282.147578 453.20834 
C 282.036636 453.097398 281.886145 453.035062 281.729248 453.035062 
C 281.572352 453.035062 281.421861 453.097398 281.310918 453.20834 
C 281.199976 453.319283 281.13764 453.469774 281.13764 453.62667 
C 281.13764 453.783566 281.199976 453.934058 281.310918 454.045 
C 281.421861 454.155943 281.572352 454.218278 281.729248 454.218278 
z
" clip-path="url(#p625c9c1f60)" style="fill: #1f78b4; stroke: #1f78b4"/>
    <path d="M 318.474828 472.591068 
C 318.631724 472.591068 318.782216 472.528732 318.893158 472.41779 
C 319.0041 472.306848 319.066436 472.156356 319.066436 471.99946 
C 319.066436 471.842564 319.0041 471.692072 318.893158 471.58113 
C 318.782216 471.470188 318.631724 471.407852 318.474828 471.407852 
C 318.317932 471.407852 318.16744 471.470188 318.056498 471.58113 
C 317.945556 471.692072 317.88322 471.842564 317.88322 471.99946 
C 317.88322 472.156356 317.945556 472.306848 318.056498 472.41779 
C 318.16744 472.528732 318.317932 472.591068 318.474828 472.591068 
z
" clip-path="url(#p625c9c1f60)" style="fill: #1f78b4; stroke: #1f78b4"/>
    <path d="M 257.844622 459.730115 
C 258.001518 459.730115 258.152009 459.66778 258.262952 459.556837 
C 258.373894 459.445895 258.436229 459.295403 258.436229 459.138507 
C 258.436229 458.981611 258.373894 458.83112 258.262952 458.720177 
C 258.152009 458.609235 258.001518 458.546899 257.844622 458.546899 
C 257.687725 458.546899 257.537234 458.609235 257.426292 458.720177 
C 257.315349 458.83112 257.253014 458.981611 257.253014 459.138507 
C 257.253014 459.295403 257.315349 459.445895 257.426292 459.556837 
C 257.537234 459.66778 257.687725 459.730115 257.844622 459.730115 
z
" clip-path="url(#p625c9c1f60)" style="fill: #1f78b4; stroke: #1f78b4"/>
    <path d="M 184.353462 463.404673 
C 184.510358 463.404673 184.66085 463.342338 184.771792 463.231395 
C 184.882735 463.120453 184.94507 462.969961 184.94507 462.813065 
C 184.94507 462.656169 184.882735 462.505677 184.771792 462.394735 
C 184.66085 462.283793 184.510358 462.221457 184.353462 462.221457 
C 184.196566 462.221457 184.046075 462.283793 183.935132 462.394735 
C 183.82419 462.505677 183.761854 462.656169 183.761854 462.813065 
C 183.761854 462.969961 183.82419 463.120453 183.935132 463.231395 
C 184.046075 463.342338 184.196566 463.404673 184.353462 463.404673 
z
" clip-path="url(#p625c9c1f60)" style="fill: #1f78b4; stroke: #1f78b4"/>
    <path d="M 158.631556 467.079231 
C 158.788453 467.079231 158.938944 467.016895 159.049886 466.905953 
C 159.160829 466.795011 159.223164 466.644519 159.223164 466.487623 
C 159.223164 466.330727 159.160829 466.180235 159.049886 466.069293 
C 158.938944 465.958351 158.788453 465.896015 158.631556 465.896015 
C 158.47466 465.896015 158.324169 465.958351 158.213226 466.069293 
C 158.102284 466.180235 158.039948 466.330727 158.039948 466.487623 
C 158.039948 466.644519 158.102284 466.795011 158.213226 466.905953 
C 158.324169 467.016895 158.47466 467.079231 158.631556 467.079231 
z
" clip-path="url(#p625c9c1f60)" style="fill: #1f78b4; stroke: #1f78b4"/>
    <path d="M 436.060683 494.638416 
C 436.217579 494.638416 436.36807 494.57608 436.479013 494.465138 
C 436.589955 494.354195 436.652291 494.203704 436.652291 494.046808 
C 436.652291 493.889912 436.589955 493.73942 436.479013 493.628478 
C 436.36807 493.517535 436.217579 493.4552 436.060683 493.4552 
C 435.903787 493.4552 435.753295 493.517535 435.642353 493.628478 
C 435.53141 493.73942 435.469075 493.889912 435.469075 494.046808 
C 435.469075 494.203704 435.53141 494.354195 435.642353 494.465138 
C 435.753295 494.57608 435.903787 494.638416 436.060683 494.638416 
z
" clip-path="url(#p625c9c1f60)" style="fill: #1f78b4; stroke: #1f78b4"/>
    <path d="M 526.087353 540.57039 
C 526.244249 540.57039 526.394741 540.508055 526.505683 540.397112 
C 526.616625 540.28617 526.678961 540.135679 526.678961 539.978782 
C 526.678961 539.821886 526.616625 539.671395 526.505683 539.560452 
C 526.394741 539.44951 526.244249 539.387174 526.087353 539.387174 
C 525.930457 539.387174 525.779965 539.44951 525.669023 539.560452 
C 525.558081 539.671395 525.495745 539.821886 525.495745 539.978782 
C 525.495745 540.135679 525.558081 540.28617 525.669023 540.397112 
C 525.779965 540.508055 525.930457 540.57039 526.087353 540.57039 
z
" clip-path="url(#p625c9c1f60)" style="fill: #1f78b4; stroke: #1f78b4"/>
    <path d="M 250.495506 492.801137 
C 250.652402 492.801137 250.802893 492.738801 250.913836 492.627859 
C 251.024778 492.516916 251.087114 492.366425 251.087114 492.209529 
C 251.087114 492.052633 251.024778 491.902141 250.913836 491.791199 
C 250.802893 491.680256 250.652402 491.617921 250.495506 491.617921 
C 250.338609 491.617921 250.188118 491.680256 250.077176 491.791199 
C 249.966233 491.902141 249.903898 492.052633 249.903898 492.209529 
C 249.903898 492.366425 249.966233 492.516916 250.077176 492.627859 
C 250.188118 492.738801 250.338609 492.801137 250.495506 492.801137 
z
" clip-path="url(#p625c9c1f60)" style="fill: #1f78b4; stroke: #1f78b4"/>
    <path d="M 309.288433 503.824811 
C 309.445329 503.824811 309.595821 503.762475 309.706763 503.651533 
C 309.817705 503.54059 309.880041 503.390099 309.880041 503.233203 
C 309.880041 503.076306 309.817705 502.925815 309.706763 502.814873 
C 309.595821 502.70393 309.445329 502.641595 309.288433 502.641595 
C 309.131537 502.641595 308.981045 502.70393 308.870103 502.814873 
C 308.759161 502.925815 308.696825 503.076306 308.696825 503.233203 
C 308.696825 503.390099 308.759161 503.54059 308.870103 503.651533 
C 308.981045 503.762475 309.131537 503.824811 309.288433 503.824811 
z
" clip-path="url(#p625c9c1f60)" style="fill: #1f78b4; stroke: #1f78b4"/>
    <path d="M 200.888973 492.801137 
C 201.045869 492.801137 201.196361 492.738801 201.307303 492.627859 
C 201.418245 492.516916 201.480581 492.366425 201.480581 492.209529 
C 201.480581 492.052633 201.418245 491.902141 201.307303 491.791199 
C 201.196361 491.680256 201.045869 491.617921 200.888973 491.617921 
C 200.732077 491.617921 200.581585 491.680256 200.470643 491.791199 
C 200.359701 491.902141 200.297365 492.052633 200.297365 492.209529 
C 200.297365 492.366425 200.359701 492.516916 200.470643 492.627859 
C 200.581585 492.738801 200.732077 492.801137 200.888973 492.801137 
z
" clip-path="url(#p625c9c1f60)" style="fill: #1f78b4; stroke: #1f78b4"/>
    <path d="M 272.542853 507.499369 
C 272.69975 507.499369 272.850241 507.437033 272.961183 507.326091 
C 273.072126 507.215148 273.134461 507.064657 273.134461 506.907761 
C 273.134461 506.750864 273.072126 506.600373 272.961183 506.489431 
C 272.850241 506.378488 272.69975 506.316153 272.542853 506.316153 
C 272.385957 506.316153 272.235466 506.378488 272.124523 506.489431 
C 272.013581 506.600373 271.951245 506.750864 271.951245 506.907761 
C 271.951245 507.064657 272.013581 507.215148 272.124523 507.326091 
C 272.235466 507.437033 272.385957 507.499369 272.542853 507.499369 
z
" clip-path="url(#p625c9c1f60)" style="fill: #1f78b4; stroke: #1f78b4"/>
    <path d="M 425.037009 544.244948 
C 425.193905 544.244948 425.344397 544.182613 425.455339 544.07167 
C 425.566281 543.960728 425.628617 543.810237 425.628617 543.65334 
C 425.628617 543.496444 425.566281 543.345953 425.455339 543.23501 
C 425.344397 543.124068 425.193905 543.061732 425.037009 543.061732 
C 424.880113 543.061732 424.729621 543.124068 424.618679 543.23501 
C 424.507737 543.345953 424.445401 543.496444 424.445401 543.65334 
C 424.445401 543.810237 424.507737 543.960728 424.618679 544.07167 
C 424.729621 544.182613 424.880113 544.244948 425.037009 544.244948 
z
" clip-path="url(#p625c9c1f60)" style="fill: #1f78b4; stroke: #1f78b4"/>
    <path d="M 189.865299 514.848485 
C 190.022195 514.848485 190.172687 514.786149 190.283629 514.675207 
C 190.394572 514.564264 190.456907 514.413773 190.456907 514.256877 
C 190.456907 514.09998 190.394572 513.949489 190.283629 513.838547 
C 190.172687 513.727604 190.022195 513.665269 189.865299 513.665269 
C 189.708403 513.665269 189.557912 513.727604 189.446969 513.838547 
C 189.336027 513.949489 189.273691 514.09998 189.273691 514.256877 
C 189.273691 514.413773 189.336027 514.564264 189.446969 514.675207 
C 189.557912 514.786149 189.708403 514.848485 189.865299 514.848485 
z
" clip-path="url(#p625c9c1f60)" style="fill: #1f78b4; stroke: #1f78b4"/>
    <path d="M 327.661223 544.244948 
C 327.818119 544.244948 327.96861 544.182613 328.079553 544.07167 
C 328.190495 543.960728 328.252831 543.810237 328.252831 543.65334 
C 328.252831 543.496444 328.190495 543.345953 328.079553 543.23501 
C 327.96861 543.124068 327.818119 543.061732 327.661223 543.061732 
C 327.504327 543.061732 327.353835 543.124068 327.242893 543.23501 
C 327.13195 543.345953 327.069615 543.496444 327.069615 543.65334 
C 327.069615 543.810237 327.13195 543.960728 327.242893 544.07167 
C 327.353835 544.182613 327.504327 544.244948 327.661223 544.244948 
z
" clip-path="url(#p625c9c1f60)" style="fill: #1f78b4; stroke: #1f78b4"/>
    <path d="M 274.380132 547.919506 
C 274.537029 547.919506 274.68752 547.857171 274.798462 547.746228 
C 274.909405 547.635286 274.97174 547.484795 274.97174 547.327898 
C 274.97174 547.171002 274.909405 547.020511 274.798462 546.909568 
C 274.68752 546.798626 274.537029 546.73629 274.380132 546.73629 
C 274.223236 546.73629 274.072745 546.798626 273.961802 546.909568 
C 273.85086 547.020511 273.788524 547.171002 273.788524 547.327898 
C 273.788524 547.484795 273.85086 547.635286 273.961802 547.746228 
C 274.072745 547.857171 274.223236 547.919506 274.380132 547.919506 
z
" clip-path="url(#p625c9c1f60)" style="fill: #1f78b4; stroke: #1f78b4"/>
   </g>
  </g>
 </g>
 <defs>
  <clipPath id="p625c9c1f60">
   <rect x="90" y="141.289243" width="558" height="444.621514"/>
  </clipPath>
 </defs>
</svg>
