<?xml version="1.0" encoding="utf-8" standalone="no"?>
<!DOCTYPE svg PUBLIC "-//W3C//DTD SVG 1.1//EN"
  "http://www.w3.org/Graphics/SVG/1.1/DTD/svg11.dtd">
<svg xmlns:xlink="http://www.w3.org/1999/xlink" width="720pt" height="720pt" viewBox="0 0 720 720" xmlns="http://www.w3.org/2000/svg" version="1.1">
 <metadata>
  <rdf:RDF xmlns:dc="http://purl.org/dc/elements/1.1/" xmlns:cc="http://creativecommons.org/ns#" xmlns:rdf="http://www.w3.org/1999/02/22-rdf-syntax-ns#">
   <cc:Work>
    <dc:type rdf:resource="http://purl.org/dc/dcmitype/StillImage"/>
    <dc:date>2024-11-11T22:20:11.666055</dc:date>
    <dc:format>image/svg+xml</dc:format>
    <dc:creator>
     <cc:Agent>
      <dc:title>Matplotlib v3.9.2, https://matplotlib.org/</dc:title>
     </cc:Agent>
    </dc:creator>
   </cc:Work>
  </rdf:RDF>
 </metadata>
 <defs>
  <style type="text/css">*{stroke-linejoin: round; stroke-linecap: butt}</style>
 </defs>
 <g id="figure_1">
  <g id="patch_1">
   <path d="M 0 720 
L 720 720 
L 720 0 
L 0 0 
L 0 720 
z
" style="fill: none"/>
  </g>
  <g id="axes_1">
   <g id="LineCollection_1">
    <path d="M 301.017885 491.154071 
L 305.222965 541.615022 
" clip-path="url(#p25f741cdfe)" style="fill: none; stroke: #008000"/>
    <path d="M 301.017885 491.154071 
L 253.360321 500.965922 
" clip-path="url(#p25f741cdfe)" style="fill: none; stroke: #ff0000; stroke-width: 2.25"/>
    <path d="M 301.017885 491.154071 
L 322.043282 467.325288 
" clip-path="url(#p25f741cdfe)" style="fill: none; stroke: #ff0000; stroke-width: 2.25"/>
    <path d="M 305.222965 541.615022 
L 264.573865 544.418408 
" clip-path="url(#p25f741cdfe)" style="fill: none; stroke: #0000ff; stroke-width: 2.25"/>
    <path d="M 305.222965 541.615022 
L 368.299153 543.016715 
" clip-path="url(#p25f741cdfe)" style="fill: none; stroke: #0000ff; stroke-width: 2.25"/>
    <path d="M 368.299153 543.016715 
L 365.495767 509.376081 
" clip-path="url(#p25f741cdfe)" style="fill: none; stroke: #008000"/>
    <path d="M 368.299153 543.016715 
L 389.32455 540.213329 
" clip-path="url(#p25f741cdfe)" style="fill: none; stroke: #0000ff; stroke-width: 2.25"/>
    <path d="M 365.495767 509.376081 
L 392.127936 509.376081 
" clip-path="url(#p25f741cdfe)" style="fill: none; stroke: #ff0000; stroke-width: 2.25"/>
    <path d="M 365.495767 509.376081 
L 357.085609 499.564229 
" clip-path="url(#p25f741cdfe)" style="fill: none; stroke: #ff0000; stroke-width: 2.25"/>
    <path d="M 392.127936 509.376081 
L 389.32455 540.213329 
" clip-path="url(#p25f741cdfe)" style="fill: none; stroke: #008000"/>
    <path d="M 392.127936 509.376081 
L 387.922857 470.128674 
" clip-path="url(#p25f741cdfe)" style="fill: none; stroke: #ff0000; stroke-width: 2.25"/>
    <path d="M 389.32455 540.213329 
L 460.810897 541.615022 
" clip-path="url(#p25f741cdfe)" style="fill: none; stroke: #0000ff; stroke-width: 2.25"/>
    <path d="M 303.821272 315.942435 
L 330.45344 307.532277 
" clip-path="url(#p25f741cdfe)" style="fill: none; stroke: #ff0000; stroke-width: 2.25"/>
    <path d="M 303.821272 315.942435 
L 309.428044 367.805079 
" clip-path="url(#p25f741cdfe)" style="fill: none; stroke: #ff0000; stroke-width: 2.25"/>
    <path d="M 303.821272 315.942435 
L 281.394182 318.745821 
" clip-path="url(#p25f741cdfe)" style="fill: none; stroke: #ff0000; stroke-width: 2.25"/>
    <path d="M 330.45344 307.532277 
L 358.487302 310.335663 
" clip-path="url(#p25f741cdfe)" style="fill: none; stroke: #008000"/>
    <path d="M 330.45344 307.532277 
L 323.444975 275.293336 
" clip-path="url(#p25f741cdfe)" style="fill: none; stroke: #ff0000; stroke-width: 2.25"/>
    <path d="M 358.487302 310.335663 
L 373.905926 297.720425 
" clip-path="url(#p25f741cdfe)" style="fill: none; stroke: #0000ff; stroke-width: 2.25"/>
    <path d="M 358.487302 310.335663 
L 361.290688 346.779683 
" clip-path="url(#p25f741cdfe)" style="fill: none; stroke: #0000ff; stroke-width: 2.25"/>
    <path d="M 373.905926 297.720425 
L 369.700847 252.866246 
" clip-path="url(#p25f741cdfe)" style="fill: none; stroke: #008000"/>
    <path d="M 373.905926 297.720425 
L 415.956718 306.130584 
" clip-path="url(#p25f741cdfe)" style="fill: none; stroke: #0000ff; stroke-width: 2.25"/>
    <path d="M 264.573865 544.418408 
L 253.360321 500.965922 
" clip-path="url(#p25f741cdfe)" style="fill: none; stroke: #008000"/>
    <path d="M 264.573865 544.418408 
L 162.25027 548.623487 
" clip-path="url(#p25f741cdfe)" style="fill: none; stroke: #0000ff; stroke-width: 2.25"/>
    <path d="M 253.360321 500.965922 
L 243.548469 461.718516 
" clip-path="url(#p25f741cdfe)" style="fill: none; stroke: #ff0000; stroke-width: 2.25"/>
    <path d="M 190.284132 470.128674 
L 162.25027 548.623487 
" clip-path="url(#p25f741cdfe)" style="fill: none; stroke: #008000"/>
    <path d="M 190.284132 470.128674 
L 243.548469 461.718516 
" clip-path="url(#p25f741cdfe)" style="fill: none; stroke: #ff0000; stroke-width: 2.25"/>
    <path d="M 190.284132 470.128674 
L 179.070587 461.718516 
" clip-path="url(#p25f741cdfe)" style="fill: none; stroke: #ff0000; stroke-width: 2.25"/>
    <path d="M 162.25027 548.623487 
L 138.421488 463.120209 
" clip-path="url(#p25f741cdfe)" style="fill: none; stroke: #0000ff; stroke-width: 2.25"/>
    <path d="M 459.409204 421.069416 
L 465.015976 454.71005 
" clip-path="url(#p25f741cdfe)" style="fill: none; stroke: #ff0000; stroke-width: 2.25"/>
    <path d="M 459.409204 421.069416 
L 498.65661 416.864337 
" clip-path="url(#p25f741cdfe)" style="fill: none; stroke: #008000"/>
    <path d="M 459.409204 421.069416 
L 443.99058 405.650793 
" clip-path="url(#p25f741cdfe)" style="fill: none; stroke: #ff0000; stroke-width: 2.25"/>
    <path d="M 465.015976 454.71005 
L 466.417669 467.325288 
" clip-path="url(#p25f741cdfe)" style="fill: none; stroke: #ff0000; stroke-width: 2.25"/>
    <path d="M 465.015976 454.71005 
L 431.375342 461.718516 
" clip-path="url(#p25f741cdfe)" style="fill: none; stroke: #ff0000; stroke-width: 2.25"/>
    <path d="M 466.417669 467.325288 
L 445.392273 486.948991 
" clip-path="url(#p25f741cdfe)" style="fill: none; stroke: #ff0000; stroke-width: 2.25"/>
    <path d="M 466.417669 467.325288 
L 516.87862 481.342219 
" clip-path="url(#p25f741cdfe)" style="fill: none; stroke: #008000"/>
    <path d="M 445.392273 486.948991 
L 460.810897 541.615022 
" clip-path="url(#p25f741cdfe)" style="fill: none; stroke: #008000"/>
    <path d="M 445.392273 486.948991 
L 431.375342 461.718516 
" clip-path="url(#p25f741cdfe)" style="fill: none; stroke: #ff0000; stroke-width: 2.25"/>
    <path d="M 460.810897 541.615022 
L 526.690472 510.777774 
" clip-path="url(#p25f741cdfe)" style="fill: none; stroke: #0000ff; stroke-width: 2.25"/>
    <path d="M 516.87862 481.342219 
L 521.0837 464.521902 
" clip-path="url(#p25f741cdfe)" style="fill: none; stroke: #008000"/>
    <path d="M 516.87862 481.342219 
L 526.690472 510.777774 
" clip-path="url(#p25f741cdfe)" style="fill: none; stroke: #008000"/>
    <path d="M 521.0837 464.521902 
L 498.65661 416.864337 
" clip-path="url(#p25f741cdfe)" style="fill: none; stroke: #0000ff; stroke-width: 2.25"/>
    <path d="M 521.0837 464.521902 
L 568.741265 446.299892 
" clip-path="url(#p25f741cdfe)" style="fill: none; stroke: #008000"/>
    <path d="M 526.690472 510.777774 
L 579.954809 491.154071 
" clip-path="url(#p25f741cdfe)" style="fill: none; stroke: #0000ff; stroke-width: 2.25"/>
    <path d="M 281.394182 206.610375 
L 299.616192 250.06286 
" clip-path="url(#p25f741cdfe)" style="fill: none; stroke: #008000"/>
    <path d="M 281.394182 206.610375 
L 333.256826 195.39683 
" clip-path="url(#p25f741cdfe)" style="fill: none; stroke: #0000ff; stroke-width: 2.25"/>
    <path d="M 281.394182 206.610375 
L 235.13831 209.413761 
" clip-path="url(#p25f741cdfe)" style="fill: none; stroke: #0000ff; stroke-width: 2.25"/>
    <path d="M 299.616192 250.06286 
L 327.650054 236.045929 
" clip-path="url(#p25f741cdfe)" style="fill: none; stroke: #ff0000; stroke-width: 2.25"/>
    <path d="M 299.616192 250.06286 
L 323.444975 275.293336 
" clip-path="url(#p25f741cdfe)" style="fill: none; stroke: #ff0000; stroke-width: 2.25"/>
    <path d="M 299.616192 250.06286 
L 271.582331 273.891643 
" clip-path="url(#p25f741cdfe)" style="fill: none; stroke: #ff0000; stroke-width: 2.25"/>
    <path d="M 369.700847 252.866246 
L 411.751639 262.678098 
" clip-path="url(#p25f741cdfe)" style="fill: none; stroke: #008000"/>
    <path d="M 369.700847 252.866246 
L 330.45344 262.678098 
" clip-path="url(#p25f741cdfe)" style="fill: none; stroke: #008000"/>
    <path d="M 411.751639 262.678098 
L 436.982115 247.259474 
" clip-path="url(#p25f741cdfe)" style="fill: none; stroke: #008000"/>
    <path d="M 411.751639 262.678098 
L 415.956718 306.130584 
" clip-path="url(#p25f741cdfe)" style="fill: none; stroke: #008000"/>
    <path d="M 327.650054 236.045929 
L 333.256826 195.39683 
" clip-path="url(#p25f741cdfe)" style="fill: none; stroke: #008000"/>
    <path d="M 327.650054 236.045929 
L 330.45344 262.678098 
" clip-path="url(#p25f741cdfe)" style="fill: none; stroke: #ff0000; stroke-width: 2.25"/>
    <path d="M 333.256826 195.39683 
L 424.366877 185.584978 
" clip-path="url(#p25f741cdfe)" style="fill: none; stroke: #0000ff; stroke-width: 2.25"/>
    <path d="M 323.444975 275.293336 
L 330.45344 262.678098 
" clip-path="url(#p25f741cdfe)" style="fill: none; stroke: #ff0000; stroke-width: 2.25"/>
    <path d="M 322.043282 467.325288 
L 352.88053 467.325288 
" clip-path="url(#p25f741cdfe)" style="fill: none; stroke: #ff0000; stroke-width: 2.25"/>
    <path d="M 322.043282 467.325288 
L 357.085609 499.564229 
" clip-path="url(#p25f741cdfe)" style="fill: none; stroke: #ff0000; stroke-width: 2.25"/>
    <path d="M 322.043282 467.325288 
L 296.812806 421.069416 
" clip-path="url(#p25f741cdfe)" style="fill: none; stroke: #ff0000; stroke-width: 2.25"/>
    <path d="M 352.88053 467.325288 
L 357.085609 499.564229 
" clip-path="url(#p25f741cdfe)" style="fill: none; stroke: #ff0000; stroke-width: 2.25"/>
    <path d="M 352.88053 467.325288 
L 387.922857 470.128674 
" clip-path="url(#p25f741cdfe)" style="fill: none; stroke: #ff0000; stroke-width: 2.25"/>
    <path d="M 352.88053 467.325288 
L 338.863599 412.659258 
" clip-path="url(#p25f741cdfe)" style="fill: none; stroke: #ff0000; stroke-width: 2.25"/>
    <path d="M 431.375342 461.718516 
L 392.127936 457.513437 
" clip-path="url(#p25f741cdfe)" style="fill: none; stroke: #ff0000; stroke-width: 2.25"/>
    <path d="M 387.922857 470.128674 
L 392.127936 457.513437 
" clip-path="url(#p25f741cdfe)" style="fill: none; stroke: #ff0000; stroke-width: 2.25"/>
    <path d="M 361.290688 346.779683 
L 362.692381 369.206772 
" clip-path="url(#p25f741cdfe)" style="fill: none; stroke: #0000ff; stroke-width: 2.25"/>
    <path d="M 361.290688 346.779683 
L 401.939787 328.557673 
" clip-path="url(#p25f741cdfe)" style="fill: none; stroke: #008000"/>
    <path d="M 362.692381 369.206772 
L 401.939787 367.805079 
" clip-path="url(#p25f741cdfe)" style="fill: none; stroke: #0000ff; stroke-width: 2.25"/>
    <path d="M 362.692381 369.206772 
L 351.478836 383.223703 
" clip-path="url(#p25f741cdfe)" style="fill: none; stroke: #008000"/>
    <path d="M 401.939787 367.805079 
L 401.939787 328.557673 
" clip-path="url(#p25f741cdfe)" style="fill: none; stroke: #008000"/>
    <path d="M 401.939787 367.805079 
L 411.751639 376.215238 
" clip-path="url(#p25f741cdfe)" style="fill: none; stroke: #0000ff; stroke-width: 2.25"/>
    <path d="M 338.863599 412.659258 
L 354.282223 401.445713 
" clip-path="url(#p25f741cdfe)" style="fill: none; stroke: #ff0000; stroke-width: 2.25"/>
    <path d="M 338.863599 412.659258 
L 296.812806 421.069416 
" clip-path="url(#p25f741cdfe)" style="fill: none; stroke: #ff0000; stroke-width: 2.25"/>
    <path d="M 351.478836 383.223703 
L 354.282223 401.445713 
" clip-path="url(#p25f741cdfe)" style="fill: none; stroke: #ff0000; stroke-width: 2.25"/>
    <path d="M 351.478836 383.223703 
L 309.428044 367.805079 
" clip-path="url(#p25f741cdfe)" style="fill: none; stroke: #ff0000; stroke-width: 2.25"/>
    <path d="M 354.282223 401.445713 
L 386.521164 430.881268 
" clip-path="url(#p25f741cdfe)" style="fill: none; stroke: #ff0000; stroke-width: 2.25"/>
    <path d="M 392.127936 457.513437 
L 386.521164 430.881268 
" clip-path="url(#p25f741cdfe)" style="fill: none; stroke: #ff0000; stroke-width: 2.25"/>
    <path d="M 386.521164 430.881268 
L 414.555025 408.454179 
" clip-path="url(#p25f741cdfe)" style="fill: none; stroke: #ff0000; stroke-width: 2.25"/>
    <path d="M 414.555025 408.454179 
L 411.751639 376.215238 
" clip-path="url(#p25f741cdfe)" style="fill: none; stroke: #008000"/>
    <path d="M 414.555025 408.454179 
L 443.99058 405.650793 
" clip-path="url(#p25f741cdfe)" style="fill: none; stroke: #ff0000; stroke-width: 2.25"/>
    <path d="M 436.982115 247.259474 
L 424.366877 185.584978 
" clip-path="url(#p25f741cdfe)" style="fill: none; stroke: #008000"/>
    <path d="M 436.982115 247.259474 
L 456.605818 252.866246 
" clip-path="url(#p25f741cdfe)" style="fill: none; stroke: #008000"/>
    <path d="M 424.366877 185.584978 
L 514.075234 178.576513 
" clip-path="url(#p25f741cdfe)" style="fill: none; stroke: #0000ff; stroke-width: 2.25"/>
    <path d="M 456.605818 252.866246 
L 516.87862 222.028998 
" clip-path="url(#p25f741cdfe)" style="fill: none; stroke: #ff0000; stroke-width: 2.25"/>
    <path d="M 456.605818 252.866246 
L 476.229521 266.883177 
" clip-path="url(#p25f741cdfe)" style="fill: none; stroke: #ff0000; stroke-width: 2.25"/>
    <path d="M 516.87862 222.028998 
L 514.075234 178.576513 
" clip-path="url(#p25f741cdfe)" style="fill: none; stroke: #008000"/>
    <path d="M 516.87862 222.028998 
L 529.493858 258.473019 
" clip-path="url(#p25f741cdfe)" style="fill: none; stroke: #ff0000; stroke-width: 2.25"/>
    <path d="M 514.075234 178.576513 
L 589.766661 244.456088 
" clip-path="url(#p25f741cdfe)" style="fill: none; stroke: #0000ff; stroke-width: 2.25"/>
    <path d="M 528.092165 273.891643 
L 595.373433 279.498415 
" clip-path="url(#p25f741cdfe)" style="fill: none; stroke: #008000"/>
    <path d="M 528.092165 273.891643 
L 529.493858 258.473019 
" clip-path="url(#p25f741cdfe)" style="fill: none; stroke: #008000"/>
    <path d="M 528.092165 273.891643 
L 523.887086 294.917039 
" clip-path="url(#p25f741cdfe)" style="fill: none; stroke: #008000"/>
    <path d="M 595.373433 279.498415 
L 589.766661 244.456088 
" clip-path="url(#p25f741cdfe)" style="fill: none; stroke: #0000ff; stroke-width: 2.25"/>
    <path d="M 595.373433 279.498415 
L 599.578512 322.950901 
" clip-path="url(#p25f741cdfe)" style="fill: none; stroke: #0000ff; stroke-width: 2.25"/>
    <path d="M 589.766661 244.456088 
L 529.493858 258.473019 
" clip-path="url(#p25f741cdfe)" style="fill: none; stroke: #008000"/>
    <path d="M 529.493858 258.473019 
L 476.229521 266.883177 
" clip-path="url(#p25f741cdfe)" style="fill: none; stroke: #ff0000; stroke-width: 2.25"/>
    <path d="M 243.548469 461.718516 
L 250.556934 414.060951 
" clip-path="url(#p25f741cdfe)" style="fill: none; stroke: #ff0000; stroke-width: 2.25"/>
    <path d="M 296.812806 421.069416 
L 287.000955 404.249099 
" clip-path="url(#p25f741cdfe)" style="fill: none; stroke: #ff0000; stroke-width: 2.25"/>
    <path d="M 287.000955 404.249099 
L 294.00942 363.6 
" clip-path="url(#p25f741cdfe)" style="fill: none; stroke: #ff0000; stroke-width: 2.25"/>
    <path d="M 287.000955 404.249099 
L 250.556934 414.060951 
" clip-path="url(#p25f741cdfe)" style="fill: none; stroke: #ff0000; stroke-width: 2.25"/>
    <path d="M 309.428044 367.805079 
L 294.00942 363.6 
" clip-path="url(#p25f741cdfe)" style="fill: none; stroke: #ff0000; stroke-width: 2.25"/>
    <path d="M 294.00942 363.6 
L 279.992489 335.566138 
" clip-path="url(#p25f741cdfe)" style="fill: none; stroke: #ff0000; stroke-width: 2.25"/>
    <path d="M 281.394182 318.745821 
L 277.189103 303.327197 
" clip-path="url(#p25f741cdfe)" style="fill: none; stroke: #ff0000; stroke-width: 2.25"/>
    <path d="M 281.394182 318.745821 
L 279.992489 335.566138 
" clip-path="url(#p25f741cdfe)" style="fill: none; stroke: #ff0000; stroke-width: 2.25"/>
    <path d="M 277.189103 303.327197 
L 240.745083 310.335663 
" clip-path="url(#p25f741cdfe)" style="fill: none; stroke: #ff0000; stroke-width: 2.25"/>
    <path d="M 277.189103 303.327197 
L 271.582331 273.891643 
" clip-path="url(#p25f741cdfe)" style="fill: none; stroke: #ff0000; stroke-width: 2.25"/>
    <path d="M 279.992489 335.566138 
L 239.34339 332.762752 
" clip-path="url(#p25f741cdfe)" style="fill: none; stroke: #ff0000; stroke-width: 2.25"/>
    <path d="M 240.745083 310.335663 
L 235.13831 278.096722 
" clip-path="url(#p25f741cdfe)" style="fill: none; stroke: #ff0000; stroke-width: 2.25"/>
    <path d="M 240.745083 310.335663 
L 188.882439 320.147514 
" clip-path="url(#p25f741cdfe)" style="fill: none; stroke: #ff0000; stroke-width: 2.25"/>
    <path d="M 240.745083 310.335663 
L 239.34339 332.762752 
" clip-path="url(#p25f741cdfe)" style="fill: none; stroke: #ff0000; stroke-width: 2.25"/>
    <path d="M 214.112914 282.301801 
L 174.865508 297.720425 
" clip-path="url(#p25f741cdfe)" style="fill: none; stroke: #ff0000; stroke-width: 2.25"/>
    <path d="M 214.112914 282.301801 
L 194.489211 226.234078 
" clip-path="url(#p25f741cdfe)" style="fill: none; stroke: #008000"/>
    <path d="M 214.112914 282.301801 
L 235.13831 278.096722 
" clip-path="url(#p25f741cdfe)" style="fill: none; stroke: #ff0000; stroke-width: 2.25"/>
    <path d="M 174.865508 297.720425 
L 188.882439 320.147514 
" clip-path="url(#p25f741cdfe)" style="fill: none; stroke: #ff0000; stroke-width: 2.25"/>
    <path d="M 174.865508 297.720425 
L 158.045191 276.695029 
" clip-path="url(#p25f741cdfe)" style="fill: none; stroke: #008000"/>
    <path d="M 194.489211 226.234078 
L 235.13831 209.413761 
" clip-path="url(#p25f741cdfe)" style="fill: none; stroke: #0000ff; stroke-width: 2.25"/>
    <path d="M 194.489211 226.234078 
L 158.045191 276.695029 
" clip-path="url(#p25f741cdfe)" style="fill: none; stroke: #0000ff; stroke-width: 2.25"/>
    <path d="M 235.13831 278.096722 
L 254.762014 271.088256 
" clip-path="url(#p25f741cdfe)" style="fill: none; stroke: #ff0000; stroke-width: 2.25"/>
    <path d="M 271.582331 273.891643 
L 254.762014 271.088256 
" clip-path="url(#p25f741cdfe)" style="fill: none; stroke: #ff0000; stroke-width: 2.25"/>
    <path d="M 254.762014 271.088256 
L 235.13831 209.413761 
" clip-path="url(#p25f741cdfe)" style="fill: none; stroke: #008000"/>
    <path d="M 571.544651 331.361059 
L 599.578512 322.950901 
" clip-path="url(#p25f741cdfe)" style="fill: none; stroke: #008000"/>
    <path d="M 571.544651 331.361059 
L 543.510789 343.976297 
" clip-path="url(#p25f741cdfe)" style="fill: none; stroke: #008000"/>
    <path d="M 571.544651 331.361059 
L 599.578512 367.805079 
" clip-path="url(#p25f741cdfe)" style="fill: none; stroke: #008000"/>
    <path d="M 599.578512 322.950901 
L 599.578512 367.805079 
" clip-path="url(#p25f741cdfe)" style="fill: none; stroke: #0000ff; stroke-width: 2.25"/>
    <path d="M 543.510789 343.976297 
L 546.314175 356.591535 
" clip-path="url(#p25f741cdfe)" style="fill: none; stroke: #008000"/>
    <path d="M 543.510789 343.976297 
L 537.904017 331.361059 
" clip-path="url(#p25f741cdfe)" style="fill: none; stroke: #008000"/>
    <path d="M 498.65661 416.864337 
L 554.724334 397.240634 
" clip-path="url(#p25f741cdfe)" style="fill: none; stroke: #008000"/>
    <path d="M 498.65661 416.864337 
L 494.451531 369.206772 
" clip-path="url(#p25f741cdfe)" style="fill: none; stroke: #0000ff; stroke-width: 2.25"/>
    <path d="M 599.578512 367.805079 
L 554.724334 397.240634 
" clip-path="url(#p25f741cdfe)" style="fill: none; stroke: #008000"/>
    <path d="M 599.578512 367.805079 
L 599.578512 425.274496 
" clip-path="url(#p25f741cdfe)" style="fill: none; stroke: #0000ff; stroke-width: 2.25"/>
    <path d="M 546.314175 356.591535 
L 554.724334 397.240634 
" clip-path="url(#p25f741cdfe)" style="fill: none; stroke: #008000"/>
    <path d="M 546.314175 356.591535 
L 494.451531 369.206772 
" clip-path="url(#p25f741cdfe)" style="fill: none; stroke: #008000"/>
    <path d="M 554.724334 397.240634 
L 565.937878 432.282961 
" clip-path="url(#p25f741cdfe)" style="fill: none; stroke: #008000"/>
    <path d="M 568.741265 446.299892 
L 579.954809 491.154071 
" clip-path="url(#p25f741cdfe)" style="fill: none; stroke: #008000"/>
    <path d="M 568.741265 446.299892 
L 565.937878 432.282961 
" clip-path="url(#p25f741cdfe)" style="fill: none; stroke: #008000"/>
    <path d="M 579.954809 491.154071 
L 599.578512 425.274496 
" clip-path="url(#p25f741cdfe)" style="fill: none; stroke: #0000ff; stroke-width: 2.25"/>
    <path d="M 565.937878 432.282961 
L 599.578512 425.274496 
" clip-path="url(#p25f741cdfe)" style="fill: none; stroke: #008000"/>
    <path d="M 415.956718 306.130584 
L 429.973649 306.130584 
" clip-path="url(#p25f741cdfe)" style="fill: none; stroke: #0000ff; stroke-width: 2.25"/>
    <path d="M 401.939787 328.557673 
L 424.366877 324.352594 
" clip-path="url(#p25f741cdfe)" style="fill: none; stroke: #008000"/>
    <path d="M 411.751639 376.215238 
L 441.187194 365.001693 
" clip-path="url(#p25f741cdfe)" style="fill: none; stroke: #0000ff; stroke-width: 2.25"/>
    <path d="M 443.99058 405.650793 
L 441.187194 365.001693 
" clip-path="url(#p25f741cdfe)" style="fill: none; stroke: #008000"/>
    <path d="M 424.366877 324.352594 
L 441.187194 365.001693 
" clip-path="url(#p25f741cdfe)" style="fill: none; stroke: #008000"/>
    <path d="M 424.366877 324.352594 
L 429.973649 306.130584 
" clip-path="url(#p25f741cdfe)" style="fill: none; stroke: #008000"/>
    <path d="M 441.187194 365.001693 
L 494.451531 356.591535 
" clip-path="url(#p25f741cdfe)" style="fill: none; stroke: #0000ff; stroke-width: 2.25"/>
    <path d="M 494.451531 369.206772 
L 494.451531 356.591535 
" clip-path="url(#p25f741cdfe)" style="fill: none; stroke: #0000ff; stroke-width: 2.25"/>
    <path d="M 537.904017 331.361059 
L 523.887086 294.917039 
" clip-path="url(#p25f741cdfe)" style="fill: none; stroke: #008000"/>
    <path d="M 537.904017 331.361059 
L 491.648145 331.361059 
" clip-path="url(#p25f741cdfe)" style="fill: none; stroke: #008000"/>
    <path d="M 494.451531 356.591535 
L 491.648145 331.361059 
" clip-path="url(#p25f741cdfe)" style="fill: none; stroke: #0000ff; stroke-width: 2.25"/>
    <path d="M 523.887086 294.917039 
L 488.844759 303.327197 
" clip-path="url(#p25f741cdfe)" style="fill: none; stroke: #008000"/>
    <path d="M 491.648145 331.361059 
L 488.844759 303.327197 
" clip-path="url(#p25f741cdfe)" style="fill: none; stroke: #0000ff; stroke-width: 2.25"/>
    <path d="M 476.229521 266.883177 
L 474.827828 297.720425 
" clip-path="url(#p25f741cdfe)" style="fill: none; stroke: #008000"/>
    <path d="M 429.973649 306.130584 
L 474.827828 297.720425 
" clip-path="url(#p25f741cdfe)" style="fill: none; stroke: #0000ff; stroke-width: 2.25"/>
    <path d="M 488.844759 303.327197 
L 474.827828 297.720425 
" clip-path="url(#p25f741cdfe)" style="fill: none; stroke: #0000ff; stroke-width: 2.25"/>
    <path d="M 188.882439 320.147514 
L 166.455349 356.591535 
" clip-path="url(#p25f741cdfe)" style="fill: none; stroke: #ff0000; stroke-width: 2.25"/>
    <path d="M 158.045191 276.695029 
L 149.635032 365.001693 
" clip-path="url(#p25f741cdfe)" style="fill: none; stroke: #0000ff; stroke-width: 2.25"/>
    <path d="M 138.421488 463.120209 
L 179.070587 461.718516 
" clip-path="url(#p25f741cdfe)" style="fill: none; stroke: #008000"/>
    <path d="M 138.421488 463.120209 
L 149.635032 365.001693 
" clip-path="url(#p25f741cdfe)" style="fill: none; stroke: #0000ff; stroke-width: 2.25"/>
    <path d="M 179.070587 461.718516 
L 181.873973 402.847406 
" clip-path="url(#p25f741cdfe)" style="fill: none; stroke: #ff0000; stroke-width: 2.25"/>
    <path d="M 250.556934 414.060951 
L 228.129845 388.830476 
" clip-path="url(#p25f741cdfe)" style="fill: none; stroke: #ff0000; stroke-width: 2.25"/>
    <path d="M 181.873973 402.847406 
L 149.635032 365.001693 
" clip-path="url(#p25f741cdfe)" style="fill: none; stroke: #008000"/>
    <path d="M 181.873973 402.847406 
L 228.129845 388.830476 
" clip-path="url(#p25f741cdfe)" style="fill: none; stroke: #ff0000; stroke-width: 2.25"/>
    <path d="M 149.635032 365.001693 
L 166.455349 356.591535 
" clip-path="url(#p25f741cdfe)" style="fill: none; stroke: #008000"/>
    <path d="M 166.455349 356.591535 
L 228.129845 373.411852 
" clip-path="url(#p25f741cdfe)" style="fill: none; stroke: #ff0000; stroke-width: 2.25"/>
    <path d="M 239.34339 332.762752 
L 228.129845 373.411852 
" clip-path="url(#p25f741cdfe)" style="fill: none; stroke: #ff0000; stroke-width: 2.25"/>
    <path d="M 228.129845 373.411852 
L 228.129845 388.830476 
" clip-path="url(#p25f741cdfe)" style="fill: none; stroke: #ff0000; stroke-width: 2.25"/>
   </g>
   <g id="PathCollection_1">
    <path d="M 301.017885 491.745679 
C 301.174782 491.745679 301.325273 491.683343 301.436215 491.572401 
C 301.547158 491.461458 301.609493 491.310967 301.609493 491.154071 
C 301.609493 490.997174 301.547158 490.846683 301.436215 490.735741 
C 301.325273 490.624798 301.174782 490.562463 301.017885 490.562463 
C 300.860989 490.562463 300.710498 490.624798 300.599555 490.735741 
C 300.488613 490.846683 300.426277 490.997174 300.426277 491.154071 
C 300.426277 491.310967 300.488613 491.461458 300.599555 491.572401 
C 300.710498 491.683343 300.860989 491.745679 301.017885 491.745679 
z
" clip-path="url(#p25f741cdfe)" style="fill: #1f78b4; stroke: #1f78b4"/>
    <path d="M 305.222965 542.20663 
C 305.379861 542.20663 305.530352 542.144294 305.641295 542.033352 
C 305.752237 541.922409 305.814573 541.771918 305.814573 541.615022 
C 305.814573 541.458125 305.752237 541.307634 305.641295 541.196692 
C 305.530352 541.085749 305.379861 541.023414 305.222965 541.023414 
C 305.066068 541.023414 304.915577 541.085749 304.804635 541.196692 
C 304.693692 541.307634 304.631357 541.458125 304.631357 541.615022 
C 304.631357 541.771918 304.693692 541.922409 304.804635 542.033352 
C 304.915577 542.144294 305.066068 542.20663 305.222965 542.20663 
z
" clip-path="url(#p25f741cdfe)" style="fill: #1f78b4; stroke: #1f78b4"/>
    <path d="M 368.299153 543.608323 
C 368.45605 543.608323 368.606541 543.545987 368.717483 543.435045 
C 368.828426 543.324102 368.890761 543.173611 368.890761 543.016715 
C 368.890761 542.859819 368.828426 542.709327 368.717483 542.598385 
C 368.606541 542.487442 368.45605 542.425107 368.299153 542.425107 
C 368.142257 542.425107 367.991766 542.487442 367.880823 542.598385 
C 367.769881 542.709327 367.707545 542.859819 367.707545 543.016715 
C 367.707545 543.173611 367.769881 543.324102 367.880823 543.435045 
C 367.991766 543.545987 368.142257 543.608323 368.299153 543.608323 
z
" clip-path="url(#p25f741cdfe)" style="fill: #1f78b4; stroke: #1f78b4"/>
    <path d="M 365.495767 509.967689 
C 365.652664 509.967689 365.803155 509.905353 365.914097 509.794411 
C 366.02504 509.683468 366.087375 509.532977 366.087375 509.376081 
C 366.087375 509.219185 366.02504 509.068693 365.914097 508.957751 
C 365.803155 508.846808 365.652664 508.784473 365.495767 508.784473 
C 365.338871 508.784473 365.18838 508.846808 365.077437 508.957751 
C 364.966495 509.068693 364.904159 509.219185 364.904159 509.376081 
C 364.904159 509.532977 364.966495 509.683468 365.077437 509.794411 
C 365.18838 509.905353 365.338871 509.967689 365.495767 509.967689 
z
" clip-path="url(#p25f741cdfe)" style="fill: #1f78b4; stroke: #1f78b4"/>
    <path d="M 392.127936 509.967689 
C 392.284832 509.967689 392.435323 509.905353 392.546266 509.794411 
C 392.657208 509.683468 392.719544 509.532977 392.719544 509.376081 
C 392.719544 509.219185 392.657208 509.068693 392.546266 508.957751 
C 392.435323 508.846808 392.284832 508.784473 392.127936 508.784473 
C 391.97104 508.784473 391.820548 508.846808 391.709606 508.957751 
C 391.598663 509.068693 391.536328 509.219185 391.536328 509.376081 
C 391.536328 509.532977 391.598663 509.683468 391.709606 509.794411 
C 391.820548 509.905353 391.97104 509.967689 392.127936 509.967689 
z
" clip-path="url(#p25f741cdfe)" style="fill: #1f78b4; stroke: #1f78b4"/>
    <path d="M 389.32455 540.804937 
C 389.481446 540.804937 389.631937 540.742601 389.74288 540.631659 
C 389.853822 540.520716 389.916158 540.370225 389.916158 540.213329 
C 389.916158 540.056432 389.853822 539.905941 389.74288 539.794999 
C 389.631937 539.684056 389.481446 539.621721 389.32455 539.621721 
C 389.167653 539.621721 389.017162 539.684056 388.90622 539.794999 
C 388.795277 539.905941 388.732942 540.056432 388.732942 540.213329 
C 388.732942 540.370225 388.795277 540.520716 388.90622 540.631659 
C 389.017162 540.742601 389.167653 540.804937 389.32455 540.804937 
z
" clip-path="url(#p25f741cdfe)" style="fill: #1f78b4; stroke: #1f78b4"/>
    <path d="M 303.821272 316.534043 
C 303.978168 316.534043 304.128659 316.471708 304.239602 316.360765 
C 304.350544 316.249823 304.41288 316.099331 304.41288 315.942435 
C 304.41288 315.785539 304.350544 315.635048 304.239602 315.524105 
C 304.128659 315.413163 303.978168 315.350827 303.821272 315.350827 
C 303.664375 315.350827 303.513884 315.413163 303.402942 315.524105 
C 303.291999 315.635048 303.229664 315.785539 303.229664 315.942435 
C 303.229664 316.099331 303.291999 316.249823 303.402942 316.360765 
C 303.513884 316.471708 303.664375 316.534043 303.821272 316.534043 
z
" clip-path="url(#p25f741cdfe)" style="fill: #1f78b4; stroke: #1f78b4"/>
    <path d="M 330.45344 308.123885 
C 330.610336 308.123885 330.760828 308.061549 330.87177 307.950607 
C 330.982713 307.839664 331.045048 307.689173 331.045048 307.532277 
C 331.045048 307.37538 330.982713 307.224889 330.87177 307.113947 
C 330.760828 307.003004 330.610336 306.940669 330.45344 306.940669 
C 330.296544 306.940669 330.146053 307.003004 330.03511 307.113947 
C 329.924168 307.224889 329.861832 307.37538 329.861832 307.532277 
C 329.861832 307.689173 329.924168 307.839664 330.03511 307.950607 
C 330.146053 308.061549 330.296544 308.123885 330.45344 308.123885 
z
" clip-path="url(#p25f741cdfe)" style="fill: #1f78b4; stroke: #1f78b4"/>
    <path d="M 358.487302 310.927271 
C 358.644198 310.927271 358.794689 310.864935 358.905632 310.753993 
C 359.016574 310.64305 359.07891 310.492559 359.07891 310.335663 
C 359.07891 310.178767 359.016574 310.028275 358.905632 309.917333 
C 358.794689 309.80639 358.644198 309.744055 358.487302 309.744055 
C 358.330406 309.744055 358.179914 309.80639 358.068972 309.917333 
C 357.958029 310.028275 357.895694 310.178767 357.895694 310.335663 
C 357.895694 310.492559 357.958029 310.64305 358.068972 310.753993 
C 358.179914 310.864935 358.330406 310.927271 358.487302 310.927271 
z
" clip-path="url(#p25f741cdfe)" style="fill: #1f78b4; stroke: #1f78b4"/>
    <path d="M 373.905926 298.312033 
C 374.062822 298.312033 374.213313 298.249697 374.324256 298.138755 
C 374.435198 298.027813 374.497534 297.877321 374.497534 297.720425 
C 374.497534 297.563529 374.435198 297.413037 374.324256 297.302095 
C 374.213313 297.191153 374.062822 297.128817 373.905926 297.128817 
C 373.74903 297.128817 373.598538 297.191153 373.487596 297.302095 
C 373.376653 297.413037 373.314318 297.563529 373.314318 297.720425 
C 373.314318 297.877321 373.376653 298.027813 373.487596 298.138755 
C 373.598538 298.249697 373.74903 298.312033 373.905926 298.312033 
z
" clip-path="url(#p25f741cdfe)" style="fill: #1f78b4; stroke: #1f78b4"/>
    <path d="M 264.573865 545.010016 
C 264.730761 545.010016 264.881253 544.94768 264.992195 544.836738 
C 265.103138 544.725795 265.165473 544.575304 265.165473 544.418408 
C 265.165473 544.261512 265.103138 544.11102 264.992195 544.000078 
C 264.881253 543.889135 264.730761 543.8268 264.573865 543.8268 
C 264.416969 543.8268 264.266478 543.889135 264.155535 544.000078 
C 264.044593 544.11102 263.982257 544.261512 263.982257 544.418408 
C 263.982257 544.575304 264.044593 544.725795 264.155535 544.836738 
C 264.266478 544.94768 264.416969 545.010016 264.573865 545.010016 
z
" clip-path="url(#p25f741cdfe)" style="fill: #1f78b4; stroke: #1f78b4"/>
    <path d="M 253.360321 501.55753 
C 253.517217 501.55753 253.667708 501.495195 253.778651 501.384252 
C 253.889593 501.27331 253.951929 501.122819 253.951929 500.965922 
C 253.951929 500.809026 253.889593 500.658535 253.778651 500.547592 
C 253.667708 500.43665 253.517217 500.374314 253.360321 500.374314 
C 253.203424 500.374314 253.052933 500.43665 252.941991 500.547592 
C 252.831048 500.658535 252.768713 500.809026 252.768713 500.965922 
C 252.768713 501.122819 252.831048 501.27331 252.941991 501.384252 
C 253.052933 501.495195 253.203424 501.55753 253.360321 501.55753 
z
" clip-path="url(#p25f741cdfe)" style="fill: #1f78b4; stroke: #1f78b4"/>
    <path d="M 190.284132 470.720282 
C 190.441028 470.720282 190.591519 470.657947 190.702462 470.547004 
C 190.813404 470.436062 190.87574 470.285571 190.87574 470.128674 
C 190.87574 469.971778 190.813404 469.821287 190.702462 469.710344 
C 190.591519 469.599402 190.441028 469.537066 190.284132 469.537066 
C 190.127235 469.537066 189.976744 469.599402 189.865802 469.710344 
C 189.754859 469.821287 189.692524 469.971778 189.692524 470.128674 
C 189.692524 470.285571 189.754859 470.436062 189.865802 470.547004 
C 189.976744 470.657947 190.127235 470.720282 190.284132 470.720282 
z
" clip-path="url(#p25f741cdfe)" style="fill: #1f78b4; stroke: #1f78b4"/>
    <path d="M 162.25027 549.215095 
C 162.407166 549.215095 162.557658 549.15276 162.6686 549.041817 
C 162.779542 548.930875 162.841878 548.780383 162.841878 548.623487 
C 162.841878 548.466591 162.779542 548.3161 162.6686 548.205157 
C 162.557658 548.094215 162.407166 548.031879 162.25027 548.031879 
C 162.093374 548.031879 161.942882 548.094215 161.83194 548.205157 
C 161.720998 548.3161 161.658662 548.466591 161.658662 548.623487 
C 161.658662 548.780383 161.720998 548.930875 161.83194 549.041817 
C 161.942882 549.15276 162.093374 549.215095 162.25027 549.215095 
z
" clip-path="url(#p25f741cdfe)" style="fill: #1f78b4; stroke: #1f78b4"/>
    <path d="M 459.409204 421.661024 
C 459.5661 421.661024 459.716592 421.598689 459.827534 421.487746 
C 459.938476 421.376804 460.000812 421.226313 460.000812 421.069416 
C 460.000812 420.91252 459.938476 420.762029 459.827534 420.651086 
C 459.716592 420.540144 459.5661 420.477808 459.409204 420.477808 
C 459.252308 420.477808 459.101816 420.540144 458.990874 420.651086 
C 458.879932 420.762029 458.817596 420.91252 458.817596 421.069416 
C 458.817596 421.226313 458.879932 421.376804 458.990874 421.487746 
C 459.101816 421.598689 459.252308 421.661024 459.409204 421.661024 
z
" clip-path="url(#p25f741cdfe)" style="fill: #1f78b4; stroke: #1f78b4"/>
    <path d="M 465.015976 455.301658 
C 465.172873 455.301658 465.323364 455.239323 465.434306 455.128381 
C 465.545249 455.017438 465.607584 454.866947 465.607584 454.71005 
C 465.607584 454.553154 465.545249 454.402663 465.434306 454.29172 
C 465.323364 454.180778 465.172873 454.118443 465.015976 454.118443 
C 464.85908 454.118443 464.708589 454.180778 464.597646 454.29172 
C 464.486704 454.402663 464.424368 454.553154 464.424368 454.71005 
C 464.424368 454.866947 464.486704 455.017438 464.597646 455.128381 
C 464.708589 455.239323 464.85908 455.301658 465.015976 455.301658 
z
" clip-path="url(#p25f741cdfe)" style="fill: #1f78b4; stroke: #1f78b4"/>
    <path d="M 466.417669 467.916896 
C 466.574566 467.916896 466.725057 467.854561 466.835999 467.743618 
C 466.946942 467.632676 467.009277 467.482185 467.009277 467.325288 
C 467.009277 467.168392 466.946942 467.017901 466.835999 466.906958 
C 466.725057 466.796016 466.574566 466.73368 466.417669 466.73368 
C 466.260773 466.73368 466.110282 466.796016 465.999339 466.906958 
C 465.888397 467.017901 465.826061 467.168392 465.826061 467.325288 
C 465.826061 467.482185 465.888397 467.632676 465.999339 467.743618 
C 466.110282 467.854561 466.260773 467.916896 466.417669 467.916896 
z
" clip-path="url(#p25f741cdfe)" style="fill: #1f78b4; stroke: #1f78b4"/>
    <path d="M 445.392273 487.540599 
C 445.549169 487.540599 445.699661 487.478264 445.810603 487.367321 
C 445.921546 487.256379 445.983881 487.105888 445.983881 486.948991 
C 445.983881 486.792095 445.921546 486.641604 445.810603 486.530661 
C 445.699661 486.419719 445.549169 486.357383 445.392273 486.357383 
C 445.235377 486.357383 445.084886 486.419719 444.973943 486.530661 
C 444.863001 486.641604 444.800665 486.792095 444.800665 486.948991 
C 444.800665 487.105888 444.863001 487.256379 444.973943 487.367321 
C 445.084886 487.478264 445.235377 487.540599 445.392273 487.540599 
z
" clip-path="url(#p25f741cdfe)" style="fill: #1f78b4; stroke: #1f78b4"/>
    <path d="M 460.810897 542.20663 
C 460.967793 542.20663 461.118285 542.144294 461.229227 542.033352 
C 461.340169 541.922409 461.402505 541.771918 461.402505 541.615022 
C 461.402505 541.458125 461.340169 541.307634 461.229227 541.196692 
C 461.118285 541.085749 460.967793 541.023414 460.810897 541.023414 
C 460.654001 541.023414 460.503509 541.085749 460.392567 541.196692 
C 460.281625 541.307634 460.219289 541.458125 460.219289 541.615022 
C 460.219289 541.771918 460.281625 541.922409 460.392567 542.033352 
C 460.503509 542.144294 460.654001 542.20663 460.810897 542.20663 
z
" clip-path="url(#p25f741cdfe)" style="fill: #1f78b4; stroke: #1f78b4"/>
    <path d="M 516.87862 481.933827 
C 517.035517 481.933827 517.186008 481.871492 517.29695 481.760549 
C 517.407893 481.649607 517.470228 481.499115 517.470228 481.342219 
C 517.470228 481.185323 517.407893 481.034831 517.29695 480.923889 
C 517.186008 480.812947 517.035517 480.750611 516.87862 480.750611 
C 516.721724 480.750611 516.571233 480.812947 516.46029 480.923889 
C 516.349348 481.034831 516.287012 481.185323 516.287012 481.342219 
C 516.287012 481.499115 516.349348 481.649607 516.46029 481.760549 
C 516.571233 481.871492 516.721724 481.933827 516.87862 481.933827 
z
" clip-path="url(#p25f741cdfe)" style="fill: #1f78b4; stroke: #1f78b4"/>
    <path d="M 521.0837 465.11351 
C 521.240596 465.11351 521.391087 465.051175 521.50203 464.940232 
C 521.612972 464.82929 521.675308 464.678798 521.675308 464.521902 
C 521.675308 464.365006 521.612972 464.214514 521.50203 464.103572 
C 521.391087 463.99263 521.240596 463.930294 521.0837 463.930294 
C 520.926803 463.930294 520.776312 463.99263 520.66537 464.103572 
C 520.554427 464.214514 520.492092 464.365006 520.492092 464.521902 
C 520.492092 464.678798 520.554427 464.82929 520.66537 464.940232 
C 520.776312 465.051175 520.926803 465.11351 521.0837 465.11351 
z
" clip-path="url(#p25f741cdfe)" style="fill: #1f78b4; stroke: #1f78b4"/>
    <path d="M 526.690472 511.369382 
C 526.847368 511.369382 526.99786 511.307046 527.108802 511.196104 
C 527.219744 511.085161 527.28208 510.93467 527.28208 510.777774 
C 527.28208 510.620878 527.219744 510.470386 527.108802 510.359444 
C 526.99786 510.248501 526.847368 510.186166 526.690472 510.186166 
C 526.533576 510.186166 526.383084 510.248501 526.272142 510.359444 
C 526.1612 510.470386 526.098864 510.620878 526.098864 510.777774 
C 526.098864 510.93467 526.1612 511.085161 526.272142 511.196104 
C 526.383084 511.307046 526.533576 511.369382 526.690472 511.369382 
z
" clip-path="url(#p25f741cdfe)" style="fill: #1f78b4; stroke: #1f78b4"/>
    <path d="M 281.394182 207.201983 
C 281.551078 207.201983 281.70157 207.139647 281.812512 207.028705 
C 281.923455 206.917762 281.98579 206.767271 281.98579 206.610375 
C 281.98579 206.453478 281.923455 206.302987 281.812512 206.192045 
C 281.70157 206.081102 281.551078 206.018767 281.394182 206.018767 
C 281.237286 206.018767 281.086795 206.081102 280.975852 206.192045 
C 280.86491 206.302987 280.802574 206.453478 280.802574 206.610375 
C 280.802574 206.767271 280.86491 206.917762 280.975852 207.028705 
C 281.086795 207.139647 281.237286 207.201983 281.394182 207.201983 
z
" clip-path="url(#p25f741cdfe)" style="fill: #1f78b4; stroke: #1f78b4"/>
    <path d="M 299.616192 250.654468 
C 299.773089 250.654468 299.92358 250.592133 300.034522 250.48119 
C 300.145465 250.370248 300.2078 250.219756 300.2078 250.06286 
C 300.2078 249.905964 300.145465 249.755473 300.034522 249.64453 
C 299.92358 249.533588 299.773089 249.471252 299.616192 249.471252 
C 299.459296 249.471252 299.308805 249.533588 299.197862 249.64453 
C 299.08692 249.755473 299.024584 249.905964 299.024584 250.06286 
C 299.024584 250.219756 299.08692 250.370248 299.197862 250.48119 
C 299.308805 250.592133 299.459296 250.654468 299.616192 250.654468 
z
" clip-path="url(#p25f741cdfe)" style="fill: #1f78b4; stroke: #1f78b4"/>
    <path d="M 369.700847 253.457854 
C 369.857743 253.457854 370.008234 253.395519 370.119177 253.284576 
C 370.230119 253.173634 370.292455 253.023143 370.292455 252.866246 
C 370.292455 252.70935 370.230119 252.558859 370.119177 252.447916 
C 370.008234 252.336974 369.857743 252.274638 369.700847 252.274638 
C 369.54395 252.274638 369.393459 252.336974 369.282517 252.447916 
C 369.171574 252.558859 369.109239 252.70935 369.109239 252.866246 
C 369.109239 253.023143 369.171574 253.173634 369.282517 253.284576 
C 369.393459 253.395519 369.54395 253.457854 369.700847 253.457854 
z
" clip-path="url(#p25f741cdfe)" style="fill: #1f78b4; stroke: #1f78b4"/>
    <path d="M 411.751639 263.269706 
C 411.908535 263.269706 412.059027 263.20737 412.169969 263.096428 
C 412.280912 262.985486 412.343247 262.834994 412.343247 262.678098 
C 412.343247 262.521202 412.280912 262.37071 412.169969 262.259768 
C 412.059027 262.148825 411.908535 262.08649 411.751639 262.08649 
C 411.594743 262.08649 411.444251 262.148825 411.333309 262.259768 
C 411.222367 262.37071 411.160031 262.521202 411.160031 262.678098 
C 411.160031 262.834994 411.222367 262.985486 411.333309 263.096428 
C 411.444251 263.20737 411.594743 263.269706 411.751639 263.269706 
z
" clip-path="url(#p25f741cdfe)" style="fill: #1f78b4; stroke: #1f78b4"/>
    <path d="M 327.650054 236.637537 
C 327.80695 236.637537 327.957442 236.575202 328.068384 236.464259 
C 328.179326 236.353317 328.241662 236.202826 328.241662 236.045929 
C 328.241662 235.889033 328.179326 235.738542 328.068384 235.627599 
C 327.957442 235.516657 327.80695 235.454321 327.650054 235.454321 
C 327.493158 235.454321 327.342666 235.516657 327.231724 235.627599 
C 327.120782 235.738542 327.058446 235.889033 327.058446 236.045929 
C 327.058446 236.202826 327.120782 236.353317 327.231724 236.464259 
C 327.342666 236.575202 327.493158 236.637537 327.650054 236.637537 
z
" clip-path="url(#p25f741cdfe)" style="fill: #1f78b4; stroke: #1f78b4"/>
    <path d="M 333.256826 195.988438 
C 333.413723 195.988438 333.564214 195.926102 333.675156 195.81516 
C 333.786099 195.704217 333.848434 195.553726 333.848434 195.39683 
C 333.848434 195.239934 333.786099 195.089442 333.675156 194.9785 
C 333.564214 194.867557 333.413723 194.805222 333.256826 194.805222 
C 333.09993 194.805222 332.949439 194.867557 332.838496 194.9785 
C 332.727554 195.089442 332.665218 195.239934 332.665218 195.39683 
C 332.665218 195.553726 332.727554 195.704217 332.838496 195.81516 
C 332.949439 195.926102 333.09993 195.988438 333.256826 195.988438 
z
" clip-path="url(#p25f741cdfe)" style="fill: #1f78b4; stroke: #1f78b4"/>
    <path d="M 323.444975 275.884944 
C 323.601871 275.884944 323.752362 275.822608 323.863305 275.711666 
C 323.974247 275.600723 324.036583 275.450232 324.036583 275.293336 
C 324.036583 275.136439 323.974247 274.985948 323.863305 274.875006 
C 323.752362 274.764063 323.601871 274.701728 323.444975 274.701728 
C 323.288078 274.701728 323.137587 274.764063 323.026645 274.875006 
C 322.915702 274.985948 322.853367 275.136439 322.853367 275.293336 
C 322.853367 275.450232 322.915702 275.600723 323.026645 275.711666 
C 323.137587 275.822608 323.288078 275.884944 323.444975 275.884944 
z
" clip-path="url(#p25f741cdfe)" style="fill: #1f78b4; stroke: #1f78b4"/>
    <path d="M 330.45344 263.269706 
C 330.610336 263.269706 330.760828 263.20737 330.87177 263.096428 
C 330.982713 262.985486 331.045048 262.834994 331.045048 262.678098 
C 331.045048 262.521202 330.982713 262.37071 330.87177 262.259768 
C 330.760828 262.148825 330.610336 262.08649 330.45344 262.08649 
C 330.296544 262.08649 330.146053 262.148825 330.03511 262.259768 
C 329.924168 262.37071 329.861832 262.521202 329.861832 262.678098 
C 329.861832 262.834994 329.924168 262.985486 330.03511 263.096428 
C 330.146053 263.20737 330.296544 263.269706 330.45344 263.269706 
z
" clip-path="url(#p25f741cdfe)" style="fill: #1f78b4; stroke: #1f78b4"/>
    <path d="M 322.043282 467.916896 
C 322.200178 467.916896 322.350669 467.854561 322.461612 467.743618 
C 322.572554 467.632676 322.63489 467.482185 322.63489 467.325288 
C 322.63489 467.168392 322.572554 467.017901 322.461612 466.906958 
C 322.350669 466.796016 322.200178 466.73368 322.043282 466.73368 
C 321.886385 466.73368 321.735894 466.796016 321.624952 466.906958 
C 321.514009 467.017901 321.451674 467.168392 321.451674 467.325288 
C 321.451674 467.482185 321.514009 467.632676 321.624952 467.743618 
C 321.735894 467.854561 321.886385 467.916896 322.043282 467.916896 
z
" clip-path="url(#p25f741cdfe)" style="fill: #1f78b4; stroke: #1f78b4"/>
    <path d="M 352.88053 467.916896 
C 353.037426 467.916896 353.187917 467.854561 353.29886 467.743618 
C 353.409802 467.632676 353.472138 467.482185 353.472138 467.325288 
C 353.472138 467.168392 353.409802 467.017901 353.29886 466.906958 
C 353.187917 466.796016 353.037426 466.73368 352.88053 466.73368 
C 352.723633 466.73368 352.573142 466.796016 352.4622 466.906958 
C 352.351257 467.017901 352.288922 467.168392 352.288922 467.325288 
C 352.288922 467.482185 352.351257 467.632676 352.4622 467.743618 
C 352.573142 467.854561 352.723633 467.916896 352.88053 467.916896 
z
" clip-path="url(#p25f741cdfe)" style="fill: #1f78b4; stroke: #1f78b4"/>
    <path d="M 357.085609 500.155837 
C 357.242505 500.155837 357.392996 500.093502 357.503939 499.982559 
C 357.614881 499.871617 357.677217 499.721125 357.677217 499.564229 
C 357.677217 499.407333 357.614881 499.256842 357.503939 499.145899 
C 357.392996 499.034957 357.242505 498.972621 357.085609 498.972621 
C 356.928713 498.972621 356.778221 499.034957 356.667279 499.145899 
C 356.556336 499.256842 356.494001 499.407333 356.494001 499.564229 
C 356.494001 499.721125 356.556336 499.871617 356.667279 499.982559 
C 356.778221 500.093502 356.928713 500.155837 357.085609 500.155837 
z
" clip-path="url(#p25f741cdfe)" style="fill: #1f78b4; stroke: #1f78b4"/>
    <path d="M 431.375342 462.310124 
C 431.532239 462.310124 431.68273 462.247788 431.793672 462.136846 
C 431.904615 462.025904 431.96695 461.875412 431.96695 461.718516 
C 431.96695 461.56162 431.904615 461.411128 431.793672 461.300186 
C 431.68273 461.189243 431.532239 461.126908 431.375342 461.126908 
C 431.218446 461.126908 431.067955 461.189243 430.957012 461.300186 
C 430.84607 461.411128 430.783734 461.56162 430.783734 461.718516 
C 430.783734 461.875412 430.84607 462.025904 430.957012 462.136846 
C 431.067955 462.247788 431.218446 462.310124 431.375342 462.310124 
z
" clip-path="url(#p25f741cdfe)" style="fill: #1f78b4; stroke: #1f78b4"/>
    <path d="M 387.922857 470.720282 
C 388.079753 470.720282 388.230244 470.657947 388.341187 470.547004 
C 388.452129 470.436062 388.514465 470.285571 388.514465 470.128674 
C 388.514465 469.971778 388.452129 469.821287 388.341187 469.710344 
C 388.230244 469.599402 388.079753 469.537066 387.922857 469.537066 
C 387.76596 469.537066 387.615469 469.599402 387.504527 469.710344 
C 387.393584 469.821287 387.331249 469.971778 387.331249 470.128674 
C 387.331249 470.285571 387.393584 470.436062 387.504527 470.547004 
C 387.615469 470.657947 387.76596 470.720282 387.922857 470.720282 
z
" clip-path="url(#p25f741cdfe)" style="fill: #1f78b4; stroke: #1f78b4"/>
    <path d="M 361.290688 347.371291 
C 361.447584 347.371291 361.598076 347.308955 361.709018 347.198013 
C 361.81996 347.087071 361.882296 346.936579 361.882296 346.779683 
C 361.882296 346.622787 361.81996 346.472295 361.709018 346.361353 
C 361.598076 346.250411 361.447584 346.188075 361.290688 346.188075 
C 361.133792 346.188075 360.9833 346.250411 360.872358 346.361353 
C 360.761416 346.472295 360.69908 346.622787 360.69908 346.779683 
C 360.69908 346.936579 360.761416 347.087071 360.872358 347.198013 
C 360.9833 347.308955 361.133792 347.371291 361.290688 347.371291 
z
" clip-path="url(#p25f741cdfe)" style="fill: #1f78b4; stroke: #1f78b4"/>
    <path d="M 362.692381 369.79838 
C 362.849277 369.79838 362.999769 369.736045 363.110711 369.625102 
C 363.221654 369.51416 363.283989 369.363669 363.283989 369.206772 
C 363.283989 369.049876 363.221654 368.899385 363.110711 368.788442 
C 362.999769 368.6775 362.849277 368.615164 362.692381 368.615164 
C 362.535485 368.615164 362.384994 368.6775 362.274051 368.788442 
C 362.163109 368.899385 362.100773 369.049876 362.100773 369.206772 
C 362.100773 369.363669 362.163109 369.51416 362.274051 369.625102 
C 362.384994 369.736045 362.535485 369.79838 362.692381 369.79838 
z
" clip-path="url(#p25f741cdfe)" style="fill: #1f78b4; stroke: #1f78b4"/>
    <path d="M 401.939787 368.396687 
C 402.096684 368.396687 402.247175 368.334352 402.358117 368.223409 
C 402.46906 368.112467 402.531395 367.961976 402.531395 367.805079 
C 402.531395 367.648183 402.46906 367.497692 402.358117 367.386749 
C 402.247175 367.275807 402.096684 367.213471 401.939787 367.213471 
C 401.782891 367.213471 401.6324 367.275807 401.521457 367.386749 
C 401.410515 367.497692 401.34818 367.648183 401.34818 367.805079 
C 401.34818 367.961976 401.410515 368.112467 401.521457 368.223409 
C 401.6324 368.334352 401.782891 368.396687 401.939787 368.396687 
z
" clip-path="url(#p25f741cdfe)" style="fill: #1f78b4; stroke: #1f78b4"/>
    <path d="M 338.863599 413.250866 
C 339.020495 413.250866 339.170986 413.18853 339.281929 413.077588 
C 339.392871 412.966646 339.455207 412.816154 339.455207 412.659258 
C 339.455207 412.502362 339.392871 412.35187 339.281929 412.240928 
C 339.170986 412.129986 339.020495 412.06765 338.863599 412.06765 
C 338.706702 412.06765 338.556211 412.129986 338.445269 412.240928 
C 338.334326 412.35187 338.271991 412.502362 338.271991 412.659258 
C 338.271991 412.816154 338.334326 412.966646 338.445269 413.077588 
C 338.556211 413.18853 338.706702 413.250866 338.863599 413.250866 
z
" clip-path="url(#p25f741cdfe)" style="fill: #1f78b4; stroke: #1f78b4"/>
    <path d="M 351.478836 383.815311 
C 351.635733 383.815311 351.786224 383.752976 351.897166 383.642033 
C 352.008109 383.531091 352.070444 383.380599 352.070444 383.223703 
C 352.070444 383.066807 352.008109 382.916316 351.897166 382.805373 
C 351.786224 382.694431 351.635733 382.632095 351.478836 382.632095 
C 351.32194 382.632095 351.171449 382.694431 351.060506 382.805373 
C 350.949564 382.916316 350.887228 383.066807 350.887228 383.223703 
C 350.887228 383.380599 350.949564 383.531091 351.060506 383.642033 
C 351.171449 383.752976 351.32194 383.815311 351.478836 383.815311 
z
" clip-path="url(#p25f741cdfe)" style="fill: #1f78b4; stroke: #1f78b4"/>
    <path d="M 354.282223 402.037321 
C 354.439119 402.037321 354.58961 401.974986 354.700553 401.864043 
C 354.811495 401.753101 354.873831 401.60261 354.873831 401.445713 
C 354.873831 401.288817 354.811495 401.138326 354.700553 401.027383 
C 354.58961 400.916441 354.439119 400.854105 354.282223 400.854105 
C 354.125326 400.854105 353.974835 400.916441 353.863893 401.027383 
C 353.75295 401.138326 353.690615 401.288817 353.690615 401.445713 
C 353.690615 401.60261 353.75295 401.753101 353.863893 401.864043 
C 353.974835 401.974986 354.125326 402.037321 354.282223 402.037321 
z
" clip-path="url(#p25f741cdfe)" style="fill: #1f78b4; stroke: #1f78b4"/>
    <path d="M 392.127936 458.105045 
C 392.284832 458.105045 392.435323 458.042709 392.546266 457.931767 
C 392.657208 457.820824 392.719544 457.670333 392.719544 457.513437 
C 392.719544 457.35654 392.657208 457.206049 392.546266 457.095107 
C 392.435323 456.984164 392.284832 456.921829 392.127936 456.921829 
C 391.97104 456.921829 391.820548 456.984164 391.709606 457.095107 
C 391.598663 457.206049 391.536328 457.35654 391.536328 457.513437 
C 391.536328 457.670333 391.598663 457.820824 391.709606 457.931767 
C 391.820548 458.042709 391.97104 458.105045 392.127936 458.105045 
z
" clip-path="url(#p25f741cdfe)" style="fill: #1f78b4; stroke: #1f78b4"/>
    <path d="M 386.521164 431.472876 
C 386.67806 431.472876 386.828551 431.41054 386.939494 431.299598 
C 387.050436 431.188656 387.112772 431.038164 387.112772 430.881268 
C 387.112772 430.724372 387.050436 430.57388 386.939494 430.462938 
C 386.828551 430.351996 386.67806 430.28966 386.521164 430.28966 
C 386.364267 430.28966 386.213776 430.351996 386.102834 430.462938 
C 385.991891 430.57388 385.929556 430.724372 385.929556 430.881268 
C 385.929556 431.038164 385.991891 431.188656 386.102834 431.299598 
C 386.213776 431.41054 386.364267 431.472876 386.521164 431.472876 
z
" clip-path="url(#p25f741cdfe)" style="fill: #1f78b4; stroke: #1f78b4"/>
    <path d="M 414.555025 409.045787 
C 414.711922 409.045787 414.862413 408.983451 414.973355 408.872509 
C 415.084298 408.761566 415.146633 408.611075 415.146633 408.454179 
C 415.146633 408.297282 415.084298 408.146791 414.973355 408.035849 
C 414.862413 407.924906 414.711922 407.862571 414.555025 407.862571 
C 414.398129 407.862571 414.247638 407.924906 414.136695 408.035849 
C 414.025753 408.146791 413.963417 408.297282 413.963417 408.454179 
C 413.963417 408.611075 414.025753 408.761566 414.136695 408.872509 
C 414.247638 408.983451 414.398129 409.045787 414.555025 409.045787 
z
" clip-path="url(#p25f741cdfe)" style="fill: #1f78b4; stroke: #1f78b4"/>
    <path d="M 436.982115 247.851082 
C 437.139011 247.851082 437.289502 247.788746 437.400445 247.677804 
C 437.511387 247.566862 437.573723 247.41637 437.573723 247.259474 
C 437.573723 247.102578 437.511387 246.952086 437.400445 246.841144 
C 437.289502 246.730202 437.139011 246.667866 436.982115 246.667866 
C 436.825218 246.667866 436.674727 246.730202 436.563785 246.841144 
C 436.452842 246.952086 436.390507 247.102578 436.390507 247.259474 
C 436.390507 247.41637 436.452842 247.566862 436.563785 247.677804 
C 436.674727 247.788746 436.825218 247.851082 436.982115 247.851082 
z
" clip-path="url(#p25f741cdfe)" style="fill: #1f78b4; stroke: #1f78b4"/>
    <path d="M 424.366877 186.176586 
C 424.523773 186.176586 424.674264 186.114251 424.785207 186.003308 
C 424.896149 185.892366 424.958485 185.741875 424.958485 185.584978 
C 424.958485 185.428082 424.896149 185.277591 424.785207 185.166648 
C 424.674264 185.055706 424.523773 184.99337 424.366877 184.99337 
C 424.209981 184.99337 424.059489 185.055706 423.948547 185.166648 
C 423.837604 185.277591 423.775269 185.428082 423.775269 185.584978 
C 423.775269 185.741875 423.837604 185.892366 423.948547 186.003308 
C 424.059489 186.114251 424.209981 186.176586 424.366877 186.176586 
z
" clip-path="url(#p25f741cdfe)" style="fill: #1f78b4; stroke: #1f78b4"/>
    <path d="M 456.605818 253.457854 
C 456.762714 253.457854 456.913205 253.395519 457.024148 253.284576 
C 457.13509 253.173634 457.197426 253.023143 457.197426 252.866246 
C 457.197426 252.70935 457.13509 252.558859 457.024148 252.447916 
C 456.913205 252.336974 456.762714 252.274638 456.605818 252.274638 
C 456.448922 252.274638 456.29843 252.336974 456.187488 252.447916 
C 456.076545 252.558859 456.01421 252.70935 456.01421 252.866246 
C 456.01421 253.023143 456.076545 253.173634 456.187488 253.284576 
C 456.29843 253.395519 456.448922 253.457854 456.605818 253.457854 
z
" clip-path="url(#p25f741cdfe)" style="fill: #1f78b4; stroke: #1f78b4"/>
    <path d="M 516.87862 222.620606 
C 517.035517 222.620606 517.186008 222.558271 517.29695 222.447328 
C 517.407893 222.336386 517.470228 222.185895 517.470228 222.028998 
C 517.470228 221.872102 517.407893 221.721611 517.29695 221.610668 
C 517.186008 221.499726 517.035517 221.43739 516.87862 221.43739 
C 516.721724 221.43739 516.571233 221.499726 516.46029 221.610668 
C 516.349348 221.721611 516.287012 221.872102 516.287012 222.028998 
C 516.287012 222.185895 516.349348 222.336386 516.46029 222.447328 
C 516.571233 222.558271 516.721724 222.620606 516.87862 222.620606 
z
" clip-path="url(#p25f741cdfe)" style="fill: #1f78b4; stroke: #1f78b4"/>
    <path d="M 514.075234 179.168121 
C 514.232131 179.168121 514.382622 179.105785 514.493564 178.994843 
C 514.604507 178.8839 514.666842 178.733409 514.666842 178.576513 
C 514.666842 178.419617 514.604507 178.269125 514.493564 178.158183 
C 514.382622 178.04724 514.232131 177.984905 514.075234 177.984905 
C 513.918338 177.984905 513.767847 178.04724 513.656904 178.158183 
C 513.545962 178.269125 513.483626 178.419617 513.483626 178.576513 
C 513.483626 178.733409 513.545962 178.8839 513.656904 178.994843 
C 513.767847 179.105785 513.918338 179.168121 514.075234 179.168121 
z
" clip-path="url(#p25f741cdfe)" style="fill: #1f78b4; stroke: #1f78b4"/>
    <path d="M 528.092165 274.483251 
C 528.249061 274.483251 528.399553 274.420915 528.510495 274.309973 
C 528.621438 274.19903 528.683773 274.048539 528.683773 273.891643 
C 528.683773 273.734746 528.621438 273.584255 528.510495 273.473313 
C 528.399553 273.36237 528.249061 273.300035 528.092165 273.300035 
C 527.935269 273.300035 527.784777 273.36237 527.673835 273.473313 
C 527.562893 273.584255 527.500557 273.734746 527.500557 273.891643 
C 527.500557 274.048539 527.562893 274.19903 527.673835 274.309973 
C 527.784777 274.420915 527.935269 274.483251 528.092165 274.483251 
z
" clip-path="url(#p25f741cdfe)" style="fill: #1f78b4; stroke: #1f78b4"/>
    <path d="M 595.373433 280.090023 
C 595.530329 280.090023 595.680821 280.027687 595.791763 279.916745 
C 595.902706 279.805803 595.965041 279.655311 595.965041 279.498415 
C 595.965041 279.341519 595.902706 279.191027 595.791763 279.080085 
C 595.680821 278.969143 595.530329 278.906807 595.373433 278.906807 
C 595.216537 278.906807 595.066046 278.969143 594.955103 279.080085 
C 594.844161 279.191027 594.781825 279.341519 594.781825 279.498415 
C 594.781825 279.655311 594.844161 279.805803 594.955103 279.916745 
C 595.066046 280.027687 595.216537 280.090023 595.373433 280.090023 
z
" clip-path="url(#p25f741cdfe)" style="fill: #1f78b4; stroke: #1f78b4"/>
    <path d="M 589.766661 245.047696 
C 589.923557 245.047696 590.074048 244.98536 590.184991 244.874418 
C 590.295933 244.763475 590.358269 244.612984 590.358269 244.456088 
C 590.358269 244.299192 590.295933 244.1487 590.184991 244.037758 
C 590.074048 243.926815 589.923557 243.86448 589.766661 243.86448 
C 589.609765 243.86448 589.459273 243.926815 589.348331 244.037758 
C 589.237388 244.1487 589.175053 244.299192 589.175053 244.456088 
C 589.175053 244.612984 589.237388 244.763475 589.348331 244.874418 
C 589.459273 244.98536 589.609765 245.047696 589.766661 245.047696 
z
" clip-path="url(#p25f741cdfe)" style="fill: #1f78b4; stroke: #1f78b4"/>
    <path d="M 529.493858 259.064627 
C 529.650754 259.064627 529.801246 259.002291 529.912188 258.891349 
C 530.023131 258.780406 530.085466 258.629915 530.085466 258.473019 
C 530.085466 258.316122 530.023131 258.165631 529.912188 258.054689 
C 529.801246 257.943746 529.650754 257.881411 529.493858 257.881411 
C 529.336962 257.881411 529.186471 257.943746 529.075528 258.054689 
C 528.964586 258.165631 528.90225 258.316122 528.90225 258.473019 
C 528.90225 258.629915 528.964586 258.780406 529.075528 258.891349 
C 529.186471 259.002291 529.336962 259.064627 529.493858 259.064627 
z
" clip-path="url(#p25f741cdfe)" style="fill: #1f78b4; stroke: #1f78b4"/>
    <path d="M 243.548469 462.310124 
C 243.705365 462.310124 243.855857 462.247788 243.966799 462.136846 
C 244.077741 462.025904 244.140077 461.875412 244.140077 461.718516 
C 244.140077 461.56162 244.077741 461.411128 243.966799 461.300186 
C 243.855857 461.189243 243.705365 461.126908 243.548469 461.126908 
C 243.391573 461.126908 243.241081 461.189243 243.130139 461.300186 
C 243.019197 461.411128 242.956861 461.56162 242.956861 461.718516 
C 242.956861 461.875412 243.019197 462.025904 243.130139 462.136846 
C 243.241081 462.247788 243.391573 462.310124 243.548469 462.310124 
z
" clip-path="url(#p25f741cdfe)" style="fill: #1f78b4; stroke: #1f78b4"/>
    <path d="M 296.812806 421.661024 
C 296.969702 421.661024 297.120194 421.598689 297.231136 421.487746 
C 297.342079 421.376804 297.404414 421.226313 297.404414 421.069416 
C 297.404414 420.91252 297.342079 420.762029 297.231136 420.651086 
C 297.120194 420.540144 296.969702 420.477808 296.812806 420.477808 
C 296.65591 420.477808 296.505419 420.540144 296.394476 420.651086 
C 296.283534 420.762029 296.221198 420.91252 296.221198 421.069416 
C 296.221198 421.226313 296.283534 421.376804 296.394476 421.487746 
C 296.505419 421.598689 296.65591 421.661024 296.812806 421.661024 
z
" clip-path="url(#p25f741cdfe)" style="fill: #1f78b4; stroke: #1f78b4"/>
    <path d="M 287.000955 404.840707 
C 287.157851 404.840707 287.308342 404.778372 287.419285 404.667429 
C 287.530227 404.556487 287.592563 404.405996 287.592563 404.249099 
C 287.592563 404.092203 287.530227 403.941712 287.419285 403.830769 
C 287.308342 403.719827 287.157851 403.657491 287.000955 403.657491 
C 286.844058 403.657491 286.693567 403.719827 286.582625 403.830769 
C 286.471682 403.941712 286.409347 404.092203 286.409347 404.249099 
C 286.409347 404.405996 286.471682 404.556487 286.582625 404.667429 
C 286.693567 404.778372 286.844058 404.840707 287.000955 404.840707 
z
" clip-path="url(#p25f741cdfe)" style="fill: #1f78b4; stroke: #1f78b4"/>
    <path d="M 309.428044 368.396687 
C 309.58494 368.396687 309.735432 368.334352 309.846374 368.223409 
C 309.957316 368.112467 310.019652 367.961976 310.019652 367.805079 
C 310.019652 367.648183 309.957316 367.497692 309.846374 367.386749 
C 309.735432 367.275807 309.58494 367.213471 309.428044 367.213471 
C 309.271148 367.213471 309.120656 367.275807 309.009714 367.386749 
C 308.898771 367.497692 308.836436 367.648183 308.836436 367.805079 
C 308.836436 367.961976 308.898771 368.112467 309.009714 368.223409 
C 309.120656 368.334352 309.271148 368.396687 309.428044 368.396687 
z
" clip-path="url(#p25f741cdfe)" style="fill: #1f78b4; stroke: #1f78b4"/>
    <path d="M 294.00942 364.191608 
C 294.166316 364.191608 294.316808 364.129272 294.42775 364.01833 
C 294.538692 363.907388 294.601028 363.756896 294.601028 363.6 
C 294.601028 363.443104 294.538692 363.292612 294.42775 363.18167 
C 294.316808 363.070728 294.166316 363.008392 294.00942 363.008392 
C 293.852524 363.008392 293.702032 363.070728 293.59109 363.18167 
C 293.480148 363.292612 293.417812 363.443104 293.417812 363.6 
C 293.417812 363.756896 293.480148 363.907388 293.59109 364.01833 
C 293.702032 364.129272 293.852524 364.191608 294.00942 364.191608 
z
" clip-path="url(#p25f741cdfe)" style="fill: #1f78b4; stroke: #1f78b4"/>
    <path d="M 281.394182 319.337429 
C 281.551078 319.337429 281.70157 319.275094 281.812512 319.164151 
C 281.923455 319.053209 281.98579 318.902718 281.98579 318.745821 
C 281.98579 318.588925 281.923455 318.438434 281.812512 318.327491 
C 281.70157 318.216549 281.551078 318.154213 281.394182 318.154213 
C 281.237286 318.154213 281.086795 318.216549 280.975852 318.327491 
C 280.86491 318.438434 280.802574 318.588925 280.802574 318.745821 
C 280.802574 318.902718 280.86491 319.053209 280.975852 319.164151 
C 281.086795 319.275094 281.237286 319.337429 281.394182 319.337429 
z
" clip-path="url(#p25f741cdfe)" style="fill: #1f78b4; stroke: #1f78b4"/>
    <path d="M 277.189103 303.918805 
C 277.345999 303.918805 277.496491 303.85647 277.607433 303.745527 
C 277.718375 303.634585 277.780711 303.484094 277.780711 303.327197 
C 277.780711 303.170301 277.718375 303.01981 277.607433 302.908867 
C 277.496491 302.797925 277.345999 302.735589 277.189103 302.735589 
C 277.032207 302.735589 276.881715 302.797925 276.770773 302.908867 
C 276.659831 303.01981 276.597495 303.170301 276.597495 303.327197 
C 276.597495 303.484094 276.659831 303.634585 276.770773 303.745527 
C 276.881715 303.85647 277.032207 303.918805 277.189103 303.918805 
z
" clip-path="url(#p25f741cdfe)" style="fill: #1f78b4; stroke: #1f78b4"/>
    <path d="M 279.992489 336.157746 
C 280.149385 336.157746 280.299877 336.095411 280.410819 335.984468 
C 280.521762 335.873526 280.584097 335.723035 280.584097 335.566138 
C 280.584097 335.409242 280.521762 335.258751 280.410819 335.147808 
C 280.299877 335.036866 280.149385 334.97453 279.992489 334.97453 
C 279.835593 334.97453 279.685102 335.036866 279.574159 335.147808 
C 279.463217 335.258751 279.400881 335.409242 279.400881 335.566138 
C 279.400881 335.723035 279.463217 335.873526 279.574159 335.984468 
C 279.685102 336.095411 279.835593 336.157746 279.992489 336.157746 
z
" clip-path="url(#p25f741cdfe)" style="fill: #1f78b4; stroke: #1f78b4"/>
    <path d="M 240.745083 310.927271 
C 240.901979 310.927271 241.05247 310.864935 241.163413 310.753993 
C 241.274355 310.64305 241.336691 310.492559 241.336691 310.335663 
C 241.336691 310.178767 241.274355 310.028275 241.163413 309.917333 
C 241.05247 309.80639 240.901979 309.744055 240.745083 309.744055 
C 240.588187 309.744055 240.437695 309.80639 240.326753 309.917333 
C 240.21581 310.028275 240.153475 310.178767 240.153475 310.335663 
C 240.153475 310.492559 240.21581 310.64305 240.326753 310.753993 
C 240.437695 310.864935 240.588187 310.927271 240.745083 310.927271 
z
" clip-path="url(#p25f741cdfe)" style="fill: #1f78b4; stroke: #1f78b4"/>
    <path d="M 214.112914 282.893409 
C 214.26981 282.893409 214.420302 282.831074 214.531244 282.720131 
C 214.642187 282.609189 214.704522 282.458697 214.704522 282.301801 
C 214.704522 282.144905 214.642187 281.994414 214.531244 281.883471 
C 214.420302 281.772529 214.26981 281.710193 214.112914 281.710193 
C 213.956018 281.710193 213.805527 281.772529 213.694584 281.883471 
C 213.583642 281.994414 213.521306 282.144905 213.521306 282.301801 
C 213.521306 282.458697 213.583642 282.609189 213.694584 282.720131 
C 213.805527 282.831074 213.956018 282.893409 214.112914 282.893409 
z
" clip-path="url(#p25f741cdfe)" style="fill: #1f78b4; stroke: #1f78b4"/>
    <path d="M 174.865508 298.312033 
C 175.022404 298.312033 175.172895 298.249697 175.283838 298.138755 
C 175.39478 298.027813 175.457116 297.877321 175.457116 297.720425 
C 175.457116 297.563529 175.39478 297.413037 175.283838 297.302095 
C 175.172895 297.191153 175.022404 297.128817 174.865508 297.128817 
C 174.708612 297.128817 174.55812 297.191153 174.447178 297.302095 
C 174.336235 297.413037 174.2739 297.563529 174.2739 297.720425 
C 174.2739 297.877321 174.336235 298.027813 174.447178 298.138755 
C 174.55812 298.249697 174.708612 298.312033 174.865508 298.312033 
z
" clip-path="url(#p25f741cdfe)" style="fill: #1f78b4; stroke: #1f78b4"/>
    <path d="M 194.489211 226.825686 
C 194.646107 226.825686 194.796599 226.76335 194.907541 226.652408 
C 195.018483 226.541465 195.080819 226.390974 195.080819 226.234078 
C 195.080819 226.077181 195.018483 225.92669 194.907541 225.815748 
C 194.796599 225.704805 194.646107 225.64247 194.489211 225.64247 
C 194.332315 225.64247 194.181823 225.704805 194.070881 225.815748 
C 193.959939 225.92669 193.897603 226.077181 193.897603 226.234078 
C 193.897603 226.390974 193.959939 226.541465 194.070881 226.652408 
C 194.181823 226.76335 194.332315 226.825686 194.489211 226.825686 
z
" clip-path="url(#p25f741cdfe)" style="fill: #1f78b4; stroke: #1f78b4"/>
    <path d="M 235.13831 278.68833 
C 235.295207 278.68833 235.445698 278.625994 235.55664 278.515052 
C 235.667583 278.404109 235.729918 278.253618 235.729918 278.096722 
C 235.729918 277.939826 235.667583 277.789334 235.55664 277.678392 
C 235.445698 277.567449 235.295207 277.505114 235.13831 277.505114 
C 234.981414 277.505114 234.830923 277.567449 234.71998 277.678392 
C 234.609038 277.789334 234.546702 277.939826 234.546702 278.096722 
C 234.546702 278.253618 234.609038 278.404109 234.71998 278.515052 
C 234.830923 278.625994 234.981414 278.68833 235.13831 278.68833 
z
" clip-path="url(#p25f741cdfe)" style="fill: #1f78b4; stroke: #1f78b4"/>
    <path d="M 271.582331 274.483251 
C 271.739227 274.483251 271.889718 274.420915 272.000661 274.309973 
C 272.111603 274.19903 272.173939 274.048539 272.173939 273.891643 
C 272.173939 273.734746 272.111603 273.584255 272.000661 273.473313 
C 271.889718 273.36237 271.739227 273.300035 271.582331 273.300035 
C 271.425434 273.300035 271.274943 273.36237 271.164001 273.473313 
C 271.053058 273.584255 270.990723 273.734746 270.990723 273.891643 
C 270.990723 274.048539 271.053058 274.19903 271.164001 274.309973 
C 271.274943 274.420915 271.425434 274.483251 271.582331 274.483251 
z
" clip-path="url(#p25f741cdfe)" style="fill: #1f78b4; stroke: #1f78b4"/>
    <path d="M 254.762014 271.679864 
C 254.91891 271.679864 255.069401 271.617529 255.180344 271.506586 
C 255.291286 271.395644 255.353622 271.245153 255.353622 271.088256 
C 255.353622 270.93136 255.291286 270.780869 255.180344 270.669926 
C 255.069401 270.558984 254.91891 270.496648 254.762014 270.496648 
C 254.605117 270.496648 254.454626 270.558984 254.343684 270.669926 
C 254.232741 270.780869 254.170406 270.93136 254.170406 271.088256 
C 254.170406 271.245153 254.232741 271.395644 254.343684 271.506586 
C 254.454626 271.617529 254.605117 271.679864 254.762014 271.679864 
z
" clip-path="url(#p25f741cdfe)" style="fill: #1f78b4; stroke: #1f78b4"/>
    <path d="M 235.13831 210.005369 
C 235.295207 210.005369 235.445698 209.943033 235.55664 209.832091 
C 235.667583 209.721148 235.729918 209.570657 235.729918 209.413761 
C 235.729918 209.256864 235.667583 209.106373 235.55664 208.995431 
C 235.445698 208.884488 235.295207 208.822153 235.13831 208.822153 
C 234.981414 208.822153 234.830923 208.884488 234.71998 208.995431 
C 234.609038 209.106373 234.546702 209.256864 234.546702 209.413761 
C 234.546702 209.570657 234.609038 209.721148 234.71998 209.832091 
C 234.830923 209.943033 234.981414 210.005369 235.13831 210.005369 
z
" clip-path="url(#p25f741cdfe)" style="fill: #1f78b4; stroke: #1f78b4"/>
    <path d="M 571.544651 331.952667 
C 571.701547 331.952667 571.852038 331.890331 571.962981 331.779389 
C 572.073923 331.668447 572.136259 331.517955 572.136259 331.361059 
C 572.136259 331.204163 572.073923 331.053671 571.962981 330.942729 
C 571.852038 330.831787 571.701547 330.769451 571.544651 330.769451 
C 571.387754 330.769451 571.237263 330.831787 571.126321 330.942729 
C 571.015378 331.053671 570.953043 331.204163 570.953043 331.361059 
C 570.953043 331.517955 571.015378 331.668447 571.126321 331.779389 
C 571.237263 331.890331 571.387754 331.952667 571.544651 331.952667 
z
" clip-path="url(#p25f741cdfe)" style="fill: #1f78b4; stroke: #1f78b4"/>
    <path d="M 599.578512 323.542509 
C 599.735409 323.542509 599.8859 323.480173 599.996842 323.369231 
C 600.107785 323.258288 600.17012 323.107797 600.17012 322.950901 
C 600.17012 322.794004 600.107785 322.643513 599.996842 322.532571 
C 599.8859 322.421628 599.735409 322.359293 599.578512 322.359293 
C 599.421616 322.359293 599.271125 322.421628 599.160182 322.532571 
C 599.04924 322.643513 598.986904 322.794004 598.986904 322.950901 
C 598.986904 323.107797 599.04924 323.258288 599.160182 323.369231 
C 599.271125 323.480173 599.421616 323.542509 599.578512 323.542509 
z
" clip-path="url(#p25f741cdfe)" style="fill: #1f78b4; stroke: #1f78b4"/>
    <path d="M 543.510789 344.567905 
C 543.667685 344.567905 543.818177 344.505569 543.929119 344.394627 
C 544.040061 344.283684 544.102397 344.133193 544.102397 343.976297 
C 544.102397 343.819401 544.040061 343.668909 543.929119 343.557967 
C 543.818177 343.447024 543.667685 343.384689 543.510789 343.384689 
C 543.353893 343.384689 543.203401 343.447024 543.092459 343.557967 
C 542.981517 343.668909 542.919181 343.819401 542.919181 343.976297 
C 542.919181 344.133193 542.981517 344.283684 543.092459 344.394627 
C 543.203401 344.505569 543.353893 344.567905 543.510789 344.567905 
z
" clip-path="url(#p25f741cdfe)" style="fill: #1f78b4; stroke: #1f78b4"/>
    <path d="M 498.65661 417.455945 
C 498.813507 417.455945 498.963998 417.39361 499.07494 417.282667 
C 499.185883 417.171725 499.248218 417.021233 499.248218 416.864337 
C 499.248218 416.707441 499.185883 416.55695 499.07494 416.446007 
C 498.963998 416.335065 498.813507 416.272729 498.65661 416.272729 
C 498.499714 416.272729 498.349223 416.335065 498.23828 416.446007 
C 498.127338 416.55695 498.065002 416.707441 498.065002 416.864337 
C 498.065002 417.021233 498.127338 417.171725 498.23828 417.282667 
C 498.349223 417.39361 498.499714 417.455945 498.65661 417.455945 
z
" clip-path="url(#p25f741cdfe)" style="fill: #1f78b4; stroke: #1f78b4"/>
    <path d="M 599.578512 368.396687 
C 599.735409 368.396687 599.8859 368.334352 599.996842 368.223409 
C 600.107785 368.112467 600.17012 367.961976 600.17012 367.805079 
C 600.17012 367.648183 600.107785 367.497692 599.996842 367.386749 
C 599.8859 367.275807 599.735409 367.213471 599.578512 367.213471 
C 599.421616 367.213471 599.271125 367.275807 599.160182 367.386749 
C 599.04924 367.497692 598.986904 367.648183 598.986904 367.805079 
C 598.986904 367.961976 599.04924 368.112467 599.160182 368.223409 
C 599.271125 368.334352 599.421616 368.396687 599.578512 368.396687 
z
" clip-path="url(#p25f741cdfe)" style="fill: #1f78b4; stroke: #1f78b4"/>
    <path d="M 546.314175 357.183143 
C 546.471071 357.183143 546.621563 357.120807 546.732505 357.009865 
C 546.843448 356.898922 546.905783 356.748431 546.905783 356.591535 
C 546.905783 356.434638 546.843448 356.284147 546.732505 356.173205 
C 546.621563 356.062262 546.471071 355.999927 546.314175 355.999927 
C 546.157279 355.999927 546.006788 356.062262 545.895845 356.173205 
C 545.784903 356.284147 545.722567 356.434638 545.722567 356.591535 
C 545.722567 356.748431 545.784903 356.898922 545.895845 357.009865 
C 546.006788 357.120807 546.157279 357.183143 546.314175 357.183143 
z
" clip-path="url(#p25f741cdfe)" style="fill: #1f78b4; stroke: #1f78b4"/>
    <path d="M 554.724334 397.832242 
C 554.88123 397.832242 555.031721 397.769906 555.142664 397.658964 
C 555.253606 397.548022 555.315942 397.39753 555.315942 397.240634 
C 555.315942 397.083738 555.253606 396.933246 555.142664 396.822304 
C 555.031721 396.711362 554.88123 396.649026 554.724334 396.649026 
C 554.567437 396.649026 554.416946 396.711362 554.306004 396.822304 
C 554.195061 396.933246 554.132726 397.083738 554.132726 397.240634 
C 554.132726 397.39753 554.195061 397.548022 554.306004 397.658964 
C 554.416946 397.769906 554.567437 397.832242 554.724334 397.832242 
z
" clip-path="url(#p25f741cdfe)" style="fill: #1f78b4; stroke: #1f78b4"/>
    <path d="M 568.741265 446.8915 
C 568.898161 446.8915 569.048652 446.829164 569.159595 446.718222 
C 569.270537 446.60728 569.332873 446.456788 569.332873 446.299892 
C 569.332873 446.142996 569.270537 445.992504 569.159595 445.881562 
C 569.048652 445.77062 568.898161 445.708284 568.741265 445.708284 
C 568.584368 445.708284 568.433877 445.77062 568.322935 445.881562 
C 568.211992 445.992504 568.149657 446.142996 568.149657 446.299892 
C 568.149657 446.456788 568.211992 446.60728 568.322935 446.718222 
C 568.433877 446.829164 568.584368 446.8915 568.741265 446.8915 
z
" clip-path="url(#p25f741cdfe)" style="fill: #1f78b4; stroke: #1f78b4"/>
    <path d="M 579.954809 491.745679 
C 580.111705 491.745679 580.262197 491.683343 580.373139 491.572401 
C 580.484082 491.461458 580.546417 491.310967 580.546417 491.154071 
C 580.546417 490.997174 580.484082 490.846683 580.373139 490.735741 
C 580.262197 490.624798 580.111705 490.562463 579.954809 490.562463 
C 579.797913 490.562463 579.647422 490.624798 579.536479 490.735741 
C 579.425537 490.846683 579.363201 490.997174 579.363201 491.154071 
C 579.363201 491.310967 579.425537 491.461458 579.536479 491.572401 
C 579.647422 491.683343 579.797913 491.745679 579.954809 491.745679 
z
" clip-path="url(#p25f741cdfe)" style="fill: #1f78b4; stroke: #1f78b4"/>
    <path d="M 565.937878 432.874569 
C 566.094775 432.874569 566.245266 432.812234 566.356208 432.701291 
C 566.467151 432.590349 566.529486 432.439857 566.529486 432.282961 
C 566.529486 432.126065 566.467151 431.975574 566.356208 431.864631 
C 566.245266 431.753689 566.094775 431.691353 565.937878 431.691353 
C 565.780982 431.691353 565.630491 431.753689 565.519548 431.864631 
C 565.408606 431.975574 565.34627 432.126065 565.34627 432.282961 
C 565.34627 432.439857 565.408606 432.590349 565.519548 432.701291 
C 565.630491 432.812234 565.780982 432.874569 565.937878 432.874569 
z
" clip-path="url(#p25f741cdfe)" style="fill: #1f78b4; stroke: #1f78b4"/>
    <path d="M 599.578512 425.866104 
C 599.735409 425.866104 599.8859 425.803768 599.996842 425.692826 
C 600.107785 425.581883 600.17012 425.431392 600.17012 425.274496 
C 600.17012 425.117599 600.107785 424.967108 599.996842 424.856166 
C 599.8859 424.745223 599.735409 424.682888 599.578512 424.682888 
C 599.421616 424.682888 599.271125 424.745223 599.160182 424.856166 
C 599.04924 424.967108 598.986904 425.117599 598.986904 425.274496 
C 598.986904 425.431392 599.04924 425.581883 599.160182 425.692826 
C 599.271125 425.803768 599.421616 425.866104 599.578512 425.866104 
z
" clip-path="url(#p25f741cdfe)" style="fill: #1f78b4; stroke: #1f78b4"/>
    <path d="M 415.956718 306.722192 
C 416.113615 306.722192 416.264106 306.659856 416.375048 306.548914 
C 416.485991 306.437971 416.548326 306.28748 416.548326 306.130584 
C 416.548326 305.973687 416.485991 305.823196 416.375048 305.712254 
C 416.264106 305.601311 416.113615 305.538976 415.956718 305.538976 
C 415.799822 305.538976 415.649331 305.601311 415.538388 305.712254 
C 415.427446 305.823196 415.36511 305.973687 415.36511 306.130584 
C 415.36511 306.28748 415.427446 306.437971 415.538388 306.548914 
C 415.649331 306.659856 415.799822 306.722192 415.956718 306.722192 
z
" clip-path="url(#p25f741cdfe)" style="fill: #1f78b4; stroke: #1f78b4"/>
    <path d="M 401.939787 329.149281 
C 402.096684 329.149281 402.247175 329.086945 402.358117 328.976003 
C 402.46906 328.86506 402.531395 328.714569 402.531395 328.557673 
C 402.531395 328.400777 402.46906 328.250285 402.358117 328.139343 
C 402.247175 328.0284 402.096684 327.966065 401.939787 327.966065 
C 401.782891 327.966065 401.6324 328.0284 401.521457 328.139343 
C 401.410515 328.250285 401.34818 328.400777 401.34818 328.557673 
C 401.34818 328.714569 401.410515 328.86506 401.521457 328.976003 
C 401.6324 329.086945 401.782891 329.149281 401.939787 329.149281 
z
" clip-path="url(#p25f741cdfe)" style="fill: #1f78b4; stroke: #1f78b4"/>
    <path d="M 411.751639 376.806846 
C 411.908535 376.806846 412.059027 376.74451 412.169969 376.633568 
C 412.280912 376.522625 412.343247 376.372134 412.343247 376.215238 
C 412.343247 376.058341 412.280912 375.90785 412.169969 375.796908 
C 412.059027 375.685965 411.908535 375.62363 411.751639 375.62363 
C 411.594743 375.62363 411.444251 375.685965 411.333309 375.796908 
C 411.222367 375.90785 411.160031 376.058341 411.160031 376.215238 
C 411.160031 376.372134 411.222367 376.522625 411.333309 376.633568 
C 411.444251 376.74451 411.594743 376.806846 411.751639 376.806846 
z
" clip-path="url(#p25f741cdfe)" style="fill: #1f78b4; stroke: #1f78b4"/>
    <path d="M 443.99058 406.242401 
C 444.147476 406.242401 444.297968 406.180065 444.40891 406.069123 
C 444.519852 405.95818 444.582188 405.807689 444.582188 405.650793 
C 444.582188 405.493896 444.519852 405.343405 444.40891 405.232463 
C 444.297968 405.12152 444.147476 405.059185 443.99058 405.059185 
C 443.833684 405.059185 443.683192 405.12152 443.57225 405.232463 
C 443.461308 405.343405 443.398972 405.493896 443.398972 405.650793 
C 443.398972 405.807689 443.461308 405.95818 443.57225 406.069123 
C 443.683192 406.180065 443.833684 406.242401 443.99058 406.242401 
z
" clip-path="url(#p25f741cdfe)" style="fill: #1f78b4; stroke: #1f78b4"/>
    <path d="M 424.366877 324.944202 
C 424.523773 324.944202 424.674264 324.881866 424.785207 324.770924 
C 424.896149 324.659981 424.958485 324.50949 424.958485 324.352594 
C 424.958485 324.195697 424.896149 324.045206 424.785207 323.934264 
C 424.674264 323.823321 424.523773 323.760986 424.366877 323.760986 
C 424.209981 323.760986 424.059489 323.823321 423.948547 323.934264 
C 423.837604 324.045206 423.775269 324.195697 423.775269 324.352594 
C 423.775269 324.50949 423.837604 324.659981 423.948547 324.770924 
C 424.059489 324.881866 424.209981 324.944202 424.366877 324.944202 
z
" clip-path="url(#p25f741cdfe)" style="fill: #1f78b4; stroke: #1f78b4"/>
    <path d="M 441.187194 365.593301 
C 441.34409 365.593301 441.494581 365.530966 441.605524 365.420023 
C 441.716466 365.309081 441.778802 365.158589 441.778802 365.001693 
C 441.778802 364.844797 441.716466 364.694305 441.605524 364.583363 
C 441.494581 364.472421 441.34409 364.410085 441.187194 364.410085 
C 441.030298 364.410085 440.879806 364.472421 440.768864 364.583363 
C 440.657921 364.694305 440.595586 364.844797 440.595586 365.001693 
C 440.595586 365.158589 440.657921 365.309081 440.768864 365.420023 
C 440.879806 365.530966 441.030298 365.593301 441.187194 365.593301 
z
" clip-path="url(#p25f741cdfe)" style="fill: #1f78b4; stroke: #1f78b4"/>
    <path d="M 494.451531 369.79838 
C 494.608427 369.79838 494.758919 369.736045 494.869861 369.625102 
C 494.980803 369.51416 495.043139 369.363669 495.043139 369.206772 
C 495.043139 369.049876 494.980803 368.899385 494.869861 368.788442 
C 494.758919 368.6775 494.608427 368.615164 494.451531 368.615164 
C 494.294635 368.615164 494.144143 368.6775 494.033201 368.788442 
C 493.922259 368.899385 493.859923 369.049876 493.859923 369.206772 
C 493.859923 369.363669 493.922259 369.51416 494.033201 369.625102 
C 494.144143 369.736045 494.294635 369.79838 494.451531 369.79838 
z
" clip-path="url(#p25f741cdfe)" style="fill: #1f78b4; stroke: #1f78b4"/>
    <path d="M 537.904017 331.952667 
C 538.060913 331.952667 538.211404 331.890331 538.322347 331.779389 
C 538.433289 331.668447 538.495625 331.517955 538.495625 331.361059 
C 538.495625 331.204163 538.433289 331.053671 538.322347 330.942729 
C 538.211404 330.831787 538.060913 330.769451 537.904017 330.769451 
C 537.74712 330.769451 537.596629 330.831787 537.485687 330.942729 
C 537.374744 331.053671 537.312409 331.204163 537.312409 331.361059 
C 537.312409 331.517955 537.374744 331.668447 537.485687 331.779389 
C 537.596629 331.890331 537.74712 331.952667 537.904017 331.952667 
z
" clip-path="url(#p25f741cdfe)" style="fill: #1f78b4; stroke: #1f78b4"/>
    <path d="M 494.451531 357.183143 
C 494.608427 357.183143 494.758919 357.120807 494.869861 357.009865 
C 494.980803 356.898922 495.043139 356.748431 495.043139 356.591535 
C 495.043139 356.434638 494.980803 356.284147 494.869861 356.173205 
C 494.758919 356.062262 494.608427 355.999927 494.451531 355.999927 
C 494.294635 355.999927 494.144143 356.062262 494.033201 356.173205 
C 493.922259 356.284147 493.859923 356.434638 493.859923 356.591535 
C 493.859923 356.748431 493.922259 356.898922 494.033201 357.009865 
C 494.144143 357.120807 494.294635 357.183143 494.451531 357.183143 
z
" clip-path="url(#p25f741cdfe)" style="fill: #1f78b4; stroke: #1f78b4"/>
    <path d="M 523.887086 295.508647 
C 524.043982 295.508647 524.194473 295.446311 524.305416 295.335369 
C 524.416358 295.224426 524.478694 295.073935 524.478694 294.917039 
C 524.478694 294.760143 524.416358 294.609651 524.305416 294.498709 
C 524.194473 294.387766 524.043982 294.325431 523.887086 294.325431 
C 523.73019 294.325431 523.579698 294.387766 523.468756 294.498709 
C 523.357813 294.609651 523.295478 294.760143 523.295478 294.917039 
C 523.295478 295.073935 523.357813 295.224426 523.468756 295.335369 
C 523.579698 295.446311 523.73019 295.508647 523.887086 295.508647 
z
" clip-path="url(#p25f741cdfe)" style="fill: #1f78b4; stroke: #1f78b4"/>
    <path d="M 491.648145 331.952667 
C 491.805041 331.952667 491.955532 331.890331 492.066475 331.779389 
C 492.177417 331.668447 492.239753 331.517955 492.239753 331.361059 
C 492.239753 331.204163 492.177417 331.053671 492.066475 330.942729 
C 491.955532 330.831787 491.805041 330.769451 491.648145 330.769451 
C 491.491249 330.769451 491.340757 330.831787 491.229815 330.942729 
C 491.118872 331.053671 491.056537 331.204163 491.056537 331.361059 
C 491.056537 331.517955 491.118872 331.668447 491.229815 331.779389 
C 491.340757 331.890331 491.491249 331.952667 491.648145 331.952667 
z
" clip-path="url(#p25f741cdfe)" style="fill: #1f78b4; stroke: #1f78b4"/>
    <path d="M 476.229521 267.474785 
C 476.386417 267.474785 476.536909 267.41245 476.647851 267.301507 
C 476.758793 267.190565 476.821129 267.040073 476.821129 266.883177 
C 476.821129 266.726281 476.758793 266.57579 476.647851 266.464847 
C 476.536909 266.353905 476.386417 266.291569 476.229521 266.291569 
C 476.072625 266.291569 475.922133 266.353905 475.811191 266.464847 
C 475.700249 266.57579 475.637913 266.726281 475.637913 266.883177 
C 475.637913 267.040073 475.700249 267.190565 475.811191 267.301507 
C 475.922133 267.41245 476.072625 267.474785 476.229521 267.474785 
z
" clip-path="url(#p25f741cdfe)" style="fill: #1f78b4; stroke: #1f78b4"/>
    <path d="M 429.973649 306.722192 
C 430.130545 306.722192 430.281037 306.659856 430.391979 306.548914 
C 430.502922 306.437971 430.565257 306.28748 430.565257 306.130584 
C 430.565257 305.973687 430.502922 305.823196 430.391979 305.712254 
C 430.281037 305.601311 430.130545 305.538976 429.973649 305.538976 
C 429.816753 305.538976 429.666262 305.601311 429.555319 305.712254 
C 429.444377 305.823196 429.382041 305.973687 429.382041 306.130584 
C 429.382041 306.28748 429.444377 306.437971 429.555319 306.548914 
C 429.666262 306.659856 429.816753 306.722192 429.973649 306.722192 
z
" clip-path="url(#p25f741cdfe)" style="fill: #1f78b4; stroke: #1f78b4"/>
    <path d="M 488.844759 303.918805 
C 489.001655 303.918805 489.152146 303.85647 489.263089 303.745527 
C 489.374031 303.634585 489.436367 303.484094 489.436367 303.327197 
C 489.436367 303.170301 489.374031 303.01981 489.263089 302.908867 
C 489.152146 302.797925 489.001655 302.735589 488.844759 302.735589 
C 488.687862 302.735589 488.537371 302.797925 488.426429 302.908867 
C 488.315486 303.01981 488.253151 303.170301 488.253151 303.327197 
C 488.253151 303.484094 488.315486 303.634585 488.426429 303.745527 
C 488.537371 303.85647 488.687862 303.918805 488.844759 303.918805 
z
" clip-path="url(#p25f741cdfe)" style="fill: #1f78b4; stroke: #1f78b4"/>
    <path d="M 474.827828 298.312033 
C 474.984724 298.312033 475.135215 298.249697 475.246158 298.138755 
C 475.3571 298.027813 475.419436 297.877321 475.419436 297.720425 
C 475.419436 297.563529 475.3571 297.413037 475.246158 297.302095 
C 475.135215 297.191153 474.984724 297.128817 474.827828 297.128817 
C 474.670932 297.128817 474.52044 297.191153 474.409498 297.302095 
C 474.298555 297.413037 474.23622 297.563529 474.23622 297.720425 
C 474.23622 297.877321 474.298555 298.027813 474.409498 298.138755 
C 474.52044 298.249697 474.670932 298.312033 474.827828 298.312033 
z
" clip-path="url(#p25f741cdfe)" style="fill: #1f78b4; stroke: #1f78b4"/>
    <path d="M 188.882439 320.739122 
C 189.039335 320.739122 189.189826 320.676787 189.300769 320.565844 
C 189.411711 320.454902 189.474047 320.304411 189.474047 320.147514 
C 189.474047 319.990618 189.411711 319.840127 189.300769 319.729184 
C 189.189826 319.618242 189.039335 319.555906 188.882439 319.555906 
C 188.725542 319.555906 188.575051 319.618242 188.464109 319.729184 
C 188.353166 319.840127 188.290831 319.990618 188.290831 320.147514 
C 188.290831 320.304411 188.353166 320.454902 188.464109 320.565844 
C 188.575051 320.676787 188.725542 320.739122 188.882439 320.739122 
z
" clip-path="url(#p25f741cdfe)" style="fill: #1f78b4; stroke: #1f78b4"/>
    <path d="M 158.045191 277.286637 
C 158.202087 277.286637 158.352578 277.224301 158.463521 277.113359 
C 158.574463 277.002416 158.636799 276.851925 158.636799 276.695029 
C 158.636799 276.538132 158.574463 276.387641 158.463521 276.276699 
C 158.352578 276.165756 158.202087 276.103421 158.045191 276.103421 
C 157.888295 276.103421 157.737803 276.165756 157.626861 276.276699 
C 157.515918 276.387641 157.453583 276.538132 157.453583 276.695029 
C 157.453583 276.851925 157.515918 277.002416 157.626861 277.113359 
C 157.737803 277.224301 157.888295 277.286637 158.045191 277.286637 
z
" clip-path="url(#p25f741cdfe)" style="fill: #1f78b4; stroke: #1f78b4"/>
    <path d="M 138.421488 463.711817 
C 138.578384 463.711817 138.728875 463.649481 138.839818 463.538539 
C 138.95076 463.427597 139.013096 463.277105 139.013096 463.120209 
C 139.013096 462.963313 138.95076 462.812821 138.839818 462.701879 
C 138.728875 462.590937 138.578384 462.528601 138.421488 462.528601 
C 138.264591 462.528601 138.1141 462.590937 138.003158 462.701879 
C 137.892215 462.812821 137.82988 462.963313 137.82988 463.120209 
C 137.82988 463.277105 137.892215 463.427597 138.003158 463.538539 
C 138.1141 463.649481 138.264591 463.711817 138.421488 463.711817 
z
" clip-path="url(#p25f741cdfe)" style="fill: #1f78b4; stroke: #1f78b4"/>
    <path d="M 179.070587 462.310124 
C 179.227483 462.310124 179.377975 462.247788 179.488917 462.136846 
C 179.599859 462.025904 179.662195 461.875412 179.662195 461.718516 
C 179.662195 461.56162 179.599859 461.411128 179.488917 461.300186 
C 179.377975 461.189243 179.227483 461.126908 179.070587 461.126908 
C 178.913691 461.126908 178.763199 461.189243 178.652257 461.300186 
C 178.541315 461.411128 178.478979 461.56162 178.478979 461.718516 
C 178.478979 461.875412 178.541315 462.025904 178.652257 462.136846 
C 178.763199 462.247788 178.913691 462.310124 179.070587 462.310124 
z
" clip-path="url(#p25f741cdfe)" style="fill: #1f78b4; stroke: #1f78b4"/>
    <path d="M 250.556934 414.652559 
C 250.713831 414.652559 250.864322 414.590223 250.975264 414.479281 
C 251.086207 414.368339 251.148542 414.217847 251.148542 414.060951 
C 251.148542 413.904055 251.086207 413.753563 250.975264 413.642621 
C 250.864322 413.531679 250.713831 413.469343 250.556934 413.469343 
C 250.400038 413.469343 250.249547 413.531679 250.138604 413.642621 
C 250.027662 413.753563 249.965326 413.904055 249.965326 414.060951 
C 249.965326 414.217847 250.027662 414.368339 250.138604 414.479281 
C 250.249547 414.590223 250.400038 414.652559 250.556934 414.652559 
z
" clip-path="url(#p25f741cdfe)" style="fill: #1f78b4; stroke: #1f78b4"/>
    <path d="M 181.873973 403.439014 
C 182.030869 403.439014 182.181361 403.376679 182.292303 403.265736 
C 182.403246 403.154794 182.465581 403.004303 182.465581 402.847406 
C 182.465581 402.69051 182.403246 402.540019 182.292303 402.429076 
C 182.181361 402.318134 182.030869 402.255798 181.873973 402.255798 
C 181.717077 402.255798 181.566586 402.318134 181.455643 402.429076 
C 181.344701 402.540019 181.282365 402.69051 181.282365 402.847406 
C 181.282365 403.004303 181.344701 403.154794 181.455643 403.265736 
C 181.566586 403.376679 181.717077 403.439014 181.873973 403.439014 
z
" clip-path="url(#p25f741cdfe)" style="fill: #1f78b4; stroke: #1f78b4"/>
    <path d="M 149.635032 365.593301 
C 149.791929 365.593301 149.94242 365.530966 150.053362 365.420023 
C 150.164305 365.309081 150.22664 365.158589 150.22664 365.001693 
C 150.22664 364.844797 150.164305 364.694305 150.053362 364.583363 
C 149.94242 364.472421 149.791929 364.410085 149.635032 364.410085 
C 149.478136 364.410085 149.327645 364.472421 149.216702 364.583363 
C 149.10576 364.694305 149.043424 364.844797 149.043424 365.001693 
C 149.043424 365.158589 149.10576 365.309081 149.216702 365.420023 
C 149.327645 365.530966 149.478136 365.593301 149.635032 365.593301 
z
" clip-path="url(#p25f741cdfe)" style="fill: #1f78b4; stroke: #1f78b4"/>
    <path d="M 166.455349 357.183143 
C 166.612246 357.183143 166.762737 357.120807 166.873679 357.009865 
C 166.984622 356.898922 167.046957 356.748431 167.046957 356.591535 
C 167.046957 356.434638 166.984622 356.284147 166.873679 356.173205 
C 166.762737 356.062262 166.612246 355.999927 166.455349 355.999927 
C 166.298453 355.999927 166.147962 356.062262 166.037019 356.173205 
C 165.926077 356.284147 165.863741 356.434638 165.863741 356.591535 
C 165.863741 356.748431 165.926077 356.898922 166.037019 357.009865 
C 166.147962 357.120807 166.298453 357.183143 166.455349 357.183143 
z
" clip-path="url(#p25f741cdfe)" style="fill: #1f78b4; stroke: #1f78b4"/>
    <path d="M 239.34339 333.35436 
C 239.500286 333.35436 239.650777 333.292025 239.76172 333.181082 
C 239.872662 333.07014 239.934998 332.919648 239.934998 332.762752 
C 239.934998 332.605856 239.872662 332.455365 239.76172 332.344422 
C 239.650777 332.23348 239.500286 332.171144 239.34339 332.171144 
C 239.186493 332.171144 239.036002 332.23348 238.92506 332.344422 
C 238.814117 332.455365 238.751782 332.605856 238.751782 332.762752 
C 238.751782 332.919648 238.814117 333.07014 238.92506 333.181082 
C 239.036002 333.292025 239.186493 333.35436 239.34339 333.35436 
z
" clip-path="url(#p25f741cdfe)" style="fill: #1f78b4; stroke: #1f78b4"/>
    <path d="M 228.129845 374.00346 
C 228.286741 374.00346 228.437233 373.941124 228.548175 373.830182 
C 228.659117 373.719239 228.721453 373.568748 228.721453 373.411852 
C 228.721453 373.254955 228.659117 373.104464 228.548175 372.993522 
C 228.437233 372.882579 228.286741 372.820244 228.129845 372.820244 
C 227.972949 372.820244 227.822457 372.882579 227.711515 372.993522 
C 227.600573 373.104464 227.538237 373.254955 227.538237 373.411852 
C 227.538237 373.568748 227.600573 373.719239 227.711515 373.830182 
C 227.822457 373.941124 227.972949 374.00346 228.129845 374.00346 
z
" clip-path="url(#p25f741cdfe)" style="fill: #1f78b4; stroke: #1f78b4"/>
    <path d="M 228.129845 389.422083 
C 228.286741 389.422083 228.437233 389.359748 228.548175 389.248806 
C 228.659117 389.137863 228.721453 388.987372 228.721453 388.830476 
C 228.721453 388.673579 228.659117 388.523088 228.548175 388.412146 
C 228.437233 388.301203 228.286741 388.238868 228.129845 388.238868 
C 227.972949 388.238868 227.822457 388.301203 227.711515 388.412146 
C 227.600573 388.523088 227.538237 388.673579 227.538237 388.830476 
C 227.538237 388.987372 227.600573 389.137863 227.711515 389.248806 
C 227.822457 389.359748 227.972949 389.422083 228.129845 389.422083 
z
" clip-path="url(#p25f741cdfe)" style="fill: #1f78b4; stroke: #1f78b4"/>
   </g>
  </g>
 </g>
 <defs>
  <clipPath id="p25f741cdfe">
   <rect x="90" y="139.721581" width="558" height="447.756839"/>
  </clipPath>
 </defs>
</svg>
