<?xml version="1.0" encoding="utf-8" standalone="no"?>
<!DOCTYPE svg PUBLIC "-//W3C//DTD SVG 1.1//EN"
  "http://www.w3.org/Graphics/SVG/1.1/DTD/svg11.dtd">
<svg xmlns:xlink="http://www.w3.org/1999/xlink" width="720pt" height="720pt" viewBox="0 0 720 720" xmlns="http://www.w3.org/2000/svg" version="1.1">
 <metadata>
  <rdf:RDF xmlns:dc="http://purl.org/dc/elements/1.1/" xmlns:cc="http://creativecommons.org/ns#" xmlns:rdf="http://www.w3.org/1999/02/22-rdf-syntax-ns#">
   <cc:Work>
    <dc:type rdf:resource="http://purl.org/dc/dcmitype/StillImage"/>
    <dc:date>2024-08-23T16:34:01.592505</dc:date>
    <dc:format>image/svg+xml</dc:format>
    <dc:creator>
     <cc:Agent>
      <dc:title>Matplotlib v3.8.4, https://matplotlib.org/</dc:title>
     </cc:Agent>
    </dc:creator>
   </cc:Work>
  </rdf:RDF>
 </metadata>
 <defs>
  <style type="text/css">*{stroke-linejoin: round; stroke-linecap: butt}</style>
 </defs>
 <g id="figure_1">
  <g id="patch_1">
   <path d="M 0 720 
L 720 720 
L 720 0 
L 0 0 
L 0 720 
z
" style="fill: none"/>
  </g>
  <g id="axes_1">
   <g id="LineCollection_1">
    <path d="M 489.43475 491.431873 
L 489.43475 555.411118 
" clip-path="url(#pcb7d64ba88)" style="fill: none; stroke: #0000ff; stroke-width: 2.25"/>
    <path d="M 489.43475 491.431873 
L 489.43475 428.114693 
" clip-path="url(#pcb7d64ba88)" style="fill: none; stroke: #0000ff; stroke-width: 2.25"/>
    <path d="M 489.43475 428.114693 
L 489.43475 385.391691 
" clip-path="url(#pcb7d64ba88)" style="fill: none; stroke: #0000ff; stroke-width: 2.25"/>
    <path d="M 489.43475 428.114693 
L 446.714798 428.114693 
" clip-path="url(#pcb7d64ba88)" style="fill: none; stroke: #0000ff; stroke-width: 2.25"/>
    <path d="M 489.43475 428.114693 
L 446.714798 385.391691 
" clip-path="url(#pcb7d64ba88)" style="fill: none; stroke: #ffa500; stroke-width: 2.25"/>
    <path d="M 489.43475 299.951788 
L 540.807307 299.951788 
" clip-path="url(#pcb7d64ba88)" style="fill: none; stroke: #0000ff; stroke-width: 2.25"/>
    <path d="M 489.43475 299.951788 
L 446.714798 299.951788 
" clip-path="url(#pcb7d64ba88)" style="fill: none; stroke: #0000ff; stroke-width: 2.25"/>
    <path d="M 489.43475 299.951788 
L 489.43475 342.671739 
" clip-path="url(#pcb7d64ba88)" style="fill: none; stroke: #0000ff; stroke-width: 2.25"/>
    <path d="M 489.43475 299.951788 
L 489.43475 257.231836 
" clip-path="url(#pcb7d64ba88)" style="fill: none; stroke: #0000ff; stroke-width: 2.25"/>
    <path d="M 540.807307 299.951788 
L 599.578512 299.951788 
" clip-path="url(#pcb7d64ba88)" style="fill: none; stroke: #0000ff; stroke-width: 2.25"/>
    <path d="M 179.390171 171.788882 
L 138.421488 171.788882 
" clip-path="url(#pcb7d64ba88)" style="fill: none; stroke: #0000ff; stroke-width: 2.25"/>
    <path d="M 179.390171 171.788882 
L 233.11199 171.788882 
" clip-path="url(#pcb7d64ba88)" style="fill: none; stroke: #0000ff; stroke-width: 2.25"/>
    <path d="M 233.11199 171.788882 
L 233.11199 214.508834 
" clip-path="url(#pcb7d64ba88)" style="fill: none; stroke: #0000ff; stroke-width: 2.25"/>
    <path d="M 233.11199 171.788882 
L 275.831941 171.788882 
" clip-path="url(#pcb7d64ba88)" style="fill: none; stroke: #0000ff; stroke-width: 2.25"/>
    <path d="M 233.11199 171.788882 
L 275.831941 214.508834 
" clip-path="url(#pcb7d64ba88)" style="fill: none; stroke: #ffa500; stroke-width: 2.25"/>
    <path d="M 275.831941 487.587627 
L 275.831941 551.850613 
" clip-path="url(#pcb7d64ba88)" style="fill: none; stroke: #0000ff; stroke-width: 2.25"/>
    <path d="M 275.831941 487.587627 
L 275.831941 428.114693 
" clip-path="url(#pcb7d64ba88)" style="fill: none; stroke: #0000ff; stroke-width: 2.25"/>
    <path d="M 275.831941 428.114693 
L 275.831941 385.391691 
" clip-path="url(#pcb7d64ba88)" style="fill: none; stroke: #0000ff; stroke-width: 2.25"/>
    <path d="M 275.831941 428.114693 
L 318.554944 428.114693 
" clip-path="url(#pcb7d64ba88)" style="fill: none; stroke: #0000ff; stroke-width: 2.25"/>
    <path d="M 275.831941 428.114693 
L 233.11199 428.114693 
" clip-path="url(#pcb7d64ba88)" style="fill: none; stroke: #0000ff; stroke-width: 2.25"/>
    <path d="M 489.43475 385.391691 
L 446.714798 385.391691 
" clip-path="url(#pcb7d64ba88)" style="fill: none; stroke: #0000ff; stroke-width: 2.25"/>
    <path d="M 489.43475 385.391691 
L 489.43475 342.671739 
" clip-path="url(#pcb7d64ba88)" style="fill: none; stroke: #0000ff; stroke-width: 2.25"/>
    <path d="M 446.714798 385.391691 
L 446.714798 428.114693 
" clip-path="url(#pcb7d64ba88)" style="fill: none; stroke: #0000ff; stroke-width: 2.25"/>
    <path d="M 446.714798 385.391691 
L 403.994847 385.391691 
" clip-path="url(#pcb7d64ba88)" style="fill: none; stroke: #0000ff; stroke-width: 2.25"/>
    <path d="M 446.714798 385.391691 
L 446.714798 342.671739 
" clip-path="url(#pcb7d64ba88)" style="fill: none; stroke: #0000ff; stroke-width: 2.25"/>
    <path d="M 446.714798 385.391691 
L 403.994847 428.114693 
" clip-path="url(#pcb7d64ba88)" style="fill: none; stroke: #008000"/>
    <path d="M 446.714798 385.391691 
L 489.43475 342.671739 
" clip-path="url(#pcb7d64ba88)" style="fill: none; stroke: #008000"/>
    <path d="M 446.714798 385.391691 
L 403.994847 342.671739 
" clip-path="url(#pcb7d64ba88)" style="fill: none; stroke: #008000"/>
    <path d="M 489.43475 342.671739 
L 446.714798 342.671739 
" clip-path="url(#pcb7d64ba88)" style="fill: none; stroke: #0000ff; stroke-width: 2.25"/>
    <path d="M 489.43475 342.671739 
L 446.714798 299.951788 
" clip-path="url(#pcb7d64ba88)" style="fill: none; stroke: #008000"/>
    <path d="M 446.714798 342.671739 
L 446.714798 299.951788 
" clip-path="url(#pcb7d64ba88)" style="fill: none; stroke: #0000ff; stroke-width: 2.25"/>
    <path d="M 446.714798 342.671739 
L 403.994847 342.671739 
" clip-path="url(#pcb7d64ba88)" style="fill: none; stroke: #0000ff; stroke-width: 2.25"/>
    <path d="M 446.714798 299.951788 
L 446.714798 257.231836 
" clip-path="url(#pcb7d64ba88)" style="fill: none; stroke: #0000ff; stroke-width: 2.25"/>
    <path d="M 446.714798 299.951788 
L 403.994847 299.951788 
" clip-path="url(#pcb7d64ba88)" style="fill: none; stroke: #0000ff; stroke-width: 2.25"/>
    <path d="M 446.714798 299.951788 
L 403.994847 342.671739 
" clip-path="url(#pcb7d64ba88)" style="fill: none; stroke: #008000"/>
    <path d="M 446.714798 299.951788 
L 403.994847 257.231836 
" clip-path="url(#pcb7d64ba88)" style="fill: none; stroke: #008000"/>
    <path d="M 446.714798 299.951788 
L 489.43475 257.231836 
" clip-path="url(#pcb7d64ba88)" style="fill: none; stroke: #008000"/>
    <path d="M 489.43475 257.231836 
L 446.714798 257.231836 
" clip-path="url(#pcb7d64ba88)" style="fill: none; stroke: #0000ff; stroke-width: 2.25"/>
    <path d="M 489.43475 257.231836 
L 489.43475 214.508834 
" clip-path="url(#pcb7d64ba88)" style="fill: none; stroke: #0000ff; stroke-width: 2.25"/>
    <path d="M 489.43475 257.231836 
L 446.714798 214.508834 
" clip-path="url(#pcb7d64ba88)" style="fill: none; stroke: #008000"/>
    <path d="M 446.714798 257.231836 
L 446.714798 214.508834 
" clip-path="url(#pcb7d64ba88)" style="fill: none; stroke: #0000ff; stroke-width: 2.25"/>
    <path d="M 446.714798 257.231836 
L 403.994847 257.231836 
" clip-path="url(#pcb7d64ba88)" style="fill: none; stroke: #0000ff; stroke-width: 2.25"/>
    <path d="M 489.43475 214.508834 
L 446.714798 214.508834 
" clip-path="url(#pcb7d64ba88)" style="fill: none; stroke: #0000ff; stroke-width: 2.25"/>
    <path d="M 489.43475 214.508834 
L 489.43475 171.788882 
" clip-path="url(#pcb7d64ba88)" style="fill: none; stroke: #0000ff; stroke-width: 2.25"/>
    <path d="M 446.714798 214.508834 
L 446.714798 171.788882 
" clip-path="url(#pcb7d64ba88)" style="fill: none; stroke: #0000ff; stroke-width: 2.25"/>
    <path d="M 446.714798 214.508834 
L 403.994847 214.508834 
" clip-path="url(#pcb7d64ba88)" style="fill: none; stroke: #0000ff; stroke-width: 2.25"/>
    <path d="M 446.714798 214.508834 
L 489.43475 171.788882 
" clip-path="url(#pcb7d64ba88)" style="fill: none; stroke: #008000"/>
    <path d="M 446.714798 214.508834 
L 403.994847 171.788882 
" clip-path="url(#pcb7d64ba88)" style="fill: none; stroke: #008000"/>
    <path d="M 446.714798 214.508834 
L 403.994847 257.231836 
" clip-path="url(#pcb7d64ba88)" style="fill: none; stroke: #008000"/>
    <path d="M 446.714798 428.114693 
L 403.994847 428.114693 
" clip-path="url(#pcb7d64ba88)" style="fill: none; stroke: #0000ff; stroke-width: 2.25"/>
    <path d="M 403.994847 385.391691 
L 403.994847 428.114693 
" clip-path="url(#pcb7d64ba88)" style="fill: none; stroke: #0000ff; stroke-width: 2.25"/>
    <path d="M 403.994847 385.391691 
L 361.274895 385.391691 
" clip-path="url(#pcb7d64ba88)" style="fill: none; stroke: #0000ff; stroke-width: 2.25"/>
    <path d="M 403.994847 385.391691 
L 403.994847 342.671739 
" clip-path="url(#pcb7d64ba88)" style="fill: none; stroke: #0000ff; stroke-width: 2.25"/>
    <path d="M 403.994847 428.114693 
L 361.274895 428.114693 
" clip-path="url(#pcb7d64ba88)" style="fill: none; stroke: #0000ff; stroke-width: 2.25"/>
    <path d="M 403.994847 428.114693 
L 361.274895 385.391691 
" clip-path="url(#pcb7d64ba88)" style="fill: none; stroke: #008000"/>
    <path d="M 361.274895 385.391691 
L 361.274895 428.114693 
" clip-path="url(#pcb7d64ba88)" style="fill: none; stroke: #0000ff; stroke-width: 2.25"/>
    <path d="M 361.274895 385.391691 
L 318.554944 385.391691 
" clip-path="url(#pcb7d64ba88)" style="fill: none; stroke: #0000ff; stroke-width: 2.25"/>
    <path d="M 361.274895 385.391691 
L 361.274895 342.671739 
" clip-path="url(#pcb7d64ba88)" style="fill: none; stroke: #0000ff; stroke-width: 2.25"/>
    <path d="M 361.274895 385.391691 
L 318.554944 428.114693 
" clip-path="url(#pcb7d64ba88)" style="fill: none; stroke: #008000"/>
    <path d="M 361.274895 385.391691 
L 403.994847 342.671739 
" clip-path="url(#pcb7d64ba88)" style="fill: none; stroke: #008000"/>
    <path d="M 361.274895 385.391691 
L 318.554944 342.671739 
" clip-path="url(#pcb7d64ba88)" style="fill: none; stroke: #008000"/>
    <path d="M 361.274895 428.114693 
L 318.554944 428.114693 
" clip-path="url(#pcb7d64ba88)" style="fill: none; stroke: #0000ff; stroke-width: 2.25"/>
    <path d="M 318.554944 385.391691 
L 318.554944 428.114693 
" clip-path="url(#pcb7d64ba88)" style="fill: none; stroke: #0000ff; stroke-width: 2.25"/>
    <path d="M 318.554944 385.391691 
L 275.831941 385.391691 
" clip-path="url(#pcb7d64ba88)" style="fill: none; stroke: #0000ff; stroke-width: 2.25"/>
    <path d="M 318.554944 385.391691 
L 318.554944 342.671739 
" clip-path="url(#pcb7d64ba88)" style="fill: none; stroke: #0000ff; stroke-width: 2.25"/>
    <path d="M 318.554944 428.114693 
L 275.831941 385.391691 
" clip-path="url(#pcb7d64ba88)" style="fill: none; stroke: #008000"/>
    <path d="M 275.831941 385.391691 
L 233.11199 385.391691 
" clip-path="url(#pcb7d64ba88)" style="fill: none; stroke: #0000ff; stroke-width: 2.25"/>
    <path d="M 275.831941 385.391691 
L 275.831941 342.671739 
" clip-path="url(#pcb7d64ba88)" style="fill: none; stroke: #0000ff; stroke-width: 2.25"/>
    <path d="M 275.831941 385.391691 
L 233.11199 428.114693 
" clip-path="url(#pcb7d64ba88)" style="fill: none; stroke: #008000"/>
    <path d="M 275.831941 385.391691 
L 233.11199 342.671739 
" clip-path="url(#pcb7d64ba88)" style="fill: none; stroke: #008000"/>
    <path d="M 275.831941 385.391691 
L 318.554944 342.671739 
" clip-path="url(#pcb7d64ba88)" style="fill: none; stroke: #008000"/>
    <path d="M 233.11199 385.391691 
L 233.11199 428.114693 
" clip-path="url(#pcb7d64ba88)" style="fill: none; stroke: #0000ff; stroke-width: 2.25"/>
    <path d="M 233.11199 385.391691 
L 233.11199 342.671739 
" clip-path="url(#pcb7d64ba88)" style="fill: none; stroke: #0000ff; stroke-width: 2.25"/>
    <path d="M 446.714798 171.788882 
L 489.43475 171.788882 
" clip-path="url(#pcb7d64ba88)" style="fill: none; stroke: #0000ff; stroke-width: 2.25"/>
    <path d="M 446.714798 171.788882 
L 403.994847 171.788882 
" clip-path="url(#pcb7d64ba88)" style="fill: none; stroke: #0000ff; stroke-width: 2.25"/>
    <path d="M 403.994847 342.671739 
L 361.274895 342.671739 
" clip-path="url(#pcb7d64ba88)" style="fill: none; stroke: #0000ff; stroke-width: 2.25"/>
    <path d="M 403.994847 342.671739 
L 403.994847 299.951788 
" clip-path="url(#pcb7d64ba88)" style="fill: none; stroke: #0000ff; stroke-width: 2.25"/>
    <path d="M 403.994847 342.671739 
L 361.274895 299.951788 
" clip-path="url(#pcb7d64ba88)" style="fill: none; stroke: #ffa500; stroke-width: 2.25"/>
    <path d="M 361.274895 342.671739 
L 318.554944 342.671739 
" clip-path="url(#pcb7d64ba88)" style="fill: none; stroke: #0000ff; stroke-width: 2.25"/>
    <path d="M 361.274895 342.671739 
L 361.274895 299.951788 
" clip-path="url(#pcb7d64ba88)" style="fill: none; stroke: #0000ff; stroke-width: 2.25"/>
    <path d="M 318.554944 342.671739 
L 275.831941 342.671739 
" clip-path="url(#pcb7d64ba88)" style="fill: none; stroke: #0000ff; stroke-width: 2.25"/>
    <path d="M 318.554944 342.671739 
L 318.554944 299.951788 
" clip-path="url(#pcb7d64ba88)" style="fill: none; stroke: #0000ff; stroke-width: 2.25"/>
    <path d="M 318.554944 342.671739 
L 275.831941 299.951788 
" clip-path="url(#pcb7d64ba88)" style="fill: none; stroke: #008000"/>
    <path d="M 318.554944 342.671739 
L 361.274895 299.951788 
" clip-path="url(#pcb7d64ba88)" style="fill: none; stroke: #008000"/>
    <path d="M 275.831941 342.671739 
L 233.11199 342.671739 
" clip-path="url(#pcb7d64ba88)" style="fill: none; stroke: #0000ff; stroke-width: 2.25"/>
    <path d="M 275.831941 342.671739 
L 275.831941 299.951788 
" clip-path="url(#pcb7d64ba88)" style="fill: none; stroke: #0000ff; stroke-width: 2.25"/>
    <path d="M 233.11199 342.671739 
L 233.11199 299.951788 
" clip-path="url(#pcb7d64ba88)" style="fill: none; stroke: #0000ff; stroke-width: 2.25"/>
    <path d="M 233.11199 342.671739 
L 275.831941 299.951788 
" clip-path="url(#pcb7d64ba88)" style="fill: none; stroke: #008000"/>
    <path d="M 403.994847 299.951788 
L 361.274895 299.951788 
" clip-path="url(#pcb7d64ba88)" style="fill: none; stroke: #0000ff; stroke-width: 2.25"/>
    <path d="M 403.994847 299.951788 
L 403.994847 257.231836 
" clip-path="url(#pcb7d64ba88)" style="fill: none; stroke: #0000ff; stroke-width: 2.25"/>
    <path d="M 361.274895 299.951788 
L 318.554944 299.951788 
" clip-path="url(#pcb7d64ba88)" style="fill: none; stroke: #0000ff; stroke-width: 2.25"/>
    <path d="M 361.274895 299.951788 
L 361.274895 257.231836 
" clip-path="url(#pcb7d64ba88)" style="fill: none; stroke: #0000ff; stroke-width: 2.25"/>
    <path d="M 361.274895 299.951788 
L 403.994847 257.231836 
" clip-path="url(#pcb7d64ba88)" style="fill: none; stroke: #008000"/>
    <path d="M 361.274895 299.951788 
L 318.554944 257.231836 
" clip-path="url(#pcb7d64ba88)" style="fill: none; stroke: #008000"/>
    <path d="M 318.554944 299.951788 
L 275.831941 299.951788 
" clip-path="url(#pcb7d64ba88)" style="fill: none; stroke: #0000ff; stroke-width: 2.25"/>
    <path d="M 318.554944 299.951788 
L 318.554944 257.231836 
" clip-path="url(#pcb7d64ba88)" style="fill: none; stroke: #0000ff; stroke-width: 2.25"/>
    <path d="M 275.831941 299.951788 
L 233.11199 299.951788 
" clip-path="url(#pcb7d64ba88)" style="fill: none; stroke: #0000ff; stroke-width: 2.25"/>
    <path d="M 275.831941 299.951788 
L 275.831941 257.231836 
" clip-path="url(#pcb7d64ba88)" style="fill: none; stroke: #0000ff; stroke-width: 2.25"/>
    <path d="M 275.831941 299.951788 
L 233.11199 257.231836 
" clip-path="url(#pcb7d64ba88)" style="fill: none; stroke: #008000"/>
    <path d="M 275.831941 299.951788 
L 318.554944 257.231836 
" clip-path="url(#pcb7d64ba88)" style="fill: none; stroke: #008000"/>
    <path d="M 233.11199 299.951788 
L 233.11199 257.231836 
" clip-path="url(#pcb7d64ba88)" style="fill: none; stroke: #0000ff; stroke-width: 2.25"/>
    <path d="M 403.994847 257.231836 
L 361.274895 257.231836 
" clip-path="url(#pcb7d64ba88)" style="fill: none; stroke: #0000ff; stroke-width: 2.25"/>
    <path d="M 403.994847 257.231836 
L 403.994847 214.508834 
" clip-path="url(#pcb7d64ba88)" style="fill: none; stroke: #0000ff; stroke-width: 2.25"/>
    <path d="M 403.994847 257.231836 
L 361.274895 214.508834 
" clip-path="url(#pcb7d64ba88)" style="fill: none; stroke: #008000"/>
    <path d="M 361.274895 257.231836 
L 318.554944 257.231836 
" clip-path="url(#pcb7d64ba88)" style="fill: none; stroke: #0000ff; stroke-width: 2.25"/>
    <path d="M 361.274895 257.231836 
L 361.274895 214.508834 
" clip-path="url(#pcb7d64ba88)" style="fill: none; stroke: #0000ff; stroke-width: 2.25"/>
    <path d="M 318.554944 257.231836 
L 275.831941 257.231836 
" clip-path="url(#pcb7d64ba88)" style="fill: none; stroke: #0000ff; stroke-width: 2.25"/>
    <path d="M 318.554944 257.231836 
L 318.554944 214.508834 
" clip-path="url(#pcb7d64ba88)" style="fill: none; stroke: #0000ff; stroke-width: 2.25"/>
    <path d="M 318.554944 257.231836 
L 361.274895 214.508834 
" clip-path="url(#pcb7d64ba88)" style="fill: none; stroke: #008000"/>
    <path d="M 318.554944 257.231836 
L 275.831941 214.508834 
" clip-path="url(#pcb7d64ba88)" style="fill: none; stroke: #008000"/>
    <path d="M 275.831941 257.231836 
L 233.11199 257.231836 
" clip-path="url(#pcb7d64ba88)" style="fill: none; stroke: #0000ff; stroke-width: 2.25"/>
    <path d="M 275.831941 257.231836 
L 275.831941 214.508834 
" clip-path="url(#pcb7d64ba88)" style="fill: none; stroke: #0000ff; stroke-width: 2.25"/>
    <path d="M 233.11199 257.231836 
L 233.11199 214.508834 
" clip-path="url(#pcb7d64ba88)" style="fill: none; stroke: #0000ff; stroke-width: 2.25"/>
    <path d="M 233.11199 257.231836 
L 275.831941 214.508834 
" clip-path="url(#pcb7d64ba88)" style="fill: none; stroke: #008000"/>
    <path d="M 403.994847 214.508834 
L 361.274895 214.508834 
" clip-path="url(#pcb7d64ba88)" style="fill: none; stroke: #0000ff; stroke-width: 2.25"/>
    <path d="M 403.994847 214.508834 
L 403.994847 171.788882 
" clip-path="url(#pcb7d64ba88)" style="fill: none; stroke: #0000ff; stroke-width: 2.25"/>
    <path d="M 361.274895 214.508834 
L 318.554944 214.508834 
" clip-path="url(#pcb7d64ba88)" style="fill: none; stroke: #0000ff; stroke-width: 2.25"/>
    <path d="M 361.274895 214.508834 
L 361.274895 171.788882 
" clip-path="url(#pcb7d64ba88)" style="fill: none; stroke: #0000ff; stroke-width: 2.25"/>
    <path d="M 361.274895 214.508834 
L 403.994847 171.788882 
" clip-path="url(#pcb7d64ba88)" style="fill: none; stroke: #008000"/>
    <path d="M 361.274895 214.508834 
L 318.554944 171.788882 
" clip-path="url(#pcb7d64ba88)" style="fill: none; stroke: #008000"/>
    <path d="M 318.554944 214.508834 
L 275.831941 214.508834 
" clip-path="url(#pcb7d64ba88)" style="fill: none; stroke: #0000ff; stroke-width: 2.25"/>
    <path d="M 318.554944 214.508834 
L 318.554944 171.788882 
" clip-path="url(#pcb7d64ba88)" style="fill: none; stroke: #0000ff; stroke-width: 2.25"/>
    <path d="M 275.831941 214.508834 
L 233.11199 214.508834 
" clip-path="url(#pcb7d64ba88)" style="fill: none; stroke: #0000ff; stroke-width: 2.25"/>
    <path d="M 275.831941 214.508834 
L 275.831941 171.788882 
" clip-path="url(#pcb7d64ba88)" style="fill: none; stroke: #0000ff; stroke-width: 2.25"/>
    <path d="M 275.831941 214.508834 
L 318.554944 171.788882 
" clip-path="url(#pcb7d64ba88)" style="fill: none; stroke: #008000"/>
    <path d="M 403.994847 171.788882 
L 361.274895 171.788882 
" clip-path="url(#pcb7d64ba88)" style="fill: none; stroke: #0000ff; stroke-width: 2.25"/>
    <path d="M 361.274895 171.788882 
L 318.554944 171.788882 
" clip-path="url(#pcb7d64ba88)" style="fill: none; stroke: #0000ff; stroke-width: 2.25"/>
    <path d="M 318.554944 171.788882 
L 275.831941 171.788882 
" clip-path="url(#pcb7d64ba88)" style="fill: none; stroke: #0000ff; stroke-width: 2.25"/>
   </g>
   <g id="PathCollection_1">
    <path d="M 489.43475 492.023481 
C 489.591646 492.023481 489.742137 491.961145 489.85308 491.850203 
C 489.964022 491.739261 490.026358 491.588769 490.026358 491.431873 
C 490.026358 491.274977 489.964022 491.124485 489.85308 491.013543 
C 489.742137 490.902601 489.591646 490.840265 489.43475 490.840265 
C 489.277853 490.840265 489.127362 490.902601 489.01642 491.013543 
C 488.905477 491.124485 488.843142 491.274977 488.843142 491.431873 
C 488.843142 491.588769 488.905477 491.739261 489.01642 491.850203 
C 489.127362 491.961145 489.277853 492.023481 489.43475 492.023481 
z
" clip-path="url(#pcb7d64ba88)" style="fill: #1f78b4; stroke: #1f78b4"/>
    <path d="M 489.43475 556.002725 
C 489.591646 556.002725 489.742137 555.94039 489.85308 555.829448 
C 489.964022 555.718505 490.026358 555.568014 490.026358 555.411118 
C 490.026358 555.254221 489.964022 555.10373 489.85308 554.992788 
C 489.742137 554.881845 489.591646 554.81951 489.43475 554.81951 
C 489.277853 554.81951 489.127362 554.881845 489.01642 554.992788 
C 488.905477 555.10373 488.843142 555.254221 488.843142 555.411118 
C 488.843142 555.568014 488.905477 555.718505 489.01642 555.829448 
C 489.127362 555.94039 489.277853 556.002725 489.43475 556.002725 
z
" clip-path="url(#pcb7d64ba88)" style="fill: #1f78b4; stroke: #1f78b4"/>
    <path d="M 489.43475 428.706301 
C 489.591646 428.706301 489.742137 428.643966 489.85308 428.533023 
C 489.964022 428.422081 490.026358 428.271589 490.026358 428.114693 
C 490.026358 427.957797 489.964022 427.807306 489.85308 427.696363 
C 489.742137 427.585421 489.591646 427.523085 489.43475 427.523085 
C 489.277853 427.523085 489.127362 427.585421 489.01642 427.696363 
C 488.905477 427.807306 488.843142 427.957797 488.843142 428.114693 
C 488.843142 428.271589 488.905477 428.422081 489.01642 428.533023 
C 489.127362 428.643966 489.277853 428.706301 489.43475 428.706301 
z
" clip-path="url(#pcb7d64ba88)" style="fill: #1f78b4; stroke: #1f78b4"/>
    <path d="M 489.43475 300.543396 
C 489.591646 300.543396 489.742137 300.48106 489.85308 300.370118 
C 489.964022 300.259175 490.026358 300.108684 490.026358 299.951788 
C 490.026358 299.794892 489.964022 299.6444 489.85308 299.533458 
C 489.742137 299.422515 489.591646 299.36018 489.43475 299.36018 
C 489.277853 299.36018 489.127362 299.422515 489.01642 299.533458 
C 488.905477 299.6444 488.843142 299.794892 488.843142 299.951788 
C 488.843142 300.108684 488.905477 300.259175 489.01642 300.370118 
C 489.127362 300.48106 489.277853 300.543396 489.43475 300.543396 
z
" clip-path="url(#pcb7d64ba88)" style="fill: #1f78b4; stroke: #1f78b4"/>
    <path d="M 540.807307 300.543396 
C 540.964203 300.543396 541.114694 300.48106 541.225637 300.370118 
C 541.336579 300.259175 541.398914 300.108684 541.398914 299.951788 
C 541.398914 299.794892 541.336579 299.6444 541.225637 299.533458 
C 541.114694 299.422515 540.964203 299.36018 540.807307 299.36018 
C 540.65041 299.36018 540.499919 299.422515 540.388977 299.533458 
C 540.278034 299.6444 540.215699 299.794892 540.215699 299.951788 
C 540.215699 300.108684 540.278034 300.259175 540.388977 300.370118 
C 540.499919 300.48106 540.65041 300.543396 540.807307 300.543396 
z
" clip-path="url(#pcb7d64ba88)" style="fill: #1f78b4; stroke: #1f78b4"/>
    <path d="M 599.578512 300.543396 
C 599.735409 300.543396 599.8859 300.48106 599.996842 300.370118 
C 600.107785 300.259175 600.17012 300.108684 600.17012 299.951788 
C 600.17012 299.794892 600.107785 299.6444 599.996842 299.533458 
C 599.8859 299.422515 599.735409 299.36018 599.578512 299.36018 
C 599.421616 299.36018 599.271125 299.422515 599.160182 299.533458 
C 599.04924 299.6444 598.986904 299.794892 598.986904 299.951788 
C 598.986904 300.108684 599.04924 300.259175 599.160182 300.370118 
C 599.271125 300.48106 599.421616 300.543396 599.578512 300.543396 
z
" clip-path="url(#pcb7d64ba88)" style="fill: #1f78b4; stroke: #1f78b4"/>
    <path d="M 179.390171 172.38049 
C 179.547067 172.38049 179.697559 172.318155 179.808501 172.207212 
C 179.919444 172.09627 179.981779 171.945779 179.981779 171.788882 
C 179.981779 171.631986 179.919444 171.481495 179.808501 171.370552 
C 179.697559 171.25961 179.547067 171.197275 179.390171 171.197275 
C 179.233275 171.197275 179.082784 171.25961 178.971841 171.370552 
C 178.860899 171.481495 178.798563 171.631986 178.798563 171.788882 
C 178.798563 171.945779 178.860899 172.09627 178.971841 172.207212 
C 179.082784 172.318155 179.233275 172.38049 179.390171 172.38049 
z
" clip-path="url(#pcb7d64ba88)" style="fill: #1f78b4; stroke: #1f78b4"/>
    <path d="M 138.421488 172.38049 
C 138.578384 172.38049 138.728875 172.318155 138.839818 172.207212 
C 138.95076 172.09627 139.013096 171.945779 139.013096 171.788882 
C 139.013096 171.631986 138.95076 171.481495 138.839818 171.370552 
C 138.728875 171.25961 138.578384 171.197275 138.421488 171.197275 
C 138.264591 171.197275 138.1141 171.25961 138.003158 171.370552 
C 137.892215 171.481495 137.82988 171.631986 137.82988 171.788882 
C 137.82988 171.945779 137.892215 172.09627 138.003158 172.207212 
C 138.1141 172.318155 138.264591 172.38049 138.421488 172.38049 
z
" clip-path="url(#pcb7d64ba88)" style="fill: #1f78b4; stroke: #1f78b4"/>
    <path d="M 233.11199 172.38049 
C 233.268886 172.38049 233.419377 172.318155 233.53032 172.207212 
C 233.641262 172.09627 233.703598 171.945779 233.703598 171.788882 
C 233.703598 171.631986 233.641262 171.481495 233.53032 171.370552 
C 233.419377 171.25961 233.268886 171.197275 233.11199 171.197275 
C 232.955094 171.197275 232.804602 171.25961 232.69366 171.370552 
C 232.582717 171.481495 232.520382 171.631986 232.520382 171.788882 
C 232.520382 171.945779 232.582717 172.09627 232.69366 172.207212 
C 232.804602 172.318155 232.955094 172.38049 233.11199 172.38049 
z
" clip-path="url(#pcb7d64ba88)" style="fill: #1f78b4; stroke: #1f78b4"/>
    <path d="M 275.831941 488.179235 
C 275.988838 488.179235 276.139329 488.116899 276.250271 488.005957 
C 276.361214 487.895014 276.423549 487.744523 276.423549 487.587627 
C 276.423549 487.43073 276.361214 487.280239 276.250271 487.169297 
C 276.139329 487.058354 275.988838 486.996019 275.831941 486.996019 
C 275.675045 486.996019 275.524554 487.058354 275.413611 487.169297 
C 275.302669 487.280239 275.240333 487.43073 275.240333 487.587627 
C 275.240333 487.744523 275.302669 487.895014 275.413611 488.005957 
C 275.524554 488.116899 275.675045 488.179235 275.831941 488.179235 
z
" clip-path="url(#pcb7d64ba88)" style="fill: #1f78b4; stroke: #1f78b4"/>
    <path d="M 275.831941 552.442221 
C 275.988838 552.442221 276.139329 552.379885 276.250271 552.268943 
C 276.361214 552.158001 276.423549 552.007509 276.423549 551.850613 
C 276.423549 551.693717 276.361214 551.543225 276.250271 551.432283 
C 276.139329 551.321341 275.988838 551.259005 275.831941 551.259005 
C 275.675045 551.259005 275.524554 551.321341 275.413611 551.432283 
C 275.302669 551.543225 275.240333 551.693717 275.240333 551.850613 
C 275.240333 552.007509 275.302669 552.158001 275.413611 552.268943 
C 275.524554 552.379885 275.675045 552.442221 275.831941 552.442221 
z
" clip-path="url(#pcb7d64ba88)" style="fill: #1f78b4; stroke: #1f78b4"/>
    <path d="M 275.831941 428.706301 
C 275.988838 428.706301 276.139329 428.643966 276.250271 428.533023 
C 276.361214 428.422081 276.423549 428.271589 276.423549 428.114693 
C 276.423549 427.957797 276.361214 427.807306 276.250271 427.696363 
C 276.139329 427.585421 275.988838 427.523085 275.831941 427.523085 
C 275.675045 427.523085 275.524554 427.585421 275.413611 427.696363 
C 275.302669 427.807306 275.240333 427.957797 275.240333 428.114693 
C 275.240333 428.271589 275.302669 428.422081 275.413611 428.533023 
C 275.524554 428.643966 275.675045 428.706301 275.831941 428.706301 
z
" clip-path="url(#pcb7d64ba88)" style="fill: #1f78b4; stroke: #1f78b4"/>
    <path d="M 489.43475 385.983299 
C 489.591646 385.983299 489.742137 385.920963 489.85308 385.810021 
C 489.964022 385.699078 490.026358 385.548587 490.026358 385.391691 
C 490.026358 385.234794 489.964022 385.084303 489.85308 384.973361 
C 489.742137 384.862418 489.591646 384.800083 489.43475 384.800083 
C 489.277853 384.800083 489.127362 384.862418 489.01642 384.973361 
C 488.905477 385.084303 488.843142 385.234794 488.843142 385.391691 
C 488.843142 385.548587 488.905477 385.699078 489.01642 385.810021 
C 489.127362 385.920963 489.277853 385.983299 489.43475 385.983299 
z
" clip-path="url(#pcb7d64ba88)" style="fill: #1f78b4; stroke: #1f78b4"/>
    <path d="M 446.714798 385.983299 
C 446.871694 385.983299 447.022186 385.920963 447.133128 385.810021 
C 447.244071 385.699078 447.306406 385.548587 447.306406 385.391691 
C 447.306406 385.234794 447.244071 385.084303 447.133128 384.973361 
C 447.022186 384.862418 446.871694 384.800083 446.714798 384.800083 
C 446.557902 384.800083 446.407411 384.862418 446.296468 384.973361 
C 446.185526 385.084303 446.12319 385.234794 446.12319 385.391691 
C 446.12319 385.548587 446.185526 385.699078 446.296468 385.810021 
C 446.407411 385.920963 446.557902 385.983299 446.714798 385.983299 
z
" clip-path="url(#pcb7d64ba88)" style="fill: #1f78b4; stroke: #1f78b4"/>
    <path d="M 489.43475 343.263347 
C 489.591646 343.263347 489.742137 343.201012 489.85308 343.090069 
C 489.964022 342.979127 490.026358 342.828636 490.026358 342.671739 
C 490.026358 342.514843 489.964022 342.364352 489.85308 342.253409 
C 489.742137 342.142467 489.591646 342.080131 489.43475 342.080131 
C 489.277853 342.080131 489.127362 342.142467 489.01642 342.253409 
C 488.905477 342.364352 488.843142 342.514843 488.843142 342.671739 
C 488.843142 342.828636 488.905477 342.979127 489.01642 343.090069 
C 489.127362 343.201012 489.277853 343.263347 489.43475 343.263347 
z
" clip-path="url(#pcb7d64ba88)" style="fill: #1f78b4; stroke: #1f78b4"/>
    <path d="M 446.714798 343.263347 
C 446.871694 343.263347 447.022186 343.201012 447.133128 343.090069 
C 447.244071 342.979127 447.306406 342.828636 447.306406 342.671739 
C 447.306406 342.514843 447.244071 342.364352 447.133128 342.253409 
C 447.022186 342.142467 446.871694 342.080131 446.714798 342.080131 
C 446.557902 342.080131 446.407411 342.142467 446.296468 342.253409 
C 446.185526 342.364352 446.12319 342.514843 446.12319 342.671739 
C 446.12319 342.828636 446.185526 342.979127 446.296468 343.090069 
C 446.407411 343.201012 446.557902 343.263347 446.714798 343.263347 
z
" clip-path="url(#pcb7d64ba88)" style="fill: #1f78b4; stroke: #1f78b4"/>
    <path d="M 446.714798 300.543396 
C 446.871694 300.543396 447.022186 300.48106 447.133128 300.370118 
C 447.244071 300.259175 447.306406 300.108684 447.306406 299.951788 
C 447.306406 299.794892 447.244071 299.6444 447.133128 299.533458 
C 447.022186 299.422515 446.871694 299.36018 446.714798 299.36018 
C 446.557902 299.36018 446.407411 299.422515 446.296468 299.533458 
C 446.185526 299.6444 446.12319 299.794892 446.12319 299.951788 
C 446.12319 300.108684 446.185526 300.259175 446.296468 300.370118 
C 446.407411 300.48106 446.557902 300.543396 446.714798 300.543396 
z
" clip-path="url(#pcb7d64ba88)" style="fill: #1f78b4; stroke: #1f78b4"/>
    <path d="M 489.43475 257.823444 
C 489.591646 257.823444 489.742137 257.761109 489.85308 257.650166 
C 489.964022 257.539224 490.026358 257.388733 490.026358 257.231836 
C 490.026358 257.07494 489.964022 256.924449 489.85308 256.813506 
C 489.742137 256.702564 489.591646 256.640228 489.43475 256.640228 
C 489.277853 256.640228 489.127362 256.702564 489.01642 256.813506 
C 488.905477 256.924449 488.843142 257.07494 488.843142 257.231836 
C 488.843142 257.388733 488.905477 257.539224 489.01642 257.650166 
C 489.127362 257.761109 489.277853 257.823444 489.43475 257.823444 
z
" clip-path="url(#pcb7d64ba88)" style="fill: #1f78b4; stroke: #1f78b4"/>
    <path d="M 446.714798 257.823444 
C 446.871694 257.823444 447.022186 257.761109 447.133128 257.650166 
C 447.244071 257.539224 447.306406 257.388733 447.306406 257.231836 
C 447.306406 257.07494 447.244071 256.924449 447.133128 256.813506 
C 447.022186 256.702564 446.871694 256.640228 446.714798 256.640228 
C 446.557902 256.640228 446.407411 256.702564 446.296468 256.813506 
C 446.185526 256.924449 446.12319 257.07494 446.12319 257.231836 
C 446.12319 257.388733 446.185526 257.539224 446.296468 257.650166 
C 446.407411 257.761109 446.557902 257.823444 446.714798 257.823444 
z
" clip-path="url(#pcb7d64ba88)" style="fill: #1f78b4; stroke: #1f78b4"/>
    <path d="M 489.43475 215.100442 
C 489.591646 215.100442 489.742137 215.038106 489.85308 214.927164 
C 489.964022 214.816222 490.026358 214.66573 490.026358 214.508834 
C 490.026358 214.351938 489.964022 214.201446 489.85308 214.090504 
C 489.742137 213.979561 489.591646 213.917226 489.43475 213.917226 
C 489.277853 213.917226 489.127362 213.979561 489.01642 214.090504 
C 488.905477 214.201446 488.843142 214.351938 488.843142 214.508834 
C 488.843142 214.66573 488.905477 214.816222 489.01642 214.927164 
C 489.127362 215.038106 489.277853 215.100442 489.43475 215.100442 
z
" clip-path="url(#pcb7d64ba88)" style="fill: #1f78b4; stroke: #1f78b4"/>
    <path d="M 446.714798 215.100442 
C 446.871694 215.100442 447.022186 215.038106 447.133128 214.927164 
C 447.244071 214.816222 447.306406 214.66573 447.306406 214.508834 
C 447.306406 214.351938 447.244071 214.201446 447.133128 214.090504 
C 447.022186 213.979561 446.871694 213.917226 446.714798 213.917226 
C 446.557902 213.917226 446.407411 213.979561 446.296468 214.090504 
C 446.185526 214.201446 446.12319 214.351938 446.12319 214.508834 
C 446.12319 214.66573 446.185526 214.816222 446.296468 214.927164 
C 446.407411 215.038106 446.557902 215.100442 446.714798 215.100442 
z
" clip-path="url(#pcb7d64ba88)" style="fill: #1f78b4; stroke: #1f78b4"/>
    <path d="M 446.714798 428.706301 
C 446.871694 428.706301 447.022186 428.643966 447.133128 428.533023 
C 447.244071 428.422081 447.306406 428.271589 447.306406 428.114693 
C 447.306406 427.957797 447.244071 427.807306 447.133128 427.696363 
C 447.022186 427.585421 446.871694 427.523085 446.714798 427.523085 
C 446.557902 427.523085 446.407411 427.585421 446.296468 427.696363 
C 446.185526 427.807306 446.12319 427.957797 446.12319 428.114693 
C 446.12319 428.271589 446.185526 428.422081 446.296468 428.533023 
C 446.407411 428.643966 446.557902 428.706301 446.714798 428.706301 
z
" clip-path="url(#pcb7d64ba88)" style="fill: #1f78b4; stroke: #1f78b4"/>
    <path d="M 403.994847 385.983299 
C 404.151743 385.983299 404.302234 385.920963 404.413177 385.810021 
C 404.524119 385.699078 404.586455 385.548587 404.586455 385.391691 
C 404.586455 385.234794 404.524119 385.084303 404.413177 384.973361 
C 404.302234 384.862418 404.151743 384.800083 403.994847 384.800083 
C 403.83795 384.800083 403.687459 384.862418 403.576517 384.973361 
C 403.465574 385.084303 403.403239 385.234794 403.403239 385.391691 
C 403.403239 385.548587 403.465574 385.699078 403.576517 385.810021 
C 403.687459 385.920963 403.83795 385.983299 403.994847 385.983299 
z
" clip-path="url(#pcb7d64ba88)" style="fill: #1f78b4; stroke: #1f78b4"/>
    <path d="M 403.994847 428.706301 
C 404.151743 428.706301 404.302234 428.643966 404.413177 428.533023 
C 404.524119 428.422081 404.586455 428.271589 404.586455 428.114693 
C 404.586455 427.957797 404.524119 427.807306 404.413177 427.696363 
C 404.302234 427.585421 404.151743 427.523085 403.994847 427.523085 
C 403.83795 427.523085 403.687459 427.585421 403.576517 427.696363 
C 403.465574 427.807306 403.403239 427.957797 403.403239 428.114693 
C 403.403239 428.271589 403.465574 428.422081 403.576517 428.533023 
C 403.687459 428.643966 403.83795 428.706301 403.994847 428.706301 
z
" clip-path="url(#pcb7d64ba88)" style="fill: #1f78b4; stroke: #1f78b4"/>
    <path d="M 361.274895 385.983299 
C 361.431791 385.983299 361.582283 385.920963 361.693225 385.810021 
C 361.804168 385.699078 361.866503 385.548587 361.866503 385.391691 
C 361.866503 385.234794 361.804168 385.084303 361.693225 384.973361 
C 361.582283 384.862418 361.431791 384.800083 361.274895 384.800083 
C 361.117999 384.800083 360.967508 384.862418 360.856565 384.973361 
C 360.745623 385.084303 360.683287 385.234794 360.683287 385.391691 
C 360.683287 385.548587 360.745623 385.699078 360.856565 385.810021 
C 360.967508 385.920963 361.117999 385.983299 361.274895 385.983299 
z
" clip-path="url(#pcb7d64ba88)" style="fill: #1f78b4; stroke: #1f78b4"/>
    <path d="M 361.274895 428.706301 
C 361.431791 428.706301 361.582283 428.643966 361.693225 428.533023 
C 361.804168 428.422081 361.866503 428.271589 361.866503 428.114693 
C 361.866503 427.957797 361.804168 427.807306 361.693225 427.696363 
C 361.582283 427.585421 361.431791 427.523085 361.274895 427.523085 
C 361.117999 427.523085 360.967508 427.585421 360.856565 427.696363 
C 360.745623 427.807306 360.683287 427.957797 360.683287 428.114693 
C 360.683287 428.271589 360.745623 428.422081 360.856565 428.533023 
C 360.967508 428.643966 361.117999 428.706301 361.274895 428.706301 
z
" clip-path="url(#pcb7d64ba88)" style="fill: #1f78b4; stroke: #1f78b4"/>
    <path d="M 318.554944 385.983299 
C 318.71184 385.983299 318.862331 385.920963 318.973274 385.810021 
C 319.084216 385.699078 319.146552 385.548587 319.146552 385.391691 
C 319.146552 385.234794 319.084216 385.084303 318.973274 384.973361 
C 318.862331 384.862418 318.71184 384.800083 318.554944 384.800083 
C 318.398048 384.800083 318.247556 384.862418 318.136614 384.973361 
C 318.025671 385.084303 317.963336 385.234794 317.963336 385.391691 
C 317.963336 385.548587 318.025671 385.699078 318.136614 385.810021 
C 318.247556 385.920963 318.398048 385.983299 318.554944 385.983299 
z
" clip-path="url(#pcb7d64ba88)" style="fill: #1f78b4; stroke: #1f78b4"/>
    <path d="M 318.554944 428.706301 
C 318.71184 428.706301 318.862331 428.643966 318.973274 428.533023 
C 319.084216 428.422081 319.146552 428.271589 319.146552 428.114693 
C 319.146552 427.957797 319.084216 427.807306 318.973274 427.696363 
C 318.862331 427.585421 318.71184 427.523085 318.554944 427.523085 
C 318.398048 427.523085 318.247556 427.585421 318.136614 427.696363 
C 318.025671 427.807306 317.963336 427.957797 317.963336 428.114693 
C 317.963336 428.271589 318.025671 428.422081 318.136614 428.533023 
C 318.247556 428.643966 318.398048 428.706301 318.554944 428.706301 
z
" clip-path="url(#pcb7d64ba88)" style="fill: #1f78b4; stroke: #1f78b4"/>
    <path d="M 275.831941 385.983299 
C 275.988838 385.983299 276.139329 385.920963 276.250271 385.810021 
C 276.361214 385.699078 276.423549 385.548587 276.423549 385.391691 
C 276.423549 385.234794 276.361214 385.084303 276.250271 384.973361 
C 276.139329 384.862418 275.988838 384.800083 275.831941 384.800083 
C 275.675045 384.800083 275.524554 384.862418 275.413611 384.973361 
C 275.302669 385.084303 275.240333 385.234794 275.240333 385.391691 
C 275.240333 385.548587 275.302669 385.699078 275.413611 385.810021 
C 275.524554 385.920963 275.675045 385.983299 275.831941 385.983299 
z
" clip-path="url(#pcb7d64ba88)" style="fill: #1f78b4; stroke: #1f78b4"/>
    <path d="M 233.11199 385.983299 
C 233.268886 385.983299 233.419377 385.920963 233.53032 385.810021 
C 233.641262 385.699078 233.703598 385.548587 233.703598 385.391691 
C 233.703598 385.234794 233.641262 385.084303 233.53032 384.973361 
C 233.419377 384.862418 233.268886 384.800083 233.11199 384.800083 
C 232.955094 384.800083 232.804602 384.862418 232.69366 384.973361 
C 232.582717 385.084303 232.520382 385.234794 232.520382 385.391691 
C 232.520382 385.548587 232.582717 385.699078 232.69366 385.810021 
C 232.804602 385.920963 232.955094 385.983299 233.11199 385.983299 
z
" clip-path="url(#pcb7d64ba88)" style="fill: #1f78b4; stroke: #1f78b4"/>
    <path d="M 446.714798 172.38049 
C 446.871694 172.38049 447.022186 172.318155 447.133128 172.207212 
C 447.244071 172.09627 447.306406 171.945779 447.306406 171.788882 
C 447.306406 171.631986 447.244071 171.481495 447.133128 171.370552 
C 447.022186 171.25961 446.871694 171.197275 446.714798 171.197275 
C 446.557902 171.197275 446.407411 171.25961 446.296468 171.370552 
C 446.185526 171.481495 446.12319 171.631986 446.12319 171.788882 
C 446.12319 171.945779 446.185526 172.09627 446.296468 172.207212 
C 446.407411 172.318155 446.557902 172.38049 446.714798 172.38049 
z
" clip-path="url(#pcb7d64ba88)" style="fill: #1f78b4; stroke: #1f78b4"/>
    <path d="M 403.994847 343.263347 
C 404.151743 343.263347 404.302234 343.201012 404.413177 343.090069 
C 404.524119 342.979127 404.586455 342.828636 404.586455 342.671739 
C 404.586455 342.514843 404.524119 342.364352 404.413177 342.253409 
C 404.302234 342.142467 404.151743 342.080131 403.994847 342.080131 
C 403.83795 342.080131 403.687459 342.142467 403.576517 342.253409 
C 403.465574 342.364352 403.403239 342.514843 403.403239 342.671739 
C 403.403239 342.828636 403.465574 342.979127 403.576517 343.090069 
C 403.687459 343.201012 403.83795 343.263347 403.994847 343.263347 
z
" clip-path="url(#pcb7d64ba88)" style="fill: #1f78b4; stroke: #1f78b4"/>
    <path d="M 361.274895 343.263347 
C 361.431791 343.263347 361.582283 343.201012 361.693225 343.090069 
C 361.804168 342.979127 361.866503 342.828636 361.866503 342.671739 
C 361.866503 342.514843 361.804168 342.364352 361.693225 342.253409 
C 361.582283 342.142467 361.431791 342.080131 361.274895 342.080131 
C 361.117999 342.080131 360.967508 342.142467 360.856565 342.253409 
C 360.745623 342.364352 360.683287 342.514843 360.683287 342.671739 
C 360.683287 342.828636 360.745623 342.979127 360.856565 343.090069 
C 360.967508 343.201012 361.117999 343.263347 361.274895 343.263347 
z
" clip-path="url(#pcb7d64ba88)" style="fill: #1f78b4; stroke: #1f78b4"/>
    <path d="M 318.554944 343.263347 
C 318.71184 343.263347 318.862331 343.201012 318.973274 343.090069 
C 319.084216 342.979127 319.146552 342.828636 319.146552 342.671739 
C 319.146552 342.514843 319.084216 342.364352 318.973274 342.253409 
C 318.862331 342.142467 318.71184 342.080131 318.554944 342.080131 
C 318.398048 342.080131 318.247556 342.142467 318.136614 342.253409 
C 318.025671 342.364352 317.963336 342.514843 317.963336 342.671739 
C 317.963336 342.828636 318.025671 342.979127 318.136614 343.090069 
C 318.247556 343.201012 318.398048 343.263347 318.554944 343.263347 
z
" clip-path="url(#pcb7d64ba88)" style="fill: #1f78b4; stroke: #1f78b4"/>
    <path d="M 275.831941 343.263347 
C 275.988838 343.263347 276.139329 343.201012 276.250271 343.090069 
C 276.361214 342.979127 276.423549 342.828636 276.423549 342.671739 
C 276.423549 342.514843 276.361214 342.364352 276.250271 342.253409 
C 276.139329 342.142467 275.988838 342.080131 275.831941 342.080131 
C 275.675045 342.080131 275.524554 342.142467 275.413611 342.253409 
C 275.302669 342.364352 275.240333 342.514843 275.240333 342.671739 
C 275.240333 342.828636 275.302669 342.979127 275.413611 343.090069 
C 275.524554 343.201012 275.675045 343.263347 275.831941 343.263347 
z
" clip-path="url(#pcb7d64ba88)" style="fill: #1f78b4; stroke: #1f78b4"/>
    <path d="M 233.11199 343.263347 
C 233.268886 343.263347 233.419377 343.201012 233.53032 343.090069 
C 233.641262 342.979127 233.703598 342.828636 233.703598 342.671739 
C 233.703598 342.514843 233.641262 342.364352 233.53032 342.253409 
C 233.419377 342.142467 233.268886 342.080131 233.11199 342.080131 
C 232.955094 342.080131 232.804602 342.142467 232.69366 342.253409 
C 232.582717 342.364352 232.520382 342.514843 232.520382 342.671739 
C 232.520382 342.828636 232.582717 342.979127 232.69366 343.090069 
C 232.804602 343.201012 232.955094 343.263347 233.11199 343.263347 
z
" clip-path="url(#pcb7d64ba88)" style="fill: #1f78b4; stroke: #1f78b4"/>
    <path d="M 403.994847 300.543396 
C 404.151743 300.543396 404.302234 300.48106 404.413177 300.370118 
C 404.524119 300.259175 404.586455 300.108684 404.586455 299.951788 
C 404.586455 299.794892 404.524119 299.6444 404.413177 299.533458 
C 404.302234 299.422515 404.151743 299.36018 403.994847 299.36018 
C 403.83795 299.36018 403.687459 299.422515 403.576517 299.533458 
C 403.465574 299.6444 403.403239 299.794892 403.403239 299.951788 
C 403.403239 300.108684 403.465574 300.259175 403.576517 300.370118 
C 403.687459 300.48106 403.83795 300.543396 403.994847 300.543396 
z
" clip-path="url(#pcb7d64ba88)" style="fill: #1f78b4; stroke: #1f78b4"/>
    <path d="M 361.274895 300.543396 
C 361.431791 300.543396 361.582283 300.48106 361.693225 300.370118 
C 361.804168 300.259175 361.866503 300.108684 361.866503 299.951788 
C 361.866503 299.794892 361.804168 299.6444 361.693225 299.533458 
C 361.582283 299.422515 361.431791 299.36018 361.274895 299.36018 
C 361.117999 299.36018 360.967508 299.422515 360.856565 299.533458 
C 360.745623 299.6444 360.683287 299.794892 360.683287 299.951788 
C 360.683287 300.108684 360.745623 300.259175 360.856565 300.370118 
C 360.967508 300.48106 361.117999 300.543396 361.274895 300.543396 
z
" clip-path="url(#pcb7d64ba88)" style="fill: #1f78b4; stroke: #1f78b4"/>
    <path d="M 318.554944 300.543396 
C 318.71184 300.543396 318.862331 300.48106 318.973274 300.370118 
C 319.084216 300.259175 319.146552 300.108684 319.146552 299.951788 
C 319.146552 299.794892 319.084216 299.6444 318.973274 299.533458 
C 318.862331 299.422515 318.71184 299.36018 318.554944 299.36018 
C 318.398048 299.36018 318.247556 299.422515 318.136614 299.533458 
C 318.025671 299.6444 317.963336 299.794892 317.963336 299.951788 
C 317.963336 300.108684 318.025671 300.259175 318.136614 300.370118 
C 318.247556 300.48106 318.398048 300.543396 318.554944 300.543396 
z
" clip-path="url(#pcb7d64ba88)" style="fill: #1f78b4; stroke: #1f78b4"/>
    <path d="M 275.831941 300.543396 
C 275.988838 300.543396 276.139329 300.48106 276.250271 300.370118 
C 276.361214 300.259175 276.423549 300.108684 276.423549 299.951788 
C 276.423549 299.794892 276.361214 299.6444 276.250271 299.533458 
C 276.139329 299.422515 275.988838 299.36018 275.831941 299.36018 
C 275.675045 299.36018 275.524554 299.422515 275.413611 299.533458 
C 275.302669 299.6444 275.240333 299.794892 275.240333 299.951788 
C 275.240333 300.108684 275.302669 300.259175 275.413611 300.370118 
C 275.524554 300.48106 275.675045 300.543396 275.831941 300.543396 
z
" clip-path="url(#pcb7d64ba88)" style="fill: #1f78b4; stroke: #1f78b4"/>
    <path d="M 233.11199 300.543396 
C 233.268886 300.543396 233.419377 300.48106 233.53032 300.370118 
C 233.641262 300.259175 233.703598 300.108684 233.703598 299.951788 
C 233.703598 299.794892 233.641262 299.6444 233.53032 299.533458 
C 233.419377 299.422515 233.268886 299.36018 233.11199 299.36018 
C 232.955094 299.36018 232.804602 299.422515 232.69366 299.533458 
C 232.582717 299.6444 232.520382 299.794892 232.520382 299.951788 
C 232.520382 300.108684 232.582717 300.259175 232.69366 300.370118 
C 232.804602 300.48106 232.955094 300.543396 233.11199 300.543396 
z
" clip-path="url(#pcb7d64ba88)" style="fill: #1f78b4; stroke: #1f78b4"/>
    <path d="M 403.994847 257.823444 
C 404.151743 257.823444 404.302234 257.761109 404.413177 257.650166 
C 404.524119 257.539224 404.586455 257.388733 404.586455 257.231836 
C 404.586455 257.07494 404.524119 256.924449 404.413177 256.813506 
C 404.302234 256.702564 404.151743 256.640228 403.994847 256.640228 
C 403.83795 256.640228 403.687459 256.702564 403.576517 256.813506 
C 403.465574 256.924449 403.403239 257.07494 403.403239 257.231836 
C 403.403239 257.388733 403.465574 257.539224 403.576517 257.650166 
C 403.687459 257.761109 403.83795 257.823444 403.994847 257.823444 
z
" clip-path="url(#pcb7d64ba88)" style="fill: #1f78b4; stroke: #1f78b4"/>
    <path d="M 361.274895 257.823444 
C 361.431791 257.823444 361.582283 257.761109 361.693225 257.650166 
C 361.804168 257.539224 361.866503 257.388733 361.866503 257.231836 
C 361.866503 257.07494 361.804168 256.924449 361.693225 256.813506 
C 361.582283 256.702564 361.431791 256.640228 361.274895 256.640228 
C 361.117999 256.640228 360.967508 256.702564 360.856565 256.813506 
C 360.745623 256.924449 360.683287 257.07494 360.683287 257.231836 
C 360.683287 257.388733 360.745623 257.539224 360.856565 257.650166 
C 360.967508 257.761109 361.117999 257.823444 361.274895 257.823444 
z
" clip-path="url(#pcb7d64ba88)" style="fill: #1f78b4; stroke: #1f78b4"/>
    <path d="M 318.554944 257.823444 
C 318.71184 257.823444 318.862331 257.761109 318.973274 257.650166 
C 319.084216 257.539224 319.146552 257.388733 319.146552 257.231836 
C 319.146552 257.07494 319.084216 256.924449 318.973274 256.813506 
C 318.862331 256.702564 318.71184 256.640228 318.554944 256.640228 
C 318.398048 256.640228 318.247556 256.702564 318.136614 256.813506 
C 318.025671 256.924449 317.963336 257.07494 317.963336 257.231836 
C 317.963336 257.388733 318.025671 257.539224 318.136614 257.650166 
C 318.247556 257.761109 318.398048 257.823444 318.554944 257.823444 
z
" clip-path="url(#pcb7d64ba88)" style="fill: #1f78b4; stroke: #1f78b4"/>
    <path d="M 275.831941 257.823444 
C 275.988838 257.823444 276.139329 257.761109 276.250271 257.650166 
C 276.361214 257.539224 276.423549 257.388733 276.423549 257.231836 
C 276.423549 257.07494 276.361214 256.924449 276.250271 256.813506 
C 276.139329 256.702564 275.988838 256.640228 275.831941 256.640228 
C 275.675045 256.640228 275.524554 256.702564 275.413611 256.813506 
C 275.302669 256.924449 275.240333 257.07494 275.240333 257.231836 
C 275.240333 257.388733 275.302669 257.539224 275.413611 257.650166 
C 275.524554 257.761109 275.675045 257.823444 275.831941 257.823444 
z
" clip-path="url(#pcb7d64ba88)" style="fill: #1f78b4; stroke: #1f78b4"/>
    <path d="M 233.11199 257.823444 
C 233.268886 257.823444 233.419377 257.761109 233.53032 257.650166 
C 233.641262 257.539224 233.703598 257.388733 233.703598 257.231836 
C 233.703598 257.07494 233.641262 256.924449 233.53032 256.813506 
C 233.419377 256.702564 233.268886 256.640228 233.11199 256.640228 
C 232.955094 256.640228 232.804602 256.702564 232.69366 256.813506 
C 232.582717 256.924449 232.520382 257.07494 232.520382 257.231836 
C 232.520382 257.388733 232.582717 257.539224 232.69366 257.650166 
C 232.804602 257.761109 232.955094 257.823444 233.11199 257.823444 
z
" clip-path="url(#pcb7d64ba88)" style="fill: #1f78b4; stroke: #1f78b4"/>
    <path d="M 403.994847 215.100442 
C 404.151743 215.100442 404.302234 215.038106 404.413177 214.927164 
C 404.524119 214.816222 404.586455 214.66573 404.586455 214.508834 
C 404.586455 214.351938 404.524119 214.201446 404.413177 214.090504 
C 404.302234 213.979561 404.151743 213.917226 403.994847 213.917226 
C 403.83795 213.917226 403.687459 213.979561 403.576517 214.090504 
C 403.465574 214.201446 403.403239 214.351938 403.403239 214.508834 
C 403.403239 214.66573 403.465574 214.816222 403.576517 214.927164 
C 403.687459 215.038106 403.83795 215.100442 403.994847 215.100442 
z
" clip-path="url(#pcb7d64ba88)" style="fill: #1f78b4; stroke: #1f78b4"/>
    <path d="M 361.274895 215.100442 
C 361.431791 215.100442 361.582283 215.038106 361.693225 214.927164 
C 361.804168 214.816222 361.866503 214.66573 361.866503 214.508834 
C 361.866503 214.351938 361.804168 214.201446 361.693225 214.090504 
C 361.582283 213.979561 361.431791 213.917226 361.274895 213.917226 
C 361.117999 213.917226 360.967508 213.979561 360.856565 214.090504 
C 360.745623 214.201446 360.683287 214.351938 360.683287 214.508834 
C 360.683287 214.66573 360.745623 214.816222 360.856565 214.927164 
C 360.967508 215.038106 361.117999 215.100442 361.274895 215.100442 
z
" clip-path="url(#pcb7d64ba88)" style="fill: #1f78b4; stroke: #1f78b4"/>
    <path d="M 318.554944 215.100442 
C 318.71184 215.100442 318.862331 215.038106 318.973274 214.927164 
C 319.084216 214.816222 319.146552 214.66573 319.146552 214.508834 
C 319.146552 214.351938 319.084216 214.201446 318.973274 214.090504 
C 318.862331 213.979561 318.71184 213.917226 318.554944 213.917226 
C 318.398048 213.917226 318.247556 213.979561 318.136614 214.090504 
C 318.025671 214.201446 317.963336 214.351938 317.963336 214.508834 
C 317.963336 214.66573 318.025671 214.816222 318.136614 214.927164 
C 318.247556 215.038106 318.398048 215.100442 318.554944 215.100442 
z
" clip-path="url(#pcb7d64ba88)" style="fill: #1f78b4; stroke: #1f78b4"/>
    <path d="M 275.831941 215.100442 
C 275.988838 215.100442 276.139329 215.038106 276.250271 214.927164 
C 276.361214 214.816222 276.423549 214.66573 276.423549 214.508834 
C 276.423549 214.351938 276.361214 214.201446 276.250271 214.090504 
C 276.139329 213.979561 275.988838 213.917226 275.831941 213.917226 
C 275.675045 213.917226 275.524554 213.979561 275.413611 214.090504 
C 275.302669 214.201446 275.240333 214.351938 275.240333 214.508834 
C 275.240333 214.66573 275.302669 214.816222 275.413611 214.927164 
C 275.524554 215.038106 275.675045 215.100442 275.831941 215.100442 
z
" clip-path="url(#pcb7d64ba88)" style="fill: #1f78b4; stroke: #1f78b4"/>
    <path d="M 233.11199 215.100442 
C 233.268886 215.100442 233.419377 215.038106 233.53032 214.927164 
C 233.641262 214.816222 233.703598 214.66573 233.703598 214.508834 
C 233.703598 214.351938 233.641262 214.201446 233.53032 214.090504 
C 233.419377 213.979561 233.268886 213.917226 233.11199 213.917226 
C 232.955094 213.917226 232.804602 213.979561 232.69366 214.090504 
C 232.582717 214.201446 232.520382 214.351938 232.520382 214.508834 
C 232.520382 214.66573 232.582717 214.816222 232.69366 214.927164 
C 232.804602 215.038106 232.955094 215.100442 233.11199 215.100442 
z
" clip-path="url(#pcb7d64ba88)" style="fill: #1f78b4; stroke: #1f78b4"/>
    <path d="M 403.994847 172.38049 
C 404.151743 172.38049 404.302234 172.318155 404.413177 172.207212 
C 404.524119 172.09627 404.586455 171.945779 404.586455 171.788882 
C 404.586455 171.631986 404.524119 171.481495 404.413177 171.370552 
C 404.302234 171.25961 404.151743 171.197275 403.994847 171.197275 
C 403.83795 171.197275 403.687459 171.25961 403.576517 171.370552 
C 403.465574 171.481495 403.403239 171.631986 403.403239 171.788882 
C 403.403239 171.945779 403.465574 172.09627 403.576517 172.207212 
C 403.687459 172.318155 403.83795 172.38049 403.994847 172.38049 
z
" clip-path="url(#pcb7d64ba88)" style="fill: #1f78b4; stroke: #1f78b4"/>
    <path d="M 361.274895 172.38049 
C 361.431791 172.38049 361.582283 172.318155 361.693225 172.207212 
C 361.804168 172.09627 361.866503 171.945779 361.866503 171.788882 
C 361.866503 171.631986 361.804168 171.481495 361.693225 171.370552 
C 361.582283 171.25961 361.431791 171.197275 361.274895 171.197275 
C 361.117999 171.197275 360.967508 171.25961 360.856565 171.370552 
C 360.745623 171.481495 360.683287 171.631986 360.683287 171.788882 
C 360.683287 171.945779 360.745623 172.09627 360.856565 172.207212 
C 360.967508 172.318155 361.117999 172.38049 361.274895 172.38049 
z
" clip-path="url(#pcb7d64ba88)" style="fill: #1f78b4; stroke: #1f78b4"/>
    <path d="M 318.554944 172.38049 
C 318.71184 172.38049 318.862331 172.318155 318.973274 172.207212 
C 319.084216 172.09627 319.146552 171.945779 319.146552 171.788882 
C 319.146552 171.631986 319.084216 171.481495 318.973274 171.370552 
C 318.862331 171.25961 318.71184 171.197275 318.554944 171.197275 
C 318.398048 171.197275 318.247556 171.25961 318.136614 171.370552 
C 318.025671 171.481495 317.963336 171.631986 317.963336 171.788882 
C 317.963336 171.945779 318.025671 172.09627 318.136614 172.207212 
C 318.247556 172.318155 318.398048 172.38049 318.554944 172.38049 
z
" clip-path="url(#pcb7d64ba88)" style="fill: #1f78b4; stroke: #1f78b4"/>
    <path d="M 275.831941 172.38049 
C 275.988838 172.38049 276.139329 172.318155 276.250271 172.207212 
C 276.361214 172.09627 276.423549 171.945779 276.423549 171.788882 
C 276.423549 171.631986 276.361214 171.481495 276.250271 171.370552 
C 276.139329 171.25961 275.988838 171.197275 275.831941 171.197275 
C 275.675045 171.197275 275.524554 171.25961 275.413611 171.370552 
C 275.302669 171.481495 275.240333 171.631986 275.240333 171.788882 
C 275.240333 171.945779 275.302669 172.09627 275.413611 172.207212 
C 275.524554 172.318155 275.675045 172.38049 275.831941 172.38049 
z
" clip-path="url(#pcb7d64ba88)" style="fill: #1f78b4; stroke: #1f78b4"/>
    <path d="M 489.43475 172.38049 
C 489.591646 172.38049 489.742137 172.318155 489.85308 172.207212 
C 489.964022 172.09627 490.026358 171.945779 490.026358 171.788882 
C 490.026358 171.631986 489.964022 171.481495 489.85308 171.370552 
C 489.742137 171.25961 489.591646 171.197275 489.43475 171.197275 
C 489.277853 171.197275 489.127362 171.25961 489.01642 171.370552 
C 488.905477 171.481495 488.843142 171.631986 488.843142 171.788882 
C 488.843142 171.945779 488.905477 172.09627 489.01642 172.207212 
C 489.127362 172.318155 489.277853 172.38049 489.43475 172.38049 
z
" clip-path="url(#pcb7d64ba88)" style="fill: #1f78b4; stroke: #1f78b4"/>
    <path d="M 233.11199 428.706301 
C 233.268886 428.706301 233.419377 428.643966 233.53032 428.533023 
C 233.641262 428.422081 233.703598 428.271589 233.703598 428.114693 
C 233.703598 427.957797 233.641262 427.807306 233.53032 427.696363 
C 233.419377 427.585421 233.268886 427.523085 233.11199 427.523085 
C 232.955094 427.523085 232.804602 427.585421 232.69366 427.696363 
C 232.582717 427.807306 232.520382 427.957797 232.520382 428.114693 
C 232.520382 428.271589 232.582717 428.422081 232.69366 428.533023 
C 232.804602 428.643966 232.955094 428.706301 233.11199 428.706301 
z
" clip-path="url(#pcb7d64ba88)" style="fill: #1f78b4; stroke: #1f78b4"/>
   </g>
  </g>
 </g>
 <defs>
  <clipPath id="pcb7d64ba88">
   <rect x="90" y="131.508548" width="558" height="464.182904"/>
  </clipPath>
 </defs>
</svg>
