<?xml version="1.0" encoding="utf-8" standalone="no"?>
<!DOCTYPE svg PUBLIC "-//W3C//DTD SVG 1.1//EN"
  "http://www.w3.org/Graphics/SVG/1.1/DTD/svg11.dtd">
<svg xmlns:xlink="http://www.w3.org/1999/xlink" width="720pt" height="720pt" viewBox="0 0 720 720" xmlns="http://www.w3.org/2000/svg" version="1.1">
 <metadata>
  <rdf:RDF xmlns:dc="http://purl.org/dc/elements/1.1/" xmlns:cc="http://creativecommons.org/ns#" xmlns:rdf="http://www.w3.org/1999/02/22-rdf-syntax-ns#">
   <cc:Work>
    <dc:type rdf:resource="http://purl.org/dc/dcmitype/StillImage"/>
    <dc:date>2024-08-23T13:07:17.360047</dc:date>
    <dc:format>image/svg+xml</dc:format>
    <dc:creator>
     <cc:Agent>
      <dc:title>Matplotlib v3.8.4, https://matplotlib.org/</dc:title>
     </cc:Agent>
    </dc:creator>
   </cc:Work>
  </rdf:RDF>
 </metadata>
 <defs>
  <style type="text/css">*{stroke-linejoin: round; stroke-linecap: butt}</style>
 </defs>
 <g id="figure_1">
  <g id="patch_1">
   <path d="M 0 720 
L 720 720 
L 720 0 
L 0 0 
L 0 720 
z
" style="fill: none"/>
  </g>
  <g id="axes_1">
   <g id="LineCollection_1">
    <path d="M 489.43475 491.431873 
L 489.43475 555.411118 
" clip-path="url(#pc67d7c79e8)" style="fill: none; stroke: #0000ff; stroke-width: 2.25"/>
    <path d="M 489.43475 491.431873 
L 489.43475 428.114693 
" clip-path="url(#pc67d7c79e8)" style="fill: none; stroke: #0000ff; stroke-width: 2.25"/>
    <path d="M 489.43475 428.114693 
L 489.43475 385.391691 
" clip-path="url(#pc67d7c79e8)" style="fill: none; stroke: #0000ff; stroke-width: 2.25"/>
    <path d="M 489.43475 428.114693 
L 446.714798 428.114693 
" clip-path="url(#pc67d7c79e8)" style="fill: none; stroke: #0000ff; stroke-width: 2.25"/>
    <path d="M 489.43475 428.114693 
L 468.074774 406.751666 
" clip-path="url(#pc67d7c79e8)" style="fill: none; stroke: #ffa500; stroke-width: 2.25"/>
    <path d="M 489.43475 299.951788 
L 540.807307 299.951788 
" clip-path="url(#pc67d7c79e8)" style="fill: none; stroke: #0000ff; stroke-width: 2.25"/>
    <path d="M 489.43475 299.951788 
L 446.714798 299.951788 
" clip-path="url(#pc67d7c79e8)" style="fill: none; stroke: #0000ff; stroke-width: 2.25"/>
    <path d="M 489.43475 299.951788 
L 489.43475 342.671739 
" clip-path="url(#pc67d7c79e8)" style="fill: none; stroke: #0000ff; stroke-width: 2.25"/>
    <path d="M 489.43475 299.951788 
L 489.43475 257.231836 
" clip-path="url(#pc67d7c79e8)" style="fill: none; stroke: #0000ff; stroke-width: 2.25"/>
    <path d="M 489.43475 299.951788 
L 468.074774 321.311764 
" clip-path="url(#pc67d7c79e8)" style="fill: none; stroke: #ffa500; stroke-width: 2.25"/>
    <path d="M 489.43475 299.951788 
L 468.074774 278.591812 
" clip-path="url(#pc67d7c79e8)" style="fill: none; stroke: #ffa500; stroke-width: 2.25"/>
    <path d="M 540.807307 299.951788 
L 599.578512 299.951788 
" clip-path="url(#pc67d7c79e8)" style="fill: none; stroke: #0000ff; stroke-width: 2.25"/>
    <path d="M 179.390171 171.788882 
L 138.421488 171.788882 
" clip-path="url(#pc67d7c79e8)" style="fill: none; stroke: #0000ff; stroke-width: 2.25"/>
    <path d="M 179.390171 171.788882 
L 233.11199 171.788882 
" clip-path="url(#pc67d7c79e8)" style="fill: none; stroke: #0000ff; stroke-width: 2.25"/>
    <path d="M 233.11199 171.788882 
L 233.11199 214.508834 
" clip-path="url(#pc67d7c79e8)" style="fill: none; stroke: #0000ff; stroke-width: 2.25"/>
    <path d="M 233.11199 171.788882 
L 275.831941 171.788882 
" clip-path="url(#pc67d7c79e8)" style="fill: none; stroke: #0000ff; stroke-width: 2.25"/>
    <path d="M 233.11199 171.788882 
L 254.471966 193.148858 
" clip-path="url(#pc67d7c79e8)" style="fill: none; stroke: #ffa500; stroke-width: 2.25"/>
    <path d="M 275.831941 487.587627 
L 275.831941 551.850613 
" clip-path="url(#pc67d7c79e8)" style="fill: none; stroke: #0000ff; stroke-width: 2.25"/>
    <path d="M 275.831941 487.587627 
L 275.831941 428.114693 
" clip-path="url(#pc67d7c79e8)" style="fill: none; stroke: #0000ff; stroke-width: 2.25"/>
    <path d="M 275.831941 428.114693 
L 275.831941 385.391691 
" clip-path="url(#pc67d7c79e8)" style="fill: none; stroke: #0000ff; stroke-width: 2.25"/>
    <path d="M 275.831941 428.114693 
L 318.554944 428.114693 
" clip-path="url(#pc67d7c79e8)" style="fill: none; stroke: #0000ff; stroke-width: 2.25"/>
    <path d="M 275.831941 428.114693 
L 233.11199 428.114693 
" clip-path="url(#pc67d7c79e8)" style="fill: none; stroke: #0000ff; stroke-width: 2.25"/>
    <path d="M 275.831941 428.114693 
L 297.191917 406.751666 
" clip-path="url(#pc67d7c79e8)" style="fill: none; stroke: #ffa500; stroke-width: 2.25"/>
    <path d="M 275.831941 428.114693 
L 254.471966 406.751666 
" clip-path="url(#pc67d7c79e8)" style="fill: none; stroke: #ffa500; stroke-width: 2.25"/>
    <path d="M 489.43475 385.391691 
L 446.714798 385.391691 
" clip-path="url(#pc67d7c79e8)" style="fill: none; stroke: #0000ff; stroke-width: 2.25"/>
    <path d="M 489.43475 385.391691 
L 489.43475 342.671739 
" clip-path="url(#pc67d7c79e8)" style="fill: none; stroke: #0000ff; stroke-width: 2.25"/>
    <path d="M 489.43475 385.391691 
L 468.074774 406.751666 
" clip-path="url(#pc67d7c79e8)" style="fill: none; stroke: #ffa500; stroke-width: 2.25"/>
    <path d="M 489.43475 385.391691 
L 468.074774 364.031715 
" clip-path="url(#pc67d7c79e8)" style="fill: none; stroke: #ffa500; stroke-width: 2.25"/>
    <path d="M 446.714798 385.391691 
L 446.714798 428.114693 
" clip-path="url(#pc67d7c79e8)" style="fill: none; stroke: #0000ff; stroke-width: 2.25"/>
    <path d="M 446.714798 385.391691 
L 403.994847 385.391691 
" clip-path="url(#pc67d7c79e8)" style="fill: none; stroke: #0000ff; stroke-width: 2.25"/>
    <path d="M 446.714798 385.391691 
L 446.714798 342.671739 
" clip-path="url(#pc67d7c79e8)" style="fill: none; stroke: #0000ff; stroke-width: 2.25"/>
    <path d="M 446.714798 385.391691 
L 468.074774 406.751666 
" clip-path="url(#pc67d7c79e8)" style="fill: none; stroke: #ffa500; stroke-width: 2.25"/>
    <path d="M 446.714798 385.391691 
L 468.074774 364.031715 
" clip-path="url(#pc67d7c79e8)" style="fill: none; stroke: #ffa500; stroke-width: 2.25"/>
    <path d="M 446.714798 385.391691 
L 425.354822 406.751666 
" clip-path="url(#pc67d7c79e8)" style="fill: none; stroke: #ffa500; stroke-width: 2.25"/>
    <path d="M 446.714798 385.391691 
L 425.354822 364.031715 
" clip-path="url(#pc67d7c79e8)" style="fill: none; stroke: #ffa500; stroke-width: 2.25"/>
    <path d="M 489.43475 342.671739 
L 446.714798 342.671739 
" clip-path="url(#pc67d7c79e8)" style="fill: none; stroke: #0000ff; stroke-width: 2.25"/>
    <path d="M 489.43475 342.671739 
L 468.074774 364.031715 
" clip-path="url(#pc67d7c79e8)" style="fill: none; stroke: #ffa500; stroke-width: 2.25"/>
    <path d="M 489.43475 342.671739 
L 468.074774 321.311764 
" clip-path="url(#pc67d7c79e8)" style="fill: none; stroke: #ffa500; stroke-width: 2.25"/>
    <path d="M 446.714798 342.671739 
L 446.714798 299.951788 
" clip-path="url(#pc67d7c79e8)" style="fill: none; stroke: #0000ff; stroke-width: 2.25"/>
    <path d="M 446.714798 342.671739 
L 403.994847 342.671739 
" clip-path="url(#pc67d7c79e8)" style="fill: none; stroke: #0000ff; stroke-width: 2.25"/>
    <path d="M 446.714798 342.671739 
L 468.074774 364.031715 
" clip-path="url(#pc67d7c79e8)" style="fill: none; stroke: #ffa500; stroke-width: 2.25"/>
    <path d="M 446.714798 342.671739 
L 468.074774 321.311764 
" clip-path="url(#pc67d7c79e8)" style="fill: none; stroke: #ffa500; stroke-width: 2.25"/>
    <path d="M 446.714798 342.671739 
L 425.354822 364.031715 
" clip-path="url(#pc67d7c79e8)" style="fill: none; stroke: #ffa500; stroke-width: 2.25"/>
    <path d="M 446.714798 342.671739 
L 425.354822 321.311764 
" clip-path="url(#pc67d7c79e8)" style="fill: none; stroke: #ffa500; stroke-width: 2.25"/>
    <path d="M 446.714798 299.951788 
L 446.714798 257.231836 
" clip-path="url(#pc67d7c79e8)" style="fill: none; stroke: #0000ff; stroke-width: 2.25"/>
    <path d="M 446.714798 299.951788 
L 403.994847 299.951788 
" clip-path="url(#pc67d7c79e8)" style="fill: none; stroke: #0000ff; stroke-width: 2.25"/>
    <path d="M 446.714798 299.951788 
L 468.074774 321.311764 
" clip-path="url(#pc67d7c79e8)" style="fill: none; stroke: #ffa500; stroke-width: 2.25"/>
    <path d="M 446.714798 299.951788 
L 468.074774 278.591812 
" clip-path="url(#pc67d7c79e8)" style="fill: none; stroke: #ffa500; stroke-width: 2.25"/>
    <path d="M 446.714798 299.951788 
L 425.354822 321.311764 
" clip-path="url(#pc67d7c79e8)" style="fill: none; stroke: #ffa500; stroke-width: 2.25"/>
    <path d="M 446.714798 299.951788 
L 425.354822 278.591812 
" clip-path="url(#pc67d7c79e8)" style="fill: none; stroke: #ffa500; stroke-width: 2.25"/>
    <path d="M 489.43475 257.231836 
L 446.714798 257.231836 
" clip-path="url(#pc67d7c79e8)" style="fill: none; stroke: #0000ff; stroke-width: 2.25"/>
    <path d="M 489.43475 257.231836 
L 489.43475 214.508834 
" clip-path="url(#pc67d7c79e8)" style="fill: none; stroke: #0000ff; stroke-width: 2.25"/>
    <path d="M 489.43475 257.231836 
L 468.074774 278.591812 
" clip-path="url(#pc67d7c79e8)" style="fill: none; stroke: #ffa500; stroke-width: 2.25"/>
    <path d="M 489.43475 257.231836 
L 468.074774 235.871861 
" clip-path="url(#pc67d7c79e8)" style="fill: none; stroke: #ffa500; stroke-width: 2.25"/>
    <path d="M 446.714798 257.231836 
L 446.714798 214.508834 
" clip-path="url(#pc67d7c79e8)" style="fill: none; stroke: #0000ff; stroke-width: 2.25"/>
    <path d="M 446.714798 257.231836 
L 403.994847 257.231836 
" clip-path="url(#pc67d7c79e8)" style="fill: none; stroke: #0000ff; stroke-width: 2.25"/>
    <path d="M 446.714798 257.231836 
L 468.074774 278.591812 
" clip-path="url(#pc67d7c79e8)" style="fill: none; stroke: #ffa500; stroke-width: 2.25"/>
    <path d="M 446.714798 257.231836 
L 468.074774 235.871861 
" clip-path="url(#pc67d7c79e8)" style="fill: none; stroke: #ffa500; stroke-width: 2.25"/>
    <path d="M 446.714798 257.231836 
L 425.354822 278.591812 
" clip-path="url(#pc67d7c79e8)" style="fill: none; stroke: #ffa500; stroke-width: 2.25"/>
    <path d="M 446.714798 257.231836 
L 425.354822 235.871861 
" clip-path="url(#pc67d7c79e8)" style="fill: none; stroke: #ffa500; stroke-width: 2.25"/>
    <path d="M 489.43475 214.508834 
L 446.714798 214.508834 
" clip-path="url(#pc67d7c79e8)" style="fill: none; stroke: #0000ff; stroke-width: 2.25"/>
    <path d="M 489.43475 214.508834 
L 489.43475 171.788882 
" clip-path="url(#pc67d7c79e8)" style="fill: none; stroke: #0000ff; stroke-width: 2.25"/>
    <path d="M 489.43475 214.508834 
L 468.074774 235.871861 
" clip-path="url(#pc67d7c79e8)" style="fill: none; stroke: #ffa500; stroke-width: 2.25"/>
    <path d="M 489.43475 214.508834 
L 468.074774 193.148858 
" clip-path="url(#pc67d7c79e8)" style="fill: none; stroke: #ffa500; stroke-width: 2.25"/>
    <path d="M 446.714798 214.508834 
L 446.714798 171.788882 
" clip-path="url(#pc67d7c79e8)" style="fill: none; stroke: #0000ff; stroke-width: 2.25"/>
    <path d="M 446.714798 214.508834 
L 403.994847 214.508834 
" clip-path="url(#pc67d7c79e8)" style="fill: none; stroke: #0000ff; stroke-width: 2.25"/>
    <path d="M 446.714798 214.508834 
L 468.074774 235.871861 
" clip-path="url(#pc67d7c79e8)" style="fill: none; stroke: #ffa500; stroke-width: 2.25"/>
    <path d="M 446.714798 214.508834 
L 468.074774 193.148858 
" clip-path="url(#pc67d7c79e8)" style="fill: none; stroke: #ffa500; stroke-width: 2.25"/>
    <path d="M 446.714798 214.508834 
L 425.354822 235.871861 
" clip-path="url(#pc67d7c79e8)" style="fill: none; stroke: #ffa500; stroke-width: 2.25"/>
    <path d="M 446.714798 214.508834 
L 425.354822 193.148858 
" clip-path="url(#pc67d7c79e8)" style="fill: none; stroke: #ffa500; stroke-width: 2.25"/>
    <path d="M 446.714798 428.114693 
L 403.994847 428.114693 
" clip-path="url(#pc67d7c79e8)" style="fill: none; stroke: #0000ff; stroke-width: 2.25"/>
    <path d="M 446.714798 428.114693 
L 468.074774 406.751666 
" clip-path="url(#pc67d7c79e8)" style="fill: none; stroke: #ffa500; stroke-width: 2.25"/>
    <path d="M 446.714798 428.114693 
L 425.354822 406.751666 
" clip-path="url(#pc67d7c79e8)" style="fill: none; stroke: #ffa500; stroke-width: 2.25"/>
    <path d="M 403.994847 385.391691 
L 403.994847 428.114693 
" clip-path="url(#pc67d7c79e8)" style="fill: none; stroke: #0000ff; stroke-width: 2.25"/>
    <path d="M 403.994847 385.391691 
L 361.274895 385.391691 
" clip-path="url(#pc67d7c79e8)" style="fill: none; stroke: #0000ff; stroke-width: 2.25"/>
    <path d="M 403.994847 385.391691 
L 403.994847 342.671739 
" clip-path="url(#pc67d7c79e8)" style="fill: none; stroke: #0000ff; stroke-width: 2.25"/>
    <path d="M 403.994847 385.391691 
L 425.354822 406.751666 
" clip-path="url(#pc67d7c79e8)" style="fill: none; stroke: #ffa500; stroke-width: 2.25"/>
    <path d="M 403.994847 385.391691 
L 382.634871 406.751666 
" clip-path="url(#pc67d7c79e8)" style="fill: none; stroke: #ffa500; stroke-width: 2.25"/>
    <path d="M 403.994847 385.391691 
L 425.354822 364.031715 
" clip-path="url(#pc67d7c79e8)" style="fill: none; stroke: #ffa500; stroke-width: 2.25"/>
    <path d="M 403.994847 385.391691 
L 382.634871 364.031715 
" clip-path="url(#pc67d7c79e8)" style="fill: none; stroke: #ffa500; stroke-width: 2.25"/>
    <path d="M 403.994847 428.114693 
L 361.274895 428.114693 
" clip-path="url(#pc67d7c79e8)" style="fill: none; stroke: #0000ff; stroke-width: 2.25"/>
    <path d="M 403.994847 428.114693 
L 425.354822 406.751666 
" clip-path="url(#pc67d7c79e8)" style="fill: none; stroke: #ffa500; stroke-width: 2.25"/>
    <path d="M 403.994847 428.114693 
L 382.634871 406.751666 
" clip-path="url(#pc67d7c79e8)" style="fill: none; stroke: #ffa500; stroke-width: 2.25"/>
    <path d="M 361.274895 385.391691 
L 361.274895 428.114693 
" clip-path="url(#pc67d7c79e8)" style="fill: none; stroke: #0000ff; stroke-width: 2.25"/>
    <path d="M 361.274895 385.391691 
L 318.554944 385.391691 
" clip-path="url(#pc67d7c79e8)" style="fill: none; stroke: #0000ff; stroke-width: 2.25"/>
    <path d="M 361.274895 385.391691 
L 361.274895 342.671739 
" clip-path="url(#pc67d7c79e8)" style="fill: none; stroke: #0000ff; stroke-width: 2.25"/>
    <path d="M 361.274895 385.391691 
L 382.634871 406.751666 
" clip-path="url(#pc67d7c79e8)" style="fill: none; stroke: #ffa500; stroke-width: 2.25"/>
    <path d="M 361.274895 385.391691 
L 339.91492 406.751666 
" clip-path="url(#pc67d7c79e8)" style="fill: none; stroke: #ffa500; stroke-width: 2.25"/>
    <path d="M 361.274895 385.391691 
L 382.634871 364.031715 
" clip-path="url(#pc67d7c79e8)" style="fill: none; stroke: #008000"/>
    <path d="M 361.274895 385.391691 
L 339.91492 364.031715 
" clip-path="url(#pc67d7c79e8)" style="fill: none; stroke: #008000"/>
    <path d="M 361.274895 428.114693 
L 318.554944 428.114693 
" clip-path="url(#pc67d7c79e8)" style="fill: none; stroke: #0000ff; stroke-width: 2.25"/>
    <path d="M 361.274895 428.114693 
L 382.634871 406.751666 
" clip-path="url(#pc67d7c79e8)" style="fill: none; stroke: #008000"/>
    <path d="M 361.274895 428.114693 
L 339.91492 406.751666 
" clip-path="url(#pc67d7c79e8)" style="fill: none; stroke: #008000"/>
    <path d="M 318.554944 385.391691 
L 318.554944 428.114693 
" clip-path="url(#pc67d7c79e8)" style="fill: none; stroke: #0000ff; stroke-width: 2.25"/>
    <path d="M 318.554944 385.391691 
L 275.831941 385.391691 
" clip-path="url(#pc67d7c79e8)" style="fill: none; stroke: #0000ff; stroke-width: 2.25"/>
    <path d="M 318.554944 385.391691 
L 318.554944 342.671739 
" clip-path="url(#pc67d7c79e8)" style="fill: none; stroke: #0000ff; stroke-width: 2.25"/>
    <path d="M 318.554944 385.391691 
L 339.91492 406.751666 
" clip-path="url(#pc67d7c79e8)" style="fill: none; stroke: #008000"/>
    <path d="M 318.554944 385.391691 
L 297.191917 406.751666 
" clip-path="url(#pc67d7c79e8)" style="fill: none; stroke: #008000"/>
    <path d="M 318.554944 385.391691 
L 339.91492 364.031715 
" clip-path="url(#pc67d7c79e8)" style="fill: none; stroke: #008000"/>
    <path d="M 318.554944 385.391691 
L 297.191917 364.031715 
" clip-path="url(#pc67d7c79e8)" style="fill: none; stroke: #008000"/>
    <path d="M 318.554944 428.114693 
L 339.91492 406.751666 
" clip-path="url(#pc67d7c79e8)" style="fill: none; stroke: #008000"/>
    <path d="M 318.554944 428.114693 
L 297.191917 406.751666 
" clip-path="url(#pc67d7c79e8)" style="fill: none; stroke: #008000"/>
    <path d="M 275.831941 385.391691 
L 233.11199 385.391691 
" clip-path="url(#pc67d7c79e8)" style="fill: none; stroke: #0000ff; stroke-width: 2.25"/>
    <path d="M 275.831941 385.391691 
L 275.831941 342.671739 
" clip-path="url(#pc67d7c79e8)" style="fill: none; stroke: #0000ff; stroke-width: 2.25"/>
    <path d="M 275.831941 385.391691 
L 297.191917 406.751666 
" clip-path="url(#pc67d7c79e8)" style="fill: none; stroke: #008000"/>
    <path d="M 275.831941 385.391691 
L 254.471966 406.751666 
" clip-path="url(#pc67d7c79e8)" style="fill: none; stroke: #008000"/>
    <path d="M 275.831941 385.391691 
L 297.191917 364.031715 
" clip-path="url(#pc67d7c79e8)" style="fill: none; stroke: #008000"/>
    <path d="M 275.831941 385.391691 
L 254.471966 364.031715 
" clip-path="url(#pc67d7c79e8)" style="fill: none; stroke: #008000"/>
    <path d="M 233.11199 385.391691 
L 233.11199 428.114693 
" clip-path="url(#pc67d7c79e8)" style="fill: none; stroke: #0000ff; stroke-width: 2.25"/>
    <path d="M 233.11199 385.391691 
L 233.11199 342.671739 
" clip-path="url(#pc67d7c79e8)" style="fill: none; stroke: #0000ff; stroke-width: 2.25"/>
    <path d="M 233.11199 385.391691 
L 254.471966 406.751666 
" clip-path="url(#pc67d7c79e8)" style="fill: none; stroke: #008000"/>
    <path d="M 233.11199 385.391691 
L 254.471966 364.031715 
" clip-path="url(#pc67d7c79e8)" style="fill: none; stroke: #008000"/>
    <path d="M 446.714798 171.788882 
L 489.43475 171.788882 
" clip-path="url(#pc67d7c79e8)" style="fill: none; stroke: #0000ff; stroke-width: 2.25"/>
    <path d="M 446.714798 171.788882 
L 403.994847 171.788882 
" clip-path="url(#pc67d7c79e8)" style="fill: none; stroke: #0000ff; stroke-width: 2.25"/>
    <path d="M 446.714798 171.788882 
L 468.074774 193.148858 
" clip-path="url(#pc67d7c79e8)" style="fill: none; stroke: #008000"/>
    <path d="M 446.714798 171.788882 
L 425.354822 193.148858 
" clip-path="url(#pc67d7c79e8)" style="fill: none; stroke: #008000"/>
    <path d="M 403.994847 342.671739 
L 361.274895 342.671739 
" clip-path="url(#pc67d7c79e8)" style="fill: none; stroke: #0000ff; stroke-width: 2.25"/>
    <path d="M 403.994847 342.671739 
L 403.994847 299.951788 
" clip-path="url(#pc67d7c79e8)" style="fill: none; stroke: #0000ff; stroke-width: 2.25"/>
    <path d="M 403.994847 342.671739 
L 425.354822 364.031715 
" clip-path="url(#pc67d7c79e8)" style="fill: none; stroke: #008000"/>
    <path d="M 403.994847 342.671739 
L 382.634871 364.031715 
" clip-path="url(#pc67d7c79e8)" style="fill: none; stroke: #008000"/>
    <path d="M 403.994847 342.671739 
L 425.354822 321.311764 
" clip-path="url(#pc67d7c79e8)" style="fill: none; stroke: #008000"/>
    <path d="M 403.994847 342.671739 
L 382.634871 321.311764 
" clip-path="url(#pc67d7c79e8)" style="fill: none; stroke: #008000"/>
    <path d="M 361.274895 342.671739 
L 318.554944 342.671739 
" clip-path="url(#pc67d7c79e8)" style="fill: none; stroke: #0000ff; stroke-width: 2.25"/>
    <path d="M 361.274895 342.671739 
L 361.274895 299.951788 
" clip-path="url(#pc67d7c79e8)" style="fill: none; stroke: #0000ff; stroke-width: 2.25"/>
    <path d="M 361.274895 342.671739 
L 382.634871 364.031715 
" clip-path="url(#pc67d7c79e8)" style="fill: none; stroke: #008000"/>
    <path d="M 361.274895 342.671739 
L 339.91492 364.031715 
" clip-path="url(#pc67d7c79e8)" style="fill: none; stroke: #008000"/>
    <path d="M 361.274895 342.671739 
L 382.634871 321.311764 
" clip-path="url(#pc67d7c79e8)" style="fill: none; stroke: #008000"/>
    <path d="M 361.274895 342.671739 
L 339.91492 321.311764 
" clip-path="url(#pc67d7c79e8)" style="fill: none; stroke: #008000"/>
    <path d="M 318.554944 342.671739 
L 275.831941 342.671739 
" clip-path="url(#pc67d7c79e8)" style="fill: none; stroke: #0000ff; stroke-width: 2.25"/>
    <path d="M 318.554944 342.671739 
L 318.554944 299.951788 
" clip-path="url(#pc67d7c79e8)" style="fill: none; stroke: #0000ff; stroke-width: 2.25"/>
    <path d="M 318.554944 342.671739 
L 339.91492 364.031715 
" clip-path="url(#pc67d7c79e8)" style="fill: none; stroke: #008000"/>
    <path d="M 318.554944 342.671739 
L 297.191917 364.031715 
" clip-path="url(#pc67d7c79e8)" style="fill: none; stroke: #008000"/>
    <path d="M 318.554944 342.671739 
L 339.91492 321.311764 
" clip-path="url(#pc67d7c79e8)" style="fill: none; stroke: #008000"/>
    <path d="M 318.554944 342.671739 
L 297.191917 321.311764 
" clip-path="url(#pc67d7c79e8)" style="fill: none; stroke: #008000"/>
    <path d="M 275.831941 342.671739 
L 233.11199 342.671739 
" clip-path="url(#pc67d7c79e8)" style="fill: none; stroke: #0000ff; stroke-width: 2.25"/>
    <path d="M 275.831941 342.671739 
L 275.831941 299.951788 
" clip-path="url(#pc67d7c79e8)" style="fill: none; stroke: #0000ff; stroke-width: 2.25"/>
    <path d="M 275.831941 342.671739 
L 297.191917 364.031715 
" clip-path="url(#pc67d7c79e8)" style="fill: none; stroke: #008000"/>
    <path d="M 275.831941 342.671739 
L 254.471966 364.031715 
" clip-path="url(#pc67d7c79e8)" style="fill: none; stroke: #008000"/>
    <path d="M 275.831941 342.671739 
L 297.191917 321.311764 
" clip-path="url(#pc67d7c79e8)" style="fill: none; stroke: #008000"/>
    <path d="M 275.831941 342.671739 
L 254.471966 321.311764 
" clip-path="url(#pc67d7c79e8)" style="fill: none; stroke: #008000"/>
    <path d="M 233.11199 342.671739 
L 233.11199 299.951788 
" clip-path="url(#pc67d7c79e8)" style="fill: none; stroke: #0000ff; stroke-width: 2.25"/>
    <path d="M 233.11199 342.671739 
L 254.471966 364.031715 
" clip-path="url(#pc67d7c79e8)" style="fill: none; stroke: #008000"/>
    <path d="M 233.11199 342.671739 
L 254.471966 321.311764 
" clip-path="url(#pc67d7c79e8)" style="fill: none; stroke: #008000"/>
    <path d="M 403.994847 299.951788 
L 361.274895 299.951788 
" clip-path="url(#pc67d7c79e8)" style="fill: none; stroke: #0000ff; stroke-width: 2.25"/>
    <path d="M 403.994847 299.951788 
L 403.994847 257.231836 
" clip-path="url(#pc67d7c79e8)" style="fill: none; stroke: #0000ff; stroke-width: 2.25"/>
    <path d="M 403.994847 299.951788 
L 425.354822 321.311764 
" clip-path="url(#pc67d7c79e8)" style="fill: none; stroke: #008000"/>
    <path d="M 403.994847 299.951788 
L 382.634871 321.311764 
" clip-path="url(#pc67d7c79e8)" style="fill: none; stroke: #008000"/>
    <path d="M 403.994847 299.951788 
L 425.354822 278.591812 
" clip-path="url(#pc67d7c79e8)" style="fill: none; stroke: #008000"/>
    <path d="M 403.994847 299.951788 
L 382.634871 278.591812 
" clip-path="url(#pc67d7c79e8)" style="fill: none; stroke: #008000"/>
    <path d="M 361.274895 299.951788 
L 318.554944 299.951788 
" clip-path="url(#pc67d7c79e8)" style="fill: none; stroke: #0000ff; stroke-width: 2.25"/>
    <path d="M 361.274895 299.951788 
L 361.274895 257.231836 
" clip-path="url(#pc67d7c79e8)" style="fill: none; stroke: #0000ff; stroke-width: 2.25"/>
    <path d="M 361.274895 299.951788 
L 382.634871 321.311764 
" clip-path="url(#pc67d7c79e8)" style="fill: none; stroke: #008000"/>
    <path d="M 361.274895 299.951788 
L 339.91492 321.311764 
" clip-path="url(#pc67d7c79e8)" style="fill: none; stroke: #008000"/>
    <path d="M 361.274895 299.951788 
L 382.634871 278.591812 
" clip-path="url(#pc67d7c79e8)" style="fill: none; stroke: #008000"/>
    <path d="M 361.274895 299.951788 
L 339.91492 278.591812 
" clip-path="url(#pc67d7c79e8)" style="fill: none; stroke: #008000"/>
    <path d="M 318.554944 299.951788 
L 275.831941 299.951788 
" clip-path="url(#pc67d7c79e8)" style="fill: none; stroke: #0000ff; stroke-width: 2.25"/>
    <path d="M 318.554944 299.951788 
L 318.554944 257.231836 
" clip-path="url(#pc67d7c79e8)" style="fill: none; stroke: #0000ff; stroke-width: 2.25"/>
    <path d="M 318.554944 299.951788 
L 339.91492 321.311764 
" clip-path="url(#pc67d7c79e8)" style="fill: none; stroke: #008000"/>
    <path d="M 318.554944 299.951788 
L 297.191917 321.311764 
" clip-path="url(#pc67d7c79e8)" style="fill: none; stroke: #008000"/>
    <path d="M 318.554944 299.951788 
L 339.91492 278.591812 
" clip-path="url(#pc67d7c79e8)" style="fill: none; stroke: #008000"/>
    <path d="M 318.554944 299.951788 
L 297.191917 278.591812 
" clip-path="url(#pc67d7c79e8)" style="fill: none; stroke: #008000"/>
    <path d="M 275.831941 299.951788 
L 233.11199 299.951788 
" clip-path="url(#pc67d7c79e8)" style="fill: none; stroke: #0000ff; stroke-width: 2.25"/>
    <path d="M 275.831941 299.951788 
L 275.831941 257.231836 
" clip-path="url(#pc67d7c79e8)" style="fill: none; stroke: #0000ff; stroke-width: 2.25"/>
    <path d="M 275.831941 299.951788 
L 297.191917 321.311764 
" clip-path="url(#pc67d7c79e8)" style="fill: none; stroke: #008000"/>
    <path d="M 275.831941 299.951788 
L 254.471966 321.311764 
" clip-path="url(#pc67d7c79e8)" style="fill: none; stroke: #008000"/>
    <path d="M 275.831941 299.951788 
L 297.191917 278.591812 
" clip-path="url(#pc67d7c79e8)" style="fill: none; stroke: #008000"/>
    <path d="M 275.831941 299.951788 
L 254.471966 278.591812 
" clip-path="url(#pc67d7c79e8)" style="fill: none; stroke: #008000"/>
    <path d="M 233.11199 299.951788 
L 233.11199 257.231836 
" clip-path="url(#pc67d7c79e8)" style="fill: none; stroke: #0000ff; stroke-width: 2.25"/>
    <path d="M 233.11199 299.951788 
L 254.471966 321.311764 
" clip-path="url(#pc67d7c79e8)" style="fill: none; stroke: #008000"/>
    <path d="M 233.11199 299.951788 
L 254.471966 278.591812 
" clip-path="url(#pc67d7c79e8)" style="fill: none; stroke: #008000"/>
    <path d="M 403.994847 257.231836 
L 361.274895 257.231836 
" clip-path="url(#pc67d7c79e8)" style="fill: none; stroke: #0000ff; stroke-width: 2.25"/>
    <path d="M 403.994847 257.231836 
L 403.994847 214.508834 
" clip-path="url(#pc67d7c79e8)" style="fill: none; stroke: #0000ff; stroke-width: 2.25"/>
    <path d="M 403.994847 257.231836 
L 425.354822 278.591812 
" clip-path="url(#pc67d7c79e8)" style="fill: none; stroke: #008000"/>
    <path d="M 403.994847 257.231836 
L 382.634871 278.591812 
" clip-path="url(#pc67d7c79e8)" style="fill: none; stroke: #008000"/>
    <path d="M 403.994847 257.231836 
L 425.354822 235.871861 
" clip-path="url(#pc67d7c79e8)" style="fill: none; stroke: #008000"/>
    <path d="M 403.994847 257.231836 
L 382.634871 235.871861 
" clip-path="url(#pc67d7c79e8)" style="fill: none; stroke: #008000"/>
    <path d="M 361.274895 257.231836 
L 318.554944 257.231836 
" clip-path="url(#pc67d7c79e8)" style="fill: none; stroke: #0000ff; stroke-width: 2.25"/>
    <path d="M 361.274895 257.231836 
L 361.274895 214.508834 
" clip-path="url(#pc67d7c79e8)" style="fill: none; stroke: #0000ff; stroke-width: 2.25"/>
    <path d="M 361.274895 257.231836 
L 382.634871 278.591812 
" clip-path="url(#pc67d7c79e8)" style="fill: none; stroke: #008000"/>
    <path d="M 361.274895 257.231836 
L 339.91492 278.591812 
" clip-path="url(#pc67d7c79e8)" style="fill: none; stroke: #008000"/>
    <path d="M 361.274895 257.231836 
L 382.634871 235.871861 
" clip-path="url(#pc67d7c79e8)" style="fill: none; stroke: #008000"/>
    <path d="M 361.274895 257.231836 
L 339.91492 235.871861 
" clip-path="url(#pc67d7c79e8)" style="fill: none; stroke: #008000"/>
    <path d="M 318.554944 257.231836 
L 275.831941 257.231836 
" clip-path="url(#pc67d7c79e8)" style="fill: none; stroke: #0000ff; stroke-width: 2.25"/>
    <path d="M 318.554944 257.231836 
L 318.554944 214.508834 
" clip-path="url(#pc67d7c79e8)" style="fill: none; stroke: #0000ff; stroke-width: 2.25"/>
    <path d="M 318.554944 257.231836 
L 339.91492 278.591812 
" clip-path="url(#pc67d7c79e8)" style="fill: none; stroke: #008000"/>
    <path d="M 318.554944 257.231836 
L 297.191917 278.591812 
" clip-path="url(#pc67d7c79e8)" style="fill: none; stroke: #008000"/>
    <path d="M 318.554944 257.231836 
L 339.91492 235.871861 
" clip-path="url(#pc67d7c79e8)" style="fill: none; stroke: #008000"/>
    <path d="M 318.554944 257.231836 
L 297.191917 235.871861 
" clip-path="url(#pc67d7c79e8)" style="fill: none; stroke: #008000"/>
    <path d="M 275.831941 257.231836 
L 233.11199 257.231836 
" clip-path="url(#pc67d7c79e8)" style="fill: none; stroke: #0000ff; stroke-width: 2.25"/>
    <path d="M 275.831941 257.231836 
L 275.831941 214.508834 
" clip-path="url(#pc67d7c79e8)" style="fill: none; stroke: #0000ff; stroke-width: 2.25"/>
    <path d="M 275.831941 257.231836 
L 297.191917 278.591812 
" clip-path="url(#pc67d7c79e8)" style="fill: none; stroke: #008000"/>
    <path d="M 275.831941 257.231836 
L 254.471966 278.591812 
" clip-path="url(#pc67d7c79e8)" style="fill: none; stroke: #008000"/>
    <path d="M 275.831941 257.231836 
L 297.191917 235.871861 
" clip-path="url(#pc67d7c79e8)" style="fill: none; stroke: #008000"/>
    <path d="M 275.831941 257.231836 
L 254.471966 235.871861 
" clip-path="url(#pc67d7c79e8)" style="fill: none; stroke: #008000"/>
    <path d="M 233.11199 257.231836 
L 233.11199 214.508834 
" clip-path="url(#pc67d7c79e8)" style="fill: none; stroke: #0000ff; stroke-width: 2.25"/>
    <path d="M 233.11199 257.231836 
L 254.471966 278.591812 
" clip-path="url(#pc67d7c79e8)" style="fill: none; stroke: #008000"/>
    <path d="M 233.11199 257.231836 
L 254.471966 235.871861 
" clip-path="url(#pc67d7c79e8)" style="fill: none; stroke: #008000"/>
    <path d="M 403.994847 214.508834 
L 361.274895 214.508834 
" clip-path="url(#pc67d7c79e8)" style="fill: none; stroke: #0000ff; stroke-width: 2.25"/>
    <path d="M 403.994847 214.508834 
L 403.994847 171.788882 
" clip-path="url(#pc67d7c79e8)" style="fill: none; stroke: #0000ff; stroke-width: 2.25"/>
    <path d="M 403.994847 214.508834 
L 425.354822 235.871861 
" clip-path="url(#pc67d7c79e8)" style="fill: none; stroke: #008000"/>
    <path d="M 403.994847 214.508834 
L 382.634871 235.871861 
" clip-path="url(#pc67d7c79e8)" style="fill: none; stroke: #008000"/>
    <path d="M 403.994847 214.508834 
L 425.354822 193.148858 
" clip-path="url(#pc67d7c79e8)" style="fill: none; stroke: #008000"/>
    <path d="M 403.994847 214.508834 
L 382.634871 193.148858 
" clip-path="url(#pc67d7c79e8)" style="fill: none; stroke: #008000"/>
    <path d="M 361.274895 214.508834 
L 318.554944 214.508834 
" clip-path="url(#pc67d7c79e8)" style="fill: none; stroke: #0000ff; stroke-width: 2.25"/>
    <path d="M 361.274895 214.508834 
L 361.274895 171.788882 
" clip-path="url(#pc67d7c79e8)" style="fill: none; stroke: #0000ff; stroke-width: 2.25"/>
    <path d="M 361.274895 214.508834 
L 382.634871 235.871861 
" clip-path="url(#pc67d7c79e8)" style="fill: none; stroke: #008000"/>
    <path d="M 361.274895 214.508834 
L 339.91492 235.871861 
" clip-path="url(#pc67d7c79e8)" style="fill: none; stroke: #008000"/>
    <path d="M 361.274895 214.508834 
L 382.634871 193.148858 
" clip-path="url(#pc67d7c79e8)" style="fill: none; stroke: #008000"/>
    <path d="M 361.274895 214.508834 
L 339.91492 193.148858 
" clip-path="url(#pc67d7c79e8)" style="fill: none; stroke: #008000"/>
    <path d="M 318.554944 214.508834 
L 275.831941 214.508834 
" clip-path="url(#pc67d7c79e8)" style="fill: none; stroke: #0000ff; stroke-width: 2.25"/>
    <path d="M 318.554944 214.508834 
L 318.554944 171.788882 
" clip-path="url(#pc67d7c79e8)" style="fill: none; stroke: #0000ff; stroke-width: 2.25"/>
    <path d="M 318.554944 214.508834 
L 339.91492 235.871861 
" clip-path="url(#pc67d7c79e8)" style="fill: none; stroke: #008000"/>
    <path d="M 318.554944 214.508834 
L 297.191917 235.871861 
" clip-path="url(#pc67d7c79e8)" style="fill: none; stroke: #008000"/>
    <path d="M 318.554944 214.508834 
L 339.91492 193.148858 
" clip-path="url(#pc67d7c79e8)" style="fill: none; stroke: #008000"/>
    <path d="M 318.554944 214.508834 
L 297.191917 193.148858 
" clip-path="url(#pc67d7c79e8)" style="fill: none; stroke: #008000"/>
    <path d="M 275.831941 214.508834 
L 233.11199 214.508834 
" clip-path="url(#pc67d7c79e8)" style="fill: none; stroke: #0000ff; stroke-width: 2.25"/>
    <path d="M 275.831941 214.508834 
L 275.831941 171.788882 
" clip-path="url(#pc67d7c79e8)" style="fill: none; stroke: #0000ff; stroke-width: 2.25"/>
    <path d="M 275.831941 214.508834 
L 297.191917 235.871861 
" clip-path="url(#pc67d7c79e8)" style="fill: none; stroke: #008000"/>
    <path d="M 275.831941 214.508834 
L 254.471966 235.871861 
" clip-path="url(#pc67d7c79e8)" style="fill: none; stroke: #008000"/>
    <path d="M 275.831941 214.508834 
L 297.191917 193.148858 
" clip-path="url(#pc67d7c79e8)" style="fill: none; stroke: #008000"/>
    <path d="M 275.831941 214.508834 
L 254.471966 193.148858 
" clip-path="url(#pc67d7c79e8)" style="fill: none; stroke: #008000"/>
    <path d="M 233.11199 214.508834 
L 254.471966 235.871861 
" clip-path="url(#pc67d7c79e8)" style="fill: none; stroke: #008000"/>
    <path d="M 233.11199 214.508834 
L 254.471966 193.148858 
" clip-path="url(#pc67d7c79e8)" style="fill: none; stroke: #008000"/>
    <path d="M 403.994847 171.788882 
L 361.274895 171.788882 
" clip-path="url(#pc67d7c79e8)" style="fill: none; stroke: #0000ff; stroke-width: 2.25"/>
    <path d="M 403.994847 171.788882 
L 425.354822 193.148858 
" clip-path="url(#pc67d7c79e8)" style="fill: none; stroke: #008000"/>
    <path d="M 403.994847 171.788882 
L 382.634871 193.148858 
" clip-path="url(#pc67d7c79e8)" style="fill: none; stroke: #008000"/>
    <path d="M 361.274895 171.788882 
L 318.554944 171.788882 
" clip-path="url(#pc67d7c79e8)" style="fill: none; stroke: #0000ff; stroke-width: 2.25"/>
    <path d="M 361.274895 171.788882 
L 382.634871 193.148858 
" clip-path="url(#pc67d7c79e8)" style="fill: none; stroke: #008000"/>
    <path d="M 361.274895 171.788882 
L 339.91492 193.148858 
" clip-path="url(#pc67d7c79e8)" style="fill: none; stroke: #008000"/>
    <path d="M 318.554944 171.788882 
L 275.831941 171.788882 
" clip-path="url(#pc67d7c79e8)" style="fill: none; stroke: #0000ff; stroke-width: 2.25"/>
    <path d="M 318.554944 171.788882 
L 339.91492 193.148858 
" clip-path="url(#pc67d7c79e8)" style="fill: none; stroke: #008000"/>
    <path d="M 318.554944 171.788882 
L 297.191917 193.148858 
" clip-path="url(#pc67d7c79e8)" style="fill: none; stroke: #008000"/>
    <path d="M 275.831941 171.788882 
L 297.191917 193.148858 
" clip-path="url(#pc67d7c79e8)" style="fill: none; stroke: #008000"/>
    <path d="M 275.831941 171.788882 
L 254.471966 193.148858 
" clip-path="url(#pc67d7c79e8)" style="fill: none; stroke: #008000"/>
    <path d="M 489.43475 171.788882 
L 468.074774 193.148858 
" clip-path="url(#pc67d7c79e8)" style="fill: none; stroke: #008000"/>
    <path d="M 233.11199 428.114693 
L 254.471966 406.751666 
" clip-path="url(#pc67d7c79e8)" style="fill: none; stroke: #008000"/>
   </g>
   <g id="PathCollection_1">
    <path d="M 489.43475 492.023481 
C 489.591646 492.023481 489.742137 491.961145 489.85308 491.850203 
C 489.964022 491.739261 490.026358 491.588769 490.026358 491.431873 
C 490.026358 491.274977 489.964022 491.124485 489.85308 491.013543 
C 489.742137 490.902601 489.591646 490.840265 489.43475 490.840265 
C 489.277853 490.840265 489.127362 490.902601 489.01642 491.013543 
C 488.905477 491.124485 488.843142 491.274977 488.843142 491.431873 
C 488.843142 491.588769 488.905477 491.739261 489.01642 491.850203 
C 489.127362 491.961145 489.277853 492.023481 489.43475 492.023481 
z
" clip-path="url(#pc67d7c79e8)" style="fill: #1f78b4; stroke: #1f78b4"/>
    <path d="M 489.43475 556.002725 
C 489.591646 556.002725 489.742137 555.94039 489.85308 555.829448 
C 489.964022 555.718505 490.026358 555.568014 490.026358 555.411118 
C 490.026358 555.254221 489.964022 555.10373 489.85308 554.992788 
C 489.742137 554.881845 489.591646 554.81951 489.43475 554.81951 
C 489.277853 554.81951 489.127362 554.881845 489.01642 554.992788 
C 488.905477 555.10373 488.843142 555.254221 488.843142 555.411118 
C 488.843142 555.568014 488.905477 555.718505 489.01642 555.829448 
C 489.127362 555.94039 489.277853 556.002725 489.43475 556.002725 
z
" clip-path="url(#pc67d7c79e8)" style="fill: #1f78b4; stroke: #1f78b4"/>
    <path d="M 489.43475 428.706301 
C 489.591646 428.706301 489.742137 428.643966 489.85308 428.533023 
C 489.964022 428.422081 490.026358 428.271589 490.026358 428.114693 
C 490.026358 427.957797 489.964022 427.807306 489.85308 427.696363 
C 489.742137 427.585421 489.591646 427.523085 489.43475 427.523085 
C 489.277853 427.523085 489.127362 427.585421 489.01642 427.696363 
C 488.905477 427.807306 488.843142 427.957797 488.843142 428.114693 
C 488.843142 428.271589 488.905477 428.422081 489.01642 428.533023 
C 489.127362 428.643966 489.277853 428.706301 489.43475 428.706301 
z
" clip-path="url(#pc67d7c79e8)" style="fill: #1f78b4; stroke: #1f78b4"/>
    <path d="M 489.43475 300.543396 
C 489.591646 300.543396 489.742137 300.48106 489.85308 300.370118 
C 489.964022 300.259175 490.026358 300.108684 490.026358 299.951788 
C 490.026358 299.794892 489.964022 299.6444 489.85308 299.533458 
C 489.742137 299.422515 489.591646 299.36018 489.43475 299.36018 
C 489.277853 299.36018 489.127362 299.422515 489.01642 299.533458 
C 488.905477 299.6444 488.843142 299.794892 488.843142 299.951788 
C 488.843142 300.108684 488.905477 300.259175 489.01642 300.370118 
C 489.127362 300.48106 489.277853 300.543396 489.43475 300.543396 
z
" clip-path="url(#pc67d7c79e8)" style="fill: #1f78b4; stroke: #1f78b4"/>
    <path d="M 540.807307 300.543396 
C 540.964203 300.543396 541.114694 300.48106 541.225637 300.370118 
C 541.336579 300.259175 541.398914 300.108684 541.398914 299.951788 
C 541.398914 299.794892 541.336579 299.6444 541.225637 299.533458 
C 541.114694 299.422515 540.964203 299.36018 540.807307 299.36018 
C 540.65041 299.36018 540.499919 299.422515 540.388977 299.533458 
C 540.278034 299.6444 540.215699 299.794892 540.215699 299.951788 
C 540.215699 300.108684 540.278034 300.259175 540.388977 300.370118 
C 540.499919 300.48106 540.65041 300.543396 540.807307 300.543396 
z
" clip-path="url(#pc67d7c79e8)" style="fill: #1f78b4; stroke: #1f78b4"/>
    <path d="M 599.578512 300.543396 
C 599.735409 300.543396 599.8859 300.48106 599.996842 300.370118 
C 600.107785 300.259175 600.17012 300.108684 600.17012 299.951788 
C 600.17012 299.794892 600.107785 299.6444 599.996842 299.533458 
C 599.8859 299.422515 599.735409 299.36018 599.578512 299.36018 
C 599.421616 299.36018 599.271125 299.422515 599.160182 299.533458 
C 599.04924 299.6444 598.986904 299.794892 598.986904 299.951788 
C 598.986904 300.108684 599.04924 300.259175 599.160182 300.370118 
C 599.271125 300.48106 599.421616 300.543396 599.578512 300.543396 
z
" clip-path="url(#pc67d7c79e8)" style="fill: #1f78b4; stroke: #1f78b4"/>
    <path d="M 179.390171 172.38049 
C 179.547067 172.38049 179.697559 172.318155 179.808501 172.207212 
C 179.919444 172.09627 179.981779 171.945779 179.981779 171.788882 
C 179.981779 171.631986 179.919444 171.481495 179.808501 171.370552 
C 179.697559 171.25961 179.547067 171.197275 179.390171 171.197275 
C 179.233275 171.197275 179.082784 171.25961 178.971841 171.370552 
C 178.860899 171.481495 178.798563 171.631986 178.798563 171.788882 
C 178.798563 171.945779 178.860899 172.09627 178.971841 172.207212 
C 179.082784 172.318155 179.233275 172.38049 179.390171 172.38049 
z
" clip-path="url(#pc67d7c79e8)" style="fill: #1f78b4; stroke: #1f78b4"/>
    <path d="M 138.421488 172.38049 
C 138.578384 172.38049 138.728875 172.318155 138.839818 172.207212 
C 138.95076 172.09627 139.013096 171.945779 139.013096 171.788882 
C 139.013096 171.631986 138.95076 171.481495 138.839818 171.370552 
C 138.728875 171.25961 138.578384 171.197275 138.421488 171.197275 
C 138.264591 171.197275 138.1141 171.25961 138.003158 171.370552 
C 137.892215 171.481495 137.82988 171.631986 137.82988 171.788882 
C 137.82988 171.945779 137.892215 172.09627 138.003158 172.207212 
C 138.1141 172.318155 138.264591 172.38049 138.421488 172.38049 
z
" clip-path="url(#pc67d7c79e8)" style="fill: #1f78b4; stroke: #1f78b4"/>
    <path d="M 233.11199 172.38049 
C 233.268886 172.38049 233.419377 172.318155 233.53032 172.207212 
C 233.641262 172.09627 233.703598 171.945779 233.703598 171.788882 
C 233.703598 171.631986 233.641262 171.481495 233.53032 171.370552 
C 233.419377 171.25961 233.268886 171.197275 233.11199 171.197275 
C 232.955094 171.197275 232.804602 171.25961 232.69366 171.370552 
C 232.582717 171.481495 232.520382 171.631986 232.520382 171.788882 
C 232.520382 171.945779 232.582717 172.09627 232.69366 172.207212 
C 232.804602 172.318155 232.955094 172.38049 233.11199 172.38049 
z
" clip-path="url(#pc67d7c79e8)" style="fill: #1f78b4; stroke: #1f78b4"/>
    <path d="M 275.831941 488.179235 
C 275.988838 488.179235 276.139329 488.116899 276.250271 488.005957 
C 276.361214 487.895014 276.423549 487.744523 276.423549 487.587627 
C 276.423549 487.43073 276.361214 487.280239 276.250271 487.169297 
C 276.139329 487.058354 275.988838 486.996019 275.831941 486.996019 
C 275.675045 486.996019 275.524554 487.058354 275.413611 487.169297 
C 275.302669 487.280239 275.240333 487.43073 275.240333 487.587627 
C 275.240333 487.744523 275.302669 487.895014 275.413611 488.005957 
C 275.524554 488.116899 275.675045 488.179235 275.831941 488.179235 
z
" clip-path="url(#pc67d7c79e8)" style="fill: #1f78b4; stroke: #1f78b4"/>
    <path d="M 275.831941 552.442221 
C 275.988838 552.442221 276.139329 552.379885 276.250271 552.268943 
C 276.361214 552.158001 276.423549 552.007509 276.423549 551.850613 
C 276.423549 551.693717 276.361214 551.543225 276.250271 551.432283 
C 276.139329 551.321341 275.988838 551.259005 275.831941 551.259005 
C 275.675045 551.259005 275.524554 551.321341 275.413611 551.432283 
C 275.302669 551.543225 275.240333 551.693717 275.240333 551.850613 
C 275.240333 552.007509 275.302669 552.158001 275.413611 552.268943 
C 275.524554 552.379885 275.675045 552.442221 275.831941 552.442221 
z
" clip-path="url(#pc67d7c79e8)" style="fill: #1f78b4; stroke: #1f78b4"/>
    <path d="M 275.831941 428.706301 
C 275.988838 428.706301 276.139329 428.643966 276.250271 428.533023 
C 276.361214 428.422081 276.423549 428.271589 276.423549 428.114693 
C 276.423549 427.957797 276.361214 427.807306 276.250271 427.696363 
C 276.139329 427.585421 275.988838 427.523085 275.831941 427.523085 
C 275.675045 427.523085 275.524554 427.585421 275.413611 427.696363 
C 275.302669 427.807306 275.240333 427.957797 275.240333 428.114693 
C 275.240333 428.271589 275.302669 428.422081 275.413611 428.533023 
C 275.524554 428.643966 275.675045 428.706301 275.831941 428.706301 
z
" clip-path="url(#pc67d7c79e8)" style="fill: #1f78b4; stroke: #1f78b4"/>
    <path d="M 489.43475 385.983299 
C 489.591646 385.983299 489.742137 385.920963 489.85308 385.810021 
C 489.964022 385.699078 490.026358 385.548587 490.026358 385.391691 
C 490.026358 385.234794 489.964022 385.084303 489.85308 384.973361 
C 489.742137 384.862418 489.591646 384.800083 489.43475 384.800083 
C 489.277853 384.800083 489.127362 384.862418 489.01642 384.973361 
C 488.905477 385.084303 488.843142 385.234794 488.843142 385.391691 
C 488.843142 385.548587 488.905477 385.699078 489.01642 385.810021 
C 489.127362 385.920963 489.277853 385.983299 489.43475 385.983299 
z
" clip-path="url(#pc67d7c79e8)" style="fill: #1f78b4; stroke: #1f78b4"/>
    <path d="M 446.714798 385.983299 
C 446.871694 385.983299 447.022186 385.920963 447.133128 385.810021 
C 447.244071 385.699078 447.306406 385.548587 447.306406 385.391691 
C 447.306406 385.234794 447.244071 385.084303 447.133128 384.973361 
C 447.022186 384.862418 446.871694 384.800083 446.714798 384.800083 
C 446.557902 384.800083 446.407411 384.862418 446.296468 384.973361 
C 446.185526 385.084303 446.12319 385.234794 446.12319 385.391691 
C 446.12319 385.548587 446.185526 385.699078 446.296468 385.810021 
C 446.407411 385.920963 446.557902 385.983299 446.714798 385.983299 
z
" clip-path="url(#pc67d7c79e8)" style="fill: #1f78b4; stroke: #1f78b4"/>
    <path d="M 489.43475 343.263347 
C 489.591646 343.263347 489.742137 343.201012 489.85308 343.090069 
C 489.964022 342.979127 490.026358 342.828636 490.026358 342.671739 
C 490.026358 342.514843 489.964022 342.364352 489.85308 342.253409 
C 489.742137 342.142467 489.591646 342.080131 489.43475 342.080131 
C 489.277853 342.080131 489.127362 342.142467 489.01642 342.253409 
C 488.905477 342.364352 488.843142 342.514843 488.843142 342.671739 
C 488.843142 342.828636 488.905477 342.979127 489.01642 343.090069 
C 489.127362 343.201012 489.277853 343.263347 489.43475 343.263347 
z
" clip-path="url(#pc67d7c79e8)" style="fill: #1f78b4; stroke: #1f78b4"/>
    <path d="M 446.714798 343.263347 
C 446.871694 343.263347 447.022186 343.201012 447.133128 343.090069 
C 447.244071 342.979127 447.306406 342.828636 447.306406 342.671739 
C 447.306406 342.514843 447.244071 342.364352 447.133128 342.253409 
C 447.022186 342.142467 446.871694 342.080131 446.714798 342.080131 
C 446.557902 342.080131 446.407411 342.142467 446.296468 342.253409 
C 446.185526 342.364352 446.12319 342.514843 446.12319 342.671739 
C 446.12319 342.828636 446.185526 342.979127 446.296468 343.090069 
C 446.407411 343.201012 446.557902 343.263347 446.714798 343.263347 
z
" clip-path="url(#pc67d7c79e8)" style="fill: #1f78b4; stroke: #1f78b4"/>
    <path d="M 446.714798 300.543396 
C 446.871694 300.543396 447.022186 300.48106 447.133128 300.370118 
C 447.244071 300.259175 447.306406 300.108684 447.306406 299.951788 
C 447.306406 299.794892 447.244071 299.6444 447.133128 299.533458 
C 447.022186 299.422515 446.871694 299.36018 446.714798 299.36018 
C 446.557902 299.36018 446.407411 299.422515 446.296468 299.533458 
C 446.185526 299.6444 446.12319 299.794892 446.12319 299.951788 
C 446.12319 300.108684 446.185526 300.259175 446.296468 300.370118 
C 446.407411 300.48106 446.557902 300.543396 446.714798 300.543396 
z
" clip-path="url(#pc67d7c79e8)" style="fill: #1f78b4; stroke: #1f78b4"/>
    <path d="M 489.43475 257.823444 
C 489.591646 257.823444 489.742137 257.761109 489.85308 257.650166 
C 489.964022 257.539224 490.026358 257.388733 490.026358 257.231836 
C 490.026358 257.07494 489.964022 256.924449 489.85308 256.813506 
C 489.742137 256.702564 489.591646 256.640228 489.43475 256.640228 
C 489.277853 256.640228 489.127362 256.702564 489.01642 256.813506 
C 488.905477 256.924449 488.843142 257.07494 488.843142 257.231836 
C 488.843142 257.388733 488.905477 257.539224 489.01642 257.650166 
C 489.127362 257.761109 489.277853 257.823444 489.43475 257.823444 
z
" clip-path="url(#pc67d7c79e8)" style="fill: #1f78b4; stroke: #1f78b4"/>
    <path d="M 446.714798 257.823444 
C 446.871694 257.823444 447.022186 257.761109 447.133128 257.650166 
C 447.244071 257.539224 447.306406 257.388733 447.306406 257.231836 
C 447.306406 257.07494 447.244071 256.924449 447.133128 256.813506 
C 447.022186 256.702564 446.871694 256.640228 446.714798 256.640228 
C 446.557902 256.640228 446.407411 256.702564 446.296468 256.813506 
C 446.185526 256.924449 446.12319 257.07494 446.12319 257.231836 
C 446.12319 257.388733 446.185526 257.539224 446.296468 257.650166 
C 446.407411 257.761109 446.557902 257.823444 446.714798 257.823444 
z
" clip-path="url(#pc67d7c79e8)" style="fill: #1f78b4; stroke: #1f78b4"/>
    <path d="M 489.43475 215.100442 
C 489.591646 215.100442 489.742137 215.038106 489.85308 214.927164 
C 489.964022 214.816222 490.026358 214.66573 490.026358 214.508834 
C 490.026358 214.351938 489.964022 214.201446 489.85308 214.090504 
C 489.742137 213.979561 489.591646 213.917226 489.43475 213.917226 
C 489.277853 213.917226 489.127362 213.979561 489.01642 214.090504 
C 488.905477 214.201446 488.843142 214.351938 488.843142 214.508834 
C 488.843142 214.66573 488.905477 214.816222 489.01642 214.927164 
C 489.127362 215.038106 489.277853 215.100442 489.43475 215.100442 
z
" clip-path="url(#pc67d7c79e8)" style="fill: #1f78b4; stroke: #1f78b4"/>
    <path d="M 446.714798 215.100442 
C 446.871694 215.100442 447.022186 215.038106 447.133128 214.927164 
C 447.244071 214.816222 447.306406 214.66573 447.306406 214.508834 
C 447.306406 214.351938 447.244071 214.201446 447.133128 214.090504 
C 447.022186 213.979561 446.871694 213.917226 446.714798 213.917226 
C 446.557902 213.917226 446.407411 213.979561 446.296468 214.090504 
C 446.185526 214.201446 446.12319 214.351938 446.12319 214.508834 
C 446.12319 214.66573 446.185526 214.816222 446.296468 214.927164 
C 446.407411 215.038106 446.557902 215.100442 446.714798 215.100442 
z
" clip-path="url(#pc67d7c79e8)" style="fill: #1f78b4; stroke: #1f78b4"/>
    <path d="M 446.714798 428.706301 
C 446.871694 428.706301 447.022186 428.643966 447.133128 428.533023 
C 447.244071 428.422081 447.306406 428.271589 447.306406 428.114693 
C 447.306406 427.957797 447.244071 427.807306 447.133128 427.696363 
C 447.022186 427.585421 446.871694 427.523085 446.714798 427.523085 
C 446.557902 427.523085 446.407411 427.585421 446.296468 427.696363 
C 446.185526 427.807306 446.12319 427.957797 446.12319 428.114693 
C 446.12319 428.271589 446.185526 428.422081 446.296468 428.533023 
C 446.407411 428.643966 446.557902 428.706301 446.714798 428.706301 
z
" clip-path="url(#pc67d7c79e8)" style="fill: #1f78b4; stroke: #1f78b4"/>
    <path d="M 403.994847 385.983299 
C 404.151743 385.983299 404.302234 385.920963 404.413177 385.810021 
C 404.524119 385.699078 404.586455 385.548587 404.586455 385.391691 
C 404.586455 385.234794 404.524119 385.084303 404.413177 384.973361 
C 404.302234 384.862418 404.151743 384.800083 403.994847 384.800083 
C 403.83795 384.800083 403.687459 384.862418 403.576517 384.973361 
C 403.465574 385.084303 403.403239 385.234794 403.403239 385.391691 
C 403.403239 385.548587 403.465574 385.699078 403.576517 385.810021 
C 403.687459 385.920963 403.83795 385.983299 403.994847 385.983299 
z
" clip-path="url(#pc67d7c79e8)" style="fill: #1f78b4; stroke: #1f78b4"/>
    <path d="M 403.994847 428.706301 
C 404.151743 428.706301 404.302234 428.643966 404.413177 428.533023 
C 404.524119 428.422081 404.586455 428.271589 404.586455 428.114693 
C 404.586455 427.957797 404.524119 427.807306 404.413177 427.696363 
C 404.302234 427.585421 404.151743 427.523085 403.994847 427.523085 
C 403.83795 427.523085 403.687459 427.585421 403.576517 427.696363 
C 403.465574 427.807306 403.403239 427.957797 403.403239 428.114693 
C 403.403239 428.271589 403.465574 428.422081 403.576517 428.533023 
C 403.687459 428.643966 403.83795 428.706301 403.994847 428.706301 
z
" clip-path="url(#pc67d7c79e8)" style="fill: #1f78b4; stroke: #1f78b4"/>
    <path d="M 361.274895 385.983299 
C 361.431791 385.983299 361.582283 385.920963 361.693225 385.810021 
C 361.804168 385.699078 361.866503 385.548587 361.866503 385.391691 
C 361.866503 385.234794 361.804168 385.084303 361.693225 384.973361 
C 361.582283 384.862418 361.431791 384.800083 361.274895 384.800083 
C 361.117999 384.800083 360.967508 384.862418 360.856565 384.973361 
C 360.745623 385.084303 360.683287 385.234794 360.683287 385.391691 
C 360.683287 385.548587 360.745623 385.699078 360.856565 385.810021 
C 360.967508 385.920963 361.117999 385.983299 361.274895 385.983299 
z
" clip-path="url(#pc67d7c79e8)" style="fill: #1f78b4; stroke: #1f78b4"/>
    <path d="M 361.274895 428.706301 
C 361.431791 428.706301 361.582283 428.643966 361.693225 428.533023 
C 361.804168 428.422081 361.866503 428.271589 361.866503 428.114693 
C 361.866503 427.957797 361.804168 427.807306 361.693225 427.696363 
C 361.582283 427.585421 361.431791 427.523085 361.274895 427.523085 
C 361.117999 427.523085 360.967508 427.585421 360.856565 427.696363 
C 360.745623 427.807306 360.683287 427.957797 360.683287 428.114693 
C 360.683287 428.271589 360.745623 428.422081 360.856565 428.533023 
C 360.967508 428.643966 361.117999 428.706301 361.274895 428.706301 
z
" clip-path="url(#pc67d7c79e8)" style="fill: #1f78b4; stroke: #1f78b4"/>
    <path d="M 318.554944 385.983299 
C 318.71184 385.983299 318.862331 385.920963 318.973274 385.810021 
C 319.084216 385.699078 319.146552 385.548587 319.146552 385.391691 
C 319.146552 385.234794 319.084216 385.084303 318.973274 384.973361 
C 318.862331 384.862418 318.71184 384.800083 318.554944 384.800083 
C 318.398048 384.800083 318.247556 384.862418 318.136614 384.973361 
C 318.025671 385.084303 317.963336 385.234794 317.963336 385.391691 
C 317.963336 385.548587 318.025671 385.699078 318.136614 385.810021 
C 318.247556 385.920963 318.398048 385.983299 318.554944 385.983299 
z
" clip-path="url(#pc67d7c79e8)" style="fill: #1f78b4; stroke: #1f78b4"/>
    <path d="M 318.554944 428.706301 
C 318.71184 428.706301 318.862331 428.643966 318.973274 428.533023 
C 319.084216 428.422081 319.146552 428.271589 319.146552 428.114693 
C 319.146552 427.957797 319.084216 427.807306 318.973274 427.696363 
C 318.862331 427.585421 318.71184 427.523085 318.554944 427.523085 
C 318.398048 427.523085 318.247556 427.585421 318.136614 427.696363 
C 318.025671 427.807306 317.963336 427.957797 317.963336 428.114693 
C 317.963336 428.271589 318.025671 428.422081 318.136614 428.533023 
C 318.247556 428.643966 318.398048 428.706301 318.554944 428.706301 
z
" clip-path="url(#pc67d7c79e8)" style="fill: #1f78b4; stroke: #1f78b4"/>
    <path d="M 275.831941 385.983299 
C 275.988838 385.983299 276.139329 385.920963 276.250271 385.810021 
C 276.361214 385.699078 276.423549 385.548587 276.423549 385.391691 
C 276.423549 385.234794 276.361214 385.084303 276.250271 384.973361 
C 276.139329 384.862418 275.988838 384.800083 275.831941 384.800083 
C 275.675045 384.800083 275.524554 384.862418 275.413611 384.973361 
C 275.302669 385.084303 275.240333 385.234794 275.240333 385.391691 
C 275.240333 385.548587 275.302669 385.699078 275.413611 385.810021 
C 275.524554 385.920963 275.675045 385.983299 275.831941 385.983299 
z
" clip-path="url(#pc67d7c79e8)" style="fill: #1f78b4; stroke: #1f78b4"/>
    <path d="M 233.11199 385.983299 
C 233.268886 385.983299 233.419377 385.920963 233.53032 385.810021 
C 233.641262 385.699078 233.703598 385.548587 233.703598 385.391691 
C 233.703598 385.234794 233.641262 385.084303 233.53032 384.973361 
C 233.419377 384.862418 233.268886 384.800083 233.11199 384.800083 
C 232.955094 384.800083 232.804602 384.862418 232.69366 384.973361 
C 232.582717 385.084303 232.520382 385.234794 232.520382 385.391691 
C 232.520382 385.548587 232.582717 385.699078 232.69366 385.810021 
C 232.804602 385.920963 232.955094 385.983299 233.11199 385.983299 
z
" clip-path="url(#pc67d7c79e8)" style="fill: #1f78b4; stroke: #1f78b4"/>
    <path d="M 446.714798 172.38049 
C 446.871694 172.38049 447.022186 172.318155 447.133128 172.207212 
C 447.244071 172.09627 447.306406 171.945779 447.306406 171.788882 
C 447.306406 171.631986 447.244071 171.481495 447.133128 171.370552 
C 447.022186 171.25961 446.871694 171.197275 446.714798 171.197275 
C 446.557902 171.197275 446.407411 171.25961 446.296468 171.370552 
C 446.185526 171.481495 446.12319 171.631986 446.12319 171.788882 
C 446.12319 171.945779 446.185526 172.09627 446.296468 172.207212 
C 446.407411 172.318155 446.557902 172.38049 446.714798 172.38049 
z
" clip-path="url(#pc67d7c79e8)" style="fill: #1f78b4; stroke: #1f78b4"/>
    <path d="M 403.994847 343.263347 
C 404.151743 343.263347 404.302234 343.201012 404.413177 343.090069 
C 404.524119 342.979127 404.586455 342.828636 404.586455 342.671739 
C 404.586455 342.514843 404.524119 342.364352 404.413177 342.253409 
C 404.302234 342.142467 404.151743 342.080131 403.994847 342.080131 
C 403.83795 342.080131 403.687459 342.142467 403.576517 342.253409 
C 403.465574 342.364352 403.403239 342.514843 403.403239 342.671739 
C 403.403239 342.828636 403.465574 342.979127 403.576517 343.090069 
C 403.687459 343.201012 403.83795 343.263347 403.994847 343.263347 
z
" clip-path="url(#pc67d7c79e8)" style="fill: #1f78b4; stroke: #1f78b4"/>
    <path d="M 361.274895 343.263347 
C 361.431791 343.263347 361.582283 343.201012 361.693225 343.090069 
C 361.804168 342.979127 361.866503 342.828636 361.866503 342.671739 
C 361.866503 342.514843 361.804168 342.364352 361.693225 342.253409 
C 361.582283 342.142467 361.431791 342.080131 361.274895 342.080131 
C 361.117999 342.080131 360.967508 342.142467 360.856565 342.253409 
C 360.745623 342.364352 360.683287 342.514843 360.683287 342.671739 
C 360.683287 342.828636 360.745623 342.979127 360.856565 343.090069 
C 360.967508 343.201012 361.117999 343.263347 361.274895 343.263347 
z
" clip-path="url(#pc67d7c79e8)" style="fill: #1f78b4; stroke: #1f78b4"/>
    <path d="M 318.554944 343.263347 
C 318.71184 343.263347 318.862331 343.201012 318.973274 343.090069 
C 319.084216 342.979127 319.146552 342.828636 319.146552 342.671739 
C 319.146552 342.514843 319.084216 342.364352 318.973274 342.253409 
C 318.862331 342.142467 318.71184 342.080131 318.554944 342.080131 
C 318.398048 342.080131 318.247556 342.142467 318.136614 342.253409 
C 318.025671 342.364352 317.963336 342.514843 317.963336 342.671739 
C 317.963336 342.828636 318.025671 342.979127 318.136614 343.090069 
C 318.247556 343.201012 318.398048 343.263347 318.554944 343.263347 
z
" clip-path="url(#pc67d7c79e8)" style="fill: #1f78b4; stroke: #1f78b4"/>
    <path d="M 275.831941 343.263347 
C 275.988838 343.263347 276.139329 343.201012 276.250271 343.090069 
C 276.361214 342.979127 276.423549 342.828636 276.423549 342.671739 
C 276.423549 342.514843 276.361214 342.364352 276.250271 342.253409 
C 276.139329 342.142467 275.988838 342.080131 275.831941 342.080131 
C 275.675045 342.080131 275.524554 342.142467 275.413611 342.253409 
C 275.302669 342.364352 275.240333 342.514843 275.240333 342.671739 
C 275.240333 342.828636 275.302669 342.979127 275.413611 343.090069 
C 275.524554 343.201012 275.675045 343.263347 275.831941 343.263347 
z
" clip-path="url(#pc67d7c79e8)" style="fill: #1f78b4; stroke: #1f78b4"/>
    <path d="M 233.11199 343.263347 
C 233.268886 343.263347 233.419377 343.201012 233.53032 343.090069 
C 233.641262 342.979127 233.703598 342.828636 233.703598 342.671739 
C 233.703598 342.514843 233.641262 342.364352 233.53032 342.253409 
C 233.419377 342.142467 233.268886 342.080131 233.11199 342.080131 
C 232.955094 342.080131 232.804602 342.142467 232.69366 342.253409 
C 232.582717 342.364352 232.520382 342.514843 232.520382 342.671739 
C 232.520382 342.828636 232.582717 342.979127 232.69366 343.090069 
C 232.804602 343.201012 232.955094 343.263347 233.11199 343.263347 
z
" clip-path="url(#pc67d7c79e8)" style="fill: #1f78b4; stroke: #1f78b4"/>
    <path d="M 403.994847 300.543396 
C 404.151743 300.543396 404.302234 300.48106 404.413177 300.370118 
C 404.524119 300.259175 404.586455 300.108684 404.586455 299.951788 
C 404.586455 299.794892 404.524119 299.6444 404.413177 299.533458 
C 404.302234 299.422515 404.151743 299.36018 403.994847 299.36018 
C 403.83795 299.36018 403.687459 299.422515 403.576517 299.533458 
C 403.465574 299.6444 403.403239 299.794892 403.403239 299.951788 
C 403.403239 300.108684 403.465574 300.259175 403.576517 300.370118 
C 403.687459 300.48106 403.83795 300.543396 403.994847 300.543396 
z
" clip-path="url(#pc67d7c79e8)" style="fill: #1f78b4; stroke: #1f78b4"/>
    <path d="M 361.274895 300.543396 
C 361.431791 300.543396 361.582283 300.48106 361.693225 300.370118 
C 361.804168 300.259175 361.866503 300.108684 361.866503 299.951788 
C 361.866503 299.794892 361.804168 299.6444 361.693225 299.533458 
C 361.582283 299.422515 361.431791 299.36018 361.274895 299.36018 
C 361.117999 299.36018 360.967508 299.422515 360.856565 299.533458 
C 360.745623 299.6444 360.683287 299.794892 360.683287 299.951788 
C 360.683287 300.108684 360.745623 300.259175 360.856565 300.370118 
C 360.967508 300.48106 361.117999 300.543396 361.274895 300.543396 
z
" clip-path="url(#pc67d7c79e8)" style="fill: #1f78b4; stroke: #1f78b4"/>
    <path d="M 318.554944 300.543396 
C 318.71184 300.543396 318.862331 300.48106 318.973274 300.370118 
C 319.084216 300.259175 319.146552 300.108684 319.146552 299.951788 
C 319.146552 299.794892 319.084216 299.6444 318.973274 299.533458 
C 318.862331 299.422515 318.71184 299.36018 318.554944 299.36018 
C 318.398048 299.36018 318.247556 299.422515 318.136614 299.533458 
C 318.025671 299.6444 317.963336 299.794892 317.963336 299.951788 
C 317.963336 300.108684 318.025671 300.259175 318.136614 300.370118 
C 318.247556 300.48106 318.398048 300.543396 318.554944 300.543396 
z
" clip-path="url(#pc67d7c79e8)" style="fill: #1f78b4; stroke: #1f78b4"/>
    <path d="M 275.831941 300.543396 
C 275.988838 300.543396 276.139329 300.48106 276.250271 300.370118 
C 276.361214 300.259175 276.423549 300.108684 276.423549 299.951788 
C 276.423549 299.794892 276.361214 299.6444 276.250271 299.533458 
C 276.139329 299.422515 275.988838 299.36018 275.831941 299.36018 
C 275.675045 299.36018 275.524554 299.422515 275.413611 299.533458 
C 275.302669 299.6444 275.240333 299.794892 275.240333 299.951788 
C 275.240333 300.108684 275.302669 300.259175 275.413611 300.370118 
C 275.524554 300.48106 275.675045 300.543396 275.831941 300.543396 
z
" clip-path="url(#pc67d7c79e8)" style="fill: #1f78b4; stroke: #1f78b4"/>
    <path d="M 233.11199 300.543396 
C 233.268886 300.543396 233.419377 300.48106 233.53032 300.370118 
C 233.641262 300.259175 233.703598 300.108684 233.703598 299.951788 
C 233.703598 299.794892 233.641262 299.6444 233.53032 299.533458 
C 233.419377 299.422515 233.268886 299.36018 233.11199 299.36018 
C 232.955094 299.36018 232.804602 299.422515 232.69366 299.533458 
C 232.582717 299.6444 232.520382 299.794892 232.520382 299.951788 
C 232.520382 300.108684 232.582717 300.259175 232.69366 300.370118 
C 232.804602 300.48106 232.955094 300.543396 233.11199 300.543396 
z
" clip-path="url(#pc67d7c79e8)" style="fill: #1f78b4; stroke: #1f78b4"/>
    <path d="M 403.994847 257.823444 
C 404.151743 257.823444 404.302234 257.761109 404.413177 257.650166 
C 404.524119 257.539224 404.586455 257.388733 404.586455 257.231836 
C 404.586455 257.07494 404.524119 256.924449 404.413177 256.813506 
C 404.302234 256.702564 404.151743 256.640228 403.994847 256.640228 
C 403.83795 256.640228 403.687459 256.702564 403.576517 256.813506 
C 403.465574 256.924449 403.403239 257.07494 403.403239 257.231836 
C 403.403239 257.388733 403.465574 257.539224 403.576517 257.650166 
C 403.687459 257.761109 403.83795 257.823444 403.994847 257.823444 
z
" clip-path="url(#pc67d7c79e8)" style="fill: #1f78b4; stroke: #1f78b4"/>
    <path d="M 361.274895 257.823444 
C 361.431791 257.823444 361.582283 257.761109 361.693225 257.650166 
C 361.804168 257.539224 361.866503 257.388733 361.866503 257.231836 
C 361.866503 257.07494 361.804168 256.924449 361.693225 256.813506 
C 361.582283 256.702564 361.431791 256.640228 361.274895 256.640228 
C 361.117999 256.640228 360.967508 256.702564 360.856565 256.813506 
C 360.745623 256.924449 360.683287 257.07494 360.683287 257.231836 
C 360.683287 257.388733 360.745623 257.539224 360.856565 257.650166 
C 360.967508 257.761109 361.117999 257.823444 361.274895 257.823444 
z
" clip-path="url(#pc67d7c79e8)" style="fill: #1f78b4; stroke: #1f78b4"/>
    <path d="M 318.554944 257.823444 
C 318.71184 257.823444 318.862331 257.761109 318.973274 257.650166 
C 319.084216 257.539224 319.146552 257.388733 319.146552 257.231836 
C 319.146552 257.07494 319.084216 256.924449 318.973274 256.813506 
C 318.862331 256.702564 318.71184 256.640228 318.554944 256.640228 
C 318.398048 256.640228 318.247556 256.702564 318.136614 256.813506 
C 318.025671 256.924449 317.963336 257.07494 317.963336 257.231836 
C 317.963336 257.388733 318.025671 257.539224 318.136614 257.650166 
C 318.247556 257.761109 318.398048 257.823444 318.554944 257.823444 
z
" clip-path="url(#pc67d7c79e8)" style="fill: #1f78b4; stroke: #1f78b4"/>
    <path d="M 275.831941 257.823444 
C 275.988838 257.823444 276.139329 257.761109 276.250271 257.650166 
C 276.361214 257.539224 276.423549 257.388733 276.423549 257.231836 
C 276.423549 257.07494 276.361214 256.924449 276.250271 256.813506 
C 276.139329 256.702564 275.988838 256.640228 275.831941 256.640228 
C 275.675045 256.640228 275.524554 256.702564 275.413611 256.813506 
C 275.302669 256.924449 275.240333 257.07494 275.240333 257.231836 
C 275.240333 257.388733 275.302669 257.539224 275.413611 257.650166 
C 275.524554 257.761109 275.675045 257.823444 275.831941 257.823444 
z
" clip-path="url(#pc67d7c79e8)" style="fill: #1f78b4; stroke: #1f78b4"/>
    <path d="M 233.11199 257.823444 
C 233.268886 257.823444 233.419377 257.761109 233.53032 257.650166 
C 233.641262 257.539224 233.703598 257.388733 233.703598 257.231836 
C 233.703598 257.07494 233.641262 256.924449 233.53032 256.813506 
C 233.419377 256.702564 233.268886 256.640228 233.11199 256.640228 
C 232.955094 256.640228 232.804602 256.702564 232.69366 256.813506 
C 232.582717 256.924449 232.520382 257.07494 232.520382 257.231836 
C 232.520382 257.388733 232.582717 257.539224 232.69366 257.650166 
C 232.804602 257.761109 232.955094 257.823444 233.11199 257.823444 
z
" clip-path="url(#pc67d7c79e8)" style="fill: #1f78b4; stroke: #1f78b4"/>
    <path d="M 403.994847 215.100442 
C 404.151743 215.100442 404.302234 215.038106 404.413177 214.927164 
C 404.524119 214.816222 404.586455 214.66573 404.586455 214.508834 
C 404.586455 214.351938 404.524119 214.201446 404.413177 214.090504 
C 404.302234 213.979561 404.151743 213.917226 403.994847 213.917226 
C 403.83795 213.917226 403.687459 213.979561 403.576517 214.090504 
C 403.465574 214.201446 403.403239 214.351938 403.403239 214.508834 
C 403.403239 214.66573 403.465574 214.816222 403.576517 214.927164 
C 403.687459 215.038106 403.83795 215.100442 403.994847 215.100442 
z
" clip-path="url(#pc67d7c79e8)" style="fill: #1f78b4; stroke: #1f78b4"/>
    <path d="M 361.274895 215.100442 
C 361.431791 215.100442 361.582283 215.038106 361.693225 214.927164 
C 361.804168 214.816222 361.866503 214.66573 361.866503 214.508834 
C 361.866503 214.351938 361.804168 214.201446 361.693225 214.090504 
C 361.582283 213.979561 361.431791 213.917226 361.274895 213.917226 
C 361.117999 213.917226 360.967508 213.979561 360.856565 214.090504 
C 360.745623 214.201446 360.683287 214.351938 360.683287 214.508834 
C 360.683287 214.66573 360.745623 214.816222 360.856565 214.927164 
C 360.967508 215.038106 361.117999 215.100442 361.274895 215.100442 
z
" clip-path="url(#pc67d7c79e8)" style="fill: #1f78b4; stroke: #1f78b4"/>
    <path d="M 318.554944 215.100442 
C 318.71184 215.100442 318.862331 215.038106 318.973274 214.927164 
C 319.084216 214.816222 319.146552 214.66573 319.146552 214.508834 
C 319.146552 214.351938 319.084216 214.201446 318.973274 214.090504 
C 318.862331 213.979561 318.71184 213.917226 318.554944 213.917226 
C 318.398048 213.917226 318.247556 213.979561 318.136614 214.090504 
C 318.025671 214.201446 317.963336 214.351938 317.963336 214.508834 
C 317.963336 214.66573 318.025671 214.816222 318.136614 214.927164 
C 318.247556 215.038106 318.398048 215.100442 318.554944 215.100442 
z
" clip-path="url(#pc67d7c79e8)" style="fill: #1f78b4; stroke: #1f78b4"/>
    <path d="M 275.831941 215.100442 
C 275.988838 215.100442 276.139329 215.038106 276.250271 214.927164 
C 276.361214 214.816222 276.423549 214.66573 276.423549 214.508834 
C 276.423549 214.351938 276.361214 214.201446 276.250271 214.090504 
C 276.139329 213.979561 275.988838 213.917226 275.831941 213.917226 
C 275.675045 213.917226 275.524554 213.979561 275.413611 214.090504 
C 275.302669 214.201446 275.240333 214.351938 275.240333 214.508834 
C 275.240333 214.66573 275.302669 214.816222 275.413611 214.927164 
C 275.524554 215.038106 275.675045 215.100442 275.831941 215.100442 
z
" clip-path="url(#pc67d7c79e8)" style="fill: #1f78b4; stroke: #1f78b4"/>
    <path d="M 233.11199 215.100442 
C 233.268886 215.100442 233.419377 215.038106 233.53032 214.927164 
C 233.641262 214.816222 233.703598 214.66573 233.703598 214.508834 
C 233.703598 214.351938 233.641262 214.201446 233.53032 214.090504 
C 233.419377 213.979561 233.268886 213.917226 233.11199 213.917226 
C 232.955094 213.917226 232.804602 213.979561 232.69366 214.090504 
C 232.582717 214.201446 232.520382 214.351938 232.520382 214.508834 
C 232.520382 214.66573 232.582717 214.816222 232.69366 214.927164 
C 232.804602 215.038106 232.955094 215.100442 233.11199 215.100442 
z
" clip-path="url(#pc67d7c79e8)" style="fill: #1f78b4; stroke: #1f78b4"/>
    <path d="M 403.994847 172.38049 
C 404.151743 172.38049 404.302234 172.318155 404.413177 172.207212 
C 404.524119 172.09627 404.586455 171.945779 404.586455 171.788882 
C 404.586455 171.631986 404.524119 171.481495 404.413177 171.370552 
C 404.302234 171.25961 404.151743 171.197275 403.994847 171.197275 
C 403.83795 171.197275 403.687459 171.25961 403.576517 171.370552 
C 403.465574 171.481495 403.403239 171.631986 403.403239 171.788882 
C 403.403239 171.945779 403.465574 172.09627 403.576517 172.207212 
C 403.687459 172.318155 403.83795 172.38049 403.994847 172.38049 
z
" clip-path="url(#pc67d7c79e8)" style="fill: #1f78b4; stroke: #1f78b4"/>
    <path d="M 361.274895 172.38049 
C 361.431791 172.38049 361.582283 172.318155 361.693225 172.207212 
C 361.804168 172.09627 361.866503 171.945779 361.866503 171.788882 
C 361.866503 171.631986 361.804168 171.481495 361.693225 171.370552 
C 361.582283 171.25961 361.431791 171.197275 361.274895 171.197275 
C 361.117999 171.197275 360.967508 171.25961 360.856565 171.370552 
C 360.745623 171.481495 360.683287 171.631986 360.683287 171.788882 
C 360.683287 171.945779 360.745623 172.09627 360.856565 172.207212 
C 360.967508 172.318155 361.117999 172.38049 361.274895 172.38049 
z
" clip-path="url(#pc67d7c79e8)" style="fill: #1f78b4; stroke: #1f78b4"/>
    <path d="M 318.554944 172.38049 
C 318.71184 172.38049 318.862331 172.318155 318.973274 172.207212 
C 319.084216 172.09627 319.146552 171.945779 319.146552 171.788882 
C 319.146552 171.631986 319.084216 171.481495 318.973274 171.370552 
C 318.862331 171.25961 318.71184 171.197275 318.554944 171.197275 
C 318.398048 171.197275 318.247556 171.25961 318.136614 171.370552 
C 318.025671 171.481495 317.963336 171.631986 317.963336 171.788882 
C 317.963336 171.945779 318.025671 172.09627 318.136614 172.207212 
C 318.247556 172.318155 318.398048 172.38049 318.554944 172.38049 
z
" clip-path="url(#pc67d7c79e8)" style="fill: #1f78b4; stroke: #1f78b4"/>
    <path d="M 275.831941 172.38049 
C 275.988838 172.38049 276.139329 172.318155 276.250271 172.207212 
C 276.361214 172.09627 276.423549 171.945779 276.423549 171.788882 
C 276.423549 171.631986 276.361214 171.481495 276.250271 171.370552 
C 276.139329 171.25961 275.988838 171.197275 275.831941 171.197275 
C 275.675045 171.197275 275.524554 171.25961 275.413611 171.370552 
C 275.302669 171.481495 275.240333 171.631986 275.240333 171.788882 
C 275.240333 171.945779 275.302669 172.09627 275.413611 172.207212 
C 275.524554 172.318155 275.675045 172.38049 275.831941 172.38049 
z
" clip-path="url(#pc67d7c79e8)" style="fill: #1f78b4; stroke: #1f78b4"/>
    <path d="M 489.43475 172.38049 
C 489.591646 172.38049 489.742137 172.318155 489.85308 172.207212 
C 489.964022 172.09627 490.026358 171.945779 490.026358 171.788882 
C 490.026358 171.631986 489.964022 171.481495 489.85308 171.370552 
C 489.742137 171.25961 489.591646 171.197275 489.43475 171.197275 
C 489.277853 171.197275 489.127362 171.25961 489.01642 171.370552 
C 488.905477 171.481495 488.843142 171.631986 488.843142 171.788882 
C 488.843142 171.945779 488.905477 172.09627 489.01642 172.207212 
C 489.127362 172.318155 489.277853 172.38049 489.43475 172.38049 
z
" clip-path="url(#pc67d7c79e8)" style="fill: #1f78b4; stroke: #1f78b4"/>
    <path d="M 233.11199 428.706301 
C 233.268886 428.706301 233.419377 428.643966 233.53032 428.533023 
C 233.641262 428.422081 233.703598 428.271589 233.703598 428.114693 
C 233.703598 427.957797 233.641262 427.807306 233.53032 427.696363 
C 233.419377 427.585421 233.268886 427.523085 233.11199 427.523085 
C 232.955094 427.523085 232.804602 427.585421 232.69366 427.696363 
C 232.582717 427.807306 232.520382 427.957797 232.520382 428.114693 
C 232.520382 428.271589 232.582717 428.422081 232.69366 428.533023 
C 232.804602 428.643966 232.955094 428.706301 233.11199 428.706301 
z
" clip-path="url(#pc67d7c79e8)" style="fill: #1f78b4; stroke: #1f78b4"/>
    <path d="M 468.074774 407.343274 
C 468.23167 407.343274 468.382161 407.280939 468.493104 407.169996 
C 468.604046 407.059054 468.666382 406.908563 468.666382 406.751666 
C 468.666382 406.59477 468.604046 406.444279 468.493104 406.333336 
C 468.382161 406.222394 468.23167 406.160058 468.074774 406.160058 
C 467.917878 406.160058 467.767386 406.222394 467.656444 406.333336 
C 467.545501 406.444279 467.483166 406.59477 467.483166 406.751666 
C 467.483166 406.908563 467.545501 407.059054 467.656444 407.169996 
C 467.767386 407.280939 467.917878 407.343274 468.074774 407.343274 
z
" clip-path="url(#pc67d7c79e8)" style="fill: #1f78b4; stroke: #1f78b4"/>
    <path d="M 468.074774 364.623323 
C 468.23167 364.623323 468.382161 364.560987 468.493104 364.450045 
C 468.604046 364.339103 468.666382 364.188611 468.666382 364.031715 
C 468.666382 363.874819 468.604046 363.724327 468.493104 363.613385 
C 468.382161 363.502443 468.23167 363.440107 468.074774 363.440107 
C 467.917878 363.440107 467.767386 363.502443 467.656444 363.613385 
C 467.545501 363.724327 467.483166 363.874819 467.483166 364.031715 
C 467.483166 364.188611 467.545501 364.339103 467.656444 364.450045 
C 467.767386 364.560987 467.917878 364.623323 468.074774 364.623323 
z
" clip-path="url(#pc67d7c79e8)" style="fill: #1f78b4; stroke: #1f78b4"/>
    <path d="M 468.074774 321.903372 
C 468.23167 321.903372 468.382161 321.841036 468.493104 321.730094 
C 468.604046 321.619151 468.666382 321.46866 468.666382 321.311764 
C 468.666382 321.154867 468.604046 321.004376 468.493104 320.893434 
C 468.382161 320.782491 468.23167 320.720156 468.074774 320.720156 
C 467.917878 320.720156 467.767386 320.782491 467.656444 320.893434 
C 467.545501 321.004376 467.483166 321.154867 467.483166 321.311764 
C 467.483166 321.46866 467.545501 321.619151 467.656444 321.730094 
C 467.767386 321.841036 467.917878 321.903372 468.074774 321.903372 
z
" clip-path="url(#pc67d7c79e8)" style="fill: #1f78b4; stroke: #1f78b4"/>
    <path d="M 468.074774 279.18342 
C 468.23167 279.18342 468.382161 279.121085 468.493104 279.010142 
C 468.604046 278.8992 468.666382 278.748708 468.666382 278.591812 
C 468.666382 278.434916 468.604046 278.284424 468.493104 278.173482 
C 468.382161 278.06254 468.23167 278.000204 468.074774 278.000204 
C 467.917878 278.000204 467.767386 278.06254 467.656444 278.173482 
C 467.545501 278.284424 467.483166 278.434916 467.483166 278.591812 
C 467.483166 278.748708 467.545501 278.8992 467.656444 279.010142 
C 467.767386 279.121085 467.917878 279.18342 468.074774 279.18342 
z
" clip-path="url(#pc67d7c79e8)" style="fill: #1f78b4; stroke: #1f78b4"/>
    <path d="M 468.074774 236.463469 
C 468.23167 236.463469 468.382161 236.401133 468.493104 236.290191 
C 468.604046 236.179248 468.666382 236.028757 468.666382 235.871861 
C 468.666382 235.714964 468.604046 235.564473 468.493104 235.453531 
C 468.382161 235.342588 468.23167 235.280253 468.074774 235.280253 
C 467.917878 235.280253 467.767386 235.342588 467.656444 235.453531 
C 467.545501 235.564473 467.483166 235.714964 467.483166 235.871861 
C 467.483166 236.028757 467.545501 236.179248 467.656444 236.290191 
C 467.767386 236.401133 467.917878 236.463469 468.074774 236.463469 
z
" clip-path="url(#pc67d7c79e8)" style="fill: #1f78b4; stroke: #1f78b4"/>
    <path d="M 468.074774 193.740466 
C 468.23167 193.740466 468.382161 193.678131 468.493104 193.567188 
C 468.604046 193.456246 468.666382 193.305754 468.666382 193.148858 
C 468.666382 192.991962 468.604046 192.841471 468.493104 192.730528 
C 468.382161 192.619586 468.23167 192.55725 468.074774 192.55725 
C 467.917878 192.55725 467.767386 192.619586 467.656444 192.730528 
C 467.545501 192.841471 467.483166 192.991962 467.483166 193.148858 
C 467.483166 193.305754 467.545501 193.456246 467.656444 193.567188 
C 467.767386 193.678131 467.917878 193.740466 468.074774 193.740466 
z
" clip-path="url(#pc67d7c79e8)" style="fill: #1f78b4; stroke: #1f78b4"/>
    <path d="M 425.354822 407.343274 
C 425.511719 407.343274 425.66221 407.280939 425.773152 407.169996 
C 425.884095 407.059054 425.94643 406.908563 425.94643 406.751666 
C 425.94643 406.59477 425.884095 406.444279 425.773152 406.333336 
C 425.66221 406.222394 425.511719 406.160058 425.354822 406.160058 
C 425.197926 406.160058 425.047435 406.222394 424.936492 406.333336 
C 424.82555 406.444279 424.763214 406.59477 424.763214 406.751666 
C 424.763214 406.908563 424.82555 407.059054 424.936492 407.169996 
C 425.047435 407.280939 425.197926 407.343274 425.354822 407.343274 
z
" clip-path="url(#pc67d7c79e8)" style="fill: #1f78b4; stroke: #1f78b4"/>
    <path d="M 382.634871 407.343274 
C 382.791767 407.343274 382.942259 407.280939 383.053201 407.169996 
C 383.164143 407.059054 383.226479 406.908563 383.226479 406.751666 
C 383.226479 406.59477 383.164143 406.444279 383.053201 406.333336 
C 382.942259 406.222394 382.791767 406.160058 382.634871 406.160058 
C 382.477975 406.160058 382.327483 406.222394 382.216541 406.333336 
C 382.105599 406.444279 382.043263 406.59477 382.043263 406.751666 
C 382.043263 406.908563 382.105599 407.059054 382.216541 407.169996 
C 382.327483 407.280939 382.477975 407.343274 382.634871 407.343274 
z
" clip-path="url(#pc67d7c79e8)" style="fill: #1f78b4; stroke: #1f78b4"/>
    <path d="M 339.91492 407.343274 
C 340.071816 407.343274 340.222307 407.280939 340.33325 407.169996 
C 340.444192 407.059054 340.506527 406.908563 340.506527 406.751666 
C 340.506527 406.59477 340.444192 406.444279 340.33325 406.333336 
C 340.222307 406.222394 340.071816 406.160058 339.91492 406.160058 
C 339.758023 406.160058 339.607532 406.222394 339.496589 406.333336 
C 339.385647 406.444279 339.323312 406.59477 339.323312 406.751666 
C 339.323312 406.908563 339.385647 407.059054 339.496589 407.169996 
C 339.607532 407.280939 339.758023 407.343274 339.91492 407.343274 
z
" clip-path="url(#pc67d7c79e8)" style="fill: #1f78b4; stroke: #1f78b4"/>
    <path d="M 297.191917 407.343274 
C 297.348813 407.343274 297.499305 407.280939 297.610247 407.169996 
C 297.721189 407.059054 297.783525 406.908563 297.783525 406.751666 
C 297.783525 406.59477 297.721189 406.444279 297.610247 406.333336 
C 297.499305 406.222394 297.348813 406.160058 297.191917 406.160058 
C 297.035021 406.160058 296.884529 406.222394 296.773587 406.333336 
C 296.662645 406.444279 296.600309 406.59477 296.600309 406.751666 
C 296.600309 406.908563 296.662645 407.059054 296.773587 407.169996 
C 296.884529 407.280939 297.035021 407.343274 297.191917 407.343274 
z
" clip-path="url(#pc67d7c79e8)" style="fill: #1f78b4; stroke: #1f78b4"/>
    <path d="M 254.471966 407.343274 
C 254.628862 407.343274 254.779353 407.280939 254.890296 407.169996 
C 255.001238 407.059054 255.063574 406.908563 255.063574 406.751666 
C 255.063574 406.59477 255.001238 406.444279 254.890296 406.333336 
C 254.779353 406.222394 254.628862 406.160058 254.471966 406.160058 
C 254.315069 406.160058 254.164578 406.222394 254.053636 406.333336 
C 253.942693 406.444279 253.880358 406.59477 253.880358 406.751666 
C 253.880358 406.908563 253.942693 407.059054 254.053636 407.169996 
C 254.164578 407.280939 254.315069 407.343274 254.471966 407.343274 
z
" clip-path="url(#pc67d7c79e8)" style="fill: #1f78b4; stroke: #1f78b4"/>
    <path d="M 425.354822 364.623323 
C 425.511719 364.623323 425.66221 364.560987 425.773152 364.450045 
C 425.884095 364.339103 425.94643 364.188611 425.94643 364.031715 
C 425.94643 363.874819 425.884095 363.724327 425.773152 363.613385 
C 425.66221 363.502443 425.511719 363.440107 425.354822 363.440107 
C 425.197926 363.440107 425.047435 363.502443 424.936492 363.613385 
C 424.82555 363.724327 424.763214 363.874819 424.763214 364.031715 
C 424.763214 364.188611 424.82555 364.339103 424.936492 364.450045 
C 425.047435 364.560987 425.197926 364.623323 425.354822 364.623323 
z
" clip-path="url(#pc67d7c79e8)" style="fill: #1f78b4; stroke: #1f78b4"/>
    <path d="M 382.634871 364.623323 
C 382.791767 364.623323 382.942259 364.560987 383.053201 364.450045 
C 383.164143 364.339103 383.226479 364.188611 383.226479 364.031715 
C 383.226479 363.874819 383.164143 363.724327 383.053201 363.613385 
C 382.942259 363.502443 382.791767 363.440107 382.634871 363.440107 
C 382.477975 363.440107 382.327483 363.502443 382.216541 363.613385 
C 382.105599 363.724327 382.043263 363.874819 382.043263 364.031715 
C 382.043263 364.188611 382.105599 364.339103 382.216541 364.450045 
C 382.327483 364.560987 382.477975 364.623323 382.634871 364.623323 
z
" clip-path="url(#pc67d7c79e8)" style="fill: #1f78b4; stroke: #1f78b4"/>
    <path d="M 339.91492 364.623323 
C 340.071816 364.623323 340.222307 364.560987 340.33325 364.450045 
C 340.444192 364.339103 340.506527 364.188611 340.506527 364.031715 
C 340.506527 363.874819 340.444192 363.724327 340.33325 363.613385 
C 340.222307 363.502443 340.071816 363.440107 339.91492 363.440107 
C 339.758023 363.440107 339.607532 363.502443 339.496589 363.613385 
C 339.385647 363.724327 339.323312 363.874819 339.323312 364.031715 
C 339.323312 364.188611 339.385647 364.339103 339.496589 364.450045 
C 339.607532 364.560987 339.758023 364.623323 339.91492 364.623323 
z
" clip-path="url(#pc67d7c79e8)" style="fill: #1f78b4; stroke: #1f78b4"/>
    <path d="M 297.191917 364.623323 
C 297.348813 364.623323 297.499305 364.560987 297.610247 364.450045 
C 297.721189 364.339103 297.783525 364.188611 297.783525 364.031715 
C 297.783525 363.874819 297.721189 363.724327 297.610247 363.613385 
C 297.499305 363.502443 297.348813 363.440107 297.191917 363.440107 
C 297.035021 363.440107 296.884529 363.502443 296.773587 363.613385 
C 296.662645 363.724327 296.600309 363.874819 296.600309 364.031715 
C 296.600309 364.188611 296.662645 364.339103 296.773587 364.450045 
C 296.884529 364.560987 297.035021 364.623323 297.191917 364.623323 
z
" clip-path="url(#pc67d7c79e8)" style="fill: #1f78b4; stroke: #1f78b4"/>
    <path d="M 254.471966 364.623323 
C 254.628862 364.623323 254.779353 364.560987 254.890296 364.450045 
C 255.001238 364.339103 255.063574 364.188611 255.063574 364.031715 
C 255.063574 363.874819 255.001238 363.724327 254.890296 363.613385 
C 254.779353 363.502443 254.628862 363.440107 254.471966 363.440107 
C 254.315069 363.440107 254.164578 363.502443 254.053636 363.613385 
C 253.942693 363.724327 253.880358 363.874819 253.880358 364.031715 
C 253.880358 364.188611 253.942693 364.339103 254.053636 364.450045 
C 254.164578 364.560987 254.315069 364.623323 254.471966 364.623323 
z
" clip-path="url(#pc67d7c79e8)" style="fill: #1f78b4; stroke: #1f78b4"/>
    <path d="M 425.354822 321.903372 
C 425.511719 321.903372 425.66221 321.841036 425.773152 321.730094 
C 425.884095 321.619151 425.94643 321.46866 425.94643 321.311764 
C 425.94643 321.154867 425.884095 321.004376 425.773152 320.893434 
C 425.66221 320.782491 425.511719 320.720156 425.354822 320.720156 
C 425.197926 320.720156 425.047435 320.782491 424.936492 320.893434 
C 424.82555 321.004376 424.763214 321.154867 424.763214 321.311764 
C 424.763214 321.46866 424.82555 321.619151 424.936492 321.730094 
C 425.047435 321.841036 425.197926 321.903372 425.354822 321.903372 
z
" clip-path="url(#pc67d7c79e8)" style="fill: #1f78b4; stroke: #1f78b4"/>
    <path d="M 382.634871 321.903372 
C 382.791767 321.903372 382.942259 321.841036 383.053201 321.730094 
C 383.164143 321.619151 383.226479 321.46866 383.226479 321.311764 
C 383.226479 321.154867 383.164143 321.004376 383.053201 320.893434 
C 382.942259 320.782491 382.791767 320.720156 382.634871 320.720156 
C 382.477975 320.720156 382.327483 320.782491 382.216541 320.893434 
C 382.105599 321.004376 382.043263 321.154867 382.043263 321.311764 
C 382.043263 321.46866 382.105599 321.619151 382.216541 321.730094 
C 382.327483 321.841036 382.477975 321.903372 382.634871 321.903372 
z
" clip-path="url(#pc67d7c79e8)" style="fill: #1f78b4; stroke: #1f78b4"/>
    <path d="M 339.91492 321.903372 
C 340.071816 321.903372 340.222307 321.841036 340.33325 321.730094 
C 340.444192 321.619151 340.506527 321.46866 340.506527 321.311764 
C 340.506527 321.154867 340.444192 321.004376 340.33325 320.893434 
C 340.222307 320.782491 340.071816 320.720156 339.91492 320.720156 
C 339.758023 320.720156 339.607532 320.782491 339.496589 320.893434 
C 339.385647 321.004376 339.323312 321.154867 339.323312 321.311764 
C 339.323312 321.46866 339.385647 321.619151 339.496589 321.730094 
C 339.607532 321.841036 339.758023 321.903372 339.91492 321.903372 
z
" clip-path="url(#pc67d7c79e8)" style="fill: #1f78b4; stroke: #1f78b4"/>
    <path d="M 297.191917 321.903372 
C 297.348813 321.903372 297.499305 321.841036 297.610247 321.730094 
C 297.721189 321.619151 297.783525 321.46866 297.783525 321.311764 
C 297.783525 321.154867 297.721189 321.004376 297.610247 320.893434 
C 297.499305 320.782491 297.348813 320.720156 297.191917 320.720156 
C 297.035021 320.720156 296.884529 320.782491 296.773587 320.893434 
C 296.662645 321.004376 296.600309 321.154867 296.600309 321.311764 
C 296.600309 321.46866 296.662645 321.619151 296.773587 321.730094 
C 296.884529 321.841036 297.035021 321.903372 297.191917 321.903372 
z
" clip-path="url(#pc67d7c79e8)" style="fill: #1f78b4; stroke: #1f78b4"/>
    <path d="M 254.471966 321.903372 
C 254.628862 321.903372 254.779353 321.841036 254.890296 321.730094 
C 255.001238 321.619151 255.063574 321.46866 255.063574 321.311764 
C 255.063574 321.154867 255.001238 321.004376 254.890296 320.893434 
C 254.779353 320.782491 254.628862 320.720156 254.471966 320.720156 
C 254.315069 320.720156 254.164578 320.782491 254.053636 320.893434 
C 253.942693 321.004376 253.880358 321.154867 253.880358 321.311764 
C 253.880358 321.46866 253.942693 321.619151 254.053636 321.730094 
C 254.164578 321.841036 254.315069 321.903372 254.471966 321.903372 
z
" clip-path="url(#pc67d7c79e8)" style="fill: #1f78b4; stroke: #1f78b4"/>
    <path d="M 425.354822 279.18342 
C 425.511719 279.18342 425.66221 279.121085 425.773152 279.010142 
C 425.884095 278.8992 425.94643 278.748708 425.94643 278.591812 
C 425.94643 278.434916 425.884095 278.284424 425.773152 278.173482 
C 425.66221 278.06254 425.511719 278.000204 425.354822 278.000204 
C 425.197926 278.000204 425.047435 278.06254 424.936492 278.173482 
C 424.82555 278.284424 424.763214 278.434916 424.763214 278.591812 
C 424.763214 278.748708 424.82555 278.8992 424.936492 279.010142 
C 425.047435 279.121085 425.197926 279.18342 425.354822 279.18342 
z
" clip-path="url(#pc67d7c79e8)" style="fill: #1f78b4; stroke: #1f78b4"/>
    <path d="M 382.634871 279.18342 
C 382.791767 279.18342 382.942259 279.121085 383.053201 279.010142 
C 383.164143 278.8992 383.226479 278.748708 383.226479 278.591812 
C 383.226479 278.434916 383.164143 278.284424 383.053201 278.173482 
C 382.942259 278.06254 382.791767 278.000204 382.634871 278.000204 
C 382.477975 278.000204 382.327483 278.06254 382.216541 278.173482 
C 382.105599 278.284424 382.043263 278.434916 382.043263 278.591812 
C 382.043263 278.748708 382.105599 278.8992 382.216541 279.010142 
C 382.327483 279.121085 382.477975 279.18342 382.634871 279.18342 
z
" clip-path="url(#pc67d7c79e8)" style="fill: #1f78b4; stroke: #1f78b4"/>
    <path d="M 339.91492 279.18342 
C 340.071816 279.18342 340.222307 279.121085 340.33325 279.010142 
C 340.444192 278.8992 340.506527 278.748708 340.506527 278.591812 
C 340.506527 278.434916 340.444192 278.284424 340.33325 278.173482 
C 340.222307 278.06254 340.071816 278.000204 339.91492 278.000204 
C 339.758023 278.000204 339.607532 278.06254 339.496589 278.173482 
C 339.385647 278.284424 339.323312 278.434916 339.323312 278.591812 
C 339.323312 278.748708 339.385647 278.8992 339.496589 279.010142 
C 339.607532 279.121085 339.758023 279.18342 339.91492 279.18342 
z
" clip-path="url(#pc67d7c79e8)" style="fill: #1f78b4; stroke: #1f78b4"/>
    <path d="M 297.191917 279.18342 
C 297.348813 279.18342 297.499305 279.121085 297.610247 279.010142 
C 297.721189 278.8992 297.783525 278.748708 297.783525 278.591812 
C 297.783525 278.434916 297.721189 278.284424 297.610247 278.173482 
C 297.499305 278.06254 297.348813 278.000204 297.191917 278.000204 
C 297.035021 278.000204 296.884529 278.06254 296.773587 278.173482 
C 296.662645 278.284424 296.600309 278.434916 296.600309 278.591812 
C 296.600309 278.748708 296.662645 278.8992 296.773587 279.010142 
C 296.884529 279.121085 297.035021 279.18342 297.191917 279.18342 
z
" clip-path="url(#pc67d7c79e8)" style="fill: #1f78b4; stroke: #1f78b4"/>
    <path d="M 254.471966 279.18342 
C 254.628862 279.18342 254.779353 279.121085 254.890296 279.010142 
C 255.001238 278.8992 255.063574 278.748708 255.063574 278.591812 
C 255.063574 278.434916 255.001238 278.284424 254.890296 278.173482 
C 254.779353 278.06254 254.628862 278.000204 254.471966 278.000204 
C 254.315069 278.000204 254.164578 278.06254 254.053636 278.173482 
C 253.942693 278.284424 253.880358 278.434916 253.880358 278.591812 
C 253.880358 278.748708 253.942693 278.8992 254.053636 279.010142 
C 254.164578 279.121085 254.315069 279.18342 254.471966 279.18342 
z
" clip-path="url(#pc67d7c79e8)" style="fill: #1f78b4; stroke: #1f78b4"/>
    <path d="M 425.354822 236.463469 
C 425.511719 236.463469 425.66221 236.401133 425.773152 236.290191 
C 425.884095 236.179248 425.94643 236.028757 425.94643 235.871861 
C 425.94643 235.714964 425.884095 235.564473 425.773152 235.453531 
C 425.66221 235.342588 425.511719 235.280253 425.354822 235.280253 
C 425.197926 235.280253 425.047435 235.342588 424.936492 235.453531 
C 424.82555 235.564473 424.763214 235.714964 424.763214 235.871861 
C 424.763214 236.028757 424.82555 236.179248 424.936492 236.290191 
C 425.047435 236.401133 425.197926 236.463469 425.354822 236.463469 
z
" clip-path="url(#pc67d7c79e8)" style="fill: #1f78b4; stroke: #1f78b4"/>
    <path d="M 382.634871 236.463469 
C 382.791767 236.463469 382.942259 236.401133 383.053201 236.290191 
C 383.164143 236.179248 383.226479 236.028757 383.226479 235.871861 
C 383.226479 235.714964 383.164143 235.564473 383.053201 235.453531 
C 382.942259 235.342588 382.791767 235.280253 382.634871 235.280253 
C 382.477975 235.280253 382.327483 235.342588 382.216541 235.453531 
C 382.105599 235.564473 382.043263 235.714964 382.043263 235.871861 
C 382.043263 236.028757 382.105599 236.179248 382.216541 236.290191 
C 382.327483 236.401133 382.477975 236.463469 382.634871 236.463469 
z
" clip-path="url(#pc67d7c79e8)" style="fill: #1f78b4; stroke: #1f78b4"/>
    <path d="M 339.91492 236.463469 
C 340.071816 236.463469 340.222307 236.401133 340.33325 236.290191 
C 340.444192 236.179248 340.506527 236.028757 340.506527 235.871861 
C 340.506527 235.714964 340.444192 235.564473 340.33325 235.453531 
C 340.222307 235.342588 340.071816 235.280253 339.91492 235.280253 
C 339.758023 235.280253 339.607532 235.342588 339.496589 235.453531 
C 339.385647 235.564473 339.323312 235.714964 339.323312 235.871861 
C 339.323312 236.028757 339.385647 236.179248 339.496589 236.290191 
C 339.607532 236.401133 339.758023 236.463469 339.91492 236.463469 
z
" clip-path="url(#pc67d7c79e8)" style="fill: #1f78b4; stroke: #1f78b4"/>
    <path d="M 297.191917 236.463469 
C 297.348813 236.463469 297.499305 236.401133 297.610247 236.290191 
C 297.721189 236.179248 297.783525 236.028757 297.783525 235.871861 
C 297.783525 235.714964 297.721189 235.564473 297.610247 235.453531 
C 297.499305 235.342588 297.348813 235.280253 297.191917 235.280253 
C 297.035021 235.280253 296.884529 235.342588 296.773587 235.453531 
C 296.662645 235.564473 296.600309 235.714964 296.600309 235.871861 
C 296.600309 236.028757 296.662645 236.179248 296.773587 236.290191 
C 296.884529 236.401133 297.035021 236.463469 297.191917 236.463469 
z
" clip-path="url(#pc67d7c79e8)" style="fill: #1f78b4; stroke: #1f78b4"/>
    <path d="M 254.471966 236.463469 
C 254.628862 236.463469 254.779353 236.401133 254.890296 236.290191 
C 255.001238 236.179248 255.063574 236.028757 255.063574 235.871861 
C 255.063574 235.714964 255.001238 235.564473 254.890296 235.453531 
C 254.779353 235.342588 254.628862 235.280253 254.471966 235.280253 
C 254.315069 235.280253 254.164578 235.342588 254.053636 235.453531 
C 253.942693 235.564473 253.880358 235.714964 253.880358 235.871861 
C 253.880358 236.028757 253.942693 236.179248 254.053636 236.290191 
C 254.164578 236.401133 254.315069 236.463469 254.471966 236.463469 
z
" clip-path="url(#pc67d7c79e8)" style="fill: #1f78b4; stroke: #1f78b4"/>
    <path d="M 425.354822 193.740466 
C 425.511719 193.740466 425.66221 193.678131 425.773152 193.567188 
C 425.884095 193.456246 425.94643 193.305754 425.94643 193.148858 
C 425.94643 192.991962 425.884095 192.841471 425.773152 192.730528 
C 425.66221 192.619586 425.511719 192.55725 425.354822 192.55725 
C 425.197926 192.55725 425.047435 192.619586 424.936492 192.730528 
C 424.82555 192.841471 424.763214 192.991962 424.763214 193.148858 
C 424.763214 193.305754 424.82555 193.456246 424.936492 193.567188 
C 425.047435 193.678131 425.197926 193.740466 425.354822 193.740466 
z
" clip-path="url(#pc67d7c79e8)" style="fill: #1f78b4; stroke: #1f78b4"/>
    <path d="M 382.634871 193.740466 
C 382.791767 193.740466 382.942259 193.678131 383.053201 193.567188 
C 383.164143 193.456246 383.226479 193.305754 383.226479 193.148858 
C 383.226479 192.991962 383.164143 192.841471 383.053201 192.730528 
C 382.942259 192.619586 382.791767 192.55725 382.634871 192.55725 
C 382.477975 192.55725 382.327483 192.619586 382.216541 192.730528 
C 382.105599 192.841471 382.043263 192.991962 382.043263 193.148858 
C 382.043263 193.305754 382.105599 193.456246 382.216541 193.567188 
C 382.327483 193.678131 382.477975 193.740466 382.634871 193.740466 
z
" clip-path="url(#pc67d7c79e8)" style="fill: #1f78b4; stroke: #1f78b4"/>
    <path d="M 339.91492 193.740466 
C 340.071816 193.740466 340.222307 193.678131 340.33325 193.567188 
C 340.444192 193.456246 340.506527 193.305754 340.506527 193.148858 
C 340.506527 192.991962 340.444192 192.841471 340.33325 192.730528 
C 340.222307 192.619586 340.071816 192.55725 339.91492 192.55725 
C 339.758023 192.55725 339.607532 192.619586 339.496589 192.730528 
C 339.385647 192.841471 339.323312 192.991962 339.323312 193.148858 
C 339.323312 193.305754 339.385647 193.456246 339.496589 193.567188 
C 339.607532 193.678131 339.758023 193.740466 339.91492 193.740466 
z
" clip-path="url(#pc67d7c79e8)" style="fill: #1f78b4; stroke: #1f78b4"/>
    <path d="M 297.191917 193.740466 
C 297.348813 193.740466 297.499305 193.678131 297.610247 193.567188 
C 297.721189 193.456246 297.783525 193.305754 297.783525 193.148858 
C 297.783525 192.991962 297.721189 192.841471 297.610247 192.730528 
C 297.499305 192.619586 297.348813 192.55725 297.191917 192.55725 
C 297.035021 192.55725 296.884529 192.619586 296.773587 192.730528 
C 296.662645 192.841471 296.600309 192.991962 296.600309 193.148858 
C 296.600309 193.305754 296.662645 193.456246 296.773587 193.567188 
C 296.884529 193.678131 297.035021 193.740466 297.191917 193.740466 
z
" clip-path="url(#pc67d7c79e8)" style="fill: #1f78b4; stroke: #1f78b4"/>
    <path d="M 254.471966 193.740466 
C 254.628862 193.740466 254.779353 193.678131 254.890296 193.567188 
C 255.001238 193.456246 255.063574 193.305754 255.063574 193.148858 
C 255.063574 192.991962 255.001238 192.841471 254.890296 192.730528 
C 254.779353 192.619586 254.628862 192.55725 254.471966 192.55725 
C 254.315069 192.55725 254.164578 192.619586 254.053636 192.730528 
C 253.942693 192.841471 253.880358 192.991962 253.880358 193.148858 
C 253.880358 193.305754 253.942693 193.456246 254.053636 193.567188 
C 254.164578 193.678131 254.315069 193.740466 254.471966 193.740466 
z
" clip-path="url(#pc67d7c79e8)" style="fill: #1f78b4; stroke: #1f78b4"/>
   </g>
  </g>
 </g>
 <defs>
  <clipPath id="pc67d7c79e8">
   <rect x="90" y="131.508548" width="558" height="464.182904"/>
  </clipPath>
 </defs>
</svg>
