<?xml version="1.0" encoding="utf-8" standalone="no"?>
<!DOCTYPE svg PUBLIC "-//W3C//DTD SVG 1.1//EN"
  "http://www.w3.org/Graphics/SVG/1.1/DTD/svg11.dtd">
<svg xmlns:xlink="http://www.w3.org/1999/xlink" width="460.8pt" height="345.6pt" viewBox="0 0 460.8 345.6" xmlns="http://www.w3.org/2000/svg" version="1.1">
 <metadata>
  <rdf:RDF xmlns:dc="http://purl.org/dc/elements/1.1/" xmlns:cc="http://creativecommons.org/ns#" xmlns:rdf="http://www.w3.org/1999/02/22-rdf-syntax-ns#">
   <cc:Work>
    <dc:type rdf:resource="http://purl.org/dc/dcmitype/StillImage"/>
    <dc:date>2024-06-27T12:28:12.144468</dc:date>
    <dc:format>image/svg+xml</dc:format>
    <dc:creator>
     <cc:Agent>
      <dc:title>Matplotlib v3.9.0, https://matplotlib.org/</dc:title>
     </cc:Agent>
    </dc:creator>
   </cc:Work>
  </rdf:RDF>
 </metadata>
 <defs>
  <style type="text/css">*{stroke-linejoin: round; stroke-linecap: butt}</style>
 </defs>
 <g id="figure_1">
  <g id="patch_1">
   <path d="M 0 345.6 
L 460.8 345.6 
L 460.8 0 
L 0 0 
L 0 345.6 
z
" style="fill: none"/>
  </g>
  <g id="axes_1">
   <g id="LineCollection_1">
    <path d="M 410.657851 238.116164 
L 370.036364 244.758485 
" clip-path="url(#pe799b5b243)" style="fill: none; stroke: #000000; stroke-width: 2.25"/>
    <path d="M 410.657851 238.116164 
L 413.196694 207.118662 
" clip-path="url(#pe799b5b243)" style="fill: none; stroke: #0000ff; stroke-width: 2.25"/>
    <path d="M 410.657851 238.116164 
L 375.11405 286.826523 
" clip-path="url(#pe799b5b243)" style="fill: none; stroke: #0000ff; stroke-width: 2.25"/>
    <path d="M 370.036364 244.758485 
L 364.958678 233.687949 
" clip-path="url(#pe799b5b243)" style="fill: none; stroke: #000000; stroke-width: 2.25"/>
    <path d="M 370.036364 244.758485 
L 370.036364 255.829022 
" clip-path="url(#pe799b5b243)" style="fill: none; stroke: #000000; stroke-width: 2.25"/>
    <path d="M 364.958678 233.687949 
L 349.72562 207.118662 
" clip-path="url(#pe799b5b243)" style="fill: none; stroke: #000000; stroke-width: 2.25"/>
    <path d="M 364.958678 233.687949 
L 304.026446 227.045628 
" clip-path="url(#pe799b5b243)" style="fill: none; stroke: #000000; stroke-width: 2.25"/>
    <path d="M 370.036364 255.829022 
L 375.11405 286.826523 
" clip-path="url(#pe799b5b243)" style="fill: none; stroke: #008000"/>
    <path d="M 370.036364 255.829022 
L 309.104132 253.614914 
" clip-path="url(#pe799b5b243)" style="fill: none; stroke: #008000"/>
    <path d="M 413.196694 207.118662 
L 349.72562 207.118662 
" clip-path="url(#pe799b5b243)" style="fill: none; stroke: #008000"/>
    <path d="M 413.196694 207.118662 
L 415.735537 176.121161 
" clip-path="url(#pe799b5b243)" style="fill: none; stroke: #0000ff; stroke-width: 2.25"/>
    <path d="M 375.11405 286.826523 
L 321.798347 293.468845 
" clip-path="url(#pe799b5b243)" style="fill: none; stroke: #0000ff; stroke-width: 2.25"/>
    <path d="M 321.798347 293.468845 
L 286.254545 304.539381 
" clip-path="url(#pe799b5b243)" style="fill: none; stroke: #0000ff; stroke-width: 2.25"/>
    <path d="M 321.798347 293.468845 
L 309.104132 253.614914 
" clip-path="url(#pe799b5b243)" style="fill: none; stroke: #000000; stroke-width: 2.25"/>
    <path d="M 349.72562 207.118662 
L 347.186777 178.335268 
" clip-path="url(#pe799b5b243)" style="fill: none; stroke: #000000; stroke-width: 2.25"/>
    <path d="M 349.72562 207.118662 
L 288.793388 204.904555 
" clip-path="url(#pe799b5b243)" style="fill: none; stroke: #008000"/>
    <path d="M 415.735537 176.121161 
L 420.813223 140.695445 
" clip-path="url(#pe799b5b243)" style="fill: none; stroke: #0000ff; stroke-width: 2.25"/>
    <path d="M 415.735537 176.121161 
L 382.730579 176.121161 
" clip-path="url(#pe799b5b243)" style="fill: none; stroke: #000000; stroke-width: 2.25"/>
    <path d="M 347.186777 178.335268 
L 382.730579 176.121161 
" clip-path="url(#pe799b5b243)" style="fill: none; stroke: #000000; stroke-width: 2.25"/>
    <path d="M 347.186777 178.335268 
L 260.866116 173.907054 
" clip-path="url(#pe799b5b243)" style="fill: none; stroke: #0000ff; stroke-width: 2.25"/>
    <path d="M 347.186777 178.335268 
L 342.109091 134.053123 
" clip-path="url(#pe799b5b243)" style="fill: none; stroke: #000000; stroke-width: 2.25"/>
    <path d="M 288.793388 204.904555 
L 296.409917 218.189199 
" clip-path="url(#pe799b5b243)" style="fill: none; stroke: #0000ff; stroke-width: 2.25"/>
    <path d="M 288.793388 204.904555 
L 260.866116 173.907054 
" clip-path="url(#pe799b5b243)" style="fill: none; stroke: #0000ff; stroke-width: 2.25"/>
    <path d="M 420.813223 140.695445 
L 370.036364 136.26723 
" clip-path="url(#pe799b5b243)" style="fill: none; stroke: #008000"/>
    <path d="M 420.813223 140.695445 
L 392.88595 56.55937 
" clip-path="url(#pe799b5b243)" style="fill: none; stroke: #0000ff; stroke-width: 2.25"/>
    <path d="M 382.730579 176.121161 
L 370.036364 136.26723 
" clip-path="url(#pe799b5b243)" style="fill: none; stroke: #008000"/>
    <path d="M 260.866116 173.907054 
L 235.477686 149.551874 
" clip-path="url(#pe799b5b243)" style="fill: none; stroke: #0000ff; stroke-width: 2.25"/>
    <path d="M 260.866116 173.907054 
L 227.861157 204.904555 
" clip-path="url(#pe799b5b243)" style="fill: none; stroke: #0000ff; stroke-width: 2.25"/>
    <path d="M 342.109091 134.053123 
L 370.036364 136.26723 
" clip-path="url(#pe799b5b243)" style="fill: none; stroke: #008000"/>
    <path d="M 342.109091 134.053123 
L 331.953719 91.985086 
" clip-path="url(#pe799b5b243)" style="fill: none; stroke: #008000"/>
    <path d="M 342.109091 134.053123 
L 245.633058 129.624909 
" clip-path="url(#pe799b5b243)" style="fill: none; stroke: #008000"/>
    <path d="M 392.88595 56.55937 
L 370.036364 136.26723 
" clip-path="url(#pe799b5b243)" style="fill: none; stroke: #008000"/>
    <path d="M 392.88595 56.55937 
L 370.036364 47.702941 
" clip-path="url(#pe799b5b243)" style="fill: none; stroke: #0000ff; stroke-width: 2.25"/>
    <path d="M 370.036364 47.702941 
L 339.570248 34.418297 
" clip-path="url(#pe799b5b243)" style="fill: none; stroke: #0000ff; stroke-width: 2.25"/>
    <path d="M 370.036364 47.702941 
L 331.953719 91.985086 
" clip-path="url(#pe799b5b243)" style="fill: none; stroke: #008000"/>
    <path d="M 339.570248 34.418297 
L 331.953719 91.985086 
" clip-path="url(#pe799b5b243)" style="fill: none; stroke: #008000"/>
    <path d="M 339.570248 34.418297 
L 311.642975 29.990083 
" clip-path="url(#pe799b5b243)" style="fill: none; stroke: #0000ff; stroke-width: 2.25"/>
    <path d="M 331.953719 91.985086 
L 301.487603 85.342764 
" clip-path="url(#pe799b5b243)" style="fill: none; stroke: #008000"/>
    <path d="M 301.487603 85.342764 
L 311.642975 29.990083 
" clip-path="url(#pe799b5b243)" style="fill: none; stroke: #008000"/>
    <path d="M 301.487603 85.342764 
L 263.404959 80.914549 
" clip-path="url(#pe799b5b243)" style="fill: none; stroke: #008000"/>
    <path d="M 311.642975 29.990083 
L 263.404959 80.914549 
" clip-path="url(#pe799b5b243)" style="fill: none; stroke: #0000ff; stroke-width: 2.25"/>
    <path d="M 245.633058 129.624909 
L 235.477686 149.551874 
" clip-path="url(#pe799b5b243)" style="fill: none; stroke: #0000ff; stroke-width: 2.25"/>
    <path d="M 245.633058 129.624909 
L 245.633058 114.126158 
" clip-path="url(#pe799b5b243)" style="fill: none; stroke: #0000ff; stroke-width: 2.25"/>
    <path d="M 235.477686 149.551874 
L 212.628099 147.337767 
" clip-path="url(#pe799b5b243)" style="fill: none; stroke: #000000; stroke-width: 2.25"/>
    <path d="M 212.628099 147.337767 
L 151.695868 145.123659 
" clip-path="url(#pe799b5b243)" style="fill: none; stroke: #008000"/>
    <path d="M 212.628099 147.337767 
L 227.861157 204.904555 
" clip-path="url(#pe799b5b243)" style="fill: none; stroke: #008000"/>
    <path d="M 245.633058 114.126158 
L 141.540496 107.483836 
" clip-path="url(#pe799b5b243)" style="fill: none; stroke: #0000ff; stroke-width: 2.25"/>
    <path d="M 245.633058 114.126158 
L 263.404959 80.914549 
" clip-path="url(#pe799b5b243)" style="fill: none; stroke: #0000ff; stroke-width: 2.25"/>
    <path d="M 286.254545 304.539381 
L 271.021488 253.614914 
" clip-path="url(#pe799b5b243)" style="fill: none; stroke: #008000"/>
    <path d="M 286.254545 304.539381 
L 245.633058 311.181703 
" clip-path="url(#pe799b5b243)" style="fill: none; stroke: #0000ff; stroke-width: 2.25"/>
    <path d="M 271.021488 253.614914 
L 232.938843 255.829022 
" clip-path="url(#pe799b5b243)" style="fill: none; stroke: #008000"/>
    <path d="M 271.021488 253.614914 
L 309.104132 253.614914 
" clip-path="url(#pe799b5b243)" style="fill: none; stroke: #008000"/>
    <path d="M 245.633058 311.181703 
L 240.555372 282.398309 
" clip-path="url(#pe799b5b243)" style="fill: none; stroke: #000000; stroke-width: 2.25"/>
    <path d="M 245.633058 311.181703 
L 154.234711 308.967596 
" clip-path="url(#pe799b5b243)" style="fill: none; stroke: #0000ff; stroke-width: 2.25"/>
    <path d="M 240.555372 282.398309 
L 232.938843 255.829022 
" clip-path="url(#pe799b5b243)" style="fill: none; stroke: #000000; stroke-width: 2.25"/>
    <path d="M 240.555372 282.398309 
L 210.089256 284.612416 
" clip-path="url(#pe799b5b243)" style="fill: none; stroke: #008000"/>
    <path d="M 154.234711 308.967596 
L 121.229752 306.753488 
" clip-path="url(#pe799b5b243)" style="fill: none; stroke: #0000ff; stroke-width: 2.25"/>
    <path d="M 154.234711 308.967596 
L 164.390083 289.04063 
" clip-path="url(#pe799b5b243)" style="fill: none; stroke: #008000"/>
    <path d="M 232.938843 255.829022 
L 222.783471 227.045628 
" clip-path="url(#pe799b5b243)" style="fill: none; stroke: #000000; stroke-width: 2.25"/>
    <path d="M 222.783471 227.045628 
L 296.409917 218.189199 
" clip-path="url(#pe799b5b243)" style="fill: none; stroke: #000000; stroke-width: 2.25"/>
    <path d="M 222.783471 227.045628 
L 207.550413 229.259735 
" clip-path="url(#pe799b5b243)" style="fill: none; stroke: #0000ff; stroke-width: 2.25"/>
    <path d="M 222.783471 227.045628 
L 212.628099 204.904555 
" clip-path="url(#pe799b5b243)" style="fill: none; stroke: #0000ff; stroke-width: 2.25"/>
    <path d="M 309.104132 253.614914 
L 304.026446 227.045628 
" clip-path="url(#pe799b5b243)" style="fill: none; stroke: #000000; stroke-width: 2.25"/>
    <path d="M 141.540496 107.483836 
L 151.695868 145.123659 
" clip-path="url(#pe799b5b243)" style="fill: none; stroke: #008000"/>
    <path d="M 141.540496 107.483836 
L 45.064463 238.116164 
" clip-path="url(#pe799b5b243)" style="fill: none; stroke: #0000ff; stroke-width: 2.25"/>
    <path d="M 151.695868 145.123659 
L 184.700826 209.33277 
" clip-path="url(#pe799b5b243)" style="fill: none; stroke: #008000"/>
    <path d="M 45.064463 238.116164 
L 85.68595 229.259735 
" clip-path="url(#pe799b5b243)" style="fill: none; stroke: #008000"/>
    <path d="M 45.064463 238.116164 
L 39.986777 284.612416 
" clip-path="url(#pe799b5b243)" style="fill: none; stroke: #0000ff; stroke-width: 2.25"/>
    <path d="M 154.234711 215.975091 
L 184.700826 209.33277 
" clip-path="url(#pe799b5b243)" style="fill: none; stroke: #000000; stroke-width: 2.25"/>
    <path d="M 154.234711 215.975091 
L 123.768595 220.403306 
" clip-path="url(#pe799b5b243)" style="fill: none; stroke: #008000"/>
    <path d="M 154.234711 215.975091 
L 159.312397 251.400807 
" clip-path="url(#pe799b5b243)" style="fill: none; stroke: #000000; stroke-width: 2.25"/>
    <path d="M 184.700826 209.33277 
L 212.628099 204.904555 
" clip-path="url(#pe799b5b243)" style="fill: none; stroke: #000000; stroke-width: 2.25"/>
    <path d="M 212.628099 204.904555 
L 227.861157 204.904555 
" clip-path="url(#pe799b5b243)" style="fill: none; stroke: #0000ff; stroke-width: 2.25"/>
    <path d="M 85.68595 229.259735 
L 123.768595 220.403306 
" clip-path="url(#pe799b5b243)" style="fill: none; stroke: #008000"/>
    <path d="M 85.68595 229.259735 
L 85.68595 282.398309 
" clip-path="url(#pe799b5b243)" style="fill: none; stroke: #008000"/>
    <path d="M 39.986777 284.612416 
L 85.68595 315.609917 
" clip-path="url(#pe799b5b243)" style="fill: none; stroke: #0000ff; stroke-width: 2.25"/>
    <path d="M 39.986777 284.612416 
L 85.68595 282.398309 
" clip-path="url(#pe799b5b243)" style="fill: none; stroke: #008000"/>
    <path d="M 123.768595 220.403306 
L 121.229752 306.753488 
" clip-path="url(#pe799b5b243)" style="fill: none; stroke: #008000"/>
    <path d="M 121.229752 306.753488 
L 85.68595 315.609917 
" clip-path="url(#pe799b5b243)" style="fill: none; stroke: #0000ff; stroke-width: 2.25"/>
    <path d="M 85.68595 315.609917 
L 85.68595 282.398309 
" clip-path="url(#pe799b5b243)" style="fill: none; stroke: #008000"/>
    <path d="M 159.312397 251.400807 
L 164.390083 289.04063 
" clip-path="url(#pe799b5b243)" style="fill: none; stroke: #008000"/>
    <path d="M 159.312397 251.400807 
L 207.550413 229.259735 
" clip-path="url(#pe799b5b243)" style="fill: none; stroke: #000000; stroke-width: 2.25"/>
    <path d="M 164.390083 289.04063 
L 210.089256 284.612416 
" clip-path="url(#pe799b5b243)" style="fill: none; stroke: #008000"/>
    <path d="M 207.550413 229.259735 
L 210.089256 284.612416 
" clip-path="url(#pe799b5b243)" style="fill: none; stroke: #008000"/>
    <path d="M 304.026446 227.045628 
L 296.409917 218.189199 
" clip-path="url(#pe799b5b243)" style="fill: none; stroke: #0000ff; stroke-width: 2.25"/>
   </g>
   <g id="PathCollection_1">
    <path d="M 410.657851 238.707772 
C 410.814748 238.707772 410.965239 238.645436 411.076181 238.534494 
C 411.187124 238.423551 411.249459 238.27306 411.249459 238.116164 
C 411.249459 237.959267 411.187124 237.808776 411.076181 237.697834 
C 410.965239 237.586891 410.814748 237.524556 410.657851 237.524556 
C 410.500955 237.524556 410.350464 237.586891 410.239521 237.697834 
C 410.128579 237.808776 410.066243 237.959267 410.066243 238.116164 
C 410.066243 238.27306 410.128579 238.423551 410.239521 238.534494 
C 410.350464 238.645436 410.500955 238.707772 410.657851 238.707772 
z
" clip-path="url(#pe799b5b243)" style="fill: #1f78b4; stroke: #1f78b4"/>
    <path d="M 370.036364 245.350093 
C 370.19326 245.350093 370.343751 245.287758 370.454694 245.176816 
C 370.565636 245.065873 370.627972 244.915382 370.627972 244.758485 
C 370.627972 244.601589 370.565636 244.451098 370.454694 244.340155 
C 370.343751 244.229213 370.19326 244.166878 370.036364 244.166878 
C 369.879467 244.166878 369.728976 244.229213 369.618034 244.340155 
C 369.507091 244.451098 369.444756 244.601589 369.444756 244.758485 
C 369.444756 244.915382 369.507091 245.065873 369.618034 245.176816 
C 369.728976 245.287758 369.879467 245.350093 370.036364 245.350093 
z
" clip-path="url(#pe799b5b243)" style="fill: #1f78b4; stroke: #1f78b4"/>
    <path d="M 364.958678 234.279557 
C 365.115574 234.279557 365.266065 234.217222 365.377008 234.106279 
C 365.48795 233.995337 365.550286 233.844846 365.550286 233.687949 
C 365.550286 233.531053 365.48795 233.380562 365.377008 233.269619 
C 365.266065 233.158677 365.115574 233.096341 364.958678 233.096341 
C 364.801781 233.096341 364.65129 233.158677 364.540348 233.269619 
C 364.429405 233.380562 364.36707 233.531053 364.36707 233.687949 
C 364.36707 233.844846 364.429405 233.995337 364.540348 234.106279 
C 364.65129 234.217222 364.801781 234.279557 364.958678 234.279557 
z
" clip-path="url(#pe799b5b243)" style="fill: #1f78b4; stroke: #1f78b4"/>
    <path d="M 370.036364 256.42063 
C 370.19326 256.42063 370.343751 256.358294 370.454694 256.247352 
C 370.565636 256.136409 370.627972 255.985918 370.627972 255.829022 
C 370.627972 255.672125 370.565636 255.521634 370.454694 255.410692 
C 370.343751 255.299749 370.19326 255.237414 370.036364 255.237414 
C 369.879467 255.237414 369.728976 255.299749 369.618034 255.410692 
C 369.507091 255.521634 369.444756 255.672125 369.444756 255.829022 
C 369.444756 255.985918 369.507091 256.136409 369.618034 256.247352 
C 369.728976 256.358294 369.879467 256.42063 370.036364 256.42063 
z
" clip-path="url(#pe799b5b243)" style="fill: #1f78b4; stroke: #1f78b4"/>
    <path d="M 413.196694 207.71027 
C 413.35359 207.71027 413.504082 207.647935 413.615024 207.536992 
C 413.725967 207.42605 413.788302 207.275559 413.788302 207.118662 
C 413.788302 206.961766 413.725967 206.811275 413.615024 206.700332 
C 413.504082 206.58939 413.35359 206.527054 413.196694 206.527054 
C 413.039798 206.527054 412.889307 206.58939 412.778364 206.700332 
C 412.667422 206.811275 412.605086 206.961766 412.605086 207.118662 
C 412.605086 207.275559 412.667422 207.42605 412.778364 207.536992 
C 412.889307 207.647935 413.039798 207.71027 413.196694 207.71027 
z
" clip-path="url(#pe799b5b243)" style="fill: #1f78b4; stroke: #1f78b4"/>
    <path d="M 375.11405 287.418131 
C 375.270946 287.418131 375.421437 287.355796 375.53238 287.244853 
C 375.643322 287.133911 375.705658 286.983419 375.705658 286.826523 
C 375.705658 286.669627 375.643322 286.519136 375.53238 286.408193 
C 375.421437 286.297251 375.270946 286.234915 375.11405 286.234915 
C 374.957153 286.234915 374.806662 286.297251 374.69572 286.408193 
C 374.584777 286.519136 374.522442 286.669627 374.522442 286.826523 
C 374.522442 286.983419 374.584777 287.133911 374.69572 287.244853 
C 374.806662 287.355796 374.957153 287.418131 375.11405 287.418131 
z
" clip-path="url(#pe799b5b243)" style="fill: #1f78b4; stroke: #1f78b4"/>
    <path d="M 321.798347 294.060453 
C 321.955243 294.060453 322.105735 293.998117 322.216677 293.887175 
C 322.32762 293.776232 322.389955 293.625741 322.389955 293.468845 
C 322.389955 293.311949 322.32762 293.161457 322.216677 293.050515 
C 322.105735 292.939572 321.955243 292.877237 321.798347 292.877237 
C 321.641451 292.877237 321.49096 292.939572 321.380017 293.050515 
C 321.269075 293.161457 321.206739 293.311949 321.206739 293.468845 
C 321.206739 293.625741 321.269075 293.776232 321.380017 293.887175 
C 321.49096 293.998117 321.641451 294.060453 321.798347 294.060453 
z
" clip-path="url(#pe799b5b243)" style="fill: #1f78b4; stroke: #1f78b4"/>
    <path d="M 349.72562 207.71027 
C 349.882516 207.71027 350.033007 207.647935 350.14395 207.536992 
C 350.254892 207.42605 350.317228 207.275559 350.317228 207.118662 
C 350.317228 206.961766 350.254892 206.811275 350.14395 206.700332 
C 350.033007 206.58939 349.882516 206.527054 349.72562 206.527054 
C 349.568724 206.527054 349.418232 206.58939 349.30729 206.700332 
C 349.196347 206.811275 349.134012 206.961766 349.134012 207.118662 
C 349.134012 207.275559 349.196347 207.42605 349.30729 207.536992 
C 349.418232 207.647935 349.568724 207.71027 349.72562 207.71027 
z
" clip-path="url(#pe799b5b243)" style="fill: #1f78b4; stroke: #1f78b4"/>
    <path d="M 415.735537 176.712769 
C 415.892433 176.712769 416.042925 176.650433 416.153867 176.539491 
C 416.26481 176.428548 416.327145 176.278057 416.327145 176.121161 
C 416.327145 175.964265 416.26481 175.813773 416.153867 175.702831 
C 416.042925 175.591888 415.892433 175.529553 415.735537 175.529553 
C 415.578641 175.529553 415.42815 175.591888 415.317207 175.702831 
C 415.206265 175.813773 415.143929 175.964265 415.143929 176.121161 
C 415.143929 176.278057 415.206265 176.428548 415.317207 176.539491 
C 415.42815 176.650433 415.578641 176.712769 415.735537 176.712769 
z
" clip-path="url(#pe799b5b243)" style="fill: #1f78b4; stroke: #1f78b4"/>
    <path d="M 347.186777 178.926876 
C 347.343673 178.926876 347.494164 178.864541 347.605107 178.753598 
C 347.716049 178.642656 347.778385 178.492164 347.778385 178.335268 
C 347.778385 178.178372 347.716049 178.027881 347.605107 177.916938 
C 347.494164 177.805996 347.343673 177.74366 347.186777 177.74366 
C 347.029881 177.74366 346.879389 177.805996 346.768447 177.916938 
C 346.657504 178.027881 346.595169 178.178372 346.595169 178.335268 
C 346.595169 178.492164 346.657504 178.642656 346.768447 178.753598 
C 346.879389 178.864541 347.029881 178.926876 347.186777 178.926876 
z
" clip-path="url(#pe799b5b243)" style="fill: #1f78b4; stroke: #1f78b4"/>
    <path d="M 288.793388 205.496163 
C 288.950285 205.496163 289.100776 205.433827 289.211718 205.322885 
C 289.322661 205.211943 289.384996 205.061451 289.384996 204.904555 
C 289.384996 204.747659 289.322661 204.597167 289.211718 204.486225 
C 289.100776 204.375283 288.950285 204.312947 288.793388 204.312947 
C 288.636492 204.312947 288.486001 204.375283 288.375058 204.486225 
C 288.264116 204.597167 288.20178 204.747659 288.20178 204.904555 
C 288.20178 205.061451 288.264116 205.211943 288.375058 205.322885 
C 288.486001 205.433827 288.636492 205.496163 288.793388 205.496163 
z
" clip-path="url(#pe799b5b243)" style="fill: #1f78b4; stroke: #1f78b4"/>
    <path d="M 420.813223 141.287053 
C 420.970119 141.287053 421.120611 141.224717 421.231553 141.113775 
C 421.342496 141.002833 421.404831 140.852341 421.404831 140.695445 
C 421.404831 140.538549 421.342496 140.388057 421.231553 140.277115 
C 421.120611 140.166173 420.970119 140.103837 420.813223 140.103837 
C 420.656327 140.103837 420.505836 140.166173 420.394893 140.277115 
C 420.283951 140.388057 420.221615 140.538549 420.221615 140.695445 
C 420.221615 140.852341 420.283951 141.002833 420.394893 141.113775 
C 420.505836 141.224717 420.656327 141.287053 420.813223 141.287053 
z
" clip-path="url(#pe799b5b243)" style="fill: #1f78b4; stroke: #1f78b4"/>
    <path d="M 382.730579 176.712769 
C 382.887475 176.712769 383.037966 176.650433 383.148909 176.539491 
C 383.259851 176.428548 383.322186 176.278057 383.322186 176.121161 
C 383.322186 175.964265 383.259851 175.813773 383.148909 175.702831 
C 383.037966 175.591888 382.887475 175.529553 382.730579 175.529553 
C 382.573682 175.529553 382.423191 175.591888 382.312248 175.702831 
C 382.201306 175.813773 382.138971 175.964265 382.138971 176.121161 
C 382.138971 176.278057 382.201306 176.428548 382.312248 176.539491 
C 382.423191 176.650433 382.573682 176.712769 382.730579 176.712769 
z
" clip-path="url(#pe799b5b243)" style="fill: #1f78b4; stroke: #1f78b4"/>
    <path d="M 260.866116 174.498662 
C 261.023012 174.498662 261.173503 174.436326 261.284446 174.325384 
C 261.395388 174.214441 261.457724 174.06395 261.457724 173.907054 
C 261.457724 173.750157 261.395388 173.599666 261.284446 173.488724 
C 261.173503 173.377781 261.023012 173.315446 260.866116 173.315446 
C 260.709219 173.315446 260.558728 173.377781 260.447786 173.488724 
C 260.336843 173.599666 260.274508 173.750157 260.274508 173.907054 
C 260.274508 174.06395 260.336843 174.214441 260.447786 174.325384 
C 260.558728 174.436326 260.709219 174.498662 260.866116 174.498662 
z
" clip-path="url(#pe799b5b243)" style="fill: #1f78b4; stroke: #1f78b4"/>
    <path d="M 342.109091 134.644731 
C 342.265987 134.644731 342.416479 134.582396 342.527421 134.471453 
C 342.638363 134.360511 342.700699 134.210019 342.700699 134.053123 
C 342.700699 133.896227 342.638363 133.745736 342.527421 133.634793 
C 342.416479 133.523851 342.265987 133.461515 342.109091 133.461515 
C 341.952195 133.461515 341.801703 133.523851 341.690761 133.634793 
C 341.579818 133.745736 341.517483 133.896227 341.517483 134.053123 
C 341.517483 134.210019 341.579818 134.360511 341.690761 134.471453 
C 341.801703 134.582396 341.952195 134.644731 342.109091 134.644731 
z
" clip-path="url(#pe799b5b243)" style="fill: #1f78b4; stroke: #1f78b4"/>
    <path d="M 392.88595 57.150978 
C 393.042847 57.150978 393.193338 57.088642 393.30428 56.9777 
C 393.415223 56.866757 393.477558 56.716266 393.477558 56.55937 
C 393.477558 56.402473 393.415223 56.251982 393.30428 56.14104 
C 393.193338 56.030097 393.042847 55.967762 392.88595 55.967762 
C 392.729054 55.967762 392.578563 56.030097 392.46762 56.14104 
C 392.356678 56.251982 392.294342 56.402473 392.294342 56.55937 
C 392.294342 56.716266 392.356678 56.866757 392.46762 56.9777 
C 392.578563 57.088642 392.729054 57.150978 392.88595 57.150978 
z
" clip-path="url(#pe799b5b243)" style="fill: #1f78b4; stroke: #1f78b4"/>
    <path d="M 370.036364 136.858838 
C 370.19326 136.858838 370.343751 136.796503 370.454694 136.68556 
C 370.565636 136.574618 370.627972 136.424127 370.627972 136.26723 
C 370.627972 136.110334 370.565636 135.959843 370.454694 135.8489 
C 370.343751 135.737958 370.19326 135.675622 370.036364 135.675622 
C 369.879467 135.675622 369.728976 135.737958 369.618034 135.8489 
C 369.507091 135.959843 369.444756 136.110334 369.444756 136.26723 
C 369.444756 136.424127 369.507091 136.574618 369.618034 136.68556 
C 369.728976 136.796503 369.879467 136.858838 370.036364 136.858838 
z
" clip-path="url(#pe799b5b243)" style="fill: #1f78b4; stroke: #1f78b4"/>
    <path d="M 370.036364 48.294549 
C 370.19326 48.294549 370.343751 48.232213 370.454694 48.121271 
C 370.565636 48.010328 370.627972 47.859837 370.627972 47.702941 
C 370.627972 47.546044 370.565636 47.395553 370.454694 47.284611 
C 370.343751 47.173668 370.19326 47.111333 370.036364 47.111333 
C 369.879467 47.111333 369.728976 47.173668 369.618034 47.284611 
C 369.507091 47.395553 369.444756 47.546044 369.444756 47.702941 
C 369.444756 47.859837 369.507091 48.010328 369.618034 48.121271 
C 369.728976 48.232213 369.879467 48.294549 370.036364 48.294549 
z
" clip-path="url(#pe799b5b243)" style="fill: #1f78b4; stroke: #1f78b4"/>
    <path d="M 339.570248 35.009905 
C 339.727144 35.009905 339.877636 34.94757 339.988578 34.836627 
C 340.09952 34.725685 340.161856 34.575193 340.161856 34.418297 
C 340.161856 34.261401 340.09952 34.11091 339.988578 33.999967 
C 339.877636 33.889025 339.727144 33.826689 339.570248 33.826689 
C 339.413352 33.826689 339.26286 33.889025 339.151918 33.999967 
C 339.040976 34.11091 338.97864 34.261401 338.97864 34.418297 
C 338.97864 34.575193 339.040976 34.725685 339.151918 34.836627 
C 339.26286 34.94757 339.413352 35.009905 339.570248 35.009905 
z
" clip-path="url(#pe799b5b243)" style="fill: #1f78b4; stroke: #1f78b4"/>
    <path d="M 331.953719 92.576694 
C 332.110615 92.576694 332.261107 92.514358 332.372049 92.403416 
C 332.482991 92.292473 332.545327 92.141982 332.545327 91.985086 
C 332.545327 91.828189 332.482991 91.677698 332.372049 91.566756 
C 332.261107 91.455813 332.110615 91.393478 331.953719 91.393478 
C 331.796823 91.393478 331.646331 91.455813 331.535389 91.566756 
C 331.424447 91.677698 331.362111 91.828189 331.362111 91.985086 
C 331.362111 92.141982 331.424447 92.292473 331.535389 92.403416 
C 331.646331 92.514358 331.796823 92.576694 331.953719 92.576694 
z
" clip-path="url(#pe799b5b243)" style="fill: #1f78b4; stroke: #1f78b4"/>
    <path d="M 301.487603 85.934372 
C 301.6445 85.934372 301.794991 85.872036 301.905933 85.761094 
C 302.016876 85.650151 302.079211 85.49966 302.079211 85.342764 
C 302.079211 85.185868 302.016876 85.035376 301.905933 84.924434 
C 301.794991 84.813491 301.6445 84.751156 301.487603 84.751156 
C 301.330707 84.751156 301.180216 84.813491 301.069273 84.924434 
C 300.958331 85.035376 300.895995 85.185868 300.895995 85.342764 
C 300.895995 85.49966 300.958331 85.650151 301.069273 85.761094 
C 301.180216 85.872036 301.330707 85.934372 301.487603 85.934372 
z
" clip-path="url(#pe799b5b243)" style="fill: #1f78b4; stroke: #1f78b4"/>
    <path d="M 311.642975 30.581691 
C 311.799871 30.581691 311.950363 30.519355 312.061305 30.408413 
C 312.172248 30.29747 312.234583 30.146979 312.234583 29.990083 
C 312.234583 29.833186 312.172248 29.682695 312.061305 29.571753 
C 311.950363 29.46081 311.799871 29.398475 311.642975 29.398475 
C 311.486079 29.398475 311.335588 29.46081 311.224645 29.571753 
C 311.113703 29.682695 311.051367 29.833186 311.051367 29.990083 
C 311.051367 30.146979 311.113703 30.29747 311.224645 30.408413 
C 311.335588 30.519355 311.486079 30.581691 311.642975 30.581691 
z
" clip-path="url(#pe799b5b243)" style="fill: #1f78b4; stroke: #1f78b4"/>
    <path d="M 245.633058 130.216517 
C 245.789954 130.216517 245.940445 130.154181 246.051388 130.043239 
C 246.16233 129.932296 246.224666 129.781805 246.224666 129.624909 
C 246.224666 129.468012 246.16233 129.317521 246.051388 129.206579 
C 245.940445 129.095636 245.789954 129.033301 245.633058 129.033301 
C 245.476162 129.033301 245.32567 129.095636 245.214728 129.206579 
C 245.103785 129.317521 245.04145 129.468012 245.04145 129.624909 
C 245.04145 129.781805 245.103785 129.932296 245.214728 130.043239 
C 245.32567 130.154181 245.476162 130.216517 245.633058 130.216517 
z
" clip-path="url(#pe799b5b243)" style="fill: #1f78b4; stroke: #1f78b4"/>
    <path d="M 235.477686 150.143482 
C 235.634582 150.143482 235.785074 150.081146 235.896016 149.970204 
C 236.006958 149.859262 236.069294 149.70877 236.069294 149.551874 
C 236.069294 149.394978 236.006958 149.244486 235.896016 149.133544 
C 235.785074 149.022601 235.634582 148.960266 235.477686 148.960266 
C 235.32079 148.960266 235.170298 149.022601 235.059356 149.133544 
C 234.948414 149.244486 234.886078 149.394978 234.886078 149.551874 
C 234.886078 149.70877 234.948414 149.859262 235.059356 149.970204 
C 235.170298 150.081146 235.32079 150.143482 235.477686 150.143482 
z
" clip-path="url(#pe799b5b243)" style="fill: #1f78b4; stroke: #1f78b4"/>
    <path d="M 212.628099 147.929375 
C 212.784995 147.929375 212.935487 147.867039 213.046429 147.756097 
C 213.157372 147.645154 213.219707 147.494663 213.219707 147.337767 
C 213.219707 147.18087 213.157372 147.030379 213.046429 146.919437 
C 212.935487 146.808494 212.784995 146.746159 212.628099 146.746159 
C 212.471203 146.746159 212.320712 146.808494 212.209769 146.919437 
C 212.098827 147.030379 212.036491 147.18087 212.036491 147.337767 
C 212.036491 147.494663 212.098827 147.645154 212.209769 147.756097 
C 212.320712 147.867039 212.471203 147.929375 212.628099 147.929375 
z
" clip-path="url(#pe799b5b243)" style="fill: #1f78b4; stroke: #1f78b4"/>
    <path d="M 245.633058 114.717766 
C 245.789954 114.717766 245.940445 114.65543 246.051388 114.544488 
C 246.16233 114.433546 246.224666 114.283054 246.224666 114.126158 
C 246.224666 113.969262 246.16233 113.81877 246.051388 113.707828 
C 245.940445 113.596886 245.789954 113.53455 245.633058 113.53455 
C 245.476162 113.53455 245.32567 113.596886 245.214728 113.707828 
C 245.103785 113.81877 245.04145 113.969262 245.04145 114.126158 
C 245.04145 114.283054 245.103785 114.433546 245.214728 114.544488 
C 245.32567 114.65543 245.476162 114.717766 245.633058 114.717766 
z
" clip-path="url(#pe799b5b243)" style="fill: #1f78b4; stroke: #1f78b4"/>
    <path d="M 286.254545 305.130989 
C 286.411442 305.130989 286.561933 305.068654 286.672875 304.957711 
C 286.783818 304.846769 286.846153 304.696277 286.846153 304.539381 
C 286.846153 304.382485 286.783818 304.231994 286.672875 304.121051 
C 286.561933 304.010109 286.411442 303.947773 286.254545 303.947773 
C 286.097649 303.947773 285.947158 304.010109 285.836215 304.121051 
C 285.725273 304.231994 285.662937 304.382485 285.662937 304.539381 
C 285.662937 304.696277 285.725273 304.846769 285.836215 304.957711 
C 285.947158 305.068654 286.097649 305.130989 286.254545 305.130989 
z
" clip-path="url(#pe799b5b243)" style="fill: #1f78b4; stroke: #1f78b4"/>
    <path d="M 271.021488 254.206522 
C 271.178384 254.206522 271.328875 254.144187 271.439818 254.033244 
C 271.55076 253.922302 271.613096 253.771811 271.613096 253.614914 
C 271.613096 253.458018 271.55076 253.307527 271.439818 253.196584 
C 271.328875 253.085642 271.178384 253.023306 271.021488 253.023306 
C 270.864591 253.023306 270.7141 253.085642 270.603158 253.196584 
C 270.492215 253.307527 270.42988 253.458018 270.42988 253.614914 
C 270.42988 253.771811 270.492215 253.922302 270.603158 254.033244 
C 270.7141 254.144187 270.864591 254.206522 271.021488 254.206522 
z
" clip-path="url(#pe799b5b243)" style="fill: #1f78b4; stroke: #1f78b4"/>
    <path d="M 245.633058 311.773311 
C 245.789954 311.773311 245.940445 311.710975 246.051388 311.600033 
C 246.16233 311.48909 246.224666 311.338599 246.224666 311.181703 
C 246.224666 311.024807 246.16233 310.874315 246.051388 310.763373 
C 245.940445 310.65243 245.789954 310.590095 245.633058 310.590095 
C 245.476162 310.590095 245.32567 310.65243 245.214728 310.763373 
C 245.103785 310.874315 245.04145 311.024807 245.04145 311.181703 
C 245.04145 311.338599 245.103785 311.48909 245.214728 311.600033 
C 245.32567 311.710975 245.476162 311.773311 245.633058 311.773311 
z
" clip-path="url(#pe799b5b243)" style="fill: #1f78b4; stroke: #1f78b4"/>
    <path d="M 240.555372 282.989917 
C 240.712268 282.989917 240.862759 282.927581 240.973702 282.816639 
C 241.084644 282.705696 241.14698 282.555205 241.14698 282.398309 
C 241.14698 282.241412 241.084644 282.090921 240.973702 281.979979 
C 240.862759 281.869036 240.712268 281.806701 240.555372 281.806701 
C 240.398476 281.806701 240.247984 281.869036 240.137042 281.979979 
C 240.026099 282.090921 239.963764 282.241412 239.963764 282.398309 
C 239.963764 282.555205 240.026099 282.705696 240.137042 282.816639 
C 240.247984 282.927581 240.398476 282.989917 240.555372 282.989917 
z
" clip-path="url(#pe799b5b243)" style="fill: #1f78b4; stroke: #1f78b4"/>
    <path d="M 154.234711 309.559204 
C 154.391607 309.559204 154.542098 309.496868 154.653041 309.385926 
C 154.763983 309.274983 154.826319 309.124492 154.826319 308.967596 
C 154.826319 308.810699 154.763983 308.660208 154.653041 308.549266 
C 154.542098 308.438323 154.391607 308.375988 154.234711 308.375988 
C 154.077814 308.375988 153.927323 308.438323 153.816381 308.549266 
C 153.705438 308.660208 153.643103 308.810699 153.643103 308.967596 
C 153.643103 309.124492 153.705438 309.274983 153.816381 309.385926 
C 153.927323 309.496868 154.077814 309.559204 154.234711 309.559204 
z
" clip-path="url(#pe799b5b243)" style="fill: #1f78b4; stroke: #1f78b4"/>
    <path d="M 232.938843 256.42063 
C 233.095739 256.42063 233.246231 256.358294 233.357173 256.247352 
C 233.468115 256.136409 233.530451 255.985918 233.530451 255.829022 
C 233.530451 255.672125 233.468115 255.521634 233.357173 255.410692 
C 233.246231 255.299749 233.095739 255.237414 232.938843 255.237414 
C 232.781947 255.237414 232.631455 255.299749 232.520513 255.410692 
C 232.409571 255.521634 232.347235 255.672125 232.347235 255.829022 
C 232.347235 255.985918 232.409571 256.136409 232.520513 256.247352 
C 232.631455 256.358294 232.781947 256.42063 232.938843 256.42063 
z
" clip-path="url(#pe799b5b243)" style="fill: #1f78b4; stroke: #1f78b4"/>
    <path d="M 222.783471 227.637236 
C 222.940367 227.637236 223.090859 227.5749 223.201801 227.463958 
C 223.312744 227.353015 223.375079 227.202524 223.375079 227.045628 
C 223.375079 226.888731 223.312744 226.73824 223.201801 226.627298 
C 223.090859 226.516355 222.940367 226.45402 222.783471 226.45402 
C 222.626575 226.45402 222.476083 226.516355 222.365141 226.627298 
C 222.254199 226.73824 222.191863 226.888731 222.191863 227.045628 
C 222.191863 227.202524 222.254199 227.353015 222.365141 227.463958 
C 222.476083 227.5749 222.626575 227.637236 222.783471 227.637236 
z
" clip-path="url(#pe799b5b243)" style="fill: #1f78b4; stroke: #1f78b4"/>
    <path d="M 309.104132 254.206522 
C 309.261029 254.206522 309.41152 254.144187 309.522462 254.033244 
C 309.633405 253.922302 309.69574 253.771811 309.69574 253.614914 
C 309.69574 253.458018 309.633405 253.307527 309.522462 253.196584 
C 309.41152 253.085642 309.261029 253.023306 309.104132 253.023306 
C 308.947236 253.023306 308.796745 253.085642 308.685802 253.196584 
C 308.57486 253.307527 308.512524 253.458018 308.512524 253.614914 
C 308.512524 253.771811 308.57486 253.922302 308.685802 254.033244 
C 308.796745 254.144187 308.947236 254.206522 309.104132 254.206522 
z
" clip-path="url(#pe799b5b243)" style="fill: #1f78b4; stroke: #1f78b4"/>
    <path d="M 141.540496 108.075444 
C 141.697392 108.075444 141.847883 108.013109 141.958826 107.902166 
C 142.069768 107.791224 142.132104 107.640733 142.132104 107.483836 
C 142.132104 107.32694 142.069768 107.176449 141.958826 107.065506 
C 141.847883 106.954564 141.697392 106.892228 141.540496 106.892228 
C 141.3836 106.892228 141.233108 106.954564 141.122166 107.065506 
C 141.011223 107.176449 140.948888 107.32694 140.948888 107.483836 
C 140.948888 107.640733 141.011223 107.791224 141.122166 107.902166 
C 141.233108 108.013109 141.3836 108.075444 141.540496 108.075444 
z
" clip-path="url(#pe799b5b243)" style="fill: #1f78b4; stroke: #1f78b4"/>
    <path d="M 151.695868 145.715267 
C 151.852764 145.715267 152.003255 145.652932 152.114198 145.541989 
C 152.22514 145.431047 152.287476 145.280556 152.287476 145.123659 
C 152.287476 144.966763 152.22514 144.816272 152.114198 144.705329 
C 152.003255 144.594387 151.852764 144.532051 151.695868 144.532051 
C 151.538971 144.532051 151.38848 144.594387 151.277538 144.705329 
C 151.166595 144.816272 151.10426 144.966763 151.10426 145.123659 
C 151.10426 145.280556 151.166595 145.431047 151.277538 145.541989 
C 151.38848 145.652932 151.538971 145.715267 151.695868 145.715267 
z
" clip-path="url(#pe799b5b243)" style="fill: #1f78b4; stroke: #1f78b4"/>
    <path d="M 45.064463 238.707772 
C 45.221359 238.707772 45.37185 238.645436 45.482793 238.534494 
C 45.593735 238.423551 45.656071 238.27306 45.656071 238.116164 
C 45.656071 237.959267 45.593735 237.808776 45.482793 237.697834 
C 45.37185 237.586891 45.221359 237.524556 45.064463 237.524556 
C 44.907567 237.524556 44.757075 237.586891 44.646133 237.697834 
C 44.53519 237.808776 44.472855 237.959267 44.472855 238.116164 
C 44.472855 238.27306 44.53519 238.423551 44.646133 238.534494 
C 44.757075 238.645436 44.907567 238.707772 45.064463 238.707772 
z
" clip-path="url(#pe799b5b243)" style="fill: #1f78b4; stroke: #1f78b4"/>
    <path d="M 154.234711 216.566699 
C 154.391607 216.566699 154.542098 216.504364 154.653041 216.393421 
C 154.763983 216.282479 154.826319 216.131988 154.826319 215.975091 
C 154.826319 215.818195 154.763983 215.667704 154.653041 215.556761 
C 154.542098 215.445819 154.391607 215.383483 154.234711 215.383483 
C 154.077814 215.383483 153.927323 215.445819 153.816381 215.556761 
C 153.705438 215.667704 153.643103 215.818195 153.643103 215.975091 
C 153.643103 216.131988 153.705438 216.282479 153.816381 216.393421 
C 153.927323 216.504364 154.077814 216.566699 154.234711 216.566699 
z
" clip-path="url(#pe799b5b243)" style="fill: #1f78b4; stroke: #1f78b4"/>
    <path d="M 184.700826 209.924378 
C 184.857723 209.924378 185.008214 209.862042 185.119156 209.7511 
C 185.230099 209.640157 185.292434 209.489666 185.292434 209.33277 
C 185.292434 209.175873 185.230099 209.025382 185.119156 208.91444 
C 185.008214 208.803497 184.857723 208.741162 184.700826 208.741162 
C 184.54393 208.741162 184.393439 208.803497 184.282496 208.91444 
C 184.171554 209.025382 184.109218 209.175873 184.109218 209.33277 
C 184.109218 209.489666 184.171554 209.640157 184.282496 209.7511 
C 184.393439 209.862042 184.54393 209.924378 184.700826 209.924378 
z
" clip-path="url(#pe799b5b243)" style="fill: #1f78b4; stroke: #1f78b4"/>
    <path d="M 212.628099 205.496163 
C 212.784995 205.496163 212.935487 205.433827 213.046429 205.322885 
C 213.157372 205.211943 213.219707 205.061451 213.219707 204.904555 
C 213.219707 204.747659 213.157372 204.597167 213.046429 204.486225 
C 212.935487 204.375283 212.784995 204.312947 212.628099 204.312947 
C 212.471203 204.312947 212.320712 204.375283 212.209769 204.486225 
C 212.098827 204.597167 212.036491 204.747659 212.036491 204.904555 
C 212.036491 205.061451 212.098827 205.211943 212.209769 205.322885 
C 212.320712 205.433827 212.471203 205.496163 212.628099 205.496163 
z
" clip-path="url(#pe799b5b243)" style="fill: #1f78b4; stroke: #1f78b4"/>
    <path d="M 85.68595 229.851343 
C 85.842847 229.851343 85.993338 229.789007 86.10428 229.678065 
C 86.215223 229.567122 86.277558 229.416631 86.277558 229.259735 
C 86.277558 229.102838 86.215223 228.952347 86.10428 228.841405 
C 85.993338 228.730462 85.842847 228.668127 85.68595 228.668127 
C 85.529054 228.668127 85.378563 228.730462 85.26762 228.841405 
C 85.156678 228.952347 85.094342 229.102838 85.094342 229.259735 
C 85.094342 229.416631 85.156678 229.567122 85.26762 229.678065 
C 85.378563 229.789007 85.529054 229.851343 85.68595 229.851343 
z
" clip-path="url(#pe799b5b243)" style="fill: #1f78b4; stroke: #1f78b4"/>
    <path d="M 39.986777 285.204024 
C 40.143673 285.204024 40.294164 285.141688 40.405107 285.030746 
C 40.516049 284.919804 40.578385 284.769312 40.578385 284.612416 
C 40.578385 284.45552 40.516049 284.305028 40.405107 284.194086 
C 40.294164 284.083143 40.143673 284.020808 39.986777 284.020808 
C 39.829881 284.020808 39.679389 284.083143 39.568447 284.194086 
C 39.457504 284.305028 39.395169 284.45552 39.395169 284.612416 
C 39.395169 284.769312 39.457504 284.919804 39.568447 285.030746 
C 39.679389 285.141688 39.829881 285.204024 39.986777 285.204024 
z
" clip-path="url(#pe799b5b243)" style="fill: #1f78b4; stroke: #1f78b4"/>
    <path d="M 123.768595 220.994914 
C 123.925491 220.994914 124.075983 220.932578 124.186925 220.821636 
C 124.297867 220.710693 124.360203 220.560202 124.360203 220.403306 
C 124.360203 220.24641 124.297867 220.095918 124.186925 219.984976 
C 124.075983 219.874033 123.925491 219.811698 123.768595 219.811698 
C 123.611699 219.811698 123.461207 219.874033 123.350265 219.984976 
C 123.239323 220.095918 123.176987 220.24641 123.176987 220.403306 
C 123.176987 220.560202 123.239323 220.710693 123.350265 220.821636 
C 123.461207 220.932578 123.611699 220.994914 123.768595 220.994914 
z
" clip-path="url(#pe799b5b243)" style="fill: #1f78b4; stroke: #1f78b4"/>
    <path d="M 121.229752 307.345096 
C 121.386648 307.345096 121.53714 307.282761 121.648082 307.171818 
C 121.759024 307.060876 121.82136 306.910385 121.82136 306.753488 
C 121.82136 306.596592 121.759024 306.446101 121.648082 306.335158 
C 121.53714 306.224216 121.386648 306.16188 121.229752 306.16188 
C 121.072856 306.16188 120.922364 306.224216 120.811422 306.335158 
C 120.70048 306.446101 120.638144 306.596592 120.638144 306.753488 
C 120.638144 306.910385 120.70048 307.060876 120.811422 307.171818 
C 120.922364 307.282761 121.072856 307.345096 121.229752 307.345096 
z
" clip-path="url(#pe799b5b243)" style="fill: #1f78b4; stroke: #1f78b4"/>
    <path d="M 85.68595 316.201525 
C 85.842847 316.201525 85.993338 316.13919 86.10428 316.028247 
C 86.215223 315.917305 86.277558 315.766814 86.277558 315.609917 
C 86.277558 315.453021 86.215223 315.30253 86.10428 315.191587 
C 85.993338 315.080645 85.842847 315.018309 85.68595 315.018309 
C 85.529054 315.018309 85.378563 315.080645 85.26762 315.191587 
C 85.156678 315.30253 85.094342 315.453021 85.094342 315.609917 
C 85.094342 315.766814 85.156678 315.917305 85.26762 316.028247 
C 85.378563 316.13919 85.529054 316.201525 85.68595 316.201525 
z
" clip-path="url(#pe799b5b243)" style="fill: #1f78b4; stroke: #1f78b4"/>
    <path d="M 159.312397 251.992415 
C 159.469293 251.992415 159.619784 251.93008 159.730727 251.819137 
C 159.841669 251.708195 159.904005 251.557703 159.904005 251.400807 
C 159.904005 251.243911 159.841669 251.09342 159.730727 250.982477 
C 159.619784 250.871535 159.469293 250.809199 159.312397 250.809199 
C 159.1555 250.809199 159.005009 250.871535 158.894067 250.982477 
C 158.783124 251.09342 158.720789 251.243911 158.720789 251.400807 
C 158.720789 251.557703 158.783124 251.708195 158.894067 251.819137 
C 159.005009 251.93008 159.1555 251.992415 159.312397 251.992415 
z
" clip-path="url(#pe799b5b243)" style="fill: #1f78b4; stroke: #1f78b4"/>
    <path d="M 164.390083 289.632238 
C 164.546979 289.632238 164.69747 289.569903 164.808413 289.45896 
C 164.919355 289.348018 164.981691 289.197527 164.981691 289.04063 
C 164.981691 288.883734 164.919355 288.733243 164.808413 288.6223 
C 164.69747 288.511358 164.546979 288.449022 164.390083 288.449022 
C 164.233186 288.449022 164.082695 288.511358 163.971753 288.6223 
C 163.86081 288.733243 163.798475 288.883734 163.798475 289.04063 
C 163.798475 289.197527 163.86081 289.348018 163.971753 289.45896 
C 164.082695 289.569903 164.233186 289.632238 164.390083 289.632238 
z
" clip-path="url(#pe799b5b243)" style="fill: #1f78b4; stroke: #1f78b4"/>
    <path d="M 207.550413 229.851343 
C 207.707309 229.851343 207.857801 229.789007 207.968743 229.678065 
C 208.079686 229.567122 208.142021 229.416631 208.142021 229.259735 
C 208.142021 229.102838 208.079686 228.952347 207.968743 228.841405 
C 207.857801 228.730462 207.707309 228.668127 207.550413 228.668127 
C 207.393517 228.668127 207.243026 228.730462 207.132083 228.841405 
C 207.021141 228.952347 206.958805 229.102838 206.958805 229.259735 
C 206.958805 229.416631 207.021141 229.567122 207.132083 229.678065 
C 207.243026 229.789007 207.393517 229.851343 207.550413 229.851343 
z
" clip-path="url(#pe799b5b243)" style="fill: #1f78b4; stroke: #1f78b4"/>
    <path d="M 85.68595 282.989917 
C 85.842847 282.989917 85.993338 282.927581 86.10428 282.816639 
C 86.215223 282.705696 86.277558 282.555205 86.277558 282.398309 
C 86.277558 282.241412 86.215223 282.090921 86.10428 281.979979 
C 85.993338 281.869036 85.842847 281.806701 85.68595 281.806701 
C 85.529054 281.806701 85.378563 281.869036 85.26762 281.979979 
C 85.156678 282.090921 85.094342 282.241412 85.094342 282.398309 
C 85.094342 282.555205 85.156678 282.705696 85.26762 282.816639 
C 85.378563 282.927581 85.529054 282.989917 85.68595 282.989917 
z
" clip-path="url(#pe799b5b243)" style="fill: #1f78b4; stroke: #1f78b4"/>
    <path d="M 263.404959 81.506157 
C 263.561855 81.506157 263.712346 81.443822 263.823289 81.332879 
C 263.934231 81.221937 263.996567 81.071446 263.996567 80.914549 
C 263.996567 80.757653 263.934231 80.607162 263.823289 80.496219 
C 263.712346 80.385277 263.561855 80.322941 263.404959 80.322941 
C 263.248062 80.322941 263.097571 80.385277 262.986629 80.496219 
C 262.875686 80.607162 262.813351 80.757653 262.813351 80.914549 
C 262.813351 81.071446 262.875686 81.221937 262.986629 81.332879 
C 263.097571 81.443822 263.248062 81.506157 263.404959 81.506157 
z
" clip-path="url(#pe799b5b243)" style="fill: #1f78b4; stroke: #1f78b4"/>
    <path d="M 304.026446 227.637236 
C 304.183343 227.637236 304.333834 227.5749 304.444776 227.463958 
C 304.555719 227.353015 304.618054 227.202524 304.618054 227.045628 
C 304.618054 226.888731 304.555719 226.73824 304.444776 226.627298 
C 304.333834 226.516355 304.183343 226.45402 304.026446 226.45402 
C 303.86955 226.45402 303.719059 226.516355 303.608116 226.627298 
C 303.497174 226.73824 303.434838 226.888731 303.434838 227.045628 
C 303.434838 227.202524 303.497174 227.353015 303.608116 227.463958 
C 303.719059 227.5749 303.86955 227.637236 304.026446 227.637236 
z
" clip-path="url(#pe799b5b243)" style="fill: #1f78b4; stroke: #1f78b4"/>
    <path d="M 296.409917 218.780807 
C 296.566814 218.780807 296.717305 218.718471 296.828247 218.607529 
C 296.93919 218.496586 297.001525 218.346095 297.001525 218.189199 
C 297.001525 218.032302 296.93919 217.881811 296.828247 217.770869 
C 296.717305 217.659926 296.566814 217.597591 296.409917 217.597591 
C 296.253021 217.597591 296.10253 217.659926 295.991587 217.770869 
C 295.880645 217.881811 295.818309 218.032302 295.818309 218.189199 
C 295.818309 218.346095 295.880645 218.496586 295.991587 218.607529 
C 296.10253 218.718471 296.253021 218.780807 296.409917 218.780807 
z
" clip-path="url(#pe799b5b243)" style="fill: #1f78b4; stroke: #1f78b4"/>
    <path d="M 210.089256 285.204024 
C 210.246152 285.204024 210.396644 285.141688 210.507586 285.030746 
C 210.618529 284.919804 210.680864 284.769312 210.680864 284.612416 
C 210.680864 284.45552 210.618529 284.305028 210.507586 284.194086 
C 210.396644 284.083143 210.246152 284.020808 210.089256 284.020808 
C 209.93236 284.020808 209.781869 284.083143 209.670926 284.194086 
C 209.559984 284.305028 209.497648 284.45552 209.497648 284.612416 
C 209.497648 284.769312 209.559984 284.919804 209.670926 285.030746 
C 209.781869 285.141688 209.93236 285.204024 210.089256 285.204024 
z
" clip-path="url(#pe799b5b243)" style="fill: #1f78b4; stroke: #1f78b4"/>
    <path d="M 227.861157 205.496163 
C 228.018053 205.496163 228.168545 205.433827 228.279487 205.322885 
C 228.390429 205.211943 228.452765 205.061451 228.452765 204.904555 
C 228.452765 204.747659 228.390429 204.597167 228.279487 204.486225 
C 228.168545 204.375283 228.018053 204.312947 227.861157 204.312947 
C 227.704261 204.312947 227.553769 204.375283 227.442827 204.486225 
C 227.331885 204.597167 227.269549 204.747659 227.269549 204.904555 
C 227.269549 205.061451 227.331885 205.211943 227.442827 205.322885 
C 227.553769 205.433827 227.704261 205.496163 227.861157 205.496163 
z
" clip-path="url(#pe799b5b243)" style="fill: #1f78b4; stroke: #1f78b4"/>
   </g>
  </g>
 </g>
 <defs>
  <clipPath id="pe799b5b243">
   <rect x="0" y="0" width="460.8" height="345.6"/>
  </clipPath>
 </defs>
</svg>
